<?xml version="1.0" encoding="UTF-8" standalone="no"?><svg xmlns="http://www.w3.org/2000/svg" xmlns:xlink="http://www.w3.org/1999/xlink" contentStyleType="text/css" height="161px" preserveAspectRatio="none" style="width:344px;height:161px;background:#FFFFFF;" version="1.1" viewBox="0 0 344 161" width="344px" zoomAndPan="magnify"><defs/><g><text fill="#000000" font-family="Serif" font-size="10" lengthAdjust="spacing" textLength="12" x="5" y="25.2822">36</text><text fill="#000000" font-family="Serif" font-size="10" lengthAdjust="spacing" textLength="12" x="33" y="25.2822">37</text><text fill="#000000" font-family="Serif" font-size="10" lengthAdjust="spacing" textLength="12" x="61" y="25.2822">38</text><text fill="#000000" font-family="Serif" font-size="10" lengthAdjust="spacing" textLength="12" x="89" y="25.2822">39</text><text fill="#000000" font-family="Serif" font-size="10" lengthAdjust="spacing" textLength="12" x="117" y="25.2822">40</text><text fill="#000000" font-family="Serif" font-size="10" lengthAdjust="spacing" textLength="12" x="145" y="25.2822">41</text><text fill="#000000" font-family="Serif" font-size="10" lengthAdjust="spacing" textLength="12" x="173" y="25.2822">42</text><text fill="#000000" font-family="Serif" font-size="10" lengthAdjust="spacing" textLength="12" x="201" y="25.2822">43</text><text fill="#000000" font-family="Serif" font-size="10" lengthAdjust="spacing" textLength="12" x="229" y="25.2822">44</text><text fill="#000000" font-family="Serif" font-size="10" lengthAdjust="spacing" textLength="12" x="257" y="25.2822">45</text><line style="stroke:#C0C0C0;stroke-width:1.0;" x1="0" x2="0" y1="16" y2="143.0234"/><line style="stroke:#C0C0C0;stroke-width:1.0;" x1="28" x2="28" y1="16" y2="143.0234"/><line style="stroke:#C0C0C0;stroke-width:1.0;" x1="56" x2="56" y1="16" y2="143.0234"/><line style="stroke:#C0C0C0;stroke-width:1.0;" x1="84" x2="84" y1="16" y2="143.0234"/><line style="stroke:#C0C0C0;stroke-width:1.0;" x1="112" x2="112" y1="16" y2="143.0234"/><line style="stroke:#C0C0C0;stroke-width:1.0;" x1="140" x2="140" y1="16" y2="143.0234"/><line style="stroke:#C0C0C0;stroke-width:1.0;" x1="168" x2="168" y1="16" y2="143.0234"/><line style="stroke:#C0C0C0;stroke-width:1.0;" x1="196" x2="196" y1="16" y2="143.0234"/><line style="stroke:#C0C0C0;stroke-width:1.0;" x1="224" x2="224" y1="16" y2="143.0234"/><line style="stroke:#C0C0C0;stroke-width:1.0;" x1="252" x2="252" y1="16" y2="143.0234"/><line style="stroke:#C0C0C0;stroke-width:1.0;" x1="264" x2="264" y1="16" y2="143.0234"/><line style="stroke:#C0C0C0;stroke-width:1.0;" x1="0" x2="0" y1="0" y2="16"/><line style="stroke:#C0C0C0;stroke-width:1.0;" x1="100" x2="100" y1="0" y2="16"/><text fill="#000000" font-family="Serif" font-size="12" font-weight="bold" lengthAdjust="spacing" textLength="61" x="19.5" y="11.2676">Sep 2021</text><line style="stroke:#C0C0C0;stroke-width:1.0;" x1="224" x2="224" y1="0" y2="16"/><text fill="#000000" font-family="Serif" font-size="12" font-weight="bold" lengthAdjust="spacing" textLength="59" x="132.5" y="11.2676">Oct 2021</text><line style="stroke:#C0C0C0;stroke-width:1.0;" x1="264" x2="264" y1="0" y2="16"/><text fill="#000000" font-family="Serif" font-size="12" font-weight="bold" lengthAdjust="spacing" textLength="26" x="231" y="11.2676">Nov</text><line style="stroke:#C0C0C0;stroke-width:1.0;" x1="0" x2="264" y1="0" y2="0"/><line style="stroke:#C0C0C0;stroke-width:1.0;" x1="0" x2="264" y1="16" y2="16"/><line style="stroke:#C0C0C0;stroke-width:1.0;" x1="0" x2="264" y1="29" y2="29"/><line style="stroke:#181818;stroke-width:1.5;" x1="103" x2="103" y1="76.6094" y2="87.0117"/><line style="stroke:#181818;stroke-width:1.5;" x1="103" x2="111" y1="87.0117" y2="87.0117"/><polygon fill="#181818" points="107,83.0117,107,87.0117,107,91.0117,111,87.0117" style="stroke:#181818;stroke-width:1.5;"/><line style="stroke:#181818;stroke-width:1.5;" x1="131" x2="131" y1="93.4141" y2="103.8164"/><line style="stroke:#181818;stroke-width:1.5;" x1="131" x2="139" y1="103.8164" y2="103.8164"/><polygon fill="#181818" points="135,99.8164,135,103.8164,135,107.8164,139,103.8164" style="stroke:#181818;stroke-width:1.5;"/><line style="stroke:#181818;stroke-width:1.5;" x1="187" x2="187" y1="110.2188" y2="120.6211"/><line style="stroke:#181818;stroke-width:1.5;" x1="187" x2="195" y1="120.6211" y2="120.6211"/><polygon fill="#181818" points="191,116.6211,191,120.6211,191,124.6211,195,120.6211" style="stroke:#181818;stroke-width:1.5;"/><line style="stroke:#181818;stroke-width:1.0;" x1="0" x2="5" y1="45.4023" y2="45.4023"/><line style="stroke:#181818;stroke-width:1.0;" x1="74" x2="263" y1="45.4023" y2="45.4023"/><rect fill="#E2E2F0" height="12.8047" style="stroke:none;stroke-width:1.0;" width="52" x="58" y="63.8047"/><line style="stroke:#181818;stroke-width:1.0;" x1="58" x2="110" y1="63.8047" y2="63.8047"/><line style="stroke:#181818;stroke-width:1.0;" x1="58" x2="110" y1="76.6094" y2="76.6094"/><line style="stroke:#181818;stroke-width:1.0;" x1="58" x2="58" y1="63.8047" y2="76.6094"/><line style="stroke:#181818;stroke-width:1.0;" x1="110" x2="110" y1="63.8047" y2="76.6094"/><rect fill="#E2E2F0" height="12.8047" style="stroke:none;stroke-width:1.0;" width="24" x="114" y="80.6094"/><line style="stroke:#181818;stroke-width:1.0;" x1="114" x2="138" y1="80.6094" y2="80.6094"/><line style="stroke:#181818;stroke-width:1.0;" x1="114" x2="138" y1="93.4141" y2="93.4141"/><line style="stroke:#181818;stroke-width:1.0;" x1="114" x2="114" y1="80.6094" y2="93.4141"/><line style="stroke:#181818;stroke-width:1.0;" x1="138" x2="138" y1="80.6094" y2="93.4141"/><rect fill="#E2E2F0" height="12.8047" style="stroke:none;stroke-width:1.0;" width="52" x="142" y="97.4141"/><line style="stroke:#181818;stroke-width:1.0;" x1="142" x2="194" y1="97.4141" y2="97.4141"/><line style="stroke:#181818;stroke-width:1.0;" x1="142" x2="194" y1="110.2188" y2="110.2188"/><line style="stroke:#181818;stroke-width:1.0;" x1="142" x2="142" y1="97.4141" y2="110.2188"/><line style="stroke:#181818;stroke-width:1.0;" x1="194" x2="194" y1="97.4141" y2="110.2188"/><rect fill="#E2E2F0" height="12.8047" style="stroke:none;stroke-width:1.0;" width="52" x="198" y="114.2188"/><line style="stroke:#181818;stroke-width:1.0;" x1="198" x2="250" y1="114.2188" y2="114.2188"/><line style="stroke:#181818;stroke-width:1.0;" x1="198" x2="250" y1="127.0234" y2="127.0234"/><line style="stroke:#181818;stroke-width:1.0;" x1="198" x2="198" y1="114.2188" y2="127.0234"/><line style="stroke:#181818;stroke-width:1.0;" x1="250" x2="250" y1="114.2188" y2="127.0234"/><polygon fill="#000000" points="262,131.0234,267,136.0234,262,141.0234,257,136.0234" style="stroke:#000000;stroke-width:1.0;"/><text fill="#000000" font-family="sans-serif" font-size="11" lengthAdjust="spacing" textLength="59" x="10" y="49.2104">SAE S1.05</text><text fill="#000000" font-family="sans-serif" font-size="11" lengthAdjust="spacing" textLength="73" x="114" y="74.0151">Organisation</text><text fill="#000000" font-family="sans-serif" font-size="11" lengthAdjust="spacing" textLength="40" x="142" y="90.8198">Recueil</text><text fill="#000000" font-family="sans-serif" font-size="11" lengthAdjust="spacing" textLength="53" x="198" y="107.6245">Synthèse</text><text fill="#000000" font-family="sans-serif" font-size="11" lengthAdjust="spacing" textLength="55" x="254" y="124.4292">Rédaction</text><text fill="#000000" font-family="sans-serif" font-size="11" lengthAdjust="spacing" textLength="72" x="270" y="139.8315">Présentation</text><line style="stroke:#C0C0C0;stroke-width:1.0;" x1="0" x2="264" y1="143.0234" y2="143.0234"/><line style="stroke:#C0C0C0;stroke-width:1.0;" x1="0" x2="0" y1="143.0234" y2="159.0234"/><line style="stroke:#C0C0C0;stroke-width:1.0;" x1="100" x2="100" y1="143.0234" y2="159.0234"/><text fill="#000000" font-family="Serif" font-size="12" font-weight="bold" lengthAdjust="spacing" textLength="61" x="19.5" y="154.291">Sep 2021</text><line style="stroke:#C0C0C0;stroke-width:1.0;" x1="224" x2="224" y1="143.0234" y2="159.0234"/><text fill="#000000" font-family="Serif" font-size="12" font-weight="bold" lengthAdjust="spacing" textLength="59" x="132.5" y="154.291">Oct 2021</text><line style="stroke:#C0C0C0;stroke-width:1.0;" x1="264" x2="264" y1="143.0234" y2="159.0234"/><text fill="#000000" font-family="Serif" font-size="12" font-weight="bold" lengthAdjust="spacing" textLength="26" x="231" y="154.291">Nov</text><line style="stroke:#C0C0C0;stroke-width:1.0;" x1="0" x2="264" y1="159.0234" y2="159.0234"/><!--MD5=[9462f233bc100d9cdab6369152aaad1a]
@startgantt

printscale weekly

Project starts the 6th of September 2021


- - SAE S1.05 - -

[Organisation] starts the 20th of September 2021

[Organisation] lasts 2 weeks
then [Recueil] lasts 1 week
then [Synthèse] lasts 2 weeks
then [Rédaction] lasts 2 weeks

'[Présentation] happens at [Rédaction]'s end
[Présentation] happens the 10 November 2021

@endgantt

@startgantt

printscale weekly

Project starts the 6th of September 2021


- - SAE S1.05 - -

[Organisation] starts the 20th of September 2021

[Organisation] lasts 2 weeks
then [Recueil] lasts 1 week
then [Synthèse] lasts 2 weeks
then [Rédaction] lasts 2 weeks

[Présentation] happens the 10 November 2021

@endgantt

PlantUML version 1.2022.12(Sun Oct 23 18:12:26 GMT 2022)
(GPL source distribution)
Java Runtime: OpenJDK Runtime Environment
JVM: OpenJDK 64-Bit Server VM
Default Encoding: UTF-8
Language: en
Country: US
--></g></svg>