<svg width="184.000000pt" height="64.000000pt" viewBox="0 0 184.000000 64.000000" xmlns="http://www.w3.org/2000/svg">
  <g transform="translate(0.000000,64.000000) scale(0.100000,-0.100000)" fill="#fdfdfc" stroke="none">
    <path d="M918 623 l-918 -3 0 -310 0 -310 920 0 920 0 0 315 c0 173 -1 314 -2
313 -2 -2 -416 -4 -920 -5z m-241 -93 c3 -11 13 -20 22 -20 9 0 22 9 29 20 18
29 32 25 32 -10 l0 -30 20 0 c11 0 20 5 20 10 0 14 36 12 60 -2 l21 -13 8 14
9 14 31 -6 c17 -4 51 -4 75 -1 l44 6 5 19 c7 25 27 24 27 -1 l0 -20 48 -1 c26
0 130 -1 231 -3 l183 -2 9 23 c11 30 15 29 32 -7 l15 -30 -10 -6 c-9 -6 -8
-45 3 -84 l4 -15 -15 4 c-33 9 -110 8 -116 0 -3 -5 -10 -7 -15 -4 -5 4 -18 3
-29 0 l-20 -6 0 -21 0 -20 34 6 34 7 7 -10 6 -10 76 5 c42 2 80 7 85 10 5 3
17 -1 27 -10 l17 -16 -2 -42 -2 -42 -17 -12 -18 -13 -17 9 -17 9 -54 -6 c-30
-3 -57 -11 -61 -17 l-7 -11 -31 18 -30 18 -46 -7 -46 -7 -9 14 c-5 8 -9 26 -9
42 l0 27 -15 0 -15 0 0 -29 c0 -16 -7 -37 -16 -46 l-17 -16 -16 7 c-9 4 -28 7
-43 7 l-28 0 0 43 0 44 -15 0 -15 0 0 -45 0 -45 -15 0 -15 0 0 45 0 45 -15 0
-15 0 0 -45 0 -45 -10 0 -10 0 0 51 0 50 -17 -3 -18 -3 -3 -48 -3 -47 -23 6
-24 6 -6 -11 c-11 -18 -45 -13 -58 9 -14 23 -36 26 -43 8 l-5 -13 -85 -2 -85
-2 0 86 0 85 -34 -6 -34 -7 -16 16 -16 16 0 34 0 35 25 16 c13 9 27 24 30 35
8 25 25 24 32 -1z m-180 -36 l6 -16 -16 -10 -17 -9 0 -43 0 -43 43 -12 c45
-14 87 -46 87 -68 0 -7 11 -18 25 -23 52 -20 2 -50 -82 -50 l-44 0 -15 -15
-15 -15 -44 0 -44 0 -18 18 -18 19 -83 12 c-90 13 -141 31 -162 56 l-14 17 10
16 c6 9 33 24 60 33 l49 17 3 54 c1 29 5 59 7 66 l4 12 136 0 136 0 6 -16z
m496 -355 l-6 -39 17 0 16 0 10 25 c5 14 13 25 17 26 5 0 71 2 148 3 l140 1
17 -9 17 -10 26 12 c27 12 45 9 45 -9 0 -5 -7 -9 -15 -9 -8 0 -15 -7 -15 -15
0 -8 5 -15 10 -15 6 0 10 -6 10 -13 l0 -14 -126 -2 -126 -1 -15 -15 c-19 -19
-50 -19 -61 0 l-8 16 -65 1 c-35 1 -70 6 -77 11 l-13 10 -23 -12 c-13 -7 -34
-11 -47 -9 l-24 3 3 20 c2 11 6 35 9 54 l5 33 42 -5 c23 -3 48 -2 55 3 8 4 20
6 27 3 l12 -4 -5 -40z" />
    <path d="M1005 458 c-2 -13 -6 -34 -7 -47 l-3 -23 -45 -4 c-58 -5 -70 -10 -70
-29 l0 -15 38 0 c20 0 48 0 62 -1 14 0 63 0 110 0 47 0 99 0 115 1 17 0 48 1
70 2 l40 3 -1 23 c0 12 -1 40 -2 62 l-2 40 -15 0 -15 0 0 -40 0 -40 -10 0 c-5
0 -10 5 -10 10 0 14 -30 12 -35 -2 l-5 -13 -68 -3 c-81 -3 -92 3 -99 57 l-6
41 -18 0 -19 0 -5 -22z" />
    <path d="M810 455 c0 -8 7 -15 15 -15 8 0 15 7 15 15 0 8 -7 15 -15 15 -8 0
-15 -7 -15 -15z" />
    <path d="M733 380 c-13 -5 -23 -16 -23 -25 l0 -15 19 0 c33 0 51 11 51 31 0
21 -12 23 -47 9z" />
    <path d="M380 425 l0 -35 15 0 15 0 0 35 0 35 -15 0 -15 0 0 -35z" />
    <path d="M380 335 l0 -15 20 0 20 0 0 15 0 15 -20 0 -20 0 0 -15z" />
  </g>
  <g transform="translate(0.000000,64.000000) scale(0.100000,-0.100000)" fill="#f5f5f2" stroke="none">
    <path d="M635 541 c-3 -11 -17 -26 -30 -35 l-25 -16 0 -45 0 -44 16 -15 c8 -9
20 -16 25 -16 15 0 10 17 -6 24 l-15 5 0 36 0 36 34 34 34 34 6 -25 c8 -32 29
-31 55 4 l20 27 1 -27 0 -28 13 0 13 0 -4 35 -4 35 -19 0 c-10 0 -24 -9 -31
-20 -7 -11 -16 -20 -19 -20 -4 0 -9 9 -12 20 l-5 20 -20 0 -21 0 -6 -19z" />
    <path d="M1043 540 l-5 -20 -32 -2 c-17 -1 -41 -1 -53 0 -24 1 -31 -12 -13
-23 6 -4 34 -4 62 0 l50 7 5 19 c3 10 12 19 19 19 8 0 14 5 14 10 0 6 -9 10
-21 10 l-21 0 -5 -20z" />
    <path d="M1540 536 l-9 -24 -20 5 -21 5 0 -10 c0 -5 7 -12 15 -16 l15 -5 0
-51 0 -50 -10 0 -10 0 0 45 0 45 -14 0 -15 0 -3 -42 -3 -43 -17 3 c-10 2 -27
-2 -38 -8 l-20 -11 0 -25 0 -26 36 6 36 7 14 -12 c16 -13 44 -6 44 12 l0 11
-15 -5 c-8 -4 -17 -1 -21 5 l-7 10 -33 -5 -34 -6 0 10 c0 9 13 12 42 10 9 -1
19 3 23 9 l7 11 13 -11 14 -12 18 10 17 10 19 -10 c40 -21 61 11 31 48 l-15
19 6 -27 5 -28 -9 0 c-27 0 -46 119 -24 141 l11 11 7 -13 c5 -6 8 -25 7 -42
l-1 -30 16 16 16 16 -17 35 c-20 42 -43 46 -56 12z" />
    <path d="M1768 548 l12 -12 12 12 12 12 -24 0 -24 0 12 -12z" />
    <path d="M250 520 l-45 -5 -3 -17 c-2 -10 1 -18 7 -18 6 0 11 5 11 10 l0 10
45 0 45 0 0 -40 0 -40 15 0 15 0 0 40 0 40 75 0 75 0 0 -15 c0 -8 -7 -15 -15
-15 l-15 0 0 -49 0 -49 65 -23 64 -22 6 -29 7 -28 13 0 c20 0 30 -21 14 -31
-8 -5 -39 -9 -70 -9 l-56 0 -23 -20 c-13 -11 -21 -22 -18 -25 7 -8 38 5 38 16
0 5 22 9 49 9 101 0 154 44 85 70 -13 5 -24 16 -24 23 0 22 -42 54 -87 68
l-43 12 0 33 0 33 16 9 16 9 -4 24 -3 24 -105 5 c-58 3 -125 3 -150 0z" />
    <path d="M1080 513 l0 -13 30 0 c17 0 30 4 30 9 0 5 -13 11 -30 13 l-30 5 0
-14z" />
    <path d="M790 510 c0 -5 7 -10 15 -10 8 0 15 5 15 10 0 6 -7 10 -15 10 -8 0
-15 -4 -15 -10z" />
    <path d="M830 512 c0 -5 11 -14 24 -21 l23 -13 22 13 c26 17 27 29 1 29 -11 0
-20 -5 -20 -12 l0 -12 -12 12 c-14 14 -38 16 -38 4z" />
    <path d="M1150 510 c0 -14 36 -21 64 -14 41 10 30 22 -19 22 -25 0 -45 -3 -45
-8z" />
    <path d="M1250 510 c0 -5 7 -10 15 -10 8 0 15 5 15 10 0 6 -7 10 -15 10 -8 0
-15 -4 -15 -10z" />
    <path d="M1300 509 c0 -12 40 -21 66 -15 39 10 28 23 -21 23 -25 0 -45 -4 -45
-8z" />
    <path d="M1400 509 c0 -12 38 -21 60 -14 33 11 23 22 -20 22 -22 0 -40 -3 -40
-8z" />
    <path d="M1007 484 c-4 -4 -7 -17 -7 -28 l1 -21 13 18 c19 25 23 22 29 -24 3
-23 11 -46 19 -50 18 -12 78 -11 78 1 0 10 -9 13 -50 14 l-25 1 -5 45 -5 45
-20 3 c-12 2 -24 0 -28 -4z" />
    <path d="M810 450 l0 -30 15 0 15 0 0 30 0 30 -15 0 -15 0 0 -30z" />
    <path d="M1080 445 l0 -35 15 0 15 0 0 35 0 35 -15 0 -15 0 0 -35z" />
    <path d="M1220 434 l0 -45 -19 6 c-20 6 -51 -3 -51 -15 0 -4 18 -7 39 -7 l40
0 6 15 6 15 13 -18 13 -18 11 7 c17 11 15 29 -3 22 l-15 -5 0 44 0 45 -20 0
-20 0 0 -46z" />
    <path d="M1280 467 c0 -8 7 -14 15 -14 8 0 15 6 15 14 0 7 -7 13 -15 13 -8 0
-15 -6 -15 -13z" />
    <path d="M370 441 c0 -42 10 -61 31 -61 l19 0 0 45 0 45 -25 0 -25 0 0 -29z" />
    <path d="M620 440 l0 -30 15 0 15 0 0 30 0 30 -15 0 -15 0 0 -30z" />
    <path d="M870 455 c0 -8 7 -15 15 -15 8 0 15 7 15 15 0 8 -7 15 -15 15 -8 0
-15 -7 -15 -15z" />
    <path d="M738 443 c-10 -2 -18 -11 -18 -20 l0 -15 23 6 c12 3 28 6 35 6 6 0
12 7 12 15 l0 15 -17 -1 c-10 -1 -26 -3 -35 -6z" />
    <path d="M1158 443 c-10 -2 -18 -11 -18 -20 l0 -15 23 6 c12 3 25 6 30 6 4 0
7 7 7 15 0 15 -9 17 -42 8z" />
    <path d="M1410 435 c0 -8 7 -15 15 -15 8 0 15 7 15 15 0 8 -7 15 -15 15 -8 0
-15 -7 -15 -15z" />
    <path d="M658 396 c-24 -18 -23 -29 2 -21 l20 6 0 -10 c0 -6 5 -11 10 -11 6 0
10 11 10 25 l0 25 -12 0 c-7 0 -21 -7 -30 -14z" />
    <path d="M1000 400 l0 -12 -16 6 c-19 7 -54 -1 -54 -14 0 -13 68 -9 80 5 l11
13 -11 7 c-5 3 -10 1 -10 -5z" />
    <path d="M195 392 c-6 -4 -28 -14 -50 -21 -94 -32 -89 -90 10 -121 22 -7 48
-16 57 -21 l17 -9 7 11 c7 13 12 10 -60 34 -33 11 -64 28 -70 38 l-11 18 20
15 c11 8 36 19 57 25 l38 10 0 14 c0 17 -2 18 -15 7z" />
    <path d="M738 388 l-28 -10 0 -24 0 -24 14 0 c8 0 26 4 40 10 l26 10 0 25 0
25 -12 -1 c-7 0 -25 -5 -40 -11z m22 -28 c-16 -11 -40 -13 -40 -5 0 8 44 24
50 18 2 -2 -2 -8 -10 -13z" />
    <path d="M1335 373 c8 -35 11 -37 30 -30 32 13 12 57 -27 57 l-10 0 7 -27z" />
    <path d="M809 368 c0 -7 -2 -45 -2 -84 l-2 -71 32 -1 31 -1 6 16 7 16 15 -21
15 -22 27 0 27 -1 -17 -9 -17 -10 -7 -45 -6 -45 -17 -9 c-9 -5 -12 -13 -8 -17
4 -5 16 -3 27 4 l19 12 6 -10 c14 -23 21 -6 19 50 l-1 60 13 0 14 0 0 -21 0
-20 10 6 c6 3 10 15 10 25 l0 19 -20 6 c-11 4 -18 11 -14 16 3 5 10 7 15 4 5
-4 9 1 9 9 0 19 -13 20 -40 4 l-20 -13 -18 11 -17 11 0 43 0 43 17 10 17 11
24 -13 25 -13 14 8 c7 5 45 10 83 11 l70 3 23 -12 22 -11 26 13 25 14 17 -10
c9 -6 19 -19 22 -30 3 -10 10 -20 17 -21 l11 -2 0 44 -1 44 -11 -7 c-10 -7
-68 -12 -111 -10 -11 0 -60 0 -110 0 -49 -1 -97 -1 -105 -1 -8 0 -32 1 -53 1
l-38 0 13 15 12 15 -19 -3 -20 -4 -6 -30 c-4 -17 -7 -49 -8 -72 0 -24 -5 -43
-11 -43 l-10 0 -2 48 c0 26 0 59 1 75 l2 27 -15 0 c-9 0 -16 -6 -17 -12z" />
    <path d="M370 340 l0 -20 30 0 30 0 0 14 c0 14 -21 26 -46 26 l-14 0 0 -20z" />
    <path d="M1608 353 c-16 -2 -28 -9 -28 -14 l0 -10 51 7 51 7 -4 -29 -3 -29
-22 -10 c-13 -5 -23 -16 -23 -23 l0 -14 28 7 27 6 -17 -17 -17 -18 -26 14 -26
14 -20 -13 -21 -12 -30 6 -30 7 -8 -12 -7 -12 -31 16 c-34 18 -62 21 -62 7 0
-5 -9 -7 -20 -4 l-20 5 0 -10 c0 -15 32 -20 51 -8 l16 9 36 -22 35 -21 16 16
17 16 14 -6 c9 -3 26 -1 40 4 l25 10 25 -12 24 -11 24 16 24 15 0 49 0 48 -15
18 c-15 17 -22 18 -74 10z" />
    <path d="M250 335 c0 -8 7 -15 15 -15 8 0 15 7 15 15 0 8 -7 15 -15 15 -8 0
-15 -7 -15 -15z" />
    <path d="M1532 295 l3 -50 18 -3 17 -3 0 53 0 54 -20 0 -21 0 3 -51z" />
    <path d="M130 320 l0 -20 15 0 15 0 0 20 0 20 -15 0 -15 0 0 -20z" />
    <path d="M750 275 l0 -45 -35 0 c-19 0 -35 -5 -35 -10 l0 -11 56 2 56 2 -6 21
c-3 12 -6 36 -6 54 l0 32 -15 0 -15 0 0 -45z" />
    <path d="M920 286 l0 -36 21 0 20 0 -3 32 -3 33 -17 3 -18 3 0 -35z" />
    <path d="M1020 304 l0 -16 15 12 c8 7 15 14 15 16 0 2 -7 4 -15 4 -8 0 -15 -7
-15 -16z" />
    <path d="M1080 307 c0 -8 7 -14 15 -14 8 0 15 6 15 14 0 7 -7 13 -15 13 -8 0
-15 -6 -15 -13z" />
    <path d="M1140 307 c0 -8 7 -14 15 -14 8 0 15 6 15 14 0 7 -7 13 -15 13 -8 0
-15 -6 -15 -13z" />
    <path d="M1230 305 c0 -8 7 -15 15 -15 8 0 15 7 15 15 0 8 -7 15 -15 15 -8 0
-15 -7 -15 -15z" />
    <path d="M1340 280 l0 -40 15 0 15 0 0 40 0 40 -15 0 -15 0 0 -40z" />
    <path d="M1440 285 l0 -35 15 0 15 0 0 35 0 35 -15 0 -15 0 0 -35z" />
    <path d="M1190 290 l0 -20 15 0 15 0 0 20 0 20 -15 0 -15 0 0 -20z" />
    <path d="M1276 235 c-6 -17 -37 -20 -53 -4 l-10 10 -27 -7 c-34 -8 -34 -25 2
-24 15 1 39 -2 53 -5 l26 -7 16 17 c10 9 17 21 17 26 0 15 -17 10 -24 -6z" />
    <path d="M265 230 c3 -5 21 -10 38 -10 l33 0 17 -20 c17 -20 47 -27 47 -11 0
5 -7 11 -15 15 -8 3 -15 12 -15 21 l0 15 -56 0 -55 0 6 -10z" />
    <path d="M1100 225 c0 -8 5 -15 10 -15 6 0 10 7 10 15 0 8 -4 15 -10 15 -5 0
-10 -7 -10 -15z" />
    <path d="M1130 225 c0 -8 5 -15 10 -15 6 0 10 7 10 15 0 8 -4 15 -10 15 -5 0
-10 -7 -10 -15z" />
    <path d="M1010 220 c0 -5 5 -10 10 -10 6 0 10 5 10 10 0 6 -4 10 -10 10 -5 0
-10 -4 -10 -10z" />
    <path d="M1050 220 c0 -5 9 -10 20 -10 11 0 20 5 20 10 0 6 -9 10 -20 10 -11
0 -20 -4 -20 -10z" />
    <path d="M1320 220 c0 -5 5 -10 10 -10 6 0 10 5 10 10 0 6 -4 10 -10 10 -5 0
-10 -4 -10 -10z" />
    <path d="M850 175 c0 -8 5 -15 10 -15 6 0 10 7 10 15 0 8 -4 15 -10 15 -5 0
-10 -7 -10 -15z" />
    <path d="M1041 162 c-7 -2 -17 -16 -23 -31 l-10 -26 -5 13 c-7 19 -23 14 -23
-8 0 -11 4 -20 10 -20 5 0 7 -6 4 -14 l-5 -13 25 0 c26 0 34 11 17 21 l-9 6
11 31 12 31 31 -5 c39 -7 115 3 109 13 -5 8 -122 9 -144 2z" />
    <path d="M1205 160 c-6 -10 70 -20 111 -13 l34 6 0 -12 c0 -6 7 -11 15 -11 20
0 19 16 -2 26 -24 10 -152 14 -158 4z" />
    <path d="M1395 160 l-6 -10 31 0 31 0 -6 10 c-3 6 -15 10 -25 10 -10 0 -22 -4
-25 -10z" />
    <path d="M838 116 c-6 -14 -8 -32 -5 -40 11 -29 22 -17 23 24 2 46 -2 49 -18
16z" />
    <path d="M1418 133 l-18 -4 0 -20 0 -19 17 0 17 0 -12 -12 -12 -12 -20 12
c-26 16 -50 15 -50 -2 l0 -13 23 -1 c12 0 27 -1 32 -2 41 -9 65 19 39 45 l-15
15 15 0 c9 0 16 5 16 10 0 10 -3 11 -32 3z" />
    <path d="M1080 72 c0 -13 28 -47 34 -42 10 10 -6 50 -20 50 -8 0 -14 -4 -14
-8z" />
    <path d="M1157 58 c-10 -11 -17 -22 -14 -24 7 -7 37 7 37 17 0 5 27 9 60 9
l60 0 0 10 0 10 -62 -1 -63 -1 -18 -20z" />
  </g>
  <g transform="translate(0.000000,64.000000) scale(0.100000,-0.100000)" fill="#edecec" stroke="none">
    <path d="M918 633 l-918 -3 0 -10 0 -10 920 0 920 0 0 15 c0 8 -1 14 -2 13 -2
-2 -416 -4 -920 -5z" />
    <path d="M632 524 l-22 -35 17 3 c10 2 22 13 28 26 5 12 13 22 18 22 4 0 5 5
2 10 -10 16 -19 11 -43 -26z" />
    <path d="M720 530 l-21 -30 15 0 c9 0 16 5 16 12 0 6 8 1 19 -10 19 -23 46
-29 56 -12 3 6 16 10 28 10 l21 0 -12 12 -11 11 -26 -11 c-38 -18 -46 -15 -43
14 l3 27 -11 4 c-7 2 -22 -10 -34 -27z" />
    <path d="M1055 550 c-4 -6 -1 -10 4 -10 6 0 11 -6 11 -14 0 -8 6 -16 13 -19
l12 -4 -12 -14 c-7 -7 -13 -25 -13 -41 l0 -27 22 -20 c27 -26 57 -36 70 -23
l9 9 -30 6 -31 7 0 15 0 16 -10 -6 -10 -6 0 26 0 26 10 -6 10 -6 0 16 0 16 30
5 c16 4 27 11 24 16 l-6 9 -34 -7 -34 -6 0 20 c0 21 -26 37 -35 22z" />
    <path d="M1541 530 l-10 -30 -26 12 -26 11 -11 -11 -12 -12 15 0 c8 0 27 -6
42 -12 l27 -13 0 -32 c0 -17 5 -35 10 -38 l10 -6 0 40 0 39 -12 6 -13 6 13 6
c6 3 13 15 13 27 l1 22 5 -17 c5 -21 23 -24 23 -5 0 14 -19 37 -31 37 -4 0
-12 -14 -18 -30z" />
    <path d="M670 508 l0 -28 15 0 c19 0 19 11 0 36 l-14 19 -1 -27z" />
    <path d="M1045 519 c-4 -6 -13 -8 -21 -5 -8 3 -23 0 -34 -6 l-19 -12 -26 14
-25 14 -12 -12 -12 -12 27 0 c15 0 27 -4 27 -10 0 -5 9 -10 20 -10 11 0 20 5
20 10 0 6 16 10 35 10 l35 0 0 15 c0 18 -6 19 -15 4z" />
    <path d="M1208 508 c-16 -5 -28 -14 -28 -19 0 -13 24 -11 37 2 l11 11 44 -5
c23 -2 53 -8 66 -12 l22 -7 0 9 c0 25 -102 39 -152 21z" />
    <path d="M1375 510 l-6 -10 20 0 c11 0 23 -4 26 -10 7 -12 35 -13 35 -2 0 20
-65 39 -75 22z" />
    <path d="M860 459 c0 -50 -8 -69 -30 -69 l-18 0 -6 -22 c-3 -13 -7 -50 -8 -83
l-2 -60 -3 48 -4 47 -13 0 -13 0 4 -32 c7 -61 13 -78 27 -78 17 0 26 22 26 66
l0 35 12 -7 11 -7 -5 19 c-3 10 -9 27 -13 37 l-7 17 16 -6 16 -6 0 10 0 11 53
-1 c90 0 107 1 107 11 0 5 -12 12 -26 15 l-27 7 -10 -10 c-6 -6 -21 -11 -34
-11 l-23 0 -1 33 c-1 17 0 41 0 53 l2 21 -16 0 -15 0 0 -38z" />
    <path d="M1030 486 c0 -2 7 -9 15 -16 l15 -12 0 16 c0 9 -7 16 -15 16 -8 0
-15 -2 -15 -4z" />
    <path d="M1280 477 c0 -8 7 -14 15 -14 8 0 15 6 15 14 0 7 -7 13 -15 13 -8 0
-15 -6 -15 -13z" />
    <path d="M620 464 l0 -15 10 6 10 6 0 -20 c0 -12 5 -21 10 -21 6 0 10 14 10
30 l0 30 -20 0 -20 0 0 -16z" />
    <path d="M900 465 c0 -8 7 -15 15 -15 8 0 15 7 15 15 0 8 -7 15 -15 15 -8 0
-15 -7 -15 -15z" />
    <path d="M1460 428 l0 -52 9 10 c5 5 11 28 13 52 l4 42 -13 0 -13 0 0 -52z" />
    <path d="M1570 446 c0 -19 5 -38 11 -41 15 -10 17 -4 11 38 -5 47 -22 49 -22
3z" />
    <path d="M410 440 c0 -11 5 -20 10 -20 6 0 10 9 10 20 0 11 -4 20 -10 20 -5 0
-10 -9 -10 -20z" />
    <path d="M760 451 c0 -5 6 -12 13 -14 6 -3 -5 -3 -25 0 l-38 6 0 -17 0 -16 27
0 27 0 -12 -12 -12 -12 -37 13 -37 14 -4 -12 c-2 -6 -15 -11 -30 -11 l-26 0
12 -12 13 -13 31 18 30 17 -5 -20 -5 -20 13 0 c7 0 28 7 48 15 19 8 37 11 41
8 3 -4 6 12 6 35 l0 42 -15 0 c-8 0 -15 -4 -15 -9z" />
    <path d="M1153 446 c-26 -12 -31 -36 -7 -36 l15 0 -7 13 -7 12 14 -12 c7 -7
19 -13 26 -13 l13 0 0 25 0 25 -12 -1 c-7 -1 -23 -6 -35 -13z" />
    <path d="M1423 447 l5 -13 -29 4 -29 4 0 -15 0 -16 28 -3 27 -4 -18 -8 -18 -9
-26 14 -26 14 -4 -12 -4 -12 -16 6 -16 6 6 -17 c4 -10 7 -20 7 -22 0 -2 9 -4
21 -4 l21 0 -5 14 -6 15 15 -6 c17 -6 18 -15 2 -31 l-12 -12 16 0 c9 0 19 6
21 13 3 6 6 2 6 -10 1 -13 5 -23 10 -23 18 0 41 12 41 22 l0 9 -19 -6 -19 -6
2 16 c3 19 26 36 38 29 4 -3 8 13 8 35 l0 41 -16 0 -16 0 5 -13z" />
    <path d="M372 414 l3 -39 23 -3 22 -3 0 15 0 15 -14 -5 -13 -5 -7 16 c-3 9 -4
21 -1 25 3 5 0 12 -6 15 l-10 7 3 -38z" />
    <path d="M310 413 l0 -23 15 0 15 0 0 23 0 24 -15 0 -15 0 0 -24z" />
    <path d="M810 423 c0 -7 7 -13 15 -13 8 0 15 6 15 13 0 8 -7 14 -15 14 -8 0
-15 -6 -15 -14z" />
    <path d="M910 425 c0 -8 7 -15 15 -15 8 0 15 7 15 15 0 8 -7 15 -15 15 -8 0
-15 -7 -15 -15z" />
    <path d="M1052 399 c2 -7 10 -15 17 -17 l14 -4 -5 13 c-2 7 -10 15 -17 17
l-13 5 4 -14z" />
    <path d="M1270 394 l0 -15 10 6 c6 3 10 10 10 16 0 5 -4 9 -10 9 -5 0 -10 -7
-10 -16z" />
    <path d="M1185 390 c3 -5 15 -10 26 -10 10 0 19 5 19 10 0 6 -12 10 -26 10
l-25 0 6 -10z" />
    <path d="M1490 390 c0 -5 9 -10 20 -10 11 0 20 5 20 10 0 6 -9 10 -20 10 -11
0 -20 -4 -20 -10z" />
    <path d="M185 380 c-11 -4 -35 -14 -53 -20 -18 -7 -37 -22 -43 -32 l-11 -20
18 -19 c31 -34 194 -75 194 -49 0 6 -13 10 -30 10 -16 0 -59 10 -95 21 l-65
22 0 13 c0 18 17 27 23 12 l5 -13 12 15 11 15 -6 -22 -6 -23 20 0 c23 0 28 19
10 37 -15 15 -3 33 22 33 l19 0 0 15 c0 8 -1 15 -2 14 -2 0 -12 -4 -23 -9z" />
    <path d="M470 371 c0 -5 13 -12 28 -16 15 -3 42 -14 60 -25 l32 -20 0 -20 0
-20 -25 0 -25 0 0 -15 0 -15 34 0 34 0 5 -12 5 -13 13 13 13 12 -17 0 c-9 0
-17 6 -17 14 l0 14 22 -6 21 -5 -7 11 c-4 7 -13 12 -21 12 -7 0 -16 12 -19 26
l-7 25 -42 19 c-23 10 -52 21 -64 25 l-23 6 0 -10z" />
    <path d="M770 355 l-12 -15 16 0 c9 0 16 7 16 15 0 8 -2 15 -4 15 -2 0 -9 -7
-16 -15z" />
    <path d="M247 353 c-13 -12 -7 -33 9 -33 8 0 12 4 9 10 l-6 10 15 -6 16 -6 0
16 0 16 -18 0 c-10 0 -22 -3 -25 -7z" />
    <path d="M360 351 c0 -5 3 -16 6 -25 l6 -16 24 0 c13 0 24 5 24 10 0 6 -9 10
-20 10 -11 0 -20 5 -20 11 l0 10 20 -6 20 -6 0 10 c0 6 -13 11 -30 11 -16 0
-30 -4 -30 -9z" />
    <path d="M710 335 c0 -8 7 -15 15 -15 8 0 15 4 15 9 0 5 -7 11 -15 15 l-15 5
0 -14z" />
    <path d="M870 333 l0 -20 15 0 c8 0 15 4 15 7 0 4 -7 13 -15 20 l-15 12 0 -19z" />
    <path d="M950 340 c0 -5 5 -10 10 -10 6 0 10 -9 10 -20 0 -29 23 -25 37 7 15
31 10 41 -11 24 l-14 -12 -7 11 c-8 13 -25 13 -25 0z" />
    <path d="M1260 340 c0 -5 5 -10 10 -10 l10 0 0 -43 c0 -24 -5 -48 -12 -55 -6
-6 -8 -15 -4 -19 13 -13 36 29 36 65 l0 33 11 -7 11 -6 -4 18 c-2 11 -8 19
-15 19 -6 0 -15 3 -19 8 -11 10 -24 9 -24 -3z" />
    <path d="M1520 340 c0 -5 5 -10 10 -10 6 0 10 5 10 10 0 6 -4 10 -10 10 -5 0
-10 -4 -10 -10z" />
    <path d="M1560 339 c0 -11 46 -23 59 -14 21 12 11 21 -24 22 -19 1 -35 -3 -35
-8z" />
    <path d="M1662 339 c2 -7 10 -15 17 -17 l14 -4 -5 13 c-2 7 -10 15 -17 17
l-13 5 4 -14z" />
    <path d="M513 315 c-3 -9 -3 -18 0 -22 10 -10 37 6 37 22 0 20 -29 20 -37 0z" />
    <path d="M1023 315 c-7 -8 -14 -31 -14 -52 -1 -21 -3 -30 -6 -20 -6 23 -25 22
-41 -4 -16 -25 -9 -37 12 -20 l14 12 4 -12 4 -13 17 7 17 6 0 47 0 46 15 -6
15 -5 0 14 c0 19 -21 19 -37 0z" />
    <path d="M1340 315 l0 -16 11 7 12 7 -5 -37 -4 -36 14 0 13 0 -3 42 -3 43 -17
3 -18 3 0 -16z" />
    <path d="M930 316 c0 -2 7 -9 15 -16 l15 -12 0 16 c0 9 -7 16 -15 16 -8 0 -15
-2 -15 -4z" />
    <path d="M1128 273 l-1 -48 -4 43 c-5 50 -23 57 -23 8 0 -44 9 -66 26 -66 14
0 20 17 27 78 l4 32 -14 0 -13 0 -2 -47z" />
    <path d="M1190 304 c0 -8 4 -13 9 -10 5 4 11 0 14 -6 2 -7 8 -10 12 -6 12 11
-2 38 -20 38 -8 0 -15 -7 -15 -16z" />
    <path d="M1430 291 c0 -30 11 -51 26 -51 8 0 14 7 14 16 l0 15 -10 -6 -10 -6
0 25 c0 14 -4 26 -10 26 -5 0 -10 -9 -10 -19z" />
    <path d="M1670 290 c0 -5 -9 -10 -20 -10 -11 0 -20 -6 -20 -13 l0 -13 26 -2
25 -2 -6 9 c-3 5 -1 12 5 16 13 8 13 25 0 25 -5 0 -10 -4 -10 -10z" />
    <path d="M920 253 c0 -7 9 -13 20 -13 11 0 20 6 20 13 0 7 -9 13 -20 13 -11 0
-20 -6 -20 -13z" />
    <path d="M1230 255 l0 -15 20 0 20 0 0 15 0 15 -20 0 -20 0 0 -15z" />
    <path d="M1530 255 c0 -8 7 -15 16 -15 l16 0 -12 15 c-7 8 -14 15 -16 15 -2 0
-4 -7 -4 -15z" />
    <path d="M440 235 l0 -15 20 0 20 0 0 15 0 15 -20 0 -20 0 0 -15z" />
    <path d="M890 241 c0 -12 29 -35 36 -28 4 3 -1 13 -9 22 -17 17 -27 19 -27 6z" />
    <path d="M1310 241 c0 -16 25 -28 58 -29 l32 -1 0 11 c0 5 6 8 13 5 6 -3 20
-8 30 -12 l17 -7 0 10 c0 5 -14 16 -32 23 l-32 13 -4 -12 c-4 -14 -62 -16 -62
-2 0 6 -4 10 -10 10 -5 0 -10 -4 -10 -9z" />
    <path d="M1570 235 c-7 -9 -10 -18 -7 -21 6 -7 47 18 47 28 0 14 -27 9 -40 -7z" />
    <path d="M357 223 c10 -31 53 -57 53 -33 0 6 -6 10 -14 10 l-14 0 5 20 5 20
-21 0 -20 0 6 -17z" />
    <path d="M735 229 c-4 -6 -5 -13 -2 -16 7 -7 27 6 27 18 0 12 -17 12 -25 -2z" />
    <path d="M1065 229 c-4 -6 -5 -13 -2 -16 7 -7 27 6 27 18 0 12 -17 12 -25 -2z" />
    <path d="M1490 228 l0 -13 25 -1 c28 -2 34 11 9 20 -24 9 -34 7 -34 -6z" />
    <path d="M490 221 c0 -5 -9 -13 -20 -16 -11 -3 -20 -11 -20 -16 0 -15 16 -10
46 16 l29 25 -17 0 c-10 0 -18 -4 -18 -9z" />
    <path d="M690 220 c0 -5 4 -10 9 -10 6 0 13 5 16 10 l6 10 -15 0 c-9 0 -16 -4
-16 -10z" />
    <path d="M840 220 c0 -5 4 -10 9 -10 6 0 13 5 16 10 l6 10 -15 0 c-9 0 -16 -4
-16 -10z" />
    <path d="M1168 218 l12 -12 12 12 12 12 -24 0 -24 0 12 -12z" />
    <path d="M1215 220 c3 -5 10 -10 16 -10 5 0 9 5 9 10 0 6 -7 10 -16 10 l-15 0
6 -10z" />
    <path d="M860 180 c0 -5 5 -10 10 -10 6 0 10 5 10 10 0 6 -4 10 -10 10 -5 0
-10 -4 -10 -10z" />
    <path d="M910 182 c0 -5 3 -12 7 -16 4 -4 6 -23 4 -43 l-3 -35 11 7 c7 3 11
12 10 18 -3 28 2 48 11 42 5 -3 7 -12 3 -20 l-5 -15 11 0 c12 0 15 39 3 55 -9
12 -52 18 -52 7z" />
    <path d="M1050 163 c-8 -2 -23 -22 -34 -44 l-18 -41 -24 6 -24 6 0 -10 c0 -17
31 -24 51 -12 l18 12 6 -10 c8 -13 62 -13 70 0 l6 10 -35 0 c-39 0 -41 5 -26
44 l10 26 20 0 21 0 -6 10 c-6 10 -10 11 -35 3z" />
    <path d="M1135 160 l-6 -10 16 0 16 0 -6 10 c-3 6 -8 10 -10 10 -2 0 -7 -4
-10 -10z" />
    <path d="M1235 160 l-6 -10 16 0 16 0 -6 10 c-3 6 -8 10 -10 10 -2 0 -7 -4
-10 -10z" />
    <path d="M1293 158 c-26 -12 -31 -38 -8 -38 8 0 15 7 15 15 0 18 20 19 55 3
l26 -11 11 11 c7 7 19 12 28 11 l15 0 -22 -9 -23 -9 0 -20 0 -20 18 -4 17 -5
-17 -1 c-9 0 -20 4 -23 9 -3 6 -15 10 -26 10 -10 0 -19 -4 -19 -10 0 -5 -9
-10 -20 -10 -11 0 -20 -4 -20 -10 0 -15 48 -12 53 3 l4 12 16 -13 c9 -8 26
-12 39 -10 l23 3 0 20 0 20 -12 -3 c-21 -4 -14 15 7 21 11 3 20 12 20 20 0 21
-34 27 -64 12 -14 -7 -26 -10 -28 -5 -6 14 -43 19 -65 8z" />
    <path d="M1180 150 c0 -5 7 -10 15 -10 8 0 15 5 15 10 0 6 -7 10 -15 10 -8 0
-15 -4 -15 -10z" />
    <path d="M980 129 l0 -20 10 6 c6 3 10 13 10 21 0 8 -4 14 -10 14 -5 0 -10 -9
-10 -21z" />
    <path d="M846 121 c-4 -7 -5 -15 -2 -18 9 -9 19 4 14 18 l-4 13 -8 -13z" />
    <path d="M1130 115 c0 -8 7 -15 15 -15 8 0 15 7 15 15 0 8 -7 15 -15 15 -8 0
-15 -7 -15 -15z" />
    <path d="M1170 92 c0 -25 -19 -42 -48 -42 l-23 0 6 -10 c10 -16 43 -12 63 7
l17 18 38 1 c61 2 67 4 67 14 l0 11 -45 -4 -45 -3 0 13 c0 7 -7 13 -15 13
l-15 0 0 -18z" />
    <path d="M845 70 c3 -5 17 -10 30 -10 13 0 27 5 30 10 l6 10 -36 0 -36 0 6
-10z" />
  </g>
  <g transform="translate(0.000000,64.000000) scale(0.100000,-0.100000)" fill="#d4d5da" stroke="none">
    <path d="M660 540 c0 -5 5 -10 10 -10 6 0 10 5 10 10 0 6 -4 10 -10 10 -5 0
-10 -4 -10 -10z" />
    <path d="M725 533 l-6 -18 20 -17 c12 -9 21 -23 21 -32 0 -9 7 -16 15 -16 8 0
15 4 15 9 0 4 14 7 30 5 l30 -4 0 15 0 15 -27 1 c-16 1 -33 1 -40 0 -6 -1 -15
4 -20 11 -8 13 -9 18 -12 38 -2 16 -18 11 -26 -7z" />
    <path d="M1560 540 c0 -5 5 -10 10 -10 6 0 10 5 10 10 0 6 -4 10 -10 10 -5 0
-10 -4 -10 -10z" />
    <path d="M630 505 l-12 -15 16 0 c9 0 16 7 16 15 0 8 -2 15 -4 15 -2 0 -9 -7
-16 -15z" />
    <path d="M1580 506 c0 -9 5 -16 10 -16 6 0 10 4 10 9 0 6 -4 13 -10 16 l-10 6
0 -15z" />
    <path d="M688 496 l-18 -13 0 -37 0 -36 15 0 15 0 0 40 0 40 10 0 c6 0 10 5
10 10 0 13 -11 12 -32 -4z" />
    <path d="M930 504 c0 -11 29 -34 44 -34 l16 0 -1 -37 c0 -21 -3 -32 -6 -25 -7
18 -33 15 -33 -5 0 -9 3 -13 7 -10 3 4 12 2 20 -5 l14 -11 8 9 c5 5 11 28 13
52 l4 42 -16 0 -15 0 15 10 c8 5 11 12 7 16 -3 4 -14 1 -22 -6 l-16 -13 -11
11 c-13 13 -28 16 -28 6z" />
    <path d="M1020 500 c0 -5 7 -10 15 -10 8 0 15 5 15 10 0 6 -7 10 -15 10 -8 0
-15 -4 -15 -10z" />
    <path d="M1205 500 c-4 -6 -11 -8 -16 -5 -5 4 -9 -2 -10 -12 l-1 -18 -5 13
c-13 31 -37 14 -48 -35 l-7 -33 17 0 16 0 -6 10 c-3 6 -2 10 4 10 6 0 15 -8
20 -19 13 -24 41 -35 55 -21 l11 11 -12 7 c-7 4 -14 23 -15 42 l-3 33 13 5
c14 4 16 22 3 22 -6 0 -13 -5 -16 -10z m-15 -66 l0 -15 -10 6 c-6 4 -8 11 -5
16 9 14 15 11 15 -7z" />
    <path d="M1250 500 c0 -5 5 -10 10 -10 6 0 10 -7 10 -15 0 -18 16 -20 23 -2
l5 12 1 -17 c1 -21 21 -24 21 -4 0 8 -9 18 -20 21 -11 3 -20 11 -20 16 0 5 -7
9 -15 9 -8 0 -15 -4 -15 -10z" />
    <path d="M1348 496 l-18 -13 0 -40 0 -40 25 -13 c13 -7 22 -17 19 -22 -11 -17
17 -7 39 13 l22 22 -23 -6 c-13 -3 -30 -3 -38 0 l-14 5 0 44 0 44 10 0 c6 0
10 5 10 10 0 13 -11 12 -32 -4z" />
    <path d="M1400 500 c0 -5 5 -10 10 -10 6 0 10 -9 10 -20 l0 -20 15 0 c8 0 15
8 16 18 l1 17 4 -12 c3 -7 11 -10 19 -7 l14 6 3 -44 3 -43 15 0 15 0 5 52 5
51 -18 12 c-23 14 -38 3 -17 -11 l15 -10 -25 7 c-14 4 -27 11 -28 16 l-4 9
-13 -11 -13 -11 -7 11 c-8 13 -25 13 -25 0z" />
    <path d="M1080 487 c0 -8 7 -14 15 -14 8 0 15 6 15 14 0 7 -7 13 -15 13 -8 0
-15 -6 -15 -13z" />
    <path d="M610 465 c0 -8 4 -15 9 -15 5 0 11 7 15 15 l5 15 -14 0 c-8 0 -15 -7
-15 -15z" />
    <path d="M710 468 c0 -19 12 -34 34 -41 l18 -7 -6 22 c-3 13 -6 26 -6 31 0 4
-9 7 -20 7 -11 0 -20 -6 -20 -12z" />
    <path d="M882 468 c6 -18 28 -21 28 -4 0 9 -7 16 -16 16 -9 0 -14 -5 -12 -12z" />
    <path d="M1370 468 c0 -18 12 -33 33 -41 l17 -6 0 14 c0 8 -4 15 -10 15 -5 0
-10 7 -10 15 0 8 -7 15 -15 15 -8 0 -15 -6 -15 -12z" />
    <path d="M826 425 l-5 -15 12 -1 c7 0 2 -5 -10 -11 -23 -11 -32 -38 -13 -38 6
0 10 5 10 10 0 6 4 10 10 10 5 0 7 -7 4 -15 l-6 -15 11 0 c6 0 11 7 11 15 0 8
5 15 10 15 6 0 10 -7 10 -16 l0 -16 15 12 c8 7 15 19 15 26 0 8 6 14 14 14
l15 0 -2 20 c-1 20 -27 29 -27 9 0 -11 -25 -39 -35 -39 -3 0 -3 5 0 10 3 6 0
17 -9 25 -18 19 -22 19 -30 0z" />
    <path d="M637 423 c-12 -11 -8 -23 8 -23 8 0 15 7 15 15 0 16 -12 20 -23 8z" />
    <path d="M1570 418 c0 -18 18 -34 28 -24 3 4 -2 14 -11 23 l-17 17 0 -16z" />
    <path d="M695 390 c3 -5 10 -10 16 -10 5 0 9 5 9 10 0 6 -7 10 -16 10 l-15 0
6 -10z" />
    <path d="M740 390 c0 -5 4 -10 9 -10 6 0 13 5 16 10 l6 10 -15 0 c-9 0 -16 -4
-16 -10z" />
    <path d="M1260 390 c0 -5 5 -10 10 -10 6 0 10 5 10 10 0 6 -4 10 -10 10 -5 0
-10 -4 -10 -10z" />
    <path d="M1440 390 c0 -5 5 -10 10 -10 6 0 10 5 10 10 0 6 -4 10 -10 10 -5 0
-10 -4 -10 -10z" />
    <path d="M200 381 c0 -5 -15 -12 -33 -15 -44 -8 -77 -33 -77 -57 l0 -20 43
-19 c45 -20 148 -40 210 -40 l38 0 -6 -9 c-3 -5 4 -12 15 -16 11 -3 20 -11 20
-16 0 -5 7 -9 15 -9 8 0 15 5 15 10 0 6 -4 10 -10 10 -5 0 -10 7 -10 15 0 8 5
15 10 15 6 0 10 -6 10 -14 0 -16 27 -29 41 -20 5 3 7 10 4 15 -4 5 -1 9 4 9 6
0 11 9 11 20 l0 20 -14 0 c-7 0 -19 6 -25 14 l-12 14 -97 0 c-53 0 -110 5
-126 12 -16 6 -37 8 -48 4 l-19 -6 -14 12 c-8 7 -12 17 -9 22 l6 9 14 -18 13
-18 1 18 0 17 25 10 c24 9 36 40 15 40 -5 0 -10 -4 -10 -9z" />
    <path d="M380 373 c0 -7 9 -13 20 -13 11 0 20 6 20 13 0 7 -9 13 -20 13 -11 0
-20 -6 -20 -13z" />
    <path d="M1313 384 c3 -4 1 -16 -4 -27 l-11 -20 19 5 20 5 12 -18 c15 -25 31
-24 31 1 l0 20 -14 0 c-8 0 -18 9 -21 20 -3 11 -14 20 -22 20 -9 0 -13 -3 -10
-6z" />
    <path d="M460 368 c0 -7 10 -18 23 -23 l22 -10 -3 -32 -4 -33 11 0 c6 0 11
-11 11 -25 l0 -25 25 0 c14 0 25 5 25 10 0 6 -4 10 -10 10 -5 0 -10 5 -10 11
l0 12 33 -6 c19 -3 40 -1 48 3 l13 9 -17 7 c-9 3 -33 4 -52 2 -19 -2 -35 -1
-35 3 0 13 24 24 44 20 l18 -3 -4 14 c-4 13 -72 50 -115 63 l-23 6 0 -13z" />
    <path d="M744 335 l6 -15 -20 10 c-10 5 -26 10 -34 10 l-16 0 0 -60 0 -60 24
0 c13 0 31 3 40 6 l16 6 0 38 c0 21 5 40 11 42 l10 3 -6 18 c-4 9 -14 17 -22
17 l-15 0 6 -15z m-7 -72 l-5 -18 0 30 c0 17 2 24 5 18 2 -7 2 -21 0 -30z" />
    <path d="M914 328 c3 -13 3 -17 0 -10 -12 26 -24 10 -24 -31 l0 -44 18 -16
c20 -19 52 -23 52 -7 0 6 -11 10 -25 10 l-25 0 0 15 c0 8 5 15 10 15 6 0 10
12 10 26 l0 26 14 -5 14 -6 5 19 c6 24 0 30 -30 30 l-24 0 5 -22z" />
    <path d="M1091 333 l-15 -16 -4 11 c-2 7 -12 12 -23 12 l-19 0 0 -16 c0 -8 4
-13 9 -9 5 3 17 -3 27 -12 l17 -18 5 13 c2 7 8 10 13 6 5 -3 9 2 9 10 0 20 17
20 37 0 l16 -15 8 13 9 13 0 -54 0 -53 16 6 c9 3 18 6 20 6 2 0 4 11 4 25 0
14 -4 25 -10 25 -5 0 -10 7 -10 16 l0 15 10 -6 c6 -3 10 0 10 7 0 34 -103 50
-129 21z" />
    <path d="M1224 334 c3 -9 6 -19 6 -23 0 -4 7 -8 15 -8 8 0 15 6 15 14 0 7 5
13 11 13 5 0 7 5 4 10 -3 6 -18 10 -32 10 l-25 0 6 -16z" />
    <path d="M1425 340 c-3 -5 -1 -10 4 -10 6 0 11 -7 11 -16 l0 -15 10 6 10 6 0
-30 c0 -17 5 -31 10 -31 6 0 10 -7 10 -15 0 -8 -7 -15 -16 -15 l-16 0 12 -14
c13 -17 40 -10 40 10 0 8 4 14 10 14 l10 0 -7 48 -6 47 -16 12 c-19 15 -58 17
-66 3z" />
    <path d="M1520 336 c0 -9 5 -16 10 -16 6 0 10 4 10 9 0 6 -4 13 -10 16 l-10 6
0 -15z" />
    <path d="M1565 340 c-3 -6 -1 -10 4 -10 l11 0 0 -42 1 -43 25 -18 c13 -10 34
-17 46 -15 24 3 46 33 34 45 -4 4 -12 0 -17 -10 -24 -42 -59 -14 -59 46 l0 32
-20 12 -19 13 -6 -10z" />
    <path d="M240 325 c0 -8 7 -15 15 -15 8 0 15 4 15 9 0 5 -7 11 -15 15 l-15 5
0 -14z" />
    <path d="M417 333 c-12 -11 -8 -23 8 -23 8 0 15 7 15 15 0 16 -12 20 -23 8z" />
    <path d="M1630 315 c0 -8 7 -15 15 -15 8 0 15 7 15 15 0 8 -7 15 -15 15 -8 0
-15 -7 -15 -15z" />
    <path d="M1310 280 l0 -40 10 0 10 0 0 40 0 40 -10 0 -10 0 0 -40z" />
    <path d="M1390 285 l0 -35 15 0 15 0 0 35 0 35 -15 0 -15 0 0 -35z" />
    <path d="M1670 294 l0 -15 10 6 c6 3 10 10 10 16 0 5 -4 9 -10 9 -5 0 -10 -7
-10 -16z" />
    <path d="M1240 271 c0 -5 7 -11 15 -15 l15 -5 0 14 c0 8 -7 15 -15 15 -8 0
-15 -4 -15 -9z" />
    <path d="M1620 265 c0 -8 4 -15 9 -15 5 0 11 7 15 15 l5 15 -14 0 c-8 0 -15
-7 -15 -15z" />
    <path d="M830 235 l0 -15 20 0 20 0 0 15 0 15 -20 0 -20 0 0 -15z" />
    <path d="M1350 235 c0 -8 7 -15 15 -15 8 0 15 7 15 15 0 8 -7 15 -15 15 -8 0
-15 -7 -15 -15z" />
    <path d="M580 230 c0 -5 9 -10 20 -10 11 0 20 5 20 10 0 6 -9 10 -20 10 -11 0
-20 -4 -20 -10z" />
    <path d="M780 231 c0 -6 5 -13 10 -16 l10 -6 0 15 c0 9 -4 16 -10 16 -5 0 -10
-4 -10 -9z" />
    <path d="M1050 231 c0 -6 5 -13 10 -16 l10 -6 0 15 c0 9 -4 16 -10 16 -5 0
-10 -4 -10 -9z" />
    <path d="M1120 224 l0 -15 10 6 c6 3 10 10 10 16 0 5 -4 9 -10 9 -5 0 -10 -7
-10 -16z" />
    <path d="M1230 220 c0 -5 9 -10 20 -10 11 0 20 5 20 10 0 6 -9 10 -20 10 -11
0 -20 -4 -20 -10z" />
    <path d="M1530 220 c0 -5 9 -10 20 -10 11 0 20 5 20 10 0 6 -9 10 -20 10 -11
0 -20 -4 -20 -10z" />
    <path d="M865 180 l-6 -10 30 0 31 0 0 -15 c0 -8 5 -15 10 -15 15 0 12 19 -4
36 -17 16 -52 19 -61 4z" />
    <path d="M980 155 c0 -8 5 -15 10 -15 6 0 10 7 10 15 0 8 -4 15 -10 15 -5 0
-10 -7 -10 -15z" />
    <path d="M1174 144 c3 -9 6 -20 6 -25 0 -5 7 -9 15 -9 18 0 20 21 3 38 -17 17
-31 15 -24 -4z" />
    <path d="M1250 150 c0 -5 7 -10 16 -10 l15 0 -6 10 c-3 6 -10 10 -16 10 -5 0
-9 -4 -9 -10z" />
    <path d="M1350 116 l0 -24 15 -6 15 -5 0 29 0 30 -15 0 -15 0 0 -24z" />
    <path d="M1390 124 l0 -16 15 12 c8 7 15 14 15 16 0 2 -7 4 -15 4 -8 0 -15 -7
-15 -16z" />
    <path d="M950 115 c0 -8 5 -15 10 -15 6 0 10 7 10 15 0 8 -4 15 -10 15 -5 0
-10 -7 -10 -15z" />
    <path d="M1216 108 c-9 -35 -8 -36 25 -34 41 3 73 56 34 56 -8 0 -15 -6 -15
-14 0 -8 -4 -17 -9 -20 l-9 -6 5 20 5 20 -15 0 c-8 0 -17 -10 -21 -22z" />
    <path d="M1130 103 c0 -7 7 -13 15 -13 8 0 15 6 15 13 0 8 -7 14 -15 14 -8 0
-15 -6 -15 -14z" />
    <path d="M990 80 c0 -5 5 -10 10 -10 6 0 10 5 10 10 0 6 -4 10 -10 10 -5 0
-10 -4 -10 -10z" />
    <path d="M1020 80 c0 -5 5 -10 10 -10 6 0 10 5 10 10 0 6 -4 10 -10 10 -5 0
-10 -4 -10 -10z" />
    <path d="M1160 64 l0 -15 10 6 c6 3 10 10 10 16 0 5 -4 9 -10 9 -5 0 -10 -7
-10 -16z" />
  </g>
  <g transform="translate(0.000000,64.000000) scale(0.100000,-0.100000)" fill="#8d8a94" stroke="none">
    <path d="M0 630 l0 -10 920 0 920 0 0 10 0 10 -920 0 -920 0 0 -10z" />
    <path d="M647 530 l-5 -20 14 0 14 0 0 20 c0 11 -4 20 -9 20 -5 0 -11 -9 -14
-20z" />
    <path d="M1550 534 c0 -20 -22 -42 -38 -36 l-12 4 0 -16 0 -16 23 3 22 2 3
-37 3 -38 20 0 20 0 -12 22 c-7 12 -12 46 -12 75 0 29 -4 53 -8 53 -5 0 -9 -7
-9 -16z" />
    <path d="M887 503 c-13 -12 -7 -40 8 -40 l15 0 0 24 c0 22 -10 30 -23 16z" />
    <path d="M1037 503 c-12 -11 -8 -23 8 -23 8 0 15 7 15 15 0 16 -12 20 -23 8z" />
    <path d="M1363 503 c-18 -7 -16 -23 2 -23 8 0 15 7 15 15 0 8 -1 15 -2 14 -2
0 -9 -3 -15 -6z" />
    <path d="M1404 486 l6 -26 -15 0 c-8 0 -15 -7 -15 -15 l0 -14 16 6 15 6 -7
-29 c-3 -16 -13 -34 -20 -40 -18 -15 -18 -24 1 -24 8 0 15 7 15 15 0 17 29 34
47 28 l12 -4 3 43 3 43 13 -2 c18 -4 15 24 -5 31 l-16 7 -7 -12 -7 -11 -23 12
-23 12 7 -26z m36 -52 l0 -15 -10 6 c-5 3 -10 10 -10 16 0 5 5 9 10 9 6 0 10
-7 10 -16z" />
    <path d="M796 484 c-17 -45 8 -115 35 -98 6 3 13 -3 16 -15 9 -36 63 -7 63 35
0 12 7 24 15 28 8 3 15 12 15 21 0 8 7 15 15 15 l14 0 -5 15 c-7 18 -24 20
-24 3 0 -7 -16 -24 -35 -37 l-35 -23 10 -18 10 -18 -16 -6 c-22 -8 -24 -8 -24
8 0 8 -6 16 -14 19 -7 3 -15 19 -18 35 l-4 29 11 0 c6 0 10 -12 10 -25 0 -14
6 -27 13 -29 l12 -5 0 25 c0 14 -3 32 -6 41 l-6 16 -23 0 -23 0 -6 -16z" />
    <path d="M1140 485 l0 -16 13 6 c6 4 4 0 -5 -8 -10 -8 -18 -19 -18 -25 l0 -11
15 5 15 6 0 -21 0 -21 20 0 c11 0 20 -4 20 -10 0 -5 5 -10 10 -10 6 0 10 7 10
15 l0 15 -20 0 c-21 0 -23 5 -24 55 l-1 30 -17 3 -18 3 0 -16z" />
    <path d="M1196 485 l-5 -15 14 0 c8 0 15 7 15 15 0 8 -4 15 -9 15 -5 0 -11 -7
-15 -15z" />
    <path d="M1267 493 c-13 -12 -7 -33 9 -33 l15 0 -6 10 c-3 6 -1 10 4 10 6 0
11 5 11 10 0 11 -23 14 -33 3z" />
    <path d="M686 475 c4 -8 10 -15 15 -15 5 0 9 7 9 15 0 8 -7 15 -15 15 l-14 0
5 -15z" />
    <path d="M600 465 c0 -8 6 -15 13 -15 8 0 14 7 14 15 0 8 -6 15 -14 15 -7 0
-13 -7 -13 -15z" />
    <path d="M646 443 l2 -38 -13 18 c-23 31 -43 20 -29 -17 l6 -16 23 0 23 0 6
16 c3 9 6 29 6 45 l0 29 -13 0 -12 0 1 -37z" />
    <path d="M750 470 c0 -5 -7 -10 -15 -10 -15 0 -55 -38 -55 -52 0 -4 9 -12 21
-18 l21 -12 -3 19 c-4 21 8 43 22 43 l10 0 -6 -20 -6 -20 16 0 15 0 -6 25 -6
25 11 0 10 0 -5 15 c-7 17 -24 20 -24 5z" />
    <path d="M1060 415 c0 -15 26 -32 36 -23 2 3 2 13 -2 22 -8 20 -34 21 -34 1z" />
    <path d="M940 405 c0 -8 4 -15 9 -15 5 0 11 7 15 15 l5 15 -14 0 c-8 0 -15 -7
-15 -15z" />
    <path d="M1120 405 c0 -8 7 -15 15 -15 8 0 15 7 15 15 0 8 -7 15 -15 15 -8 0
-15 -7 -15 -15z" />
    <path d="M1346 411 c-4 -5 3 -15 15 -21 l21 -12 -4 18 c-4 20 -23 30 -32 15z" />
    <path d="M980 395 l0 -14 15 5 c8 4 12 10 9 15 -8 14 -24 10 -24 -6z" />
    <path d="M240 365 l0 -15 25 0 25 0 0 15 0 15 -25 0 -25 0 0 -15z" />
    <path d="M360 366 l0 -13 40 -7 40 -6 0 -15 c0 -17 25 -20 35 -5 9 15 23 12
27 -5 l3 -14 12 7 12 7 -18 23 -17 23 -29 4 c-17 2 -30 4 -30 5 0 1 -17 4 -37
5 l-38 4 0 -13z" />
    <path d="M790 360 l0 -22 13 5 c6 2 12 10 12 17 0 7 -6 15 -12 18 l-13 4 0
-22z" />
    <path d="M183 360 c-30 -12 -29 -26 2 -34 l25 -6 0 -19 0 -18 15 0 15 0 0 21
c-1 60 -14 73 -57 56z" />
    <path d="M682 348 l3 -23 15 0 15 0 3 23 3 22 -21 0 -21 0 3 -22z" />
    <path d="M1064 338 c-7 -11 16 -29 27 -22 10 6 19 -22 19 -57 0 -16 5 -29 10
-29 6 0 10 15 10 34 0 33 20 62 33 49 4 -3 7 1 7 10 l0 17 -17 1 c-10 0 -33 2
-51 3 -18 2 -35 -1 -38 -6z" />
    <path d="M1643 343 c-7 -2 -13 -11 -13 -19 0 -9 4 -13 9 -10 l9 6 -5 -20 c-3
-11 -12 -20 -19 -20 -8 0 -14 -7 -14 -15 0 -8 7 -15 16 -15 l15 0 -6 11 -7 10
21 6 c12 3 21 11 21 18 0 7 6 15 13 18 l12 4 -14 16 c-14 18 -18 19 -38 10z" />
    <path d="M725 330 c-7 -12 20 -24 34 -16 5 4 12 2 16 -4 9 -15 25 -12 25 4 0
24 -62 37 -75 16z" />
    <path d="M822 328 c6 -18 28 -21 28 -4 0 9 -7 16 -16 16 -9 0 -14 -5 -12 -12z" />
    <path d="M895 331 c-8 -14 12 -23 35 -16 l20 6 0 -10 c0 -6 5 -11 10 -11 16 0
11 27 -6 34 -23 9 -52 7 -59 -3z" />
    <path d="M1205 330 c-8 -12 20 -24 35 -15 5 3 10 1 10 -4 0 -6 7 -11 15 -11
20 0 19 26 -1 34 -24 9 -52 7 -59 -4z" />
    <path d="M1303 328 c2 -7 14 -13 27 -13 13 0 25 6 28 13 l4 12 -32 0 -32 0 5
-12z" />
    <path d="M1424 333 l-21 -4 1 -37 c2 -55 46 -101 46 -47 0 14 -4 25 -10 25 -5
0 -10 5 -10 11 0 15 26 39 34 32 3 -4 6 1 6 10 0 17 -6 18 -46 10z" />
    <path d="M1560 330 c0 -5 7 -10 15 -10 8 0 15 5 15 10 0 6 -7 10 -15 10 -8 0
-15 -4 -15 -10z" />
    <path d="M257 323 c-12 -11 -8 -23 8 -23 8 0 15 -4 15 -10 0 -5 11 -10 25 -10
14 0 25 5 25 10 0 6 -11 10 -25 10 l-25 0 0 15 c0 16 -12 20 -23 8z" />
    <path d="M405 318 c-4 -10 -13 -18 -21 -18 -8 0 -14 -7 -14 -15 l0 -14 18 6
c9 4 20 11 25 17 l7 11 11 -17 c12 -22 29 -23 29 -3 0 8 -5 15 -11 15 -7 0
-18 8 -25 18 l-13 17 -6 -17z" />
    <path d="M1060 265 l0 -47 13 5 12 4 0 38 0 38 -12 5 -13 4 0 -47z" />
    <path d="M1220 285 c0 -8 7 -15 15 -15 8 0 15 7 15 15 0 8 -7 15 -15 15 -8 0
-15 -7 -15 -15z" />
    <path d="M484 257 l5 -23 -19 -12 c-21 -13 -27 -32 -11 -32 5 0 17 7 26 16
l16 17 61 1 60 2 10 18 10 18 -13 9 -14 8 -8 -14 -8 -15 -34 0 c-18 0 -40 7
-49 15 -8 8 -20 15 -26 15 l-12 0 6 -23z" />
    <path d="M1660 250 c0 -5 -9 -10 -20 -10 -11 0 -20 -6 -20 -13 l0 -14 23 1
c36 1 66 46 30 46 -7 0 -13 -4 -13 -10z" />
    <path d="M920 231 c0 -5 9 -11 20 -14 l20 -5 0 14 0 14 -20 0 c-11 0 -20 -4
-20 -9z" />
    <path d="M1230 227 c0 -7 9 -13 20 -13 11 0 20 6 20 13 0 7 -9 13 -20 13 -11
0 -20 -6 -20 -13z" />
    <path d="M1530 227 c0 -7 9 -13 20 -13 11 0 20 6 20 13 0 7 -9 13 -20 13 -11
0 -20 -6 -20 -13z" />
    <path d="M372 208 c3 -7 13 -15 22 -16 l18 -4 -4 14 c-3 7 -13 15 -22 16 l-18
4 4 -14z" />
  </g>
  <g transform="translate(0.000000,64.000000) scale(0.100000,-0.100000)" fill="#e2e0e3" stroke="none">
    <path d="M747 543 c-10 -9 -9 -23 2 -23 5 0 11 7 15 15 5 15 -5 20 -17 8z" />
    <path d="M1070 519 c0 -12 29 -38 43 -39 14 0 6 15 -18 33 l-25 18 0 -12z" />
    <path d="M1572 497 l0 -38 14 12 c8 6 14 15 14 18 0 4 -6 16 -14 26 l-14 19 0
-37z" />
    <path d="M640 510 c0 -5 5 -10 10 -10 6 0 10 5 10 10 0 6 -4 10 -10 10 -5 0
-10 -4 -10 -10z" />
    <path d="M843 495 c4 -8 2 -17 -3 -20 -4 -3 -11 1 -13 7 l-5 13 -1 -13 c-1 -7
-4 -11 -8 -9 -5 3 -8 -10 -8 -29 l0 -34 11 0 11 0 -3 33 -3 32 5 -20 c3 -11
10 -24 14 -29 l9 -9 -6 23 -6 23 17 13 c10 7 15 17 11 23 -10 16 -28 13 -22
-4z" />
    <path d="M887 503 c-4 -3 -7 -16 -7 -27 l0 -21 10 15 c5 8 10 11 10 5 -1 -16
-26 -45 -33 -38 -4 3 -7 -1 -7 -11 l0 -17 30 21 30 22 -7 11 -7 12 17 -14 17
-13 0 21 0 21 -15 0 c-8 0 -15 5 -15 10 0 11 -13 13 -23 3z" />
    <path d="M1162 499 c2 -7 10 -15 17 -17 l14 -4 -5 13 c-2 7 -10 15 -17 17
l-13 5 4 -14z" />
    <path d="M1530 499 c0 -5 -4 -8 -8 -5 -5 3 -9 0 -9 -7 0 -7 11 -13 24 -13 13
-1 23 2 23 7 0 5 -5 9 -11 9 -5 0 -7 5 -4 10 3 6 1 10 -4 10 -6 0 -11 -5 -11
-11z" />
    <path d="M595 489 c-4 -6 -5 -13 -2 -16 7 -7 27 6 27 18 0 12 -17 12 -25 -2z" />
    <path d="M670 484 l0 -13 15 5 c8 4 15 9 15 13 0 4 -7 8 -15 8 -8 0 -15 -6
-15 -13z" />
    <path d="M760 486 l0 -17 10 6 c6 3 10 1 10 -4 0 -6 -7 -11 -15 -11 -8 0 -15
7 -15 15 l0 15 -20 0 -20 0 0 -14 0 -14 17 2 18 1 3 -24 4 -24 -21 6 -21 5 0
-14 0 -14 19 0 c11 0 22 6 24 13 l5 12 1 -16 c1 -9 8 -16 16 -16 l15 0 0 18 0
18 -16 -6 -17 -6 5 14 c3 8 11 13 17 12 16 -4 13 33 -4 47 l-15 12 0 -16z" />
    <path d="M1010 490 c-20 -12 -9 -21 18 -13 12 3 19 9 16 14 -7 11 -15 11 -34
-1z" />
    <path d="M1322 488 c5 -15 38 -19 38 -4 0 6 -9 12 -21 13 l-20 2 3 -11z" />
    <path d="M1420 490 c0 -6 7 -10 15 -10 8 0 15 2 15 4 0 2 -7 6 -15 10 -8 3
-15 1 -15 -4z" />
    <path d="M1070 474 l0 -15 10 6 c6 3 10 10 10 16 0 5 -4 9 -10 9 -5 0 -10 -7
-10 -16z" />
    <path d="M1130 477 c0 -8 6 -14 14 -14 l14 0 -5 14 c-3 7 -9 13 -14 13 -5 0
-9 -6 -9 -13z" />
    <path d="M1220 477 c0 -7 9 -13 20 -13 11 0 20 6 20 13 0 7 -9 13 -20 13 -11
0 -20 -6 -20 -13z" />
    <path d="M1370 475 c0 -8 3 -14 8 -14 22 4 30 -4 36 -36 4 -20 11 -33 16 -30
5 3 11 1 15 -5 8 -13 25 -13 25 0 0 6 -5 10 -11 10 -7 0 -18 8 -25 18 l-12 17
15 17 15 17 -21 -6 -21 -5 0 16 0 16 -20 0 -20 0 0 -15z" />
    <path d="M1480 480 c0 -5 5 -10 10 -10 6 0 10 5 10 10 0 6 -4 10 -10 10 -5 0
-10 -4 -10 -10z" />
    <path d="M1270 436 l0 -34 -12 -5 c-7 -2 -10 -8 -6 -12 4 -4 14 -2 23 5 l15
12 0 34 c0 19 -4 34 -10 34 -5 0 -10 -15 -10 -34z" />
    <path d="M1308 464 c-5 -4 -8 -22 -8 -40 l0 -33 18 -10 17 -10 -13 -1 c-7 0
-11 -4 -8 -9 4 -5 0 -11 -6 -14 -7 -2 -10 -8 -5 -12 9 -11 36 24 37 48 0 10 4
16 8 13 5 -3 9 1 9 8 0 15 -26 17 -28 2 -1 -6 -5 6 -8 27 -3 22 -9 35 -13 31z" />
    <path d="M613 440 l5 -20 -15 -9 -16 -8 7 -12 c4 -6 12 -11 18 -11 l10 0 -6
16 -6 16 15 -6 c8 -3 15 -1 15 5 l0 10 12 -7 11 -7 -7 12 c-4 6 -12 9 -17 6
-5 -4 -9 3 -9 14 0 12 -5 21 -11 21 l-11 0 5 -20z" />
    <path d="M1160 435 c0 -8 -8 -15 -17 -15 l-17 0 23 -21 23 -21 16 16 16 16
-16 0 -17 0 4 20 c2 11 0 20 -6 20 -5 0 -9 -7 -9 -15z" />
    <path d="M1070 433 c0 -6 4 -14 10 -18 5 -3 7 -12 3 -20 -6 -17 -2 -18 21 -9
18 7 22 24 5 24 -7 0 -18 8 -25 18 l-13 17 -1 -12z" />
    <path d="M670 414 c0 -7 -6 -14 -12 -17 l-13 -4 8 -9 8 -8 8 13 c5 7 13 11 19
7 l11 -6 -2 18 c-1 21 -27 26 -27 6z" />
    <path d="M920 415 l-12 -15 16 0 c9 0 16 7 16 15 0 8 -2 15 -4 15 -2 0 -9 -7
-16 -15z" />
    <path d="M1370 414 l0 -14 20 0 c11 0 20 4 20 9 0 5 -9 11 -20 14 l-20 5 0
-14z" />
    <path d="M1552 399 c5 -17 48 -25 48 -10 0 6 -4 11 -9 11 -5 0 -17 3 -27 7
l-17 6 5 -14z" />
    <path d="M370 386 c0 -9 5 -16 10 -16 6 0 10 4 10 9 0 6 -4 13 -10 16 l-10 6
0 -15z" />
    <path d="M840 386 c0 -9 5 -16 10 -16 6 0 10 4 10 9 0 6 -4 13 -10 16 l-10 6
0 -15z" />
    <path d="M460 374 l0 -15 10 6 c6 4 8 11 5 16 -9 14 -15 11 -15 -7z" />
    <path d="M885 380 c4 -6 11 -8 16 -5 14 9 11 15 -7 15 l-15 0 6 -10z" />
    <path d="M1386 375 c4 -8 7 -15 9 -15 2 0 5 7 9 15 l5 15 -14 0 -14 0 5 -15z" />
    <path d="M804 361 c0 -11 4 -17 8 -15 4 3 8 0 8 -5 0 -6 5 -11 10 -11 6 0 10
8 10 17 0 9 -3 13 -7 10 -3 -4 -11 0 -17 9 l-12 15 0 -20z" />
    <path d="M150 362 c-22 -10 -22 -28 1 -28 l19 0 -4 12 -5 12 21 -6 21 -5 -7
11 c-8 13 -23 14 -46 4z" />
    <path d="M485 360 c-3 -5 -2 -10 4 -10 5 0 13 5 16 10 3 6 2 10 -4 10 -5 0
-13 -4 -16 -10z" />
    <path d="M682 348 l3 -23 15 0 c8 0 21 -4 29 -9 l14 -9 -7 11 -7 12 16 0 16 0
-6 10 -7 11 -14 -12 -14 -11 0 21 0 21 -21 0 -20 0 3 -22z" />
    <path d="M868 364 c-5 -4 -8 -21 -8 -38 l0 -30 11 11 c6 6 9 23 7 38 -2 15 -6
23 -10 19z" />
    <path d="M407 349 l13 -13 -10 -11 -10 -12 14 0 13 0 -1 20 c-1 11 -8 22 -16
25 l-15 5 12 -14z" />
    <path d="M1360 344 l-13 -15 16 -17 17 -16 0 32 c0 36 -2 38 -20 16z" />
    <path d="M901 336 l-12 -14 12 -8 12 -7 -7 11 -6 10 17 4 18 3 -11 8 -12 7
-11 -14z" />
    <path d="M1005 339 c-4 -5 -2 -9 3 -9 6 0 8 -10 5 -22 l-5 -23 21 23 c11 13
25 21 31 17 5 -3 10 -1 10 5 0 6 5 8 10 5 6 -3 10 -2 10 2 0 12 -78 14 -85 2z" />
    <path d="M1167 344 c-6 -11 19 -35 27 -26 4 3 11 0 16 -8 l9 -14 -10 -12 -10
-12 11 -7 c5 -3 13 1 16 9 3 9 9 14 13 12 4 -3 13 -1 20 4 l14 8 -8 12 -7 12
-9 -13 -9 -14 0 12 c0 6 -8 14 -17 16 l-18 5 18 1 18 1 -6 10 -6 10 -20 -13
-20 -12 -8 14 c-5 7 -11 9 -14 5z" />
    <path d="M1467 344 c-14 -23 34 -37 54 -17 18 18 3 29 -17 13 l-16 -14 -8 13
c-4 7 -10 9 -13 5z" />
    <path d="M1615 339 c-4 -6 -13 -8 -21 -5 l-14 5 0 -13 c0 -7 7 -13 15 -13 8 0
15 4 15 9 0 4 7 8 15 8 8 0 15 5 15 10 0 13 -17 13 -25 -1z" />
    <path d="M1650 340 c0 -5 6 -9 13 -7 6 1 11 -4 10 -10 -2 -7 2 -13 7 -13 14 0
13 13 -2 28 -15 15 -28 16 -28 2z" />
    <path d="M262 327 l-11 -13 20 -1 19 -2 0 15 c0 17 -14 18 -28 1z" />
    <path d="M530 331 l0 -12 -12 7 -11 7 8 -12 7 -13 11 11 c6 6 8 14 4 18 -4 3
-7 1 -7 -6z" />
    <path d="M960 330 c0 -5 5 -10 10 -10 6 0 10 5 10 10 0 6 -4 10 -10 10 -5 0
-10 -4 -10 -10z" />
    <path d="M1270 330 c0 -5 5 -10 10 -10 6 0 10 5 10 10 0 6 -4 10 -10 10 -5 0
-10 -4 -10 -10z" />
    <path d="M1390 318 l0 -18 20 12 c11 7 20 16 20 20 0 4 -9 6 -20 5 l-20 -1 0
-18z" />
    <path d="M140 307 c8 -9 30 -19 48 -23 l32 -6 0 12 0 12 -16 -6 -15 -6 7 12 7
11 -23 -6 -24 -6 -15 11 -16 12 15 -17z" />
    <path d="M587 313 c-3 -5 -2 -15 2 -22 l9 -13 5 9 c3 5 2 15 -2 22 l-8 13 -6
-9z" />
    <path d="M1437 313 c-4 -3 -7 -11 -7 -17 l0 -10 12 12 c6 6 9 14 7 17 -3 3 -9
2 -12 -2z" />
    <path d="M1620 304 l0 -15 17 3 c24 4 27 23 3 25 l-20 2 0 -15z" />
    <path d="M487 304 c-4 -4 -7 -13 -7 -21 l0 -13 21 0 20 0 -7 12 -7 11 16 -6
17 -6 0 9 c0 6 -4 10 -9 10 -5 0 -16 2 -23 5 -8 3 -17 2 -21 -1z" />
    <path d="M970 275 l0 -32 15 0 15 0 0 32 0 32 -15 0 -15 0 0 -32z" />
    <path d="M1078 269 l4 -39 -11 0 c-6 0 -11 -5 -11 -11 l0 -11 15 12 15 12 0
34 c0 18 -3 35 -8 38 -4 2 -6 -13 -4 -35z" />
    <path d="M230 282 c0 -11 39 -12 45 -1 l6 9 -25 0 c-14 0 -26 -4 -26 -8z" />
    <path d="M1660 280 c0 -5 5 -10 10 -10 6 0 10 5 10 10 0 6 -4 10 -10 10 -5 0
-10 -4 -10 -10z" />
    <path d="M1430 271 c0 -5 5 -13 10 -16 6 -3 10 -2 10 4 0 5 -4 13 -10 16 -5 3
-10 2 -10 -4z" />
    <path d="M533 263 c11 -10 -14 -33 -35 -33 l-20 0 6 15 5 15 -12 0 -12 0 0
-24 c0 -13 3 -22 8 -19 4 2 7 0 7 -5 l0 -10 25 11 c14 7 25 15 25 20 0 4 6 7
13 7 8 0 14 7 14 15 0 8 -7 15 -15 15 -9 0 -12 -3 -9 -7z" />
    <path d="M600 255 l-13 -16 14 3 c8 2 13 -2 12 -8 l-2 -12 19 5 c25 7 34 19
24 34 l-7 12 -10 -19 -10 -18 -7 18 -6 18 -14 -17z" />
    <path d="M1389 248 l0 -23 -8 19 -7 18 -16 -16 -17 -16 -9 16 -9 17 -6 -10
c-11 -17 10 -35 43 -37 l32 -2 5 13 5 13 30 -16 c16 -9 33 -13 36 -9 8 8 -19
25 -30 19 -4 -3 -8 -1 -8 5 0 6 -9 15 -20 21 l-20 11 -1 -23z" />
    <path d="M1580 243 c0 -7 -4 -13 -10 -13 -5 0 -10 -5 -10 -10 l0 -11 25 18
c28 21 31 30 10 30 -8 0 -15 -6 -15 -14z" />
    <path d="M1620 248 c0 -11 41 -10 60 2 l15 9 -37 -1 c-21 -1 -38 -5 -38 -10z" />
    <path d="M735 242 c-4 -4 -15 -7 -26 -7 -10 0 -20 -4 -21 -9 -4 -14 52 -14 63
0 l10 12 -9 6 c-5 3 -12 2 -17 -2z" />
    <path d="M1206 241 c-3 -5 -15 -7 -26 -4 l-20 5 0 -11 0 -11 28 2 c15 1 33 -1
40 -6 l12 -7 0 9 c0 5 -6 15 -14 21 l-14 12 -6 -10z" />
    <path d="M1506 241 c-4 -6 3 -15 14 -21 l20 -11 0 9 c0 5 -6 15 -14 21 l-14
12 -6 -10z" />
    <path d="M343 233 l68 -4 -4 -12 c-2 -7 -11 -11 -21 -9 -9 2 -16 -2 -16 -8 0
-5 6 -11 13 -11 6 -1 23 -3 37 -5 14 -1 31 -1 38 2 l13 4 -8 12 c-4 7 -8 18
-8 23 l0 10 -90 1 -90 1 68 -4z" />
    <path d="M837 234 c-11 -11 3 -24 18 -18 8 4 12 10 9 15 -6 11 -18 12 -27 3z" />
    <path d="M900 230 c0 -5 5 -10 10 -10 6 0 10 5 10 10 0 6 -4 10 -10 10 -5 0
-10 -4 -10 -10z" />
    <path d="M1665 229 c-11 -16 -1 -19 13 -3 l13 14 -10 0 c-5 0 -13 -5 -16 -11z" />
    <path d="M995 220 c4 -6 11 -8 16 -5 14 9 11 15 -7 15 l-15 0 6 -10z" />
    <path d="M1475 209 c-10 -15 3 -25 16 -12 l11 11 -10 6 c-6 3 -14 1 -17 -5z" />
    <path d="M905 180 c-3 -5 -1 -10 4 -10 6 0 11 -10 11 -22 0 -12 3 -18 7 -14
12 12 11 35 -2 46 l-13 11 -7 -11z" />
    <path d="M980 180 c0 -5 5 -10 10 -10 6 0 10 5 10 10 0 6 -4 10 -10 10 -5 0
-10 -4 -10 -10z" />
    <path d="M855 167 c-4 -10 -5 -21 -1 -24 10 -10 18 4 13 24 l-4 18 -8 -18z" />
    <path d="M980 144 l0 -15 10 6 c6 4 8 11 5 16 -9 14 -15 11 -15 -7z" />
    <path d="M1083 146 c2 -6 13 -12 25 -14 12 -2 22 -7 22 -11 0 -4 7 -8 15 -8
39 0 3 41 -38 44 l-28 1 4 -12z" />
    <path d="M1186 144 c-9 -8 -16 -23 -16 -33 l0 -18 16 0 15 0 -4 19 -5 18 9 -6
c5 -3 9 -3 9 0 0 2 3 11 6 20 l6 16 -10 0 c-6 0 -18 -7 -26 -16z" />
    <path d="M1289 143 l-1 -18 -5 13 c-7 18 -23 15 -23 -6 l0 -18 20 -1 c11 -1
20 2 20 7 0 5 3 15 6 24 l6 16 -11 0 c-6 0 -11 -8 -12 -17z" />
    <path d="M1430 144 l0 -15 10 6 c6 4 8 11 5 16 -9 14 -15 11 -15 -7z" />
    <path d="M1030 135 c0 -8 5 -15 10 -15 6 0 10 7 10 15 0 8 -4 15 -10 15 -5 0
-10 -7 -10 -15z" />
    <path d="M1350 136 c0 -7 7 -13 15 -13 8 0 15 4 15 8 0 4 -7 9 -15 13 l-15 5
0 -13z" />
    <path d="M956 131 c-6 -9 30 -51 44 -51 16 0 12 9 -14 35 -14 14 -27 21 -30
16z" />
    <path d="M847 113 c-11 -10 -8 -43 3 -43 6 0 10 11 10 25 0 26 -2 29 -13 18z" />
    <path d="M870 105 c0 -8 7 -15 15 -15 8 0 15 7 15 15 0 8 -7 15 -15 15 -8 0
-15 -7 -15 -15z" />
    <path d="M1340 94 l0 -16 15 12 c8 7 15 14 15 16 0 2 -7 4 -15 4 -8 0 -15 -7
-15 -16z" />
    <path d="M905 89 c-4 -6 -5 -13 -2 -16 7 -7 27 6 27 18 0 12 -17 12 -25 -2z" />
    <path d="M1084 88 l-8 -12 12 -4 c7 -2 12 -10 12 -18 0 -8 5 -14 10 -14 6 0
10 14 10 30 l0 30 -14 0 c-8 0 -18 -5 -22 -12z" />
    <path d="M1420 91 c0 -6 -8 -11 -17 -11 l-17 0 12 -12 12 -12 16 16 16 16 -11
6 c-6 4 -11 2 -11 -3z" />
    <path d="M1035 70 c4 -6 11 -8 16 -5 14 9 11 15 -7 15 l-15 0 6 -10z" />
    <path d="M1288 68 l12 -12 12 12 12 12 -24 0 -24 0 12 -12z" />
  </g>
  <g transform="translate(0.000000,64.000000) scale(0.100000,-0.100000)" fill="#5f5776" stroke="none">
    <path d="M1050 535 c0 -8 7 -15 15 -15 8 0 15 7 15 15 0 8 -7 15 -15 15 -8 0
-15 -7 -15 -15z" />
    <path d="M1556 524 c-9 -22 -8 -24 9 -24 l15 0 0 20 c0 24 -15 27 -24 4z" />
    <path d="M653 519 c-6 -6 -22 -17 -35 -23 l-23 -11 -3 -38 -3 -38 12 -15 c26
-32 79 -10 79 33 0 30 -16 30 -24 0 -3 -13 -12 -24 -20 -24 -8 0 -13 4 -10 9
3 4 2 8 -3 8 -4 0 -8 12 -8 26 l0 26 33 -5 32 -6 0 35 c0 35 -8 42 -27 23z" />
    <path d="M704 498 c-21 -33 -5 -118 22 -118 23 0 44 12 44 25 l0 14 -24 -5
-24 -4 -6 16 -6 15 10 -6 c6 -3 10 -1 10 5 0 6 6 10 13 8 7 -2 12 2 12 7 0 6
-8 9 -17 8 -10 -2 -18 2 -18 7 0 6 9 10 21 10 l21 0 -4 13 c-6 17 -44 21 -54
5z" />
    <path d="M793 495 c-7 -19 5 -34 15 -20 14 19 32 14 38 -10 l6 -26 -16 -18
-17 -19 -20 5 -19 5 0 -21 0 -21 14 0 c8 0 22 7 30 16 9 8 16 12 16 8 0 -3 7
-1 15 6 l15 12 0 37 c0 43 -14 61 -47 61 l-24 0 -6 -15z" />
    <path d="M893 495 c-19 -20 -16 -24 12 -19 l25 4 0 -14 0 -15 -14 5 c-8 3 -18
0 -22 -8 -11 -18 -12 -48 -2 -48 5 0 6 -4 3 -10 l-6 -10 30 0 29 0 6 28 c16
77 -22 131 -61 87z m34 -81 c-9 -9 -28 6 -21 18 l6 10 11 -11 c6 -6 8 -13 4
-17z" />
    <path d="M986 494 l-16 -15 0 -46 0 -45 13 4 c6 3 13 21 15 42 l3 37 15 6 c18
7 18 33 0 33 -8 0 -22 -7 -30 -16z" />
    <path d="M1043 495 c0 -8 6 -15 14 -15 7 0 13 7 13 15 0 8 -6 15 -13 15 -8 0
-14 -7 -14 -15z" />
    <path d="M1113 495 c-16 -18 -17 -87 -1 -103 7 -7 22 -12 35 -12 l23 0 0 16 0
16 -18 -4 -18 -5 0 36 c1 36 13 54 29 44 l9 -5 -12 -8 c-7 -4 -9 -13 -6 -19
11 -17 24 -13 31 9 l7 21 -12 14 c-16 19 -51 19 -67 0z" />
    <path d="M1210 490 c-13 -25 -13 -30 5 -30 8 0 15 5 15 10 0 6 5 10 10 10 l10
0 0 -45 0 -45 16 0 16 0 -3 48 -3 47 22 -3 22 -3 0 15 0 15 -50 -1 -50 0 -10
-18z" />
    <path d="M1370 499 c0 -5 -5 -7 -11 -4 l-10 7 2 -56 c1 -30 6 -53 11 -50 4 3
8 0 8 -5 0 -6 9 -11 20 -11 11 0 20 5 20 11 0 5 5 7 10 4 6 -3 10 1 10 9 l0
15 -25 -5 c-14 -2 -25 -1 -25 3 0 15 17 34 26 31 5 -2 9 2 9 7 0 6 -8 10 -17
9 -10 0 -18 3 -18 8 0 4 9 8 20 8 l19 0 -5 15 c-7 17 -44 21 -44 4z" />
    <path d="M1455 497 c-5 -7 -10 -33 -10 -59 l0 -48 13 0 12 0 0 52 0 51 20 -18
c24 -22 36 -14 20 14 -12 23 -39 27 -55 8z" />
    <path d="M1556 443 c1 -26 6 -49 11 -50 l10 -4 2 51 1 50 -13 0 -13 0 2 -47z" />
    <path d="M1060 403 c0 -7 6 -13 13 -13 8 0 14 6 14 13 0 8 -6 14 -14 14 -7 0
-13 -6 -13 -14z" />
    <path d="M1310 405 c0 -8 7 -15 15 -15 8 0 15 7 15 15 0 8 -7 15 -15 15 -8 0
-15 -7 -15 -15z" />
    <path d="M836 363 c-2 -10 -4 -42 -3 -72 l2 -54 13 -4 12 -5 1 59 c0 32 2 66
4 76 l3 17 -13 0 c-8 0 -16 -8 -19 -17z" />
    <path d="M1319 360 c-1 -5 -1 -19 -1 -30 0 -11 0 -38 1 -60 l1 -40 15 0 16 0
-7 35 -6 35 11 14 12 14 -13 21 c-14 22 -27 27 -29 11z" />
    <path d="M180 345 c0 -8 5 -15 10 -15 6 0 10 7 10 15 0 8 -4 15 -10 15 -5 0
-10 -7 -10 -15z" />
    <path d="M459 343 l-14 -17 14 9 14 8 -7 -11 c-4 -6 -13 -9 -21 -5 l-15 5 0
-17 0 -17 20 5 c11 3 20 1 20 -4 0 -5 7 -9 15 -9 8 0 15 7 15 15 0 8 5 15 11
15 6 0 9 6 6 13 -2 6 -10 11 -16 10 -6 -2 -11 2 -11 7 0 15 -16 12 -31 -7z" />
    <path d="M733 319 l-2 -20 12 4 c7 2 13 11 15 20 l3 17 -13 0 c-8 0 -14 -9
-15 -21z" />
    <path d="M770 325 c0 -9 3 -14 8 -12 4 3 5 -15 3 -39 l-3 -44 17 0 16 0 -3 52
-3 53 -17 3 -18 3 0 -16z" />
    <path d="M903 320 l-2 -20 15 0 14 0 0 20 c0 11 -6 20 -13 20 -7 0 -13 -9 -14
-20z" />
    <path d="M940 331 c0 -6 4 -11 9 -11 l8 0 -8 -42 -7 -43 9 -9 9 -10 11 11 10
10 -3 49 -3 49 -17 3 c-10 2 -18 -1 -18 -7z" />
    <path d="M997 333 c-4 -3 -7 -30 -7 -60 l0 -53 15 0 15 0 0 38 c0 20 3 47 6
60 l6 22 -14 0 c-8 0 -18 -3 -21 -7z" />
    <path d="M1055 323 c-9 -25 -6 -93 5 -93 6 0 10 15 10 34 0 19 5 38 10 41 15
9 12 32 -5 32 -8 0 -17 -7 -20 -14z" />
    <path d="M1100 324 l0 -14 25 2 c14 1 25 8 25 14 0 6 -11 12 -25 12 l-25 0 0
-14z" />
    <path d="M1160 321 l0 -21 16 0 15 0 -3 17 c-2 9 -9 18 -15 21 l-13 4 0 -21z" />
    <path d="M1213 325 c0 -8 6 -15 14 -15 7 0 13 7 13 15 0 8 -6 15 -13 15 -8 0
-14 -7 -14 -15z" />
    <path d="M1250 325 l0 -16 13 7 c6 4 2 -3 -10 -15 -12 -11 -26 -21 -32 -21
-11 0 -19 -21 -14 -37 3 -7 11 -13 19 -13 l14 0 0 20 c0 11 4 20 10 20 5 0 9
-10 7 -22 l-2 -23 15 0 15 0 3 24 4 24 -14 8 -13 9 13 0 13 0 -3 22 -3 23 -17
3 -18 3 0 -16z" />
    <path d="M1419 338 c-3 -14 -2 -93 2 -93 2 0 15 -10 29 -22 32 -31 40 -29 40
8 l0 30 -27 -4 -28 -4 0 32 c0 18 3 31 8 28 4 -2 7 3 7 11 0 13 -28 24 -31 14z" />
    <path d="M1460 321 l0 -21 16 0 15 0 -3 17 c-2 9 -9 18 -15 21 l-13 4 0 -21z" />
    <path d="M1558 286 c-3 -28 -1 -55 4 -61 l9 -10 9 15 c5 8 10 36 10 61 l0 46
-14 0 -14 0 -4 -51z" />
    <path d="M1603 325 c-3 -9 -3 -18 0 -22 10 -10 37 6 37 22 0 20 -29 20 -37 0z" />
    <path d="M1650 318 l0 -18 14 0 15 0 -2 18 c0 10 -7 19 -14 19 -7 0 -13 -9
-13 -19z" />
    <path d="M212 323 l-23 -5 4 -11 c2 -7 14 -11 26 -10 11 2 21 -2 21 -7 0 -6 7
-10 15 -10 8 0 15 5 15 11 0 10 -25 40 -32 38 -2 -1 -13 -4 -26 -6z" />
    <path d="M300 305 l0 -15 50 0 50 0 0 15 0 15 -50 0 -50 0 0 -15z" />
    <path d="M497 263 c-12 -11 -8 -23 8 -23 8 0 15 7 15 15 0 16 -12 20 -23 8z" />
    <path d="M612 248 c6 -18 28 -21 28 -4 0 9 -7 16 -16 16 -9 0 -14 -5 -12 -12z" />
    <path d="M900 245 c0 -8 7 -15 15 -15 8 0 15 7 15 15 0 8 -7 15 -15 15 -8 0
-15 -7 -15 -15z" />
    <path d="M1512 243 c2 -9 9 -18 16 -21 l12 -4 0 21 0 21 -16 0 -15 0 3 -17z" />
    <path d="M1600 253 c0 -5 5 -15 10 -23 l9 -15 12 12 c6 6 8 16 5 22 -8 12 -36
15 -36 4z" />
    <path d="M1115 239 c-4 -6 -5 -13 -2 -16 7 -7 27 6 27 18 0 12 -17 12 -25 -2z" />
    <path d="M1370 235 c0 -8 7 -15 15 -15 8 0 15 7 15 15 0 8 -7 15 -15 15 -8 0
-15 -7 -15 -15z" />
    <path d="M1652 241 c2 -7 7 -12 11 -12 12 1 9 15 -3 20 l-12 4 4 -12z" />
  </g>
  <g transform="translate(0.000000,64.000000) scale(0.100000,-0.100000)" fill="#cfc7d0" stroke="none">
    <path d="M1050 542 c0 -5 7 -9 15 -9 8 0 15 4 15 9 0 4 -7 8 -15 8 -8 0 -15
-4 -15 -8z" />
    <path d="M711 509 c-13 -11 -20 -23 -16 -27 4 -4 10 -1 12 6 3 6 11 12 19 12
8 0 14 7 14 15 0 19 0 19 -29 -6z" />
    <path d="M795 500 c-3 -5 -2 -10 4 -10 5 0 13 5 16 10 3 6 2 10 -4 10 -5 0
-13 -4 -16 -10z" />
    <path d="M835 500 c3 -5 11 -10 16 -10 6 0 7 5 4 10 -3 6 -11 10 -16 10 -6 0
-7 -4 -4 -10z" />
    <path d="M1020 495 c0 -6 6 -12 13 -12 8 0 14 6 14 12 0 6 -6 12 -14 12 -7 0
-13 -6 -13 -12z" />
    <path d="M1080 504 c0 -9 30 -36 30 -27 0 4 5 0 11 -9 11 -21 34 -23 45 -6 l7
11 -17 -6 -18 -7 6 15 c3 8 1 15 -5 15 -6 0 -7 5 -4 10 9 14 -8 13 -23 -2
l-12 -12 0 12 c0 7 -4 12 -10 12 -5 0 -10 -3 -10 -6z" />
    <path d="M1304 501 c4 -5 1 -11 -5 -13 l-11 -4 14 -11 14 -12 14 9 14 8 -13
16 c-14 17 -36 22 -27 7z" />
    <path d="M1580 494 l0 -15 10 6 c6 4 8 11 5 16 -9 14 -15 11 -15 -7z" />
    <path d="M750 490 c0 -5 5 -10 10 -10 6 0 10 5 10 10 0 6 -4 10 -10 10 -5 0
-10 -4 -10 -10z" />
    <path d="M1170 492 c0 -5 9 -21 20 -35 l21 -26 -21 -13 c-26 -17 -26 -28 2
-20 l21 5 -7 -11 c-4 -7 -3 -12 2 -12 6 0 13 7 16 16 8 21 8 89 -1 81 -3 -4
-17 0 -30 8 -13 9 -23 11 -23 7z" />
    <path d="M1396 470 c-14 -17 -26 -37 -26 -43 0 -7 7 -3 16 8 8 11 21 28 30 38
8 11 13 21 11 23 -2 3 -16 -9 -31 -26z" />
    <path d="M630 480 c0 -5 7 -10 16 -10 l15 0 -6 10 c-3 6 -10 10 -16 10 -5 0
-9 -4 -9 -10z" />
    <path d="M968 483 l-18 -4 0 -30 c0 -16 8 -38 18 -49 l17 -18 0 54 c0 30 0 53
0 53 0 -1 -8 -3 -17 -6z" />
    <path d="M895 450 c-3 -5 -2 -10 4 -10 5 0 13 5 16 10 3 6 2 10 -4 10 -5 0
-13 -4 -16 -10z" />
    <path d="M1079 418 l13 -18 -18 0 -18 0 12 -12 11 -11 15 12 14 12 7 -11 c3
-5 11 -10 17 -10 6 0 3 8 -8 19 -10 10 -21 17 -23 15 -2 -2 -11 2 -20 9 l-16
12 14 -17z" />
    <path d="M1120 421 c0 -5 7 -12 16 -15 l17 -6 -13 15 c-14 17 -20 19 -20 6z" />
    <path d="M655 400 c-10 -11 -13 -20 -8 -20 13 0 38 29 31 35 -3 3 -13 -4 -23
-15z" />
    <path d="M800 409 l0 -10 12 7 11 7 -6 -16 -6 -17 9 0 c6 0 10 9 10 20 l0 20
-15 0 c-8 0 -15 -5 -15 -11z" />
    <path d="M781 378 l-1 -26 -27 -10 -28 -10 19 -1 c10 -1 25 -9 32 -18 l14 -18
-6 18 -6 17 16 -6 16 -6 0 13 c-1 8 -7 28 -15 44 l-13 30 -1 -27z" />
    <path d="M842 394 c4 -3 1 -18 -6 -33 l-13 -26 6 -50 6 -50 15 0 15 0 3 43 3
42 -10 0 -11 0 0 -42 c0 -59 -9 -42 -11 22 l-2 53 16 12 c21 15 21 21 0 29
-10 4 -14 4 -11 0z" />
    <path d="M935 390 c-3 -5 -2 -10 4 -10 5 0 13 5 16 10 3 6 2 10 -4 10 -5 0
-13 -4 -16 -10z" />
    <path d="M1255 390 c4 -6 11 -8 16 -5 14 9 11 15 -7 15 l-15 0 6 -10z" />
    <path d="M1310 390 c0 -5 5 -10 10 -10 6 0 10 5 10 10 0 6 -4 10 -10 10 -5 0
-10 -4 -10 -10z" />
    <path d="M1445 390 c4 -6 11 -8 16 -5 14 9 11 15 -7 15 l-15 0 6 -10z" />
    <path d="M1500 390 c0 -5 5 -10 10 -10 6 0 10 5 10 10 0 6 -4 10 -10 10 -5 0
-10 -4 -10 -10z" />
    <path d="M1568 388 l12 -12 12 12 12 12 -24 0 -24 0 12 -12z" />
    <path d="M365 369 c-9 -28 -4 -31 27 -15 15 8 29 12 32 8 3 -3 6 2 6 11 0 21
-16 22 -24 2 -3 -8 -13 -15 -23 -15 l-18 0 14 9 13 9 -10 6 -11 6 -6 -21z" />
    <path d="M192 365 c-29 -15 -37 -24 -20 -21 19 3 54 24 48 29 -3 2 -15 -2 -28
-8z" />
    <path d="M272 361 l-14 -8 16 -6 16 -6 0 14 c0 17 -1 17 -18 6z" />
    <path d="M1330 356 c0 -9 5 -16 10 -16 6 0 10 4 10 9 0 6 -4 13 -10 16 l-10 6
0 -15z" />
    <path d="M1385 357 c-4 -10 -5 -21 -1 -24 10 -10 18 4 13 24 l-4 18 -8 -18z" />
    <path d="M480 352 c0 -5 7 -9 15 -9 8 0 12 4 9 9 -3 4 -9 8 -15 8 -5 0 -9 -4
-9 -8z" />
    <path d="M915 340 l-20 -9 33 0 33 -1 -6 10 c-7 12 -13 12 -40 0z" />
    <path d="M1015 340 l-6 -10 21 0 21 0 -6 10 c-3 6 -10 10 -15 10 -5 0 -12 -4
-15 -10z" />
    <path d="M1080 340 c0 -5 9 -10 21 -10 l20 0 -6 10 c-3 6 -13 10 -21 10 -8 0
-14 -4 -14 -10z" />
    <path d="M1139 348 c0 -2 -2 -13 -3 -25 l-3 -23 17 18 c17 17 17 32 -1 32 -5
0 -9 -1 -10 -2z" />
    <path d="M1225 340 l-20 -9 22 0 c26 -1 34 -21 16 -39 -7 -7 -13 -20 -13 -29
l0 -15 15 12 c8 7 13 16 10 20 -3 5 -1 11 3 14 11 7 8 49 -4 52 -5 1 -18 -1
-29 -6z" />
    <path d="M1439 348 c0 -2 -2 -13 -3 -25 l-3 -23 17 18 c17 17 17 32 -1 32 -5
0 -9 -1 -10 -2z" />
    <path d="M1629 348 c0 -2 -3 -14 -5 -28 l-5 -24 21 21 c11 12 20 25 20 28 0 5
-29 8 -31 3z" />
    <path d="M1300 330 c0 -6 7 -13 15 -16 8 -4 15 -17 15 -29 0 -29 10 -55 20
-55 14 0 -3 85 -19 97 -20 15 -31 16 -31 3z" />
    <path d="M1507 334 c-10 -10 -9 -82 1 -88 4 -2 14 -1 21 3 l12 8 -3 38 c-3 37
-16 53 -31 39z" />
    <path d="M165 310 c3 -5 10 -10 16 -10 5 0 9 5 9 10 0 6 -7 10 -16 10 l-15 0
6 -10z" />
    <path d="M536 298 l-16 -22 9 -9 10 -10 18 8 18 7 -12 5 c-18 7 -16 23 2 23 8
0 15 -6 15 -14 0 -7 9 -16 20 -19 25 -7 25 -3 -2 28 -27 31 -42 32 -62 3z" />
    <path d="M727 313 c-11 -10 -8 -71 3 -78 l10 -6 0 45 c0 47 -2 51 -13 39z" />
    <path d="M917 313 c-4 -3 -7 -11 -7 -17 l0 -10 12 12 c6 6 9 14 7 17 -3 3 -9
2 -12 -2z" />
    <path d="M1210 310 c0 -5 4 -10 9 -10 6 0 13 5 16 10 l6 10 -15 0 c-9 0 -16
-4 -16 -10z" />
    <path d="M1460 311 c0 -5 5 -13 10 -16 6 -3 10 -2 10 4 0 5 -4 13 -10 16 -5 3
-10 2 -10 -4z" />
    <path d="M1670 306 c0 -8 -6 -16 -12 -19 l-13 -4 8 -9 9 -9 14 19 c16 23 18
36 4 36 -5 0 -10 -6 -10 -14z" />
    <path d="M476 295 c-8 -8 -20 -15 -27 -15 l-11 0 12 -15 c14 -17 39 -20 41 -5
3 20 4 25 12 38 l8 12 -10 0 c-5 0 -16 -7 -25 -15z" />
    <path d="M1160 271 c0 -22 5 -43 10 -46 l10 -6 0 45 0 46 -10 0 c-5 0 -10 -18
-10 -39z" />
    <path d="M230 290 c0 -5 5 -10 10 -10 6 0 10 5 10 10 0 6 -4 10 -10 10 -5 0
-10 -4 -10 -10z" />
    <path d="M325 280 c3 -5 17 -10 31 -10 13 0 24 5 24 10 0 6 -14 10 -31 10
l-30 0 6 -10z" />
    <path d="M910 268 c0 -9 5 -20 11 -23 17 -11 20 0 4 21 l-14 19 -1 -17z" />
    <path d="M630 260 c0 -5 5 -10 10 -10 6 0 10 5 10 10 0 6 -4 10 -10 10 -5 0
-10 -4 -10 -10z" />
    <path d="M1437 246 c3 -14 10 -26 15 -26 5 0 7 4 4 9 -3 5 1 11 9 15 8 3 15
11 15 17 l0 11 -13 -11 -13 -11 -11 11 -11 11 5 -26z" />
    <path d="M1270 235 l-12 -15 10 0 c12 0 26 19 19 26 -2 2 -10 -2 -17 -11z" />
    <path d="M1566 234 l-6 -16 12 4 c15 5 23 28 10 28 -5 0 -13 -7 -16 -16z" />
    <path d="M1630 239 c0 -5 -4 -7 -10 -4 -5 3 -10 1 -10 -5 l0 -12 16 6 c9 3 20
6 25 6 5 0 9 5 9 10 0 6 -7 10 -15 10 -8 0 -15 -5 -15 -11z" />
    <path d="M486 224 c-8 -22 -4 -25 11 -9 l13 14 -9 5 c-5 3 -12 -1 -15 -10z" />
    <path d="M565 230 l-6 -10 15 0 c9 0 16 5 16 10 0 6 -4 10 -9 10 -6 0 -13 -4
-16 -10z" />
    <path d="M790 230 c0 -5 5 -10 10 -10 6 0 10 5 10 10 0 6 -4 10 -10 10 -5 0
-10 -4 -10 -10z" />
    <path d="M990 228 c0 -4 7 -8 15 -8 8 0 15 4 15 8 0 5 -7 9 -15 9 -8 0 -15 -4
-15 -9z" />
    <path d="M375 200 c3 -5 11 -10 16 -10 6 0 7 5 4 10 -3 6 -11 10 -16 10 -6 0
-7 -4 -4 -10z" />
    <path d="M879 188 c0 -2 -2 -22 -4 -46 l-3 -42 10 6 11 7 -6 -9 c-8 -14 9 -38
21 -30 6 4 9 13 5 21 l-5 15 11 0 c6 0 11 9 11 20 0 11 -6 20 -12 20 l-13 0
15 10 c8 5 12 11 10 13 -7 6 -50 19 -51 15z" />
    <path d="M950 176 c0 -8 5 -18 10 -21 l10 -6 0 20 c0 12 -4 21 -10 21 -5 0
-10 -6 -10 -14z" />
    <path d="M980 170 l0 -24 12 12 12 12 -12 12 -12 12 0 -24z" />
    <path d="M856 151 c-4 -7 -5 -15 -2 -18 9 -9 19 4 14 18 l-4 13 -8 -13z" />
    <path d="M1039 155 c-1 -3 -2 -8 -3 -12 -1 -5 -5 -14 -10 -21 -10 -16 1 -29
13 -16 5 5 12 19 16 32 l6 22 -10 0 c-6 0 -12 -2 -12 -5z" />
    <path d="M1335 115 c0 -25 3 -45 8 -45 4 0 7 7 7 16 l0 16 15 -6 15 -5 0 20
c0 11 -4 18 -9 15 -5 -3 -11 3 -14 14 -9 36 -22 21 -22 -25z" />
    <path d="M1385 150 l-6 -10 15 0 c9 0 16 5 16 10 0 6 -4 10 -9 10 -6 0 -13 -4
-16 -10z" />
    <path d="M1420 150 c0 -5 5 -10 10 -10 6 0 10 5 10 10 0 6 -4 10 -10 10 -5 0
-10 -4 -10 -10z" />
    <path d="M1090 135 c0 -8 7 -15 15 -15 8 0 15 -4 15 -10 0 -5 5 -10 10 -10 20
0 9 27 -15 38 l-25 12 0 -15z" />
    <path d="M1290 135 c0 -8 5 -15 10 -15 6 0 10 7 10 15 0 8 -4 15 -10 15 -5 0
-10 -7 -10 -15z" />
    <path d="M1163 133 c-14 -5 -18 -33 -5 -33 10 0 32 22 32 32 0 9 -8 9 -27 1z" />
    <path d="M1220 130 c0 -5 -6 -9 -12 -7 l-13 2 -3 -27 -3 -28 15 0 c9 0 16 4
16 8 0 10 42 8 59 -2 7 -4 15 -5 18 -2 8 8 -17 36 -33 36 -8 0 -14 7 -14 15 0
8 -7 15 -15 15 -8 0 -15 -4 -15 -10z" />
    <path d="M970 116 c0 -8 -5 -16 -12 -18 l-12 -4 8 -13 8 -12 14 26 c17 32 17
35 4 35 -5 0 -10 -6 -10 -14z" />
    <path d="M844 99 c-3 -6 -1 -16 5 -22 l11 -11 0 22 c0 24 -5 28 -16 11z" />
    <path d="M1080 84 l0 -16 16 13 17 14 -7 -23 -7 -22 11 0 c6 0 13 7 17 16 l6
16 -14 9 c-22 14 -39 11 -39 -7z" />
    <path d="M1410 80 c0 -5 5 -10 10 -10 6 0 10 5 10 10 0 6 -4 10 -10 10 -5 0
-10 -4 -10 -10z" />
    <path d="M1145 59 c-4 -6 -5 -13 -2 -16 7 -7 27 6 27 18 0 12 -17 12 -25 -2z" />
  </g>
  <g transform="translate(0.000000,64.000000) scale(0.100000,-0.100000)" fill="#6d6682" stroke="none">
    <path d="M654 534 l1 -17 -29 -16 c-16 -9 -32 -23 -34 -31 l-5 -15 23 20 c13
11 20 14 15 6 l-8 -14 17 6 17 7 8 -23 9 -22 -10 -12 c-6 -7 -7 -13 -3 -13 4
0 2 -7 -5 -15 -16 -20 -6 -19 14 1 l16 15 0 35 0 35 -9 -5 c-5 -3 -14 0 -20 8
l-11 13 13 12 c8 6 17 7 22 3 4 -4 6 2 4 12 -2 11 -9 21 -15 23 l-12 4 2 -17z" />
    <path d="M1560 535 c7 -9 15 -13 17 -11 7 7 -7 26 -19 26 l-10 0 12 -15z" />
    <path d="M1060 506 c0 -18 17 -29 30 -21 l11 7 -12 14 c-15 18 -29 18 -29 0z" />
    <path d="M1547 512 c-6 -12 -2 -32 6 -32 4 0 14 0 22 0 22 0 18 27 -5 33 -11
3 -21 2 -23 -1z" />
    <path d="M796 494 l-16 -15 0 -45 0 -45 9 6 c5 3 12 1 16 -5 3 -5 2 -10 -3
-10 -5 0 -12 -9 -15 -20 l-5 -20 -21 0 -20 0 6 -17 6 -16 -11 7 -12 7 0 -45 0
-46 10 0 c6 0 10 17 10 38 0 53 16 69 48 49 l13 -9 -6 30 -5 29 20 18 c11 10
20 15 20 10 0 -4 7 -2 15 5 20 17 19 29 -2 25 -10 -2 -21 -4 -25 -4 -5 -1 -8
-9 -9 -18 l0 -18 -10 25 c-11 27 -9 69 4 88 13 17 1 15 -17 -4z" />
    <path d="M837 498 c7 -8 11 -17 8 -20 -3 -2 2 -5 10 -5 22 0 18 15 -7 28 l-23
12 12 -15z" />
    <path d="M1121 501 l-13 -8 10 -19 c10 -19 9 -36 -3 -65 l-6 -16 18 -7 18 -7
-12 12 -12 12 15 28 15 29 -11 0 -10 0 4 25 c3 14 4 25 3 25 -1 0 -8 -4 -16
-9z" />
    <path d="M1165 490 c10 -11 20 -20 22 -20 2 0 -1 9 -7 20 -6 11 -16 20 -22 20
l-11 0 18 -20z" />
    <path d="M1256 498 c3 -4 0 -8 -6 -8 -6 0 -8 -4 -5 -10 10 -16 22 -12 27 8 l5
19 -13 0 c-7 0 -11 -4 -8 -9z" />
    <path d="M1306 482 c7 -34 13 -40 24 -23 10 17 3 38 -15 45 l-13 5 4 -27z" />
    <path d="M703 486 c2 -5 15 -10 30 -12 l27 -3 0 12 0 12 -30 0 c-16 0 -29 -4
-27 -9z" />
    <path d="M923 492 c-30 -4 -30 -20 0 -17 l23 3 -1 -38 c0 -21 3 -36 7 -34 10
6 10 66 0 79 -4 6 -17 9 -29 7z" />
    <path d="M987 473 c3 -7 9 -10 14 -7 14 8 11 21 -5 21 l-14 0 5 -14z" />
    <path d="M1350 470 c0 -9 7 -17 15 -17 8 0 15 7 15 14 l0 14 20 -6 20 -6 0 11
0 11 -35 -3 -35 -2 0 -16z" />
    <path d="M1499 485 c-8 -7 3 -95 12 -95 12 0 12 87 0 94 -4 3 -10 4 -12 1z" />
    <path d="M1200 439 c0 -21 4 -40 9 -43 l9 -6 3 43 4 44 -12 0 -13 0 0 -38z" />
    <path d="M590 425 c0 -22 17 -45 33 -45 l9 0 -11 13 c-6 8 -7 18 -3 22 l7 8
-12 -7 -13 -7 0 10 c0 6 5 11 10 11 6 0 10 4 10 8 0 5 -7 9 -15 9 l-15 0 0
-22z" />
    <path d="M1312 415 c3 -27 20 -35 27 -14 l4 12 -11 -7 -10 -6 5 20 5 20 -11 0
-12 0 3 -25z" />
    <path d="M1350 425 c0 -6 7 -12 15 -12 8 0 15 6 15 12 0 6 -7 12 -15 12 -8 0
-15 -6 -15 -12z" />
    <path d="M895 410 c3 -5 11 -10 16 -10 6 0 7 5 4 10 -3 6 -11 10 -16 10 -6 0
-7 -4 -4 -10z" />
    <path d="M1052 408 c3 -7 15 -14 29 -15 l24 -2 -17 5 c-10 3 -18 10 -18 15 0
5 -5 9 -11 9 -6 0 -9 -6 -7 -12z" />
    <path d="M1159 420 c0 -3 -2 -13 -4 -22 -4 -20 10 -24 21 -7 3 6 1 16 -5 22
-6 6 -11 9 -12 7z" />
    <path d="M1250 398 c0 -4 7 -8 15 -8 8 0 15 4 15 8 0 5 -7 9 -15 9 -8 0 -15
-4 -15 -9z" />
    <path d="M1450 400 l-15 -10 18 0 c9 0 17 5 17 10 0 12 -1 12 -20 0z" />
    <path d="M1565 400 l-6 -10 15 0 c9 0 16 5 16 10 0 6 -4 10 -9 10 -6 0 -13 -4
-16 -10z" />
    <path d="M854 378 c-8 -12 -10 -28 -5 -67 l1 -13 15 12 c9 7 13 20 10 27 -2 8
0 23 5 34 l11 19 -14 0 c-8 0 -19 -6 -23 -12z" />
    <path d="M1370 355 c0 -16 16 -20 24 -6 3 5 -1 11 -9 15 l-15 5 0 -14z" />
    <path d="M176 345 l-5 -15 13 0 c7 0 13 7 13 15 0 8 -4 15 -8 15 -4 0 -9 -7
-13 -15z" />
    <path d="M473 345 c0 -8 6 -15 14 -15 7 0 13 -5 13 -11 0 -5 5 -7 10 -4 6 3
10 11 10 16 0 6 -5 7 -10 4 -6 -3 -13 1 -16 9 -8 20 -21 21 -21 1z" />
    <path d="M1317 347 l-15 -12 18 -18 18 -18 7 10 c3 6 1 11 -6 11 l-11 0 11 14
12 14 -9 6 c-5 3 -16 0 -25 -7z" />
    <path d="M917 324 l6 -17 -12 7 -12 8 3 -49 3 -48 26 0 26 -1 0 14 0 14 -22
-5 -22 -4 3 16 c1 9 5 28 8 43 l6 26 12 -2 c7 -1 19 -5 27 -10 l14 -9 -5 14
c-2 8 -19 15 -36 17 l-32 3 7 -17z" />
    <path d="M997 333 c-13 -12 -7 -21 11 -18 9 2 20 4 25 4 4 1 7 6 7 11 0 11
-33 14 -43 3z" />
    <path d="M1080 328 c0 -5 -4 -6 -10 -3 l-10 6 7 -17 6 -17 11 15 11 15 14 -15
15 -15 6 17 c14 40 38 8 39 -51 1 -18 6 -33 11 -33 l10 0 0 46 0 45 -12 -7
-11 -7 6 16 6 16 -50 -1 -49 0 0 -10z" />
    <path d="M1223 326 c0 -9 4 -16 9 -16 4 0 8 4 8 9 0 11 19 9 39 -3 l14 -9 -5
14 c-2 8 -18 15 -35 17 l-30 3 0 -15z" />
    <path d="M1415 330 l-7 -11 26 5 26 5 6 -23 c3 -12 6 -41 7 -64 2 -65 17 -49
17 19 l0 60 -12 -7 -11 -7 6 16 6 17 -29 0 c-16 0 -32 -5 -35 -10z" />
    <path d="M1510 289 l0 -50 12 7 11 7 -6 -15 -6 -16 24 2 c27 1 28 18 3 28
l-18 7 0 41 0 40 -10 0 -10 0 0 -51z" />
    <path d="M1607 333 c-19 -18 3 -27 29 -10 l12 7 4 -18 5 -18 -21 0 -21 1 0
-35 0 -34 29 0 29 0 3 17 c3 19 -7 22 -22 7 l-11 -11 -12 14 -11 14 30 6 30 7
0 20 0 21 -10 -6 -10 -6 0 15 0 16 -23 0 c-13 0 -27 -3 -30 -7z" />
    <path d="M234 309 c0 -12 6 -24 12 -26 l11 -4 -1 22 c0 12 -6 24 -12 26 l-11
4 1 -22z" />
    <path d="M427 323 c-11 -11 -8 -23 6 -23 8 0 14 7 14 15 0 16 -9 19 -20 8z" />
    <path d="M690 280 l0 -50 10 0 10 0 0 50 0 50 -10 0 -10 0 0 -50z" />
    <path d="M1251 297 c-7 -7 -17 -12 -23 -12 -6 0 -13 -6 -16 -14 l-5 -14 10 6
c5 3 10 0 10 -8 0 -8 -5 -11 -10 -8 l-10 6 5 -14 c3 -8 16 -14 30 -14 l25 -1
0 13 c0 7 -6 13 -14 13 -20 0 -15 18 7 25 21 7 26 20 12 29 -5 3 -14 0 -21 -7z" />
    <path d="M1326 254 c-8 -20 1 -34 20 -34 17 0 17 10 0 33 l-14 18 -6 -17z" />
    <path d="M490 245 c0 -6 8 -11 18 -11 10 0 19 6 19 12 0 7 -9 12 -19 11 -10
-1 -18 -6 -18 -12z" />
    <path d="M623 245 c0 -18 19 -15 25 3 2 7 -3 12 -10 12 -8 0 -15 -7 -15 -15z" />
    <path d="M1410 251 c0 -5 5 -13 10 -16 6 -3 10 -2 10 4 0 5 -4 13 -10 16 -5 3
-10 2 -10 -4z" />
    <path d="M782 238 c2 -5 8 -9 13 -9 5 0 11 4 13 9 1 5 -4 9 -13 9 -9 0 -14 -4
-13 -9z" />
    <path d="M846 241 c-4 -7 -5 -15 -2 -18 9 -9 19 4 14 18 l-4 13 -8 -13z" />
    <path d="M1050 242 c0 -12 19 -26 26 -19 2 2 -2 10 -11 17 l-15 12 0 -10z" />
    <path d="M1440 241 c0 -6 5 -13 12 -17 l11 -7 -7 11 c-3 5 0 13 6 15 l13 5
-17 1 c-10 1 -18 -3 -18 -8z" />
  </g>
  <g transform="translate(0.000000,64.000000) scale(0.100000,-0.100000)" fill="#9d98aa" stroke="none">
    <path d="M730 527 c0 -7 -10 -18 -21 -26 l-22 -13 13 -8 c7 -5 20 -6 28 -2
l15 5 -6 -16 -7 -17 20 10 c24 13 25 23 6 40 -8 6 -12 18 -9 26 3 8 0 14 -6
14 -6 0 -11 -6 -11 -13z m20 -35 c0 -4 -9 -8 -20 -8 -11 0 -20 4 -20 8 0 4 9
8 20 8 11 0 20 -4 20 -8z" />
    <path d="M1047 519 l-6 -21 20 5 c10 3 22 1 25 -4 3 -5 2 -9 -3 -8 -4 1 -15 1
-23 0 l-16 -1 4 -40 4 -41 12 4 c6 2 13 17 14 33 2 16 7 34 11 39 9 12 -10 49
-26 52 -6 1 -13 -7 -16 -18z" />
    <path d="M1567 501 c-2 -10 -1 -25 4 -32 5 -8 9 -9 10 -4 0 6 2 18 4 27 4 24
-12 32 -18 9z" />
    <path d="M1015 500 c3 -5 1 -10 -4 -10 -6 0 -11 -4 -11 -10 0 -5 7 -7 15 -4
17 7 21 34 4 34 -5 0 -7 -4 -4 -10z" />
    <path d="M1130 506 c0 -2 11 -6 25 -8 l24 -5 -5 8 c-5 9 -44 13 -44 5z" />
    <path d="M1228 503 c6 -2 18 -2 25 0 6 3 1 5 -13 5 -14 0 -19 -2 -12 -5z" />
    <path d="M1378 503 c6 -2 18 -2 25 0 6 3 1 5 -13 5 -14 0 -19 -2 -12 -5z" />
    <path d="M599 483 l-14 -18 20 15 c11 8 22 16 24 17 2 2 0 3 -6 3 -6 0 -17 -8
-24 -17z" />
    <path d="M905 480 l-6 -10 14 6 14 5 7 -18 7 -18 -10 -3 c-5 -2 -7 -10 -4 -18
3 -8 1 -14 -5 -14 -15 0 -33 26 -24 35 l7 8 -12 -7 c-7 -4 -13 -9 -13 -11 0
-9 33 -35 44 -35 l14 0 6 31 6 32 -11 13 c-14 16 -25 18 -34 4z" />
    <path d="M1220 480 c0 -5 7 -7 15 -4 l15 6 0 -12 c0 -6 5 -8 10 -5 l10 6 1
-43 2 -43 4 29 c3 15 2 38 -1 50 l-5 22 -26 2 c-14 1 -25 -3 -25 -8z" />
    <path d="M1374 479 c-3 -5 2 -6 10 -3 9 3 16 2 16 -4 0 -12 -25 -33 -32 -27
-3 3 -3 -6 -1 -20 l5 -25 19 0 c11 0 19 4 19 10 0 5 -7 7 -15 4 l-15 -6 0 15
c0 9 8 22 18 29 10 7 21 18 25 24 l7 12 -25 0 c-14 0 -28 -4 -31 -9z" />
    <path d="M1156 448 c3 -4 9 -8 15 -8 5 0 9 4 9 8 0 5 -7 9 -15 9 -8 0 -12 -4
-9 -9z" />
    <path d="M830 420 c-8 -5 -12 -12 -9 -15 4 -3 12 1 19 10 14 17 11 19 -10 5z" />
    <path d="M694 409 l-5 -9 30 0 c17 0 34 0 38 -1 4 0 9 5 11 13 l4 13 -11 -15
c-6 -8 -11 -10 -11 -5 0 13 -48 16 -56 4z" />
    <path d="M395 360 l-6 -10 16 0 16 0 -6 10 c-3 6 -8 10 -10 10 -2 0 -7 -4 -10
-10z" />
    <path d="M463 355 l0 -13 14 5 c7 3 13 6 13 8 0 2 -6 5 -13 8 l-14 5 0 -13z" />
    <path d="M1337 346 c10 -13 19 -23 21 -21 5 5 -22 45 -31 45 -4 0 0 -11 10
-24z" />
    <path d="M1370 288 l0 -70 13 5 12 4 1 65 2 65 -14 0 -14 0 0 -69z" />
    <path d="M788 337 c6 -7 13 -35 15 -62 l4 -50 0 63 0 62 -15 0 -14 0 10 -13z" />
    <path d="M1020 325 c-7 -8 -17 -12 -22 -9 l-9 6 3 -49 c4 -58 22 -64 26 -8 2
22 11 48 19 58 9 9 11 17 6 17 -6 0 -16 -7 -23 -15z m-13 -77 l-4 -23 0 40
c-1 22 1 32 4 23 2 -10 2 -28 0 -40z" />
    <path d="M1582 295 l-2 -50 -10 15 -10 15 0 -14 0 -13 -15 6 c-8 3 -15 1 -15
-4 0 -6 9 -10 21 -10 l20 0 -7 -12 c-4 -7 1 -6 10 3 l17 16 -4 49 -3 49 -2
-50z" />
    <path d="M272 318 c-16 -16 -15 -38 1 -38 17 0 37 20 37 37 0 16 -22 17 -38 1z" />
    <path d="M972 290 c-1 -26 -7 -51 -14 -58 l-12 -12 12 0 c18 0 24 22 19 71
l-4 44 -1 -45z" />
    <path d="M1282 318 c-1 -10 -14 -25 -28 -34 l-25 -17 5 -19 5 -20 -17 7 -17 6
12 -12 c6 -6 16 -8 23 -4 l11 7 -6 19 -6 19 10 0 c6 0 11 -6 11 -12 l0 -13 10
15 10 15 0 -15 c0 -9 -6 -23 -12 -30 l-13 -15 18 16 18 16 -4 44 c-2 24 -4 36
-5 27z" />
    <path d="M392 303 l4 -18 26 0 c15 1 24 -3 22 -7 -3 -4 0 -8 5 -8 6 0 21 -10
33 -22 l21 -21 -5 21 -6 21 18 -12 c10 -6 17 -14 14 -18 -2 -4 6 -4 18 -1 l23
6 -17 4 c-10 2 -18 10 -18 18 l0 14 -25 0 -25 0 3 13 2 12 -32 -3 c-17 -2 -34
2 -38 7 -10 17 -27 13 -23 -6z" />
    <path d="M1600 280 l0 -36 19 0 20 0 -12 14 -11 14 24 19 25 19 -17 -6 c-10
-3 -18 -2 -18 3 0 5 -7 10 -15 10 l-15 0 0 -37z" />
    <path d="M540 296 c0 -8 10 -18 21 -21 l21 -7 9 13 c15 23 10 29 -21 29 l-30
0 0 -14z" />
    <path d="M621 256 l-12 -14 11 -7 c7 -4 17 -2 23 4 l11 11 -10 10 -11 11 -12
-15z" />
    <path d="M904 238 c3 -17 28 -17 34 0 2 6 -1 12 -8 12 -6 0 -8 -4 -5 -10 3 -5
2 -10 -4 -10 -5 0 -12 5 -14 10 -3 6 -4 5 -3 -2z" />
    <path d="M1115 239 c-10 -15 3 -25 16 -12 l11 11 -10 6 c-6 3 -14 1 -17 -5z" />
    <path d="M1343 235 c0 -8 4 -15 9 -15 4 0 8 4 8 9 0 6 -4 12 -8 15 -5 3 -9 -1
-9 -9z" />
    <path d="M1455 241 l20 -10 -14 0 -13 -1 12 -15 c7 -8 18 -15 24 -15 l11 0
-13 9 c-7 4 -12 14 -10 21 l3 14 -20 3 -20 3 20 -9z" />
    <path d="M1510 241 c0 -10 19 -25 25 -20 1 2 -3 10 -11 17 l-14 13 0 -10z" />
    <path d="M393 203 l0 -13 37 0 37 0 0 13 0 12 -37 0 -37 0 0 -12z" />
  </g>
  <g transform="translate(0.000000,64.000000) scale(0.100000,-0.100000)" fill="#adaab8" stroke="none">
    <path d="M739 545 c-5 -20 -4 -32 4 -42 5 -7 6 -17 3 -22 -4 -5 -2 -12 4 -16
6 -4 7 -11 4 -17 l-7 -11 11 6 10 7 -5 23 c-3 12 -10 27 -15 34 l-9 11 11 7
c13 8 13 25 0 25 -5 0 -11 -2 -11 -5z" />
    <path d="M1056 541 c-4 -5 -2 -12 3 -15 5 -4 12 -2 15 3 4 5 2 12 -3 15 -5 4
-12 2 -15 -3z" />
    <path d="M1560 543 c12 -6 13 -34 1 -30 -5 1 -8 -2 -7 -8 0 -5 4 -9 9 -7 4 1
7 -2 7 -8 0 -5 4 -10 9 -10 l8 0 -6 32 c-4 17 -12 33 -19 34 -7 1 -8 0 -2 -3z" />
    <path d="M709 508 c-1 -2 -2 -15 -3 -30 l-2 -28 13 0 14 0 -11 20 c-6 11 -8
25 -5 30 3 6 4 10 1 10 -3 0 -7 -1 -7 -2z" />
    <path d="M935 490 c2 -27 10 -33 12 -10 1 11 -2 22 -6 24 -4 3 -7 -4 -6 -14z" />
    <path d="M996 501 l-6 -9 20 5 c23 6 26 13 6 13 -8 0 -17 -4 -20 -9z" />
    <path d="M1214 499 c-3 -6 -1 -16 4 -21 l11 -11 -2 22 c-1 24 -3 25 -13 10z" />
    <path d="M1070 488 c0 -4 4 -8 9 -8 6 0 12 4 15 8 3 5 -1 9 -9 9 -8 0 -15 -4
-15 -9z" />
    <path d="M863 450 c0 -25 2 -35 4 -22 2 12 2 32 0 45 -2 12 -4 2 -4 -23z" />
    <path d="M1405 481 c-3 -5 -1 -12 5 -16 6 -4 7 -11 4 -17 l-7 -11 11 6 c5 4 8
16 5 27 -6 22 -9 24 -18 11z" />
    <path d="M593 440 c0 -25 2 -35 4 -22 2 12 2 32 0 45 -2 12 -4 2 -4 -23z" />
    <path d="M1254 466 c-3 -8 -4 -29 -2 -48 l4 -33 4 48 c5 48 3 58 -6 33z" />
    <path d="M1370 465 c0 -8 4 -15 10 -15 5 0 7 7 4 15 -4 8 -8 15 -10 15 -2 0
-4 -7 -4 -15z" />
    <path d="M1463 430 c0 -25 2 -35 4 -22 2 12 2 32 0 45 -2 12 -4 2 -4 -23z" />
    <path d="M1572 445 l0 -30 5 18 c2 9 2 23 0 30 -3 6 -5 -1 -5 -18z" />
    <path d="M884 420 l0 -20 10 10 10 10 -10 10 -10 10 0 -20z" />
    <path d="M927 420 c3 -11 9 -20 15 -20 l9 0 -11 20 c-6 11 -12 20 -14 20 -2 0
-2 -9 1 -20z" />
    <path d="M706 421 c-4 -7 -5 -15 -2 -18 9 -9 19 4 14 18 l-4 13 -8 -13z" />
    <path d="M1055 420 c-8 -13 3 -30 18 -29 l12 1 -12 4 c-7 3 -9 12 -6 20 6 16
-3 19 -12 4z" />
    <path d="M1096 402 c-3 -5 1 -9 9 -9 8 0 15 4 15 9 0 4 -4 8 -9 8 -6 0 -12 -4
-15 -8z" />
    <path d="M618 383 c6 -2 18 -2 25 0 6 3 1 5 -13 5 -14 0 -19 -2 -12 -5z" />
    <path d="M718 383 c6 -2 18 -2 25 0 6 3 1 5 -13 5 -14 0 -19 -2 -12 -5z" />
    <path d="M850 380 c-8 -5 -12 -12 -9 -15 4 -3 12 1 19 10 14 17 11 19 -10 5z" />
    <path d="M908 383 c6 -2 18 -2 25 0 6 3 1 5 -13 5 -14 0 -19 -2 -12 -5z" />
    <path d="M1138 383 c6 -2 18 -2 25 0 6 3 1 5 -13 5 -14 0 -19 -2 -12 -5z" />
    <path d="M1378 383 c6 -2 18 -2 25 0 6 3 1 5 -13 5 -14 0 -19 -2 -12 -5z" />
    <path d="M240 352 l0 -17 -9 14 -8 13 -8 -12 -8 -12 14 -9 c20 -12 23 -11 36
10 l12 19 -14 6 -15 5 0 -17z" />
    <path d="M413 363 l-12 -4 26 -25 c30 -27 34 -29 31 -11 -2 6 -11 15 -21 19
-10 4 -15 12 -12 18 7 11 6 11 -12 3z" />
    <path d="M861 352 l-10 -18 10 -15 c10 -16 11 -14 13 24 2 32 0 33 -13 9z" />
    <path d="M1371 355 c0 -11 3 -26 8 -34 l9 -13 7 12 8 12 -10 7 c-6 3 -13 13
-16 21 l-5 15 -1 -20z" />
    <path d="M1316 347 l-17 -13 20 -1 c22 -2 37 12 23 21 -5 3 -17 0 -26 -7z" />
    <path d="M994 329 c-3 -6 -1 -16 6 -22 l13 -12 -8 14 -8 13 14 9 14 9 -12 0
c-6 0 -15 -5 -19 -11z" />
    <path d="M1563 300 c0 -25 2 -35 4 -22 2 12 2 32 0 45 -2 12 -4 2 -4 -23z" />
    <path d="M1604 329 c-3 -6 -1 -16 6 -22 l13 -12 -8 14 -8 13 14 9 14 9 -12 0
c-6 0 -15 -5 -19 -11z" />
    <path d="M293 315 c0 -18 19 -15 25 3 2 7 -3 12 -10 12 -8 0 -15 -7 -15 -15z" />
    <path d="M340 320 c0 -5 9 -10 19 -10 11 0 28 -3 38 -6 l18 -6 -19 16 c-22 18
-56 21 -56 6z" />
    <path d="M185 305 c22 -17 37 -15 44 6 l4 14 -16 -14 -17 -13 0 11 c0 6 -8 11
-17 11 l-18 -1 20 -14z" />
    <path d="M490 309 c0 -5 -5 -7 -10 -4 l-10 6 2 -12 c2 -7 -3 -14 -9 -15 -27
-3 -27 -5 0 -20 l27 -15 13 8 c12 7 17 9 50 11 9 1 17 7 17 13 l0 11 -32 -7
c-18 -4 -35 -11 -38 -16 l-6 -8 -13 9 -14 8 22 13 c22 15 28 29 11 29 -5 0
-10 -5 -10 -11z" />
    <path d="M1120 281 c0 -22 5 -43 10 -46 l10 -6 0 40 c0 22 -4 43 -10 46 l-10
6 0 -40z" />
    <path d="M583 290 c-1 -11 2 -20 5 -20 4 0 8 9 9 20 1 11 -2 20 -5 20 -4 0 -8
-9 -9 -20z" />
    <path d="M782 273 c-2 -42 10 -63 24 -42 l7 12 -11 -7 -11 -6 -4 42 -4 43 -1
-42z" />
    <path d="M948 275 c-2 -19 0 -35 4 -35 4 0 8 16 8 35 0 19 -2 35 -4 35 -2 0
-6 -16 -8 -35z" />
    <path d="M1432 285 l0 -30 5 18 c2 9 2 23 0 30 -3 6 -5 -1 -5 -18z" />
    <path d="M255 290 c-3 -5 -2 -10 4 -10 5 0 13 5 16 10 3 6 2 10 -4 10 -5 0
-13 -4 -16 -10z" />
    <path d="M1257 253 l-7 -11 15 -6 c8 -3 17 0 21 6 l7 11 -11 -7 c-5 -3 -12 -1
-14 6 l-4 12 -7 -11z" />
    <path d="M1606 251 c-3 -5 2 -15 12 -22 l17 -14 -12 16 c-7 9 -10 19 -6 22 3
4 4 7 0 7 -3 0 -8 -4 -11 -9z" />
    <path d="M1655 250 c-4 -6 -11 -7 -17 -4 l-11 7 7 -12 8 -12 14 12 c14 11 18
19 10 19 -3 0 -8 -5 -11 -10z" />
    <path d="M560 240 c19 -13 30 -13 30 0 0 6 -10 10 -22 10 l-23 0 15 -10z" />
    <path d="M474 226 l-19 -15 19 3 c11 2 22 8 24 14 5 16 0 15 -24 -2z" />
    <path d="M690 230 c0 -5 5 -10 10 -10 6 0 10 5 10 10 0 6 -4 10 -10 10 -5 0
-10 -4 -10 -10z" />
    <path d="M730 230 c0 -5 5 -10 10 -10 6 0 10 5 10 10 0 6 -4 10 -10 10 -5 0
-10 -4 -10 -10z" />
    <path d="M1170 230 c0 -5 5 -10 10 -10 6 0 10 5 10 10 0 6 -4 10 -10 10 -5 0
-10 -4 -10 -10z" />
    <path d="M1328 228 c5 -5 16 -8 23 -6 l13 4 -23 7 -24 6 11 -11z" />
    <path d="M370 208 c0 -9 -2 -9 60 -13 l45 -3 -18 10 c-10 5 -30 7 -44 4 l-25
-7 6 9 c3 5 -1 9 -9 9 -8 0 -15 -4 -15 -9z" />
  </g>
  <g transform="translate(0.000000,64.000000) scale(0.100000,-0.100000)" fill="#c0bbc5" stroke="none">
    <path d="M670 473 l-5 -72 8 8 c4 4 7 37 5 72 l-3 64 -5 -72z" />
    <path d="M980 489 l0 -10 12 7 11 7 -7 -19 -7 -19 12 12 c6 6 8 16 5 22 -9 14
-26 14 -26 0z" />
    <path d="M1495 489 c-11 -17 1 -21 15 -4 l12 15 -10 0 c-6 0 -14 -5 -17 -11z" />
    <path d="M784 476 c-3 -8 -4 -31 -2 -52 l3 -39 5 53 c5 53 4 63 -6 38z" />
    <path d="M1107 483 c-10 -9 -9 -83 1 -83 4 0 7 20 7 45 0 25 0 45 -1 45 0 0
-4 -3 -7 -7z" />
    <path d="M1176 465 c-9 -26 -7 -32 5 -12 6 10 9 21 6 23 -2 3 -7 -2 -11 -11z" />
    <path d="M1322 435 l6 -45 -11 7 -10 6 7 -12 c14 -21 26 0 26 45 l0 44 -11 0
-12 0 5 -45z" />
    <path d="M743 401 c0 -11 5 -18 9 -15 4 3 5 11 1 19 -7 21 -12 19 -10 -4z" />
    <path d="M937 396 l-6 -15 14 6 c8 3 12 9 9 14 -7 12 -11 11 -17 -5z" />
    <path d="M250 380 c0 -5 7 -10 15 -10 8 0 15 5 15 10 0 6 -7 10 -15 10 -8 0
-15 -4 -15 -10z" />
    <path d="M255 349 c-4 -6 -13 -8 -20 -5 -8 3 -19 -3 -27 -11 l-13 -17 19 7 19
7 15 -12 16 -13 -8 13 -8 13 12 14 c7 8 10 15 7 15 -3 0 -9 -5 -12 -11z" />
    <path d="M160 331 c0 -12 5 -21 10 -21 6 0 10 6 10 14 0 8 -4 18 -10 21 l-10
6 0 -20z" />
    <path d="M433 341 c-4 -3 -9 -12 -11 -19 l-2 -13 25 17 c14 9 25 17 25 18 0 5
-30 2 -37 -3z" />
    <path d="M825 340 c-3 -6 -1 -10 5 -10 6 0 8 -4 5 -10 l-6 -10 17 7 17 6 -8
-13 -8 -13 11 7 c17 10 15 19 -8 33 l-19 13 -6 -10z" />
    <path d="M1377 335 c3 -8 9 -12 14 -9 12 7 11 11 -5 17 l-15 6 6 -14z" />
    <path d="M1020 325 c-7 -8 -9 -15 -6 -15 4 0 14 7 22 15 9 8 11 15 6 15 -5 0
-15 -7 -22 -15z" />
    <path d="M1056 325 c-3 -9 -5 -35 -5 -58 l2 -42 7 55 c7 59 6 71 -4 45z" />
    <path d="M303 317 l0 -14 24 5 c35 7 39 22 5 22 l-29 0 0 -13z" />
    <path d="M568 303 c6 -2 18 -2 25 0 6 3 1 5 -13 5 -14 0 -19 -2 -12 -5z" />
    <path d="M240 286 l10 -10 10 10 10 10 -20 0 -20 0 10 -10z" />
    <path d="M449 283 l-14 -18 16 12 c9 7 20 9 24 5 l8 -7 -7 13 c-9 16 -11 15
-27 -5z" />
    <path d="M504 269 c-3 -5 -15 -7 -27 -4 l-22 6 18 -11 18 -12 14 12 13 11 4
-13 4 -12 7 11 7 11 -15 6 c-8 3 -17 1 -21 -5z" />
    <path d="M598 273 c6 -2 12 -11 12 -19 l0 -15 10 6 11 7 -12 14 c-6 8 -17 14
-23 13 l-11 -1 13 -5z" />
    <path d="M1237 244 c2 -7 11 -10 19 -7 19 7 18 10 -5 16 l-20 5 6 -14z" />
    <path d="M1538 248 c5 -5 16 -8 23 -6 l13 4 -23 7 -24 6 11 -11z" />
    <path d="M930 240 c0 -5 7 -7 15 -4 l15 6 0 -12 0 -11 11 7 11 7 -13 8 c-19
12 -39 11 -39 -1z" />
    <path d="M1147 146 c-3 -8 0 -19 7 -25 l13 -11 13 14 c6 9 9 20 5 26 -9 15
-32 12 -38 -4z" />
    <path d="M1040 135 c0 -8 5 -15 10 -15 6 0 10 7 10 15 0 8 -4 15 -10 15 -5 0
-10 -7 -10 -15z" />
    <path d="M1295 133 c2 -10 4 -26 4 -35 1 -20 31 -25 31 -5 0 28 -13 57 -25 57
l-13 0 3 -17z" />
    <path d="M1420 140 c0 -5 5 -10 10 -10 6 0 10 5 10 10 0 6 -4 10 -10 10 -5 0
-10 -4 -10 -10z" />
    <path d="M963 120 c-7 -10 -10 -26 -7 -34 l6 -16 21 4 c23 3 22 22 0 20 -15
-2 -17 12 -3 21 12 7 13 25 2 25 -4 0 -13 -9 -19 -20z" />
    <path d="M1090 116 c0 -26 16 -37 42 -27 l16 6 -17 20 c-9 11 -22 21 -29 23
l-12 2 0 -24z" />
    <path d="M1263 106 c5 -16 27 -19 27 -3 0 7 -7 14 -15 14 -9 0 -14 -5 -12 -11z" />
    <path d="M910 94 l0 -15 10 6 c6 3 10 10 10 16 0 5 -4 9 -10 9 -5 0 -10 -7
-10 -16z" />
    <path d="M1040 95 c0 -8 7 -15 15 -15 8 0 15 7 15 15 0 8 -7 15 -15 15 -8 0
-15 -7 -15 -15z" />
    <path d="M1410 90 c0 -5 5 -10 10 -10 6 0 10 5 10 10 0 6 -4 10 -10 10 -5 0
-10 -4 -10 -10z" />
    <path d="M1160 74 l0 -15 10 6 c6 3 10 10 10 16 0 5 -4 9 -10 9 -5 0 -10 -7
-10 -16z" />
    <path d="M1240 80 c0 -5 5 -10 10 -10 6 0 10 5 10 10 0 6 -4 10 -10 10 -5 0
-10 -4 -10 -10z" />
    <path d="M1375 80 c3 -5 10 -10 16 -10 5 0 9 5 9 10 0 6 -7 10 -16 10 l-15 0
6 -10z" />
    <path d="M1106 62 c-3 -6 -1 -14 5 -17 15 -10 25 3 12 16 l-11 11 -6 -10z" />
  </g>
  <g transform="translate(0.000000,64.000000) scale(0.100000,-0.100000)" fill="#7c758e" stroke="none">
    <path d="M1060 520 c-7 -31 -7 -41 0 -45 14 -9 22 14 11 32 -6 10 -11 16 -11
13z" />
    <path d="M1555 495 l0 -22 13 4 c6 3 12 11 12 18 0 7 -6 15 -12 18 l-13 4 0
-22z" />
    <path d="M750 479 l0 -20 10 6 c5 3 7 12 3 20 -7 21 -13 19 -13 -6z" />
    <path d="M1207 486 l-6 -15 14 6 c8 3 12 9 9 14 -7 12 -11 11 -17 -5z" />
    <path d="M1352 445 l-1 -40 10 23 c5 13 13 21 18 17 5 -3 13 0 17 6 l7 12 -21
-5 -21 -6 -4 17 c-3 9 -5 -2 -5 -24z" />
    <path d="M690 449 c0 -26 11 -49 23 -49 l11 0 -11 11 c-13 13 -6 42 7 34 5 -3
11 -1 14 4 3 5 -5 11 -19 13 l-25 5 0 -18z" />
    <path d="M993 435 l0 -40 4 23 c2 12 2 30 0 40 -3 9 -5 -1 -4 -23z" />
    <path d="M1143 460 c-31 -12 -29 -22 1 -10 13 5 27 6 32 2 4 -4 4 -1 0 6 -4 6
-8 12 -9 11 -1 0 -12 -4 -24 -9z" />
    <path d="M1319 465 c-4 -5 -7 -26 -7 -45 l-1 -35 10 18 c11 18 8 79 -2 62z" />
    <path d="M1202 440 c0 -14 2 -19 5 -12 2 6 2 18 0 25 -3 6 -5 1 -5 -13z" />
    <path d="M160 330 c0 -12 35 -31 43 -23 4 3 12 1 19 -4 l13 -11 20 9 c19 7 17
10 -15 13 -8 0 -14 7 -12 14 l2 13 -19 -11 -20 -10 -6 10 c-8 13 -25 13 -25 0z" />
    <path d="M835 330 c3 -5 13 -10 21 -10 8 0 12 5 9 10 -3 6 -13 10 -21 10 -8 0
-12 -4 -9 -10z" />
    <path d="M1015 332 c3 -3 -1 -12 -7 -21 l-13 -16 23 19 c26 23 26 23 7 23 -8
0 -13 -3 -10 -5z" />
    <path d="M1106 331 c-3 -4 6 -7 19 -7 14 0 22 2 19 5 -8 8 -34 10 -38 2z" />
    <path d="M1624 332 c3 -6 2 -13 -4 -17 -14 -8 -13 -35 1 -35 6 0 9 6 6 14 -3
7 -1 18 5 24 l10 10 -13 7 -12 8 7 -11z" />
    <path d="M417 313 c-3 -5 5 -13 19 -20 l23 -11 12 14 c6 8 15 12 19 9 5 -3 11
-1 15 5 7 12 -11 12 -40 1 l-20 -9 -12 10 c-6 5 -13 5 -16 1z" />
    <path d="M1329 288 l5 -33 4 24 c2 13 0 27 -5 32 l-10 10 6 -33z" />
    <path d="M853 270 c0 -25 2 -35 4 -22 2 12 2 32 0 45 -2 12 -4 2 -4 -23z" />
    <path d="M315 290 c3 -5 19 -10 35 -10 16 0 32 5 35 10 l6 10 -41 0 -41 0 6
-10z" />
    <path d="M738 265 c-2 -19 0 -35 4 -35 4 0 8 16 8 35 0 19 -2 35 -4 35 -2 0
-6 -16 -8 -35z" />
    <path d="M912 280 c0 -14 2 -19 5 -12 2 6 2 18 0 25 -3 6 -5 1 -5 -13z" />
    <path d="M1260 280 c0 -5 5 -10 10 -10 6 0 10 5 10 10 0 6 -4 10 -10 10 -5 0
-10 -4 -10 -10z" />
    <path d="M616 251 l-6 -9 20 5 c23 6 26 13 6 13 -8 0 -17 -4 -20 -9z" />
  </g>
  <g transform="translate(0.000000,64.000000) scale(0.100000,-0.100000)" fill="#000000" stroke="none">
    <path d="M457 633 c255 -2 671 -2 925 0 255 1 47 2 -462 2 -509 0 -717 -1
-463 -2z" />
  </g>
  <g transform="translate(0.000000,64.000000) scale(0.100000,-0.100000)" fill="#a04865" stroke="none">
    <path d="M960 145 c0 -25 -1 -48 -1 -52 -2 -11 29 -28 37 -20 4 4 3 12 -4 19
l-11 11 6 44 6 43 -17 0 -16 0 0 -45z" />
    <path d="M856 149 c-3 -17 -6 -42 -6 -55 l0 -24 24 0 c14 0 31 6 39 14 l14 15
-1 37 -1 37 -12 4 -11 4 -5 -23 -4 -23 -2 23 -1 22 -14 0 -13 0 -7 -31z m44
-39 c0 -5 -4 -10 -10 -10 -5 0 -10 5 -10 10 0 6 5 10 10 10 6 0 10 -4 10 -10z" />
    <path d="M1060 149 c0 -6 -10 -19 -22 -28 l-21 -18 6 -16 6 -17 27 0 27 0 13
18 13 17 2 -15 c1 -8 2 -22 3 -30 0 -8 9 -16 18 -18 l17 -3 15 23 c8 13 16 38
18 57 l3 34 -27 4 -27 3 -14 -20 -14 -21 -6 21 c-5 21 -37 29 -37 9z m100 -28
c0 -12 -20 -25 -27 -18 -7 7 6 27 18 27 5 0 9 -4 9 -9z" />
    <path d="M1206 148 c-3 -7 -7 -25 -10 -40 l-6 -27 10 -6 10 -6 15 33 14 33 -2
-27 c-1 -15 2 -28 8 -30 13 -4 30 46 22 66 l-6 16 -26 0 c-14 0 -27 -6 -29
-12z" />
    <path d="M1320 145 c0 -8 -7 -15 -15 -15 -8 0 -19 -9 -24 -19 l-11 -19 15 -12
c7 -6 24 -10 36 -8 l23 3 7 29 8 30 -11 13 c-14 17 -28 16 -28 -2z" />
    <path d="M1388 149 l-18 -10 0 -29 0 -29 21 -6 21 -7 11 11 10 10 -16 7 c-24
9 -21 31 4 37 l21 6 -7 10 c-8 14 -25 14 -47 0z" />
  </g>
  <g transform="translate(0.000000,64.000000) scale(0.100000,-0.100000)" fill="#c89aad" stroke="none">
    <path d="M957 183 c-2 -5 -1 -19 4 -33 l7 -25 1 27 c1 14 7 29 14 31 l12 5
-17 1 c-9 1 -19 -2 -21 -6z" />
    <path d="M860 169 c0 -8 -3 -25 -5 -39 l-5 -25 14 35 14 35 1 -20 1 -20 9 14
9 13 5 -13 5 -14 1 18 c1 9 -3 17 -8 17 -5 0 -16 3 -25 6 l-16 6 0 -13z" />
    <path d="M1045 150 c-3 -5 -3 -10 1 -10 4 0 -1 -9 -11 -20 l-17 -19 5 -16 6
-15 33 0 33 0 -13 8 -13 9 3 31 c3 42 16 41 20 0 l3 -33 17 30 c10 17 17 25
18 18 l0 -12 15 5 c19 8 20 34 1 34 -8 0 -21 -9 -29 -20 l-14 -21 -6 21 -5 20
-20 0 c-12 0 -24 -4 -27 -10z m-2 -47 l-6 -16 14 8 14 8 -12 -13 c-7 -8 -16
-11 -19 -7 -7 6 2 37 10 37 3 0 2 -7 -1 -17z" />
    <path d="M1204 145 c-4 -9 -4 -19 0 -22 3 -4 6 1 6 10 0 10 4 17 9 17 5 0 7
-10 5 -22 -2 -13 -2 -17 2 -10 3 6 11 9 17 5 l10 -6 -6 16 -6 17 9 0 c6 0 10
-11 10 -23 0 -13 9 -32 19 -41 l19 -18 23 4 c12 2 24 10 26 18 l5 15 -9 -10
c-21 -27 -70 -12 -52 15 l9 15 15 -19 15 -20 1 25 c1 13 1 29 0 34 -1 6 6 1
15 -10 l16 -20 -4 14 c-6 22 -33 35 -54 27 l-18 -7 10 -7 10 -7 -17 -17 -18
-17 -3 27 -3 27 -28 3 -27 3 -6 -16z" />
    <path d="M1384 146 c-10 -8 -16 -18 -11 -22 4 -4 7 -2 7 4 0 7 4 12 9 12 4 0
6 -11 3 -25 l-4 -25 18 -1 19 0 -20 -9 -20 -9 17 0 c23 -1 33 18 14 25 -23 9
-20 31 5 37 l21 6 -7 10 c-9 15 -27 14 -51 -3z" />
    <path d="M877 123 c-13 -13 -7 -33 11 -33 l17 0 -14 9 c-7 5 -10 14 -7 20 8
12 3 15 -7 4z" />
    <path d="M979 98 c15 -21 2 -24 -19 -5 l-14 12 13 -17 c14 -19 41 -24 41 -9 0
5 -8 15 -17 22 l-18 14 14 -17z" />
    <path d="M1143 94 c-3 -8 -11 -13 -18 -10 l-12 4 1 -21 1 -22 19 0 19 0 1 33
c1 35 -2 40 -11 16z" />
    <path d="M1194 90 c2 -16 20 -14 24 2 l4 13 -10 -14 -10 -13 -5 11 -5 12 2
-11z" />
    <path d="M863 73 c9 -2 23 -2 30 0 6 3 -1 5 -18 5 l-30 0 18 -5z" />
  </g>
  <g transform="translate(0.000000,64.000000) scale(0.100000,-0.100000)" fill="#4f466a" stroke="none">
    <path d="M1060 470 c0 -35 2 -61 5 -59 7 8 9 108 2 116 -4 3 -7 -22 -7 -57z" />
    <path d="M1556 501 c-4 -5 -2 -12 3 -15 5 -4 12 -2 15 3 4 5 2 12 -3 15 -5 4
-12 2 -15 -3z" />
    <path d="M1320 447 l5 -42 3 34 c2 18 0 37 -5 42 l-8 8 5 -42z" />
    <path d="M1320 331 c0 -25 6 -27 13 -6 4 8 2 17 -3 20 l-10 6 0 -20z" />
    <path d="M170 330 c0 -11 42 -30 63 -30 16 1 -34 39 -50 40 -7 0 -13 -5 -13
-10z" />
    <path d="M462 325 c-7 -8 -26 -15 -42 -15 -16 0 -32 -4 -35 -10 l-6 -10 32 0
c42 0 100 21 96 35 -6 16 -31 16 -45 0z" />
    <path d="M840 330 c0 -5 5 -10 10 -10 6 0 10 5 10 10 0 6 -4 10 -10 10 -5 0
-10 -4 -10 -10z" />
    <path d="M1123 285 c0 -27 2 -38 4 -22 2 15 2 37 0 50 -2 12 -4 0 -4 -28z" />
    <path d="M1383 285 c0 -27 2 -38 4 -22 2 15 2 37 0 50 -2 12 -4 0 -4 -28z" />
    <path d="M255 300 c3 -5 20 -10 36 -10 l30 0 -6 10 c-3 6 -20 10 -36 10 l-30
0 6 -10z" />
    <path d="M1610 283 c0 -18 2 -33 4 -33 9 0 13 39 5 51 l-9 14 0 -32z" />
    <path d="M1265 291 c-3 -5 -1 -12 5 -16 l10 -6 0 15 c0 18 -6 21 -15 7z" />
  </g>
  <g transform="translate(0.000000,64.000000) scale(0.100000,-0.100000)" fill="#8ca542" stroke="none">
    <path d="M210 411 c0 -51 8 -71 29 -71 l16 0 3 33 c1 17 0 42 -3 55 l-5 22
-20 0 -20 0 0 -39z" />
    <path d="M270 414 c0 -19 5 -44 10 -55 l11 -19 34 0 34 0 11 19 c5 11 10 36
10 55 l0 36 -19 0 -19 0 -10 -27 -10 -28 -7 28 -7 27 -19 0 -19 0 0 -36z" />
    <path d="M425 420 c-3 -5 -5 -25 -3 -45 l2 -36 14 3 c8 2 19 10 25 19 l10 16
-7 26 c-6 27 -29 36 -41 17z" />
  </g>
  <g transform="translate(0.000000,64.000000) scale(0.100000,-0.100000)" fill="#b06a84" stroke="none">
    <path d="M876 169 c3 -6 15 -9 25 -6 l19 5 0 -15 c0 -8 -4 -11 -10 -8 l-10 6
6 -16 6 -15 -18 6 -19 6 14 -10 c7 -5 10 -15 7 -21 -4 -6 -5 -11 -2 -11 11 0
37 62 32 76 l-5 14 -26 0 -26 0 7 -11z" />
    <path d="M1052 143 l18 -4 -13 -14 c-6 -7 -16 -11 -20 -8 -5 3 -4 -4 2 -16 7
-11 17 -21 24 -21 l12 0 -14 9 -14 9 16 17 c20 19 14 36 -11 34 l-17 -1 17 -5z" />
    <path d="M1224 139 l-7 -12 11 7 10 6 5 -17 5 -18 1 17 c1 21 -15 32 -25 17z" />
    <path d="M1315 140 l20 -9 -18 0 -18 -1 6 -10 c9 -15 19 -12 31 8 l12 18 -27
1 -26 2 20 -9z" />
    <path d="M960 128 c0 -9 5 -20 10 -23 13 -8 13 5 0 25 l-10 15 0 -17z" />
    <path d="M1372 110 c0 -14 2 -19 5 -12 2 6 2 18 0 25 -3 6 -5 1 -5 -13z" />
  </g>
  <g transform="translate(0.000000,64.000000) scale(0.100000,-0.100000)" fill="#bcc952" stroke="none">
    <path d="M210 470 l0 -41 11 6 c6 4 17 -1 25 -11 l14 -19 -2 50 -3 50 -22 3
-23 3 0 -41z" />
    <path d="M270 470 l0 -39 14 5 13 5 8 -23 8 -23 4 44 c5 54 -1 71 -27 71 l-20
0 0 -40z" />
    <path d="M337 503 c-4 -3 -7 -27 -7 -52 l1 -46 14 19 c7 10 18 15 24 11 l11
-6 0 40 0 41 -18 0 c-10 0 -22 -3 -25 -7z" />
    <path d="M390 491 c0 -10 7 -21 15 -25 l15 -5 0 -33 0 -32 12 12 11 11 13 -17
13 -17 1 37 0 37 17 9 16 10 -6 16 -6 16 -51 0 -50 0 0 -19z" />
  </g>
  <g transform="translate(0.000000,64.000000) scale(0.100000,-0.100000)" fill="#d8e0a3" stroke="none">
    <path d="M253 512 l-41 -3 -6 -15 c-3 -7 -1 -14 3 -14 5 0 11 5 13 12 l4 12
12 -8 12 -7 0 -58 0 -58 13 0 14 0 -1 61 -1 61 23 -2 c23 -3 31 12 10 18 -7 2
-32 3 -55 1z" />
    <path d="M329 453 l0 -58 -9 20 -9 20 0 -28 -1 -29 13 4 12 5 5 53 5 53 13 5
12 4 0 -34 0 -33 9 14 9 13 21 -7 21 -6 0 11 c0 6 -7 13 -15 16 -28 11 -15 24
24 24 41 0 62 -14 36 -24 l-15 -5 2 -53 2 -53 3 48 4 47 15 0 14 0 0 25 0 25
-85 0 -85 0 -1 -57z" />
    <path d="M280 338 l0 -18 45 0 45 0 0 18 0 17 -45 0 -45 0 0 -17z" />
    <path d="M220 340 c0 -5 6 -10 14 -10 8 0 18 5 21 10 l6 10 -20 0 c-12 0 -21
-4 -21 -10z" />
    <path d="M420 340 c0 -5 7 -10 15 -10 8 0 15 5 15 10 0 6 -7 10 -15 10 -8 0
-15 -4 -15 -10z" />
  </g>
  <g transform="translate(0.000000,64.000000) scale(0.100000,-0.100000)" fill="#ecefcf" stroke="none">
    <path d="M244 499 l-7 -12 11 7 12 7 0 -55 0 -55 11 -6 10 -7 -3 63 -3 62 -12
4 c-6 2 -15 -1 -19 -8z" />
    <path d="M308 503 c-2 -5 -1 -26 3 -48 l6 -40 2 48 c1 44 -3 57 -11 40z" />
    <path d="M377 486 l5 -24 19 -5 18 -5 -6 -35 -5 -34 11 -8 12 -7 -3 54 -3 53
-16 -1 -16 -1 1 15 c0 8 -4 17 -10 19 l-11 4 4 -25z" />
    <path d="M200 436 c0 -30 5 -58 10 -61 l10 -6 0 60 0 61 -10 0 -10 0 0 -54z" />
    <path d="M470 470 c0 -5 7 -10 16 -10 l15 0 -6 10 c-3 6 -10 10 -16 10 -5 0
-9 -4 -9 -10z" />
    <path d="M315 390 c-3 -5 -2 -10 4 -10 5 0 13 5 16 10 3 6 2 10 -4 10 -5 0
-13 -4 -16 -10z" />
    <path d="M281 347 c-16 -20 -3 -27 51 -27 50 0 59 8 33 30 l-15 13 6 -17 6
-16 -37 0 -37 0 6 15 c7 19 2 19 -13 2z" />
  </g>
  <g transform="translate(0.000000,64.000000) scale(0.100000,-0.100000)" fill="#beca7a" stroke="none">
    <path d="M273 435 c0 -38 2 -53 4 -32 2 20 2 52 0 70 -2 17 -4 1 -4 -38z" />
    <path d="M390 490 c0 -6 7 -13 15 -16 l15 -6 2 -52 2 -51 3 49 4 48 -20 20
c-12 10 -21 14 -21 8z" />
    <path d="M213 430 c0 -36 2 -50 4 -32 2 17 2 47 0 65 -2 17 -4 3 -4 -33z" />
    <path d="M373 410 c0 -25 2 -35 4 -22 2 12 2 32 0 45 -2 12 -4 2 -4 -23z" />
    <path d="M297 348 c2 -5 15 -8 28 -8 13 0 26 3 28 8 3 4 -10 7 -28 7 -18 0
-31 -3 -28 -7z" />
  </g>
  <g transform="translate(0.000000,64.000000) scale(0.100000,-0.100000)" fill="#413760" stroke="none">
    <path d="M176 331 c-7 -11 59 -35 77 -28 l12 5 -20 1 c-11 1 -30 8 -42 16
l-22 15 -5 -9z" />
    <path d="M470 324 c-7 -8 -22 -14 -34 -14 l-21 0 14 -9 14 -9 26 11 c37 16 44
24 27 30 -8 3 -20 -1 -26 -9z" />
    <path d="M323 293 c15 -2 39 -2 55 0 15 2 2 4 -28 4 -30 0 -43 -2 -27 -4z" />
  </g>
</svg>