<?xml version="1.0" standalone="no"?>
<!DOCTYPE svg PUBLIC "-//W3C//DTD SVG 20010904//EN"
 "http://www.w3.org/TR/2001/REC-SVG-20010904/DTD/svg10.dtd">
<svg version="1.0" xmlns="http://www.w3.org/2000/svg"
 width="184.000000pt" height="64.000000pt" viewBox="0 0 184.000000 64.000000"
 preserveAspectRatio="xMidYMid meet">

<g transform="translate(0.000000,64.000000) scale(0.100000,-0.100000)"
fill="#000000" stroke="none">
<path d="M457 633 c255 -2 671 -2 925 0 255 1 47 2 -462 2 -509 0 -717 -1
-463 -2z"/>
<path d="M657 524 c-4 -12 -19 -26 -33 -33 -22 -10 -25 -16 -22 -54 3 -38 6
-42 31 -45 34 -4 39 8 35 89 -2 44 -5 57 -11 43z m-1 -59 c9 -23 -5 -65 -21
-65 -16 0 -30 42 -21 65 7 19 35 19 42 0z"/>
<path d="M1057 518 c-8 -39 6 -121 23 -126 12 -4 13 -2 3 9 -15 15 -17 70 -5
85 5 5 3 19 -3 32 l-13 23 -5 -23z"/>
<path d="M1556 524 c-9 -33 8 -127 24 -132 12 -4 13 -2 3 9 -15 15 -17 70 -5
85 5 5 3 20 -4 33 -11 21 -12 22 -18 5z"/>
<path d="M696 477 c-10 -41 7 -82 37 -85 15 -2 27 1 27 7 0 6 -10 10 -22 8
-33 -3 -36 31 -4 39 19 4 26 13 26 30 0 20 -5 24 -29 24 -22 0 -30 -6 -35 -23z
m50 2 c8 -14 -18 -31 -30 -19 -9 9 0 30 14 30 5 0 12 -5 16 -11z"/>
<path d="M797 494 c-4 -4 -7 -39 -6 -78 0 -56 2 -67 11 -50 5 12 21 27 35 33
21 10 24 17 21 54 -3 37 -6 42 -28 45 -14 2 -29 0 -33 -4z m48 -24 c8 -25 -2
-57 -20 -64 -17 -6 -29 27 -21 60 8 29 32 32 41 4z"/>
<path d="M895 490 c-4 -6 3 -9 16 -7 32 3 35 -21 4 -33 -20 -7 -26 -16 -23
-33 3 -26 46 -37 59 -15 10 15 12 60 3 82 -7 18 -49 22 -59 6z m45 -64 c0 -8
-5 -18 -11 -22 -14 -8 -33 11 -25 25 10 16 36 13 36 -3z"/>
<path d="M987 493 c-11 -11 -8 -105 3 -98 6 3 10 23 10 44 0 20 5 42 12 49 9
9 9 12 -3 12 -9 0 -19 -3 -22 -7z"/>
<path d="M1114 487 c-3 -8 -4 -32 -2 -53 2 -32 7 -40 27 -42 13 -2 28 2 35 8
8 9 4 10 -16 5 -26 -7 -26 -6 -26 39 1 28 6 46 13 46 19 0 26 -12 14 -27 -9
-10 -8 -13 5 -13 12 0 16 7 14 23 -4 26 -54 38 -64 14z"/>
<path d="M1206 485 c-9 -25 -7 -83 3 -90 6 -3 11 16 13 42 2 35 7 48 18 48 11
0 16 -14 19 -50 l5 -50 5 50 c4 35 10 50 21 50 10 0 16 -13 18 -40 5 -64 24
-69 20 -5 l-3 55 -56 3 c-45 2 -58 0 -63 -13z"/>
<path d="M1362 488 c-15 -15 -16 -70 0 -86 15 -15 45 -16 53 -2 4 6 -4 9 -17
7 -33 -3 -33 37 0 41 17 3 22 9 20 25 -3 25 -37 34 -56 15z m46 -16 c2 -7 -6
-12 -17 -12 -21 0 -27 11 -14 24 9 9 26 2 31 -12z"/>
<path d="M1457 493 c-4 -3 -6 -29 -5 -57 l1 -51 6 50 c4 35 10 50 21 50 11 0
16 -13 18 -47 2 -27 7 -48 13 -48 10 0 12 69 3 94 -6 16 -45 22 -57 9z"/>
<path d="M842 361 c-9 -26 -2 -131 9 -131 8 0 15 69 10 114 -1 11 4 23 11 28
9 5 8 8 -5 8 -10 0 -21 -9 -25 -19z"/>
<path d="M1318 349 c-7 -20 7 -112 17 -116 8 -2 11 52 6 120 -1 11 -19 8 -23
-4z"/>
<path d="M171 341 c-41 -26 53 -53 185 -53 95 -1 145 9 158 31 4 5 -2 15 -13
20 -26 14 -42 14 -38 -1 3 -16 -38 -26 -118 -27 -74 -1 -145 13 -145 29 0 12
-11 12 -29 1z"/>
<path d="M742 328 c-14 -14 -16 -98 -2 -98 6 0 10 20 10 44 0 75 36 71 43 -4
3 -39 4 -37 3 10 -1 47 -4 55 -21 58 -11 1 -26 -3 -33 -10z"/>
<path d="M911 326 c-7 -8 -11 -32 -9 -53 3 -35 6 -38 36 -41 l33 -3 -3 53 c-3
45 -6 53 -24 56 -11 2 -26 -4 -33 -12z m47 -45 c-2 -25 -8 -37 -20 -39 -15 -3
-18 4 -18 36 0 44 6 53 27 45 9 -4 13 -17 11 -42z"/>
<path d="M1007 333 c-4 -3 -6 -29 -5 -57 1 -47 2 -48 5 -11 3 22 12 48 20 58
14 15 14 17 1 17 -8 0 -18 -3 -21 -7z"/>
<path d="M1073 333 c-9 -3 -13 -23 -12 -56 l2 -52 6 43 c13 78 46 76 54 -3 l4
-40 1 46 c1 30 7 49 16 52 21 8 26 -2 26 -50 0 -24 5 -43 10 -43 14 0 12 86
-2 98 -13 10 -83 14 -105 5z"/>
<path d="M1220 325 c-13 -16 0 -21 16 -5 6 6 15 6 24 -1 13 -9 13 -12 -3 -22
-45 -29 -50 -35 -44 -51 4 -10 18 -16 37 -16 l31 0 -3 53 c-3 44 -6 52 -24 55
-11 2 -27 -4 -34 -13z m45 -66 c0 -7 -8 -15 -17 -17 -18 -3 -25 18 -11 32 10
10 28 1 28 -15z"/>
<path d="M1383 285 c0 -33 2 -45 4 -27 2 18 2 45 0 60 -2 15 -4 0 -4 -33z"/>
<path d="M1427 333 c-4 -3 -7 -25 -7 -48 0 -42 0 -43 63 -73 12 -6 8 103 -5
116 -13 13 -41 16 -51 5z m43 -55 c0 -32 -3 -39 -16 -34 -9 3 -18 6 -20 6 -10
0 -3 69 9 73 21 7 27 -3 27 -45z"/>
<path d="M1623 333 c-8 -3 -13 -24 -13 -54 0 -48 1 -49 30 -49 17 0 30 4 30 8
0 5 -10 8 -22 8 -31 -1 -30 28 0 32 28 4 39 27 22 47 -13 15 -25 17 -47 8z
m37 -29 c0 -14 -21 -19 -33 -7 -9 9 13 34 24 27 5 -3 9 -12 9 -20z"/>
<path d="M690 280 c0 -27 5 -50 10 -50 6 0 10 23 10 50 0 28 -4 50 -10 50 -5
0 -10 -22 -10 -50z"/>
<path d="M1512 283 c3 -46 4 -48 36 -51 l32 -3 -2 53 -1 53 -6 -45 c-4 -32
-11 -46 -23 -48 -15 -3 -18 4 -18 42 0 26 -5 46 -11 46 -6 0 -9 -19 -7 -47z"/>
<path d="M496 262 c-3 -6 -1 -14 5 -17 14 -9 20 -2 10 14 -6 8 -11 9 -15 3z"/>
<path d="M615 250 c-3 -5 1 -10 9 -10 8 0 18 5 21 10 3 6 -1 10 -9 10 -8 0
-18 -4 -21 -10z"/>
<path d="M873 168 c-6 -7 -13 -30 -17 -51 l-7 -38 33 3 c28 3 33 7 33 30 1 15
4 30 8 34 9 9 -12 34 -28 34 -7 0 -17 -6 -22 -12z m37 -19 c0 -5 -7 -9 -15 -9
-15 0 -20 12 -9 23 8 8 24 -1 24 -14z m-10 -44 c0 -8 -7 -15 -15 -15 -8 0 -15
7 -15 15 0 8 7 15 15 15 8 0 15 -7 15 -15z"/>
<path d="M963 130 c-3 -46 -1 -50 20 -50 16 0 19 2 8 9 -10 7 -12 20 -7 50 4
30 3 41 -6 41 -9 0 -14 -18 -15 -50z"/>
<path d="M1065 140 c18 -7 18 -8 -7 -15 -40 -10 -39 -45 1 -45 23 0 30 5 34
27 7 35 1 43 -26 42 -21 0 -21 -1 -2 -9z m5 -40 c0 -5 -7 -10 -15 -10 -8 0
-15 5 -15 10 0 6 7 10 15 10 8 0 15 -4 15 -10z"/>
<path d="M1122 138 c-19 -19 -14 -48 11 -57 l22 -9 -25 -10 -25 -11 27 0 c23
-1 29 5 37 37 6 20 11 43 11 50 0 15 -42 16 -58 0z m36 -20 c-4 -27 -28 -36
-28 -10 0 20 8 32 22 32 5 0 8 -10 6 -22z"/>
<path d="M1205 119 c-7 -32 1 -53 10 -25 15 48 19 51 23 19 4 -41 18 -43 24
-3 5 35 2 40 -28 40 -17 0 -24 -8 -29 -31z"/>
<path d="M1315 140 c19 -7 18 -9 -7 -19 -41 -15 -37 -43 5 -39 28 3 32 7 35
36 3 29 1 32 -25 31 -24 0 -25 -1 -8 -9z m10 -40 c-3 -5 -10 -10 -16 -10 -5 0
-9 5 -9 10 0 6 7 10 16 10 8 0 12 -4 9 -10z"/>
<path d="M1380 129 c-15 -28 -6 -49 22 -49 20 1 21 2 6 11 -25 14 -22 38 5 49
l22 9 -22 0 c-13 1 -27 -8 -33 -20z"/>
</g>
</svg>
