<svg width="245.333" height="85.333" viewBox="0 0 184 64" xmlns="http://www.w3.org/2000/svg"><g fill="#fdfdfc"><path d="M91.8 1.7L0 2v62h184V32.5c0-17.3-.1-31.4-.2-31.3-.2.2-41.6.4-92 .5zM67.7 11c.3 1.1 1.3 2 2.2 2 .9 0 2.2-.9 2.9-2 1.8-2.9 3.2-2.5 3.2 1v3h2c1.1 0 2-.5 2-1 0-1.4 3.6-1.2 6 .2l2.1 1.3.8-1.4.9-1.4 3.1.6c1.7.4 5.1.4 7.5.1l4.4-.6.5-1.9c.7-2.5 2.7-2.4 2.7.1v2l4.8.1c2.6 0 13 .1 23.1.3l18.3.2.9-2.3c1.1-3 1.5-2.9 3.2.7l1.5 3-1 .6c-.9.6-.8 4.5.3 8.4l.4 1.5-1.5-.4c-3.3-.9-11-.8-11.6 0-.3.5-1 .7-1.5.4-.5-.4-1.8-.3-2.9 0l-2 .6v4.1l3.4-.6 3.4-.7.7 1 .6 1 7.6-.5c4.2-.2 8-.7 8.5-1 .5-.3 1.7.1 2.7 1l1.7 1.6-.2 4.2-.2 4.2-1.7 1.2-1.8 1.3-1.7-.9-1.7-.9-5.4.6c-3 .3-5.7 1.1-6.1 1.7l-.7 1.1-3.1-1.8-3-1.8-4.6.7-4.6.7-.9-1.4c-.5-.8-.9-2.6-.9-4.2V34h-3v2.9c0 1.6-.7 3.7-1.6 4.6l-1.7 1.6-1.6-.7c-.9-.4-2.8-.7-4.3-.7H117V33h-3v9h-3v-9h-3v9h-2V31.9l-1.7.3-1.8.3-.3 4.8-.3 4.7-2.3-.6-2.4-.6-.6 1.1c-1.1 1.8-4.5 1.3-5.8-.9-1.4-2.3-3.6-2.6-4.3-.8l-.5 1.3-8.5.2-8.5.2V24.8l-3.4.6-3.4.7-1.6-1.6-1.6-1.6V16l2.5-1.6c1.3-.9 2.7-2.4 3-3.5.8-2.5 2.5-2.4 3.2.1zm-18 3.6l.6 1.6-1.6 1-1.7.9v8.6l4.3 1.2c4.5 1.4 8.7 4.6 8.7 6.8 0 .7 1.1 1.8 2.5 2.3 5.2 2 .2 5-8.2 5h-4.4l-1.5 1.5-1.5 1.5h-8.8l-1.8-1.8-1.8-1.9-8.3-1.2c-9-1.3-14.1-3.1-16.2-5.6l-1.4-1.7 1-1.6c.6-.9 3.3-2.4 6-3.3l4.9-1.7.3-5.4c.1-2.9.5-5.9.7-6.6l.4-1.2h27.2l.6 1.6zm49.6 35.5l-.6 3.9h3.3l1-2.5c.5-1.4 1.3-2.5 1.7-2.6.5 0 7.1-.2 14.8-.3l14-.1 1.7.9 1.7 1 2.6-1.2c2.7-1.2 4.5-.9 4.5.9 0 .5-.7.9-1.5.9s-1.5.7-1.5 1.5.5 1.5 1 1.5c.6 0 1 .6 1 1.3v1.4l-12.6.2-12.6.1-1.5 1.5c-1.9 1.9-5 1.9-6.1 0l-.8-1.6-6.5-.1c-3.5-.1-7-.6-7.7-1.1l-1.3-1-2.3 1.2c-1.3.7-3.4 1.1-4.7.9l-2.4-.3.3-2c.2-1.1.6-3.5.9-5.4l.5-3.3 4.2.5c2.3.3 4.8.2 5.5-.3.8-.4 2-.6 2.7-.3l1.2.4-.5 4z"/><path d="M100.5 18.2c-.2 1.3-.6 3.4-.7 4.7l-.3 2.3-4.5.4c-5.8.5-7 1-7 2.9V30h3.8c2 0 4.8 0 6.2.1h11c4.7 0 9.9 0 11.5-.1 1.7 0 4.8-.1 7-.2l4-.3-.1-2.3c0-1.2-.1-4-.2-6.2l-.2-4h-3v8h-1c-.5 0-1-.5-1-1 0-1.4-3-1.2-3.5.2l-.5 1.3-6.8.3c-8.1.3-9.2-.3-9.9-5.7l-.6-4.1H101l-.5 2.2zm-19.5.3c0 .8.7 1.5 1.5 1.5s1.5-.7 1.5-1.5-.7-1.5-1.5-1.5-1.5.7-1.5 1.5zM73.3 26c-1.3.5-2.3 1.6-2.3 2.5V30h1.9c3.3 0 5.1-1.1 5.1-3.1 0-2.1-1.2-2.3-4.7-.9zM38 21.5V25h3v-7h-3v3.5zm0 9V32h4v-3h-4v1.5z"/></g><g fill="#f5f5f2"><path d="M63.5 9.9c-.3 1.1-1.7 2.6-3 3.5L58 15v8.9l1.6 1.5c.8.9 2 1.6 2.5 1.6 1.5 0 1-1.7-.6-2.4l-1.5-.5v-7.2l3.4-3.4 3.4-3.4.6 2.5c.8 3.2 2.9 3.1 5.5-.4l2-2.7.1 2.7V15h2.6l-.4-3.5-.4-3.5h-1.9c-1 0-2.4.9-3.1 2-.7 1.1-1.6 2-1.9 2-.4 0-.9-.9-1.2-2l-.5-2h-4.1l-.6 1.9zm40.8.1l-.5 2-3.2.2c-1.7.1-4.1.1-5.3 0-2.4-.1-3.1 1.2-1.3 2.3.6.4 3.4.4 6.2 0l5-.7.5-1.9c.3-1 1.2-1.9 1.9-1.9.8 0 1.4-.5 1.4-1 0-.6-.9-1-2.1-1h-2.1l-.5 2zm49.7.4l-.9 2.4-2-.5-2.1-.5v1c0 .5.7 1.2 1.5 1.6l1.5.5V25h-2v-9h-2.9l-.3 4.2-.3 4.3-1.7-.3c-1-.2-2.7.2-3.8.8l-2 1.1v5.1l3.6-.6 3.6-.7 1.4 1.2c1.6 1.3 4.4.6 4.4-1.2v-1.1l-1.5.5c-.8.4-1.7.1-2.1-.5l-.7-1-3.3.5-3.4.6v-1c0-.9 1.3-1.2 4.2-1 .9.1 1.9-.3 2.3-.9l.7-1.1 1.3 1.1 1.4 1.2 1.8-1 1.7-1 1.9 1c4 2.1 6.1-1.1 3.1-4.8l-1.5-1.9.6 2.7.5 2.8h-.9c-2.7 0-4.6-11.9-2.4-14.1l1.1-1.1.7 1.3c.5.6.8 2.5.7 4.2l-.1 3 1.6-1.6 1.6-1.6-1.7-3.5c-2-4.2-4.3-4.6-5.6-1.2zm22.8-1.2l1.2 1.2 1.2-1.2 1.2-1.2h-4.8l1.2 1.2z"/><path d="M25 12l-4.5.5-.3 1.7c-.2 1 .1 1.8.7 1.8s1.1-.5 1.1-1v-1h9v8h3v-8h15v1.5c0 .8-.7 1.5-1.5 1.5H46v9.8l6.5 2.3 6.4 2.2.6 2.9.7 2.8h1.3c2 0 3 2.1 1.4 3.1-.8.5-3.9.9-7 .9h-5.6L48 43c-1.3 1.1-2.1 2.2-1.8 2.5.7.8 3.8-.5 3.8-1.6 0-.5 2.2-.9 4.9-.9 10.1 0 15.4-4.4 8.5-7-1.3-.5-2.4-1.6-2.4-2.3 0-2.2-4.2-5.4-8.7-6.8L48 25.7v-6.6l1.6-.9 1.6-.9-.4-2.4-.3-2.4L40 12c-5.8-.3-12.5-.3-15 0zm83 .7V14h3c1.7 0 3-.4 3-.9s-1.3-1.1-3-1.3l-3-.5v1.4zM79 13c0 .5.7 1 1.5 1s1.5-.5 1.5-1c0-.6-.7-1-1.5-1s-1.5.4-1.5 1zm4-.2c0 .5 1.1 1.4 2.4 2.1l2.3 1.3 2.2-1.3c2.6-1.7 2.7-2.9.1-2.9-1.1 0-2 .5-2 1.2v1.2l-1.2-1.2c-1.4-1.4-3.8-1.6-3.8-.4zm32 .2c0 1.4 3.6 2.1 6.4 1.4 4.1-1 3-2.2-1.9-2.2-2.5 0-4.5.3-4.5.8zm10 0c0 .5.7 1 1.5 1s1.5-.5 1.5-1c0-.6-.7-1-1.5-1s-1.5.4-1.5 1zm5 .1c0 1.2 4 2.1 6.6 1.5 3.9-1 2.8-2.3-2.1-2.3-2.5 0-4.5.4-4.5.8zm10 0c0 1.2 3.8 2.1 6 1.4 3.3-1.1 2.3-2.2-2-2.2-2.2 0-4 .3-4 .8zm-39.3 2.5c-.4.4-.7 1.7-.7 2.8l.1 2.1 1.3-1.8c1.9-2.5 2.3-2.2 2.9 2.4.3 2.3 1.1 4.6 1.9 5 1.8 1.2 7.8 1.1 7.8-.1 0-1-.9-1.3-5-1.4l-2.5-.1-.5-4.5-.5-4.5-2-.3c-1.2-.2-2.4 0-2.8.4zM81 19v3h3v-6h-3v3z"/><path d="M108 19.5V23h3v-7h-3v3.5zm14 1.1v4.5l-1.9-.6c-2-.6-5.1.3-5.1 1.5 0 .4 1.8.7 3.9.7h4l.6-1.5.6-1.5 1.3 1.8 1.3 1.8 1.1-.7c1.7-1.1 1.5-2.9-.3-2.2l-1.5.5V16h-4v4.6zm6-3.3c0 .8.7 1.4 1.5 1.4s1.5-.6 1.5-1.4c0-.7-.7-1.3-1.5-1.3s-1.5.6-1.5 1.3zm-91 2.6c0 4.2 1 6.1 3.1 6.1H42v-9h-5v2.9zm25 .1v3h3v-6h-3v3zm25-1.5c0 .8.7 1.5 1.5 1.5s1.5-.7 1.5-1.5-.7-1.5-1.5-1.5-1.5.7-1.5 1.5zm-13.2 1.2c-1 .2-1.8 1.1-1.8 2v1.5l2.3-.6c1.2-.3 2.8-.6 3.5-.6.6 0 1.2-.7 1.2-1.5V19l-1.7.1c-1 .1-2.6.3-3.5.6z"/><path d="M115.8 19.7c-1 .2-1.8 1.1-1.8 2v1.5l2.3-.6c1.2-.3 2.5-.6 3-.6.4 0 .7-.7.7-1.5 0-1.5-.9-1.7-4.2-.8zm25.2.8c0 .8.7 1.5 1.5 1.5s1.5-.7 1.5-1.5-.7-1.5-1.5-1.5-1.5.7-1.5 1.5zm-75.2 3.9c-2.4 1.8-2.3 2.9.2 2.1l2-.6v1c0 .6.5 1.1 1 1.1.6 0 1-1.1 1-2.5V23h-1.2c-.7 0-2.1.7-3 1.4zM100 24v1.2l-1.6-.6c-1.9-.7-5.4.1-5.4 1.4 0 1.3 6.8.9 8-.5l1.1-1.3-1.1-.7c-.5-.3-1-.1-1 .5zm-80.5.8c-.6.4-2.8 1.4-5 2.1-9.4 3.2-8.9 9 1 12.1 2.2.7 4.8 1.6 5.7 2.1l1.7.9.7-1.1c.7-1.3 1.2-1-6-3.4-3.3-1.1-6.4-2.8-7-3.8l-1.1-1.8 2-1.5c1.1-.8 3.6-1.9 5.7-2.5l3.8-1v-1.4c0-1.7-.2-1.8-1.5-.7zm54.3.4l-2.8 1V31h1.4c.8 0 2.6-.4 4-1l2.6-1v-5l-1.2.1c-.7 0-2.5.5-4 1.1zM76 28c-1.6 1.1-4 1.3-4 .5s4.4-2.4 5-1.8c.2.2-.2.8-1 1.3zm57.5-1.3c.8 3.5 1.1 3.7 3 3 3.2-1.3 1.2-5.7-2.7-5.7h-1l.7 2.7z"/><path d="M80.9 27.2c0 .7-.2 4.5-.2 8.4l-.2 7.1 3.2.1 3.1.1.6-1.6.7-1.6 1.5 2.1 1.5 2.2h2.7l2.7.1-1.7.9-1.7 1-.7 4.5-.6 4.5-1.7.9c-.9.5-1.2 1.3-.8 1.7.4.5 1.6.3 2.7-.4l1.9-1.2.6 1c1.4 2.3 2.1.6 1.9-5l-.1-6H99v4.1l1-.6c.6-.3 1-1.5 1-2.5v-1.9l-2-.6c-1.1-.4-1.8-1.1-1.4-1.6.3-.5 1-.7 1.5-.4.5.4.9-.1.9-.9 0-1.9-1.3-2-4-.4l-2 1.3-1.8-1.1-1.7-1.1v-8.6l1.7-1 1.7-1.1 2.4 1.3 2.5 1.3 1.4-.8c.7-.5 4.5-1 8.3-1.1l7-.3 2.3 1.2 2.2 1.1 2.6-1.3 2.5-1.4 1.7 1c.9.6 1.9 1.9 2.2 3 .3 1 1 2 1.7 2.1l1.1.2v-4.4l-.1-4.4-1.1.7c-1 .7-6.8 1.2-11.1 1h-11c-4.9.1-9.7.1-10.5.1-.8 0-3.2-.1-5.3-.1h-3.8l1.3-1.5 1.2-1.5-1.9.3-2 .4-.6 3c-.4 1.7-.7 4.9-.8 7.2 0 2.4-.5 4.3-1.1 4.3h-1l-.2-4.8c0-2.6 0-5.9.1-7.5l.2-2.7h-1.5c-.9 0-1.6.6-1.7 1.2zM37 30v2h6v-1.4c0-1.4-2.1-2.6-4.6-2.6H37v2zm123.8-1.3c-1.6.2-2.8.9-2.8 1.4v1l5.1-.7 5.1-.7-.4 2.9-.3 2.9-2.2 1c-1.3.5-2.3 1.6-2.3 2.3v1.4l2.8-.7 2.7-.6-1.7 1.7-1.7 1.8-2.6-1.4-2.6-1.4-2 1.3-2.1 1.2-3-.6-3-.7-.8 1.2-.7 1.2-3.1-1.6c-3.4-1.8-6.2-2.1-6.2-.7 0 .5-.9.7-2 .4l-2-.5v1c0 1.5 3.2 2 5.1.8l1.6-.9 3.6 2.2 3.5 2.1 1.6-1.6 1.7-1.6 1.4.6c.9.3 2.6.1 4-.4l2.5-1 2.5 1.2 2.4 1.1 2.4-1.6 2.4-1.5v-9.7l-1.5-1.8c-1.5-1.7-2.2-1.8-7.4-1zM25 30.5c0 .8.7 1.5 1.5 1.5s1.5-.7 1.5-1.5-.7-1.5-1.5-1.5-1.5.7-1.5 1.5z"/><path d="M153.2 34.5l.3 5 1.8.3 1.7.3V29.4h-4.1l.3 5.1zM13 32v2h3v-4h-3v2zm62 4.5V41h-3.5c-1.9 0-3.5.5-3.5 1v1.1l5.6-.2 5.6-.2-.6-2.1c-.3-1.2-.6-3.6-.6-5.4V32h-3v4.5zm17-1.1V39h4.1l-.3-3.2-.3-3.3-1.7-.3-1.8-.3v3.5zm10-1.8v1.6l1.5-1.2c.8-.7 1.5-1.4 1.5-1.6 0-.2-.7-.4-1.5-.4s-1.5.7-1.5 1.6zm6-.3c0 .8.7 1.4 1.5 1.4s1.5-.6 1.5-1.4c0-.7-.7-1.3-1.5-1.3s-1.5.6-1.5 1.3zm6 0c0 .8.7 1.4 1.5 1.4s1.5-.6 1.5-1.4c0-.7-.7-1.3-1.5-1.3s-1.5.6-1.5 1.3zm9 .2c0 .8.7 1.5 1.5 1.5s1.5-.7 1.5-1.5-.7-1.5-1.5-1.5-1.5.7-1.5 1.5zm11 2.5v4h3v-8h-3v4zm10-.5V39h3v-7h-3v3.5zm-25-.5v2h3v-4h-3v2zm8.6 5.5c-.6 1.7-3.7 2-5.3.4l-1-1-2.7.7c-3.4.8-3.4 2.5.2 2.4 1.5-.1 3.9.2 5.3.5l2.6.7 1.6-1.7c1-.9 1.7-2.1 1.7-2.6 0-1.5-1.7-1-2.4.6zM26.5 41c.3.5 2.1 1 3.8 1h3.3l1.7 2c1.7 2 4.7 2.7 4.7 1.1 0-.5-.7-1.1-1.5-1.5-.8-.3-1.5-1.2-1.5-2.1V40H25.9l.6 1zm83.5.5c0 .8.5 1.5 1 1.5.6 0 1-.7 1-1.5s-.4-1.5-1-1.5c-.5 0-1 .7-1 1.5zm3 0c0 .8.5 1.5 1 1.5.6 0 1-.7 1-1.5s-.4-1.5-1-1.5c-.5 0-1 .7-1 1.5zm-12 .5c0 .5.5 1 1 1 .6 0 1-.5 1-1 0-.6-.4-1-1-1-.5 0-1 .4-1 1zm4 0c0 .5.9 1 2 1s2-.5 2-1c0-.6-.9-1-2-1s-2 .4-2 1zm27 0c0 .5.5 1 1 1 .6 0 1-.5 1-1 0-.6-.4-1-1-1-.5 0-1 .4-1 1zm-47 4.5c0 .8.5 1.5 1 1.5.6 0 1-.7 1-1.5s-.4-1.5-1-1.5c-.5 0-1 .7-1 1.5zm19.1 1.3c-.7.2-1.7 1.6-2.3 3.1l-1 2.6-.5-1.3c-.7-1.9-2.3-1.4-2.3.8 0 1.1.4 2 1 2 .5 0 .7.6.4 1.4l-.5 1.3h2.5c2.6 0 3.4-1.1 1.7-2.1l-.9-.6 1.1-3.1 1.2-3.1 3.1.5c3.9.7 11.5-.3 10.9-1.3-.5-.8-12.2-.9-14.4-.2zm16.4.2c-.6 1 7 2 11.1 1.3l3.4-.6v1.2c0 .6.7 1.1 1.5 1.1 2 0 1.9-1.6-.2-2.6-2.4-1-15.2-1.4-15.8-.4zm19 0l-.6 1h6.2l-.6-1c-.3-.6-1.5-1-2.5-1s-2.2.4-2.5 1zm-55.7 4.4c-.6 1.4-.8 3.2-.5 4 1.1 2.9 2.2 1.7 2.3-2.4.2-4.6-.2-4.9-1.8-1.6zm58-1.7l-1.8.4V55h3.4l-1.2 1.2-1.2 1.2-2-1.2c-2.6-1.6-5-1.5-5 .2v1.3l2.3.1c1.2 0 2.7.1 3.2.2 4.1.9 6.5-1.9 3.9-4.5l-1.5-1.5h1.5c.9 0 1.6-.5 1.6-1 0-1-.3-1.1-3.2-.3zM108 56.8c0 1.3 2.8 4.7 3.4 4.2 1-1-.6-5-2-5-.8 0-1.4.4-1.4.8zm7.7 1.4c-1 1.1-1.7 2.2-1.4 2.4.7.7 3.7-.7 3.7-1.7 0-.5 2.7-.9 6-.9h6v-2l-6.2.1-6.3.1-1.8 2z"/></g><g fill="#edecec"><path d="M91.8.7L0 1v2h184V1.5c0-.8-.1-1.4-.2-1.3-.2.2-41.6.4-92 .5zM63.2 11.6L61 15.1l1.7-.3c1-.2 2.2-1.3 2.8-2.6.5-1.2 1.3-2.2 1.8-2.2.4 0 .5-.5.2-1-1-1.6-1.9-1.1-4.3 2.6zM72 11l-2.1 3h1.5c.9 0 1.6-.5 1.6-1.2 0-.6.8-.1 1.9 1 1.9 2.3 4.6 2.9 5.6 1.2.3-.6 1.6-1 2.8-1h2.1l-1.2-1.2-1.1-1.1-2.6 1.1c-3.8 1.8-4.6 1.5-4.3-1.4l.3-2.7-1.1-.4c-.7-.2-2.2 1-3.4 2.7zm33.5-2c-.4.6-.1 1 .4 1 .6 0 1.1.6 1.1 1.4 0 .8.6 1.6 1.3 1.9l1.2.4-1.2 1.4c-.7.7-1.3 2.5-1.3 4.1v2.7l2.2 2c2.7 2.6 5.7 3.6 7 2.3l.9-.9-3-.6-3.1-.7v-3.1l-1 .6-1 .6v-5.2l1 .6 1 .6v-3.2l3-.5c1.6-.4 2.7-1.1 2.4-1.6l-.6-.9-3.4.7-3.4.6v-2c0-2.1-2.6-3.7-3.5-2.2zm48.6 2l-1 3-2.6-1.2-2.6-1.1-1.1 1.1-1.2 1.2h1.5c.8 0 2.7.6 4.2 1.2l2.7 1.3v3.2c0 1.7.5 3.5 1 3.8l1 .6v-7.9l-1.2-.6-1.3-.6 1.3-.6c.6-.3 1.3-1.5 1.3-2.7l.1-2.2.5 1.7c.5 2.1 2.3 2.4 2.3.5 0-1.4-1.9-3.7-3.1-3.7-.4 0-1.2 1.4-1.8 3z"/><path d="M67 13.2V16h1.5c1.9 0 1.9-1.1 0-3.6l-1.4-1.9-.1 2.7zm37.5-1.1c-.4.6-1.3.8-2.1.5-.8-.3-2.3 0-3.4.6l-1.9 1.2-2.6-1.4-2.5-1.4-1.2 1.2-1.2 1.2h2.7c1.5 0 2.7.4 2.7 1 0 .5.9 1 2 1s2-.5 2-1c0-.6 1.6-1 3.5-1h3.5v-1.5c0-1.8-.6-1.9-1.5-.4zm16.3 1.1c-1.6.5-2.8 1.4-2.8 1.9 0 1.3 2.4 1.1 3.7-.2l1.1-1.1 4.4.5c2.3.2 5.3.8 6.6 1.2l2.2.7v-.9c0-2.5-10.2-3.9-15.2-2.1zm16.7-.2l-.6 1h2c1.1 0 2.3.4 2.6 1 .7 1.2 3.5 1.3 3.5.2 0-2-6.5-3.9-7.5-2.2zM86 18.1c0 5-.8 6.9-3 6.9h-1.8l-.6 2.2c-.3 1.3-.7 5-.8 8.3l-.2 6-.3-4.8-.4-4.7h-2.6l.4 3.2c.7 6.1 1.3 7.8 2.7 7.8 1.7 0 2.6-2.2 2.6-6.6v-3.5l1.2.7 1.1.7-.5-1.9c-.3-1-.9-2.7-1.3-3.7l-.7-1.7 1.6.6 1.6.6v-2.1l5.3.1c9 0 10.7-.1 10.7-1.1 0-.5-1.2-1.2-2.6-1.5l-2.7-.7-1 1c-.6.6-2.1 1.1-3.4 1.1H89l-.1-3.3c-.1-1.7 0-4.1 0-5.3l.2-2.1H86v3.8zm17-2.7c0 .2.7.9 1.5 1.6l1.5 1.2v-1.6c0-.9-.7-1.6-1.5-1.6s-1.5.2-1.5.4z"/><path d="M128 16.3c0 .8.7 1.4 1.5 1.4s1.5-.6 1.5-1.4c0-.7-.7-1.3-1.5-1.3s-1.5.6-1.5 1.3zm-66 1.3v1.5l1-.6 1-.6v2c0 1.2.5 2.1 1 2.1.6 0 1-1.4 1-3v-3h-4v1.6zm28-.1c0 .8.7 1.5 1.5 1.5s1.5-.7 1.5-1.5-.7-1.5-1.5-1.5-1.5.7-1.5 1.5zm56 3.7v5.2l.9-1c.5-.5 1.1-2.8 1.3-5.2l.4-4.2H146v5.2zm11-1.8c0 1.9.5 3.8 1.1 4.1 1.5 1 1.7.4 1.1-3.8-.5-4.7-2.2-4.9-2.2-.3zM41 20c0 1.1.5 2 1 2 .6 0 1-.9 1-2s-.4-2-1-2c-.5 0-1 .9-1 2zm35-1.1c0 .5.6 1.2 1.3 1.4.6.3-.5.3-2.5 0l-3.8-.6V23h5.4l-1.2 1.2-1.2 1.2-3.7-1.3-3.7-1.4-.4 1.2c-.2.6-1.5 1.1-3 1.1h-2.6l1.2 1.2 1.3 1.3 3.1-1.8 3-1.7-.5 2-.5 2h1.3c.7 0 2.8-.7 4.8-1.5 1.9-.8 3.7-1.1 4.1-.8.3.4.6-1.2.6-3.5V18h-1.5c-.8 0-1.5.4-1.5.9zm39.3.5c-2.6 1.2-3.1 3.6-.7 3.6h1.5l-.7-1.3-.7-1.2 1.4 1.2c.7.7 1.9 1.3 2.6 1.3h1.3v-5l-1.2.1c-.7.1-2.3.6-3.5 1.3zm27-.1l.5 1.3-2.9-.4-2.9-.4v3.1l2.8.3 2.7.4-1.8.8-1.8.9-2.6-1.4-2.6-1.4-.4 1.2-.4 1.2-1.6-.6-1.6-.6.6 1.7c.4 1 .7 2 .7 2.2 0 .2.9.4 2.1.4h2.1l-.5-1.4-.6-1.5 1.5.6c1.7.6 1.8 1.5.2 3.1l-1.2 1.2h1.6c.9 0 1.9-.6 2.1-1.3.3-.6.6-.2.6 1 .1 1.3.5 2.3 1 2.3 1.8 0 4.1-1.2 4.1-2.2v-.9l-1.9.6-1.9.6.2-1.6c.3-1.9 2.6-3.6 3.8-2.9.4.3.8-1.3.8-3.5V18h-3.2l.5 1.3zM37.2 22.6l.3 3.9 2.3.3 2.2.3v-3l-1.4.5-1.3.5-.7-1.6c-.3-.9-.4-2.1-.1-2.5.3-.5 0-1.2-.6-1.5l-1-.7.3 3.8zm-6.2.1V25h3v-4.7h-3v2.4zm50-1c0 .7.7 1.3 1.5 1.3s1.5-.6 1.5-1.3c0-.8-.7-1.4-1.5-1.4s-1.5.6-1.5 1.4zm10-.2c0 .8.7 1.5 1.5 1.5s1.5-.7 1.5-1.5-.7-1.5-1.5-1.5-1.5.7-1.5 1.5zm14.2 2.6c.2.7 1 1.5 1.7 1.7l1.4.4-.5-1.3c-.2-.7-1-1.5-1.7-1.7l-1.3-.5.4 1.4zm21.8.5v1.5l1-.6c.6-.3 1-1 1-1.6 0-.5-.4-.9-1-.9-.5 0-1 .7-1 1.6zm-8.5.4c.3.5 1.5 1 2.6 1 1 0 1.9-.5 1.9-1 0-.6-1.2-1-2.6-1h-2.5l.6 1zm30.5 0c0 .5.9 1 2 1s2-.5 2-1c0-.6-.9-1-2-1s-2 .4-2 1zM18.5 26c-1.1.4-3.5 1.4-5.3 2-1.8.7-3.7 2.2-4.3 3.2l-1.1 2 1.8 1.9C12.7 38.5 29 42.6 29 40c0-.6-1.3-1-3-1-1.6 0-5.9-1-9.5-2.1L10 34.7v-1.3c0-1.8 1.7-2.7 2.3-1.2l.5 1.3L14 32l1.1-1.5-.6 2.2-.6 2.3h2c2.3 0 2.8-1.9 1-3.7-1.5-1.5-.3-3.3 2.2-3.3H21v-1.5c0-.8-.1-1.5-.2-1.4-.2 0-1.2.4-2.3.9zm28.5.9c0 .5 1.3 1.2 2.8 1.6 1.5.3 4.2 1.4 6 2.5l3.2 2v4h-5v3h6.8l.5 1.2.5 1.3 1.3-1.3 1.3-1.2h-1.7c-.9 0-1.7-.6-1.7-1.4v-1.4l2.2.6 2.1.5-.7-1.1c-.4-.7-1.3-1.2-2.1-1.2-.7 0-1.6-1.2-1.9-2.6l-.7-2.5-4.2-1.9c-2.3-1-5.2-2.1-6.4-2.5l-2.3-.6v1zm30 1.6L75.8 30h1.6c.9 0 1.6-.7 1.6-1.5s-.2-1.5-.4-1.5-.9.7-1.6 1.5z"/><path d="M24.7 28.7c-1.3 1.2-.7 3.3.9 3.3.8 0 1.2-.4.9-1l-.6-1 1.5.6 1.6.6V28h-1.8c-1 0-2.2.3-2.5.7zm11.3.2c0 .5.3 1.6.6 2.5l.6 1.6h2.4c1.3 0 2.4-.5 2.4-1 0-.6-.9-1-2-1s-2-.5-2-1.1v-1l2 .6 2 .6v-1c0-.6-1.3-1.1-3-1.1-1.6 0-3 .4-3 .9zm35 1.6c0 .8.7 1.5 1.5 1.5s1.5-.4 1.5-.9-.7-1.1-1.5-1.5l-1.5-.5v1.4zm16 .2v2h1.5c.8 0 1.5-.4 1.5-.7 0-.4-.7-1.3-1.5-2L87 28.8v1.9zm8-.7c0 .5.5 1 1 1 .6 0 1 .9 1 2 0 2.9 2.3 2.5 3.7-.7 1.5-3.1 1-4.1-1.1-2.4l-1.4 1.2-.7-1.1c-.8-1.3-2.5-1.3-2.5 0zm31 0c0 .5.5 1 1 1h1v4.3c0 2.4-.5 4.8-1.2 5.5-.6.6-.8 1.5-.4 1.9 1.3 1.3 3.6-2.9 3.6-6.5v-3.3l1.1.7 1.1.6-.4-1.8c-.2-1.1-.8-1.9-1.5-1.9-.6 0-1.5-.3-1.9-.8-1.1-1-2.4-.9-2.4.3zm26 0c0 .5.5 1 1 1 .6 0 1-.5 1-1 0-.6-.4-1-1-1-.5 0-1 .4-1 1zm4 .1c0 1.1 4.6 2.3 5.9 1.4 2.1-1.2 1.1-2.1-2.4-2.2-1.9-.1-3.5.3-3.5.8zm10.2 0c.2.7 1 1.5 1.7 1.7l1.4.4-.5-1.3c-.2-.7-1-1.5-1.7-1.7l-1.3-.5.4 1.4zM51.3 32.5c-.3.9-.3 1.8 0 2.2 1 1 3.7-.6 3.7-2.2 0-2-2.9-2-3.7 0zm51 0c-.7.8-1.4 3.1-1.4 5.2-.1 2.1-.3 3-.6 2-.6-2.3-2.5-2.2-4.1.4-1.6 2.5-.9 3.7 1.2 2l1.4-1.2.4 1.2.4 1.3 1.7-.7 1.7-.6v-9.3l1.5.6 1.5.5v-1.4c0-1.9-2.1-1.9-3.7 0zm31.7 0v1.6l1.1-.7 1.2-.7-.5 3.7-.4 3.6h2.7l-.3-4.2-.3-4.3-1.7-.3-1.8-.3v1.6zm-41-.1c0 .2.7.9 1.5 1.6l1.5 1.2v-1.6c0-.9-.7-1.6-1.5-1.6s-1.5.2-1.5.4zm19.8 4.3l-.1 4.8-.4-4.3c-.5-5-2.3-5.7-2.3-.8 0 4.4.9 6.6 2.6 6.6 1.4 0 2-1.7 2.7-7.8l.4-3.2H113l-.2 4.7zm6.2-3.1c0 .8.4 1.3.9 1 .5-.4 1.1 0 1.4.6.2.7.8 1 1.2.6 1.2-1.1-.2-3.8-2-3.8-.8 0-1.5.7-1.5 1.6zm24 1.3c0 3 1.1 5.1 2.6 5.1.8 0 1.4-.7 1.4-1.6v-1.5l-1 .6-1 .6v-2.5c0-1.4-.4-2.6-1-2.6-.5 0-1 .9-1 1.9zm24 .1c0 .5-.9 1-2 1s-2 .6-2 1.3v1.3l2.6.2 2.5.2-.6-.9c-.3-.5-.1-1.2.5-1.6 1.3-.8 1.3-2.5 0-2.5-.5 0-1 .4-1 1zm-75 3.7c0 .7.9 1.3 2 1.3s2-.6 2-1.3c0-.7-.9-1.3-2-1.3s-2 .6-2 1.3z"/><path d="M123 38.5V40h4v-3h-4v1.5zm30 0c0 .8.7 1.5 1.6 1.5h1.6l-1.2-1.5c-.7-.8-1.4-1.5-1.6-1.5-.2 0-.4.7-.4 1.5zm-109 2V42h4v-3h-4v1.5zm45-.6c0 1.2 2.9 3.5 3.6 2.8.4-.3-.1-1.3-.9-2.2-1.7-1.7-2.7-1.9-2.7-.6zm42 0c0 1.6 2.5 2.8 5.8 2.9l3.2.1v-1.1c0-.5.6-.8 1.3-.5.6.3 2 .8 3 1.2l1.7.7v-1c0-.5-1.4-1.6-3.2-2.3l-3.2-1.3-.4 1.2c-.4 1.4-6.2 1.6-6.2.2 0-.6-.4-1-1-1-.5 0-1 .4-1 .9zm26 .6c-.7.9-1 1.8-.7 2.1.6.7 4.7-1.8 4.7-2.8 0-1.4-2.7-.9-4 .7zM35.7 41.7c1 3.1 5.3 5.7 5.3 3.3 0-.6-.6-1-1.4-1h-1.4l.5-2 .5-2h-4.1l.6 1.7zm37.8-.6c-.4.6-.5 1.3-.2 1.6.7.7 2.7-.6 2.7-1.8 0-1.2-1.7-1.2-2.5.2zm33 0c-.4.6-.5 1.3-.2 1.6.7.7 2.7-.6 2.7-1.8 0-1.2-1.7-1.2-2.5.2zm42.5.1v1.3l2.5.1c2.8.2 3.4-1.1.9-2-2.4-.9-3.4-.7-3.4.6zm-100 .7c0 .5-.9 1.3-2 1.6-1.1.3-2 1.1-2 1.6 0 1.5 1.6 1 4.6-1.6l2.9-2.5h-1.7c-1 0-1.8.4-1.8.9zm20 .1c0 .5.4 1 .9 1 .6 0 1.3-.5 1.6-1l.6-1h-1.5c-.9 0-1.6.4-1.6 1zm15 0c0 .5.4 1 .9 1 .6 0 1.3-.5 1.6-1l.6-1h-1.5c-.9 0-1.6.4-1.6 1zm32.8.2l1.2 1.2 1.2-1.2 1.2-1.2h-4.8l1.2 1.2zm4.7-.2c.3.5 1 1 1.6 1 .5 0 .9-.5.9-1 0-.6-.7-1-1.6-1h-1.5l.6 1zM86 46c0 .5.5 1 1 1 .6 0 1-.5 1-1 0-.6-.4-1-1-1-.5 0-1 .4-1 1zm5-.2c0 .5.3 1.2.7 1.6.4.4.6 2.3.4 4.3l-.3 3.5 1.1-.7c.7-.3 1.1-1.2 1-1.8-.3-2.8.2-4.8 1.1-4.2.5.3.7 1.2.3 2l-.5 1.5h1.1c1.2 0 1.5-3.9.3-5.5-.9-1.2-5.2-1.8-5.2-.7zm14 1.9c-.8.2-2.3 2.2-3.4 4.4l-1.8 4.1-2.4-.6L95 55v1c0 1.7 3.1 2.4 5.1 1.2l1.8-1.2.6 1c.8 1.3 6.2 1.3 7 0l.6-1h-3.5c-3.9 0-4.1-.5-2.6-4.4l1-2.6h4.1l-.6-1c-.6-1-1-1.1-3.5-.3zm8.5.3l-.6 1h3.2l-.6-1c-.3-.6-.8-1-1-1-.2 0-.7.4-1 1zm10 0l-.6 1h3.2l-.6-1c-.3-.6-.8-1-1-1-.2 0-.7.4-1 1zm5.8.2c-2.6 1.2-3.1 3.8-.8 3.8.8 0 1.5-.7 1.5-1.5 0-1.8 2-1.9 5.5-.3l2.6 1.1 1.1-1.1c.7-.7 1.9-1.2 2.8-1.1h1.5l-2.2.9-2.3.9v4l1.8.4 1.7.5-1.7.1c-.9 0-2-.4-2.3-.9-.3-.6-1.5-1-2.6-1-1 0-1.9.4-1.9 1 0 .5-.9 1-2 1s-2 .4-2 1c0 1.5 4.8 1.2 5.3-.3l.4-1.2 1.6 1.3c.9.8 2.6 1.2 3.9 1l2.3-.3v-4l-1.2.3c-2.1.4-1.4-1.5.7-2.1 1.1-.3 2-1.2 2-2 0-2.1-3.4-2.7-6.4-1.2-1.4.7-2.6 1-2.8.5-.6-1.4-4.3-1.9-6.5-.8zM118 49c0 .5.7 1 1.5 1s1.5-.5 1.5-1c0-.6-.7-1-1.5-1s-1.5.4-1.5 1z"/><path d="M98 51.1v2l1-.6c.6-.3 1-1.3 1-2.1s-.4-1.4-1-1.4c-.5 0-1 .9-1 2.1zm-13.4.8c-.4.7-.5 1.5-.2 1.8.9.9 1.9-.4 1.4-1.8l-.4-1.3-.8 1.3zm28.4.6c0 .8.7 1.5 1.5 1.5s1.5-.7 1.5-1.5-.7-1.5-1.5-1.5-1.5.7-1.5 1.5zm4 2.3c0 2.5-1.9 4.2-4.8 4.2h-2.3l.6 1c1 1.6 4.3 1.2 6.3-.7l1.7-1.8 3.8-.1c6.1-.2 6.7-.4 6.7-1.4v-1.1l-4.5.4-4.5.3v-1.3c0-.7-.7-1.3-1.5-1.3H117v1.8zM84.5 57c.3.5 1.7 1 3 1s2.7-.5 3-1l.6-1h-7.2l.6 1z"/></g><g fill="#d4d5da"><path d="M66 10c0 .5.5 1 1 1 .6 0 1-.5 1-1 0-.6-.4-1-1-1-.5 0-1 .4-1 1zm6.5.7l-.6 1.8 2 1.7c1.2.9 2.1 2.3 2.1 3.2 0 .9.7 1.6 1.5 1.6s1.5-.4 1.5-.9c0-.4 1.4-.7 3-.5l3 .4v-3l-2.7-.1c-1.6-.1-3.3-.1-4 0-.6.1-1.5-.4-2-1.1-.8-1.3-.9-1.8-1.2-3.8-.2-1.6-1.8-1.1-2.6.7zM156 10c0 .5.5 1 1 1 .6 0 1-.5 1-1 0-.6-.4-1-1-1-.5 0-1 .4-1 1zm-93 3.5L61.8 15h1.6c.9 0 1.6-.7 1.6-1.5s-.2-1.5-.4-1.5-.9.7-1.6 1.5zm95-.1c0 .9.5 1.6 1 1.6.6 0 1-.4 1-.9 0-.6-.4-1.3-1-1.6l-1-.6v1.5zm-89.2 1L67 15.7V23h3v-8h1c.6 0 1-.5 1-1 0-1.3-1.1-1.2-3.2.4zm24.2-.8c0 1.1 2.9 3.4 4.4 3.4H99l-.1 3.7c0 2.1-.3 3.2-.6 2.5-.7-1.8-3.3-1.5-3.3.5 0 .9.3 1.3.7 1 .3-.4 1.2-.2 2 .5l1.4 1.1.8-.9c.5-.5 1.1-2.8 1.3-5.2l.4-4.2h-3.1l1.5-1c.8-.5 1.1-1.2.7-1.6-.3-.4-1.4-.1-2.2.6l-1.6 1.3-1.1-1.1c-1.3-1.3-2.8-1.6-2.8-.6zm9 .4c0 .5.7 1 1.5 1s1.5-.5 1.5-1c0-.6-.7-1-1.5-1s-1.5.4-1.5 1zm18.5 0c-.4.6-1.1.8-1.6.5-.5-.4-.9.2-1 1.2l-.1 1.8-.5-1.3c-1.3-3.1-3.7-1.4-4.8 3.5l-.7 3.3h3.3l-.6-1c-.3-.6-.2-1 .4-1 .6 0 1.5.8 2 1.9 1.3 2.4 4.1 3.5 5.5 2.1l1.1-1.1-1.2-.7c-.7-.4-1.4-2.3-1.5-4.2l-.3-3.3 1.3-.5c1.4-.4 1.6-2.2.3-2.2-.6 0-1.3.5-1.6 1zm-1.5 6.6v1.5l-1-.6c-.6-.4-.8-1.1-.5-1.6.9-1.4 1.5-1.1 1.5.7zm6-6.6c0 .5.5 1 1 1 .6 0 1 .7 1 1.5 0 1.8 1.6 2 2.3.2l.5-1.2.1 1.7c.1 2.1 2.1 2.4 2.1.4 0-.8-.9-1.8-2-2.1-1.1-.3-2-1.1-2-1.6s-.7-.9-1.5-.9-1.5.4-1.5 1zm9.8.4l-1.8 1.3v8l2.5 1.3c1.3.7 2.2 1.7 1.9 2.2-1.1 1.7 1.7.7 3.9-1.3l2.2-2.2-2.3.6c-1.3.3-3 .3-3.8 0l-1.4-.5V15h1c.6 0 1-.5 1-1 0-1.3-1.1-1.2-3.2.4zm5.2-.4c0 .5.5 1 1 1 .6 0 1 .9 1 2v2h1.5c.8 0 1.5-.8 1.6-1.8l.1-1.7.4 1.2c.3.7 1.1 1 1.9.7l1.4-.6.3 4.4.3 4.3h3l.5-5.2.5-5.1-1.8-1.2c-2.3-1.4-3.8-.3-1.7 1.1l1.5 1-2.5-.7c-1.4-.4-2.7-1.1-2.8-1.6l-.4-.9-1.3 1.1-1.3 1.1-.7-1.1c-.8-1.3-2.5-1.3-2.5 0zm-32 1.3c0 .8.7 1.4 1.5 1.4s1.5-.6 1.5-1.4c0-.7-.7-1.3-1.5-1.3s-1.5.6-1.5 1.3zm-47 2.2c0 .8.4 1.5.9 1.5s1.1-.7 1.5-1.5l.5-1.5h-1.4c-.8 0-1.5.7-1.5 1.5z"/><path d="M71 17.2c0 1.9 1.2 3.4 3.4 4.1l1.8.7-.6-2.2c-.3-1.3-.6-2.6-.6-3.1 0-.4-.9-.7-2-.7s-2 .6-2 1.2zm17.2 0c.6 1.8 2.8 2.1 2.8.4 0-.9-.7-1.6-1.6-1.6-.9 0-1.4.5-1.2 1.2zm48.8 0c0 1.8 1.2 3.3 3.3 4.1l1.7.6v-1.4c0-.8-.4-1.5-1-1.5-.5 0-1-.7-1-1.5s-.7-1.5-1.5-1.5-1.5.6-1.5 1.2zm-54.4 4.3l-.5 1.5 1.2.1c.7 0 .2.5-1 1.1C80 25.3 79.1 28 81 28c.6 0 1-.5 1-1 0-.6.4-1 1-1 .5 0 .7.7.4 1.5l-.6 1.5h1.1c.6 0 1.1-.7 1.1-1.5s.5-1.5 1-1.5c.6 0 1 .7 1 1.6v1.6l1.5-1.2c.8-.7 1.5-1.9 1.5-2.6 0-.8.6-1.4 1.4-1.4h1.5l-.2-2c-.1-2-2.7-2.9-2.7-.9 0 1.1-2.5 3.9-3.5 3.9-.3 0-.3-.5 0-1 .3-.6 0-1.7-.9-2.5-1.8-1.9-2.2-1.9-3 0zm-18.9.2c-1.2 1.1-.8 2.3.8 2.3.8 0 1.5-.7 1.5-1.5 0-1.6-1.2-2-2.3-.8zm93.3.5c0 1.8 1.8 3.4 2.8 2.4.3-.4-.2-1.4-1.1-2.3l-1.7-1.7v1.6zM69.5 25c.3.5 1 1 1.6 1 .5 0 .9-.5.9-1 0-.6-.7-1-1.6-1h-1.5l.6 1zm4.5 0c0 .5.4 1 .9 1 .6 0 1.3-.5 1.6-1l.6-1h-1.5c-.9 0-1.6.4-1.6 1zm52 0c0 .5.5 1 1 1 .6 0 1-.5 1-1 0-.6-.4-1-1-1-.5 0-1 .4-1 1zm18 0c0 .5.5 1 1 1 .6 0 1-.5 1-1 0-.6-.4-1-1-1-.5 0-1 .4-1 1zm-124 .9c0 .5-1.5 1.2-3.3 1.5-4.4.8-7.7 3.3-7.7 5.7v2l4.3 1.9c4.5 2 14.8 4 21 4h3.8l-.6.9c-.3.5.4 1.2 1.5 1.6 1.1.3 2 1.1 2 1.6s.7.9 1.5.9 1.5-.5 1.5-1c0-.6-.4-1-1-1-.5 0-1-.7-1-1.5s.5-1.5 1-1.5c.6 0 1 .6 1 1.4 0 1.6 2.7 2.9 4.1 2 .5-.3.7-1 .4-1.5-.4-.5-.1-.9.4-.9.6 0 1.1-.9 1.1-2v-2h-1.4c-.7 0-1.9-.6-2.5-1.4l-1.2-1.4h-9.7c-5.3 0-11-.5-12.6-1.2-1.6-.6-3.7-.8-4.8-.4l-1.9.6-1.4-1.2c-.8-.7-1.2-1.7-.9-2.2l.6-.9 1.4 1.8 1.3 1.8.1-1.8V30l2.5-1c2.4-.9 3.6-4 1.5-4-.5 0-1 .4-1 .9zm18 .8c0 .7.9 1.3 2 1.3s2-.6 2-1.3c0-.7-.9-1.3-2-1.3s-2 .6-2 1.3zm93.3-1.1c.3.4.1 1.6-.4 2.7l-1.1 2 1.9-.5 2-.5 1.2 1.8c1.5 2.5 3.1 2.4 3.1-.1v-2h-1.4c-.8 0-1.8-.9-2.1-2-.3-1.1-1.4-2-2.2-2-.9 0-1.3.3-1 .6zM46 27.2c0 .7 1 1.8 2.3 2.3l2.2 1-.3 3.2-.4 3.3h1.1c.6 0 1.1 1.1 1.1 2.5V42h2.5c1.4 0 2.5-.5 2.5-1 0-.6-.4-1-1-1-.5 0-1-.5-1-1.1v-1.2l3.3.6c1.9.3 4 .1 4.8-.3l1.3-.9-1.7-.7c-.9-.3-3.3-.4-5.2-.2-1.9.2-3.5.1-3.5-.3 0-1.3 2.4-2.4 4.4-2l1.8.3-.4-1.4c-.4-1.3-7.2-5-11.5-6.3l-2.3-.6v1.3zm28.4 3.3L75 32l-2-1c-1-.5-2.6-1-3.4-1H68v12h2.4c1.3 0 3.1-.3 4-.6l1.6-.6V37c0-2.1.5-4 1.1-4.2l1-.3-.6-1.8c-.4-.9-1.4-1.7-2.2-1.7h-1.5l.6 1.5zm-.7 7.2l-.5 1.8v-3c0-1.7.2-2.4.5-1.8.2.7.2 2.1 0 3zm17.7-6.5c.3 1.3.3 1.7 0 1-1.2-2.6-2.4-1-2.4 3.1v4.4l1.8 1.6c2 1.9 5.2 2.3 5.2.7 0-.6-1.1-1-2.5-1H91v-1.5c0-.8.5-1.5 1-1.5.6 0 1-1.2 1-2.6v-2.6l1.4.5 1.4.6.5-1.9c.6-2.4 0-3-3-3h-2.4l.5 2.2zm17.7-.5l-1.5 1.6-.4-1.1c-.2-.7-1.2-1.2-2.3-1.2H103v1.6c0 .8.4 1.3.9.9.5-.3 1.7.3 2.7 1.2l1.7 1.8.5-1.3c.2-.7.8-1 1.3-.6.5.3.9-.2.9-1 0-2 1.7-2 3.7 0l1.6 1.5.8-1.3.9-1.3v10.7l1.6-.6c.9-.3 1.8-.6 2-.6.2 0 .4-1.1.4-2.5s-.4-2.5-1-2.5c-.5 0-1-.7-1-1.6v-1.5l1 .6c.6.3 1 0 1-.7 0-3.4-10.3-5-12.9-2.1zm13.3-.1c.3.9.6 1.9.6 2.3 0 .4.7.8 1.5.8s1.5-.6 1.5-1.4c0-.7.5-1.3 1.1-1.3.5 0 .7-.5.4-1-.3-.6-1.8-1-3.2-1h-2.5l.6 1.6zm20.1-.6c-.3.5-.1 1 .4 1 .6 0 1.1.7 1.1 1.6v1.5l1-.6 1-.6v3c0 1.7.5 3.1 1 3.1.6 0 1 .7 1 1.5s-.7 1.5-1.6 1.5h-1.6l1.2 1.4c1.3 1.7 4 1 4-1 0-.8.4-1.4 1-1.4h1l-.7-4.8-.6-4.7-1.6-1.2c-1.9-1.5-5.8-1.7-6.6-.3zm9.5.4c0 .9.5 1.6 1 1.6.6 0 1-.4 1-.9 0-.6-.4-1.3-1-1.6l-1-.6v1.5zm4.5-.4c-.3.6-.1 1 .4 1h1.1v4.2l.1 4.3 2.5 1.8c1.3 1 3.4 1.7 4.6 1.5 2.4-.3 4.6-3.3 3.4-4.5-.4-.4-1.2 0-1.7 1-2.4 4.2-5.9 1.4-5.9-4.6v-3.2l-2-1.2-1.9-1.3-.6 1z"/><path d="M24 31.5c0 .8.7 1.5 1.5 1.5s1.5-.4 1.5-.9-.7-1.1-1.5-1.5l-1.5-.5v1.4zm17.7-.8c-1.2 1.1-.8 2.3.8 2.3.8 0 1.5-.7 1.5-1.5 0-1.6-1.2-2-2.3-.8zM163 32.5c0 .8.7 1.5 1.5 1.5s1.5-.7 1.5-1.5-.7-1.5-1.5-1.5-1.5.7-1.5 1.5zM131 36v4h2v-8h-2v4zm8-.5V39h3v-7h-3v3.5zm28-.9v1.5l1-.6c.6-.3 1-1 1-1.6 0-.5-.4-.9-1-.9-.5 0-1 .7-1 1.6zm-43 2.3c0 .5.7 1.1 1.5 1.5l1.5.5v-1.4c0-.8-.7-1.5-1.5-1.5s-1.5.4-1.5.9zm38 .6c0 .8.4 1.5.9 1.5s1.1-.7 1.5-1.5l.5-1.5h-1.4c-.8 0-1.5.7-1.5 1.5zm-79 3V42h4v-3h-4v1.5zm52 0c0 .8.7 1.5 1.5 1.5s1.5-.7 1.5-1.5-.7-1.5-1.5-1.5-1.5.7-1.5 1.5zM58 41c0 .5.9 1 2 1s2-.5 2-1c0-.6-.9-1-2-1s-2 .4-2 1zm20-.1c0 .6.5 1.3 1 1.6l1 .6v-1.5c0-.9-.4-1.6-1-1.6-.5 0-1 .4-1 .9zm27 0c0 .6.5 1.3 1 1.6l1 .6v-1.5c0-.9-.4-1.6-1-1.6-.5 0-1 .4-1 .9zm7 .7v1.5l1-.6c.6-.3 1-1 1-1.6 0-.5-.4-.9-1-.9-.5 0-1 .7-1 1.6zm11 .4c0 .5.9 1 2 1s2-.5 2-1c0-.6-.9-1-2-1s-2 .4-2 1zm30 0c0 .5.9 1 2 1s2-.5 2-1c0-.6-.9-1-2-1s-2 .4-2 1zm-66.5 4l-.6 1H92v1.5c0 .8.5 1.5 1 1.5 1.5 0 1.2-1.9-.4-3.6-1.7-1.6-5.2-1.9-6.1-.4zM98 48.5c0 .8.5 1.5 1 1.5.6 0 1-.7 1-1.5s-.4-1.5-1-1.5c-.5 0-1 .7-1 1.5zm19.4 1.1c.3.9.6 2 .6 2.5s.7.9 1.5.9c1.8 0 2-2.1.3-3.8-1.7-1.7-3.1-1.5-2.4.4zm7.6-.6c0 .5.7 1 1.6 1h1.5l-.6-1c-.3-.6-1-1-1.6-1-.5 0-.9.4-.9 1zm10 3.4v2.4l1.5.6 1.5.5V50h-3v2.4zm4-.8v1.6l1.5-1.2c.8-.7 1.5-1.4 1.5-1.6 0-.2-.7-.4-1.5-.4s-1.5.7-1.5 1.6zm-44 .9c0 .8.5 1.5 1 1.5.6 0 1-.7 1-1.5s-.4-1.5-1-1.5c-.5 0-1 .7-1 1.5zm26.6.7c-.9 3.5-.8 3.6 2.5 3.4 4.1-.3 7.3-5.6 3.4-5.6-.8 0-1.5.6-1.5 1.4 0 .8-.4 1.7-.9 2l-.9.6.5-2 .5-2h-1.5c-.8 0-1.7 1-2.1 2.2zm-8.6.5c0 .7.7 1.3 1.5 1.3s1.5-.6 1.5-1.3c0-.8-.7-1.4-1.5-1.4s-1.5.6-1.5 1.4zM99 56c0 .5.5 1 1 1 .6 0 1-.5 1-1 0-.6-.4-1-1-1-.5 0-1 .4-1 1zm3 0c0 .5.5 1 1 1 .6 0 1-.5 1-1 0-.6-.4-1-1-1-.5 0-1 .4-1 1zm14 1.6v1.5l1-.6c.6-.3 1-1 1-1.6 0-.5-.4-.9-1-.9-.5 0-1 .7-1 1.6z"/></g><g fill="#8d8a94"><path d="M0 1v1h184V0H0v1zm64.7 10l-.5 2H67v-2c0-1.1-.4-2-.9-2s-1.1.9-1.4 2zm90.3-.4c0 2-2.2 4.2-3.8 3.6l-1.2-.4V17l2.3-.3 2.2-.2.3 3.7.3 3.8h4l-1.2-2.2c-.7-1.2-1.2-4.6-1.2-7.5 0-2.9-.4-5.3-.8-5.3-.5 0-.9.7-.9 1.6zm-66.3 3.1c-1.3 1.2-.7 4 .8 4H91v-2.4c0-2.2-1-3-2.3-1.6zm15 0c-1.2 1.1-.8 2.3.8 2.3.8 0 1.5-.7 1.5-1.5 0-1.6-1.2-2-2.3-.8zm32.6 0c-1.8.7-1.6 2.3.2 2.3.8 0 1.5-.7 1.5-1.5s-.1-1.5-.2-1.4c-.2 0-.9.3-1.5.6zm4.1 1.7l.6 2.6h-1.5c-.8 0-1.5.7-1.5 1.5v1.4l1.6-.6 1.5-.6-.7 2.9c-.3 1.6-1.3 3.4-2 4-1.8 1.5-1.8 2.4.1 2.4.8 0 1.5-.7 1.5-1.5 0-1.7 2.9-3.4 4.7-2.8l1.2.4.3-4.3.3-4.3 1.3.2c1.8.4 1.5-2.4-.5-3.1l-1.6-.7-.7 1.2-.7 1.1L142 14l-2.3-1.2.7 2.6zm3.6 5.2v1.5l-1-.6c-.5-.3-1-1-1-1.6 0-.5.5-.9 1-.9.6 0 1 .7 1 1.6z"/><path d="M79.6 15.6c-1.7 4.5.8 11.5 3.5 9.8.6-.3 1.3.3 1.6 1.5.9 3.6 6.3.7 6.3-3.5 0-1.2.7-2.4 1.5-2.8.8-.3 1.5-1.2 1.5-2.1 0-.8.7-1.5 1.5-1.5h1.4l-.5-1.5c-.7-1.8-2.4-2-2.4-.3 0 .7-1.6 2.4-3.5 3.7L87 21.2l1 1.8 1 1.8-1.6.6c-2.2.8-2.4.8-2.4-.8 0-.8-.6-1.6-1.4-1.9-.7-.3-1.5-1.9-1.8-3.5l-.4-2.9h1.1c.6 0 1 1.2 1 2.5 0 1.4.6 2.7 1.3 2.9l1.2.5v-2.5c0-1.4-.3-3.2-.6-4.1l-.6-1.6h-4.6l-.6 1.6zm34.4-.1v1.6l1.3-.6c.6-.4.4 0-.5.8-1 .8-1.8 1.9-1.8 2.5v1.1l1.5-.5 1.5-.6V24h2c1.1 0 2 .4 2 1 0 .5.5 1 1 1 .6 0 1-.7 1-1.5V23h-2c-2.1 0-2.3-.5-2.4-5.5l-.1-3-1.7-.3-1.8-.3v1.6zm5.6 0l-.5 1.5h1.4c.8 0 1.5-.7 1.5-1.5s-.4-1.5-.9-1.5-1.1.7-1.5 1.5zm7.1-.8c-1.3 1.2-.7 3.3.9 3.3h1.5l-.6-1c-.3-.6-.1-1 .4-1 .6 0 1.1-.5 1.1-1 0-1.1-2.3-1.4-3.3-.3zm-58.1 1.8c.4.8 1 1.5 1.5 1.5s.9-.7.9-1.5-.7-1.5-1.5-1.5h-1.4l.5 1.5zm-8.6 1c0 .8.6 1.5 1.3 1.5.8 0 1.4-.7 1.4-1.5s-.6-1.5-1.4-1.5c-.7 0-1.3.7-1.3 1.5z"/><path d="M64.6 19.7l.2 3.8-1.3-1.8c-2.3-3.1-4.3-2-2.9 1.7l.6 1.6h4.6l.6-1.6c.3-.9.6-2.9.6-4.5V16h-2.5l.1 3.7zM75 17c0 .5-.7 1-1.5 1-1.5 0-5.5 3.8-5.5 5.2 0 .4.9 1.2 2.1 1.8l2.1 1.2-.3-1.9c-.4-2.1.8-4.3 2.2-4.3h1l-.6 2-.6 2H77l-.6-2.5-.6-2.5h2.1l-.5-1.5c-.7-1.7-2.4-2-2.4-.5zm31 5.5c0 1.5 2.6 3.2 3.6 2.3.2-.3.2-1.3-.2-2.2-.8-2-3.4-2.1-3.4-.1zm-12 1c0 .8.4 1.5.9 1.5s1.1-.7 1.5-1.5l.5-1.5h-1.4c-.8 0-1.5.7-1.5 1.5zm18 0c0 .8.7 1.5 1.5 1.5s1.5-.7 1.5-1.5-.7-1.5-1.5-1.5-1.5.7-1.5 1.5zm22.6-.6c-.4.5.3 1.5 1.5 2.1l2.1 1.2-.4-1.8c-.4-2-2.3-3-3.2-1.5zM98 24.5v1.4l1.5-.5c.8-.4 1.2-1 .9-1.5-.8-1.4-2.4-1-2.4.6zm-74 3V29h5v-3h-5v1.5zm12-.1v1.3l4 .7 4 .6v1.5c0 1.7 2.5 2 3.5.5.9-1.5 2.3-1.2 2.7.5l.3 1.4 1.2-.7 1.2-.7-1.8-2.3-1.7-2.3-2.9-.4c-1.7-.2-3-.4-3-.5 0-.1-1.7-.4-3.7-.5l-3.8-.4v1.3zm43 .6v2.2l1.3-.5c.6-.2 1.2-1 1.2-1.7s-.6-1.5-1.2-1.8l-1.3-.4V28zm-60.7 0c-3 1.2-2.9 2.6.2 3.4l2.5.6v3.7h3v-2.1c-.1-6-1.4-7.3-5.7-5.6zm49.9 1.2l.3 2.3h3l.3-2.3.3-2.2h-4.2l.3 2.2zm38.2 1c-.7 1.1 1.6 2.9 2.7 2.2 1-.6 1.9 2.2 1.9 5.7 0 1.6.5 2.9 1 2.9.6 0 1-1.5 1-3.4 0-3.3 2-6.2 3.3-4.9.4.3.7-.1.7-1V30l-1.7-.1c-1 0-3.3-.2-5.1-.3-1.8-.2-3.5.1-3.8.6zm57.9-.5c-.7.2-1.3 1.1-1.3 1.9 0 .9.4 1.3.9 1l.9-.6-.5 2c-.3 1.1-1.2 2-1.9 2-.8 0-1.4.7-1.4 1.5s.7 1.5 1.6 1.5h1.5l-.6-1.1-.7-1 2.1-.6c1.2-.3 2.1-1.1 2.1-1.8s.6-1.5 1.3-1.8l1.2-.4-1.4-1.6c-1.4-1.8-1.8-1.9-3.8-1zM72.5 31c-.7 1.2 2 2.4 3.4 1.6.5-.4 1.2-.2 1.6.4.9 1.5 2.5 1.2 2.5-.4 0-2.4-6.2-3.7-7.5-1.6zm9.7.2c.6 1.8 2.8 2.1 2.8.4 0-.9-.7-1.6-1.6-1.6-.9 0-1.4.5-1.2 1.2zm7.3-.3c-.8 1.4 1.2 2.3 3.5 1.6l2-.6v1c0 .6.5 1.1 1 1.1 1.6 0 1.1-2.7-.6-3.4-2.3-.9-5.2-.7-5.9.3zm31 .1c-.8 1.2 2 2.4 3.5 1.5.5-.3 1-.1 1 .4 0 .6.7 1.1 1.5 1.1 2 0 1.9-2.6-.1-3.4-2.4-.9-5.2-.7-5.9.4zm9.8.2c.2.7 1.4 1.3 2.7 1.3 1.3 0 2.5-.6 2.8-1.3l.4-1.2h-6.4l.5 1.2zm12.1-.5l-2.1.4.1 3.7c.2 5.5 4.6 10.1 4.6 4.7 0-1.4-.4-2.5-1-2.5-.5 0-1-.5-1-1.1 0-1.5 2.6-3.9 3.4-3.2.3.4.6-.1.6-1 0-1.7-.6-1.8-4.6-1zm13.6.3c0 .5.7 1 1.5 1s1.5-.5 1.5-1c0-.6-.7-1-1.5-1s-1.5.4-1.5 1zm-130.3.7c-1.2 1.1-.8 2.3.8 2.3.8 0 1.5.4 1.5 1 0 .5 1.1 1 2.5 1s2.5-.5 2.5-1c0-.6-1.1-1-2.5-1H28v-1.5c0-1.6-1.2-2-2.3-.8z"/><path d="M40.5 32.2c-.4 1-1.3 1.8-2.1 1.8s-1.4.7-1.4 1.5v1.4l1.8-.6c.9-.4 2-1.1 2.5-1.7l.7-1.1 1.1 1.7c1.2 2.2 2.9 2.3 2.9.3 0-.8-.5-1.5-1.1-1.5-.7 0-1.8-.8-2.5-1.8l-1.3-1.7-.6 1.7zm65.5 5.3v4.7l1.3-.5 1.2-.4v-7.6l-1.2-.5-1.3-.4v4.7zm16-2c0 .8.7 1.5 1.5 1.5s1.5-.7 1.5-1.5-.7-1.5-1.5-1.5-1.5.7-1.5 1.5zm-73.6 2.8l.5 2.3-1.9 1.2c-2.1 1.3-2.7 3.2-1.1 3.2.5 0 1.7-.7 2.6-1.6l1.6-1.7 6.1-.1 6-.2 1-1.8 1-1.8-1.3-.9-1.4-.8-.8 1.4-.8 1.5h-3.4c-1.8 0-4-.7-4.9-1.5-.8-.8-2-1.5-2.6-1.5h-1.2l.6 2.3zM166 39c0 .5-.9 1-2 1s-2 .6-2 1.3v1.4l2.3-.1c3.6-.1 6.6-4.6 3-4.6-.7 0-1.3.4-1.3 1zm-74 1.9c0 .5.9 1.1 2 1.4l2 .5V40h-2c-1.1 0-2 .4-2 .9zm31 .4c0 .7.9 1.3 2 1.3s2-.6 2-1.3c0-.7-.9-1.3-2-1.3s-2 .6-2 1.3zm30 0c0 .7.9 1.3 2 1.3s2-.6 2-1.3c0-.7-.9-1.3-2-1.3s-2 .6-2 1.3zM37.2 43.2c.3.7 1.3 1.5 2.2 1.6l1.8.4-.4-1.4c-.3-.7-1.3-1.5-2.2-1.6l-1.8-.4.4 1.4z"/></g><g fill="#e2e0e3"><path d="M74.7 9.7c-1 .9-.9 2.3.2 2.3.5 0 1.1-.7 1.5-1.5.5-1.5-.5-2-1.7-.8zm32.3 2.4c0 1.2 2.9 3.8 4.3 3.9 1.4 0 .6-1.5-1.8-3.3l-2.5-1.8v1.2zm50.2 2.2v3.8l1.4-1.2c.8-.6 1.4-1.5 1.4-1.8 0-.4-.6-1.6-1.4-2.6l-1.4-1.9v3.7zM64 13c0 .5.5 1 1 1 .6 0 1-.5 1-1 0-.6-.4-1-1-1-.5 0-1 .4-1 1zm20.3 1.5c.4.8.2 1.7-.3 2-.4.3-1.1-.1-1.3-.7l-.5-1.3-.1 1.3c-.1.7-.4 1.1-.8.9-.5-.3-.8 1-.8 2.9V23h2.2l-.3-3.3-.3-3.2.5 2c.3 1.1 1 2.4 1.4 2.9l.9.9-.6-2.3-.6-2.3 1.7-1.3c1-.7 1.5-1.7 1.1-2.3-1-1.6-2.8-1.3-2.2.4zm4.4-.8c-.4.3-.7 1.6-.7 2.7v2.1l1-1.5c.5-.8 1-1.1 1-.5-.1 1.6-2.6 4.5-3.3 3.8-.4-.3-.7.1-.7 1.1v1.7l3-2.1 3-2.2-.7-1.1-.7-1.2 1.7 1.4 1.7 1.3V15h-1.5c-.8 0-1.5-.5-1.5-1 0-1.1-1.3-1.3-2.3-.3zm27.5.4c.2.7 1 1.5 1.7 1.7l1.4.4-.5-1.3c-.2-.7-1-1.5-1.7-1.7l-1.3-.5.4 1.4zm36.8 0c0 .5-.4.8-.8.5-.5-.3-.9 0-.9.7s1.1 1.3 2.4 1.3c1.3.1 2.3-.2 2.3-.7 0-.5-.5-.9-1.1-.9-.5 0-.7-.5-.4-1 .3-.6.1-1-.4-1-.6 0-1.1.5-1.1 1.1zm-93.5 1c-.4.6-.5 1.3-.2 1.6.7.7 2.7-.6 2.7-1.8 0-1.2-1.7-1.2-2.5.2zm7.5.5v1.3l1.5-.5c.8-.4 1.5-.9 1.5-1.3s-.7-.8-1.5-.8-1.5.6-1.5 1.3zm9-.2v1.7l1-.6c.6-.3 1-.1 1 .4 0 .6-.7 1.1-1.5 1.1s-1.5-.7-1.5-1.5V15h-4v2.8l1.7-.2 1.8-.1.3 2.4.4 2.4-2.1-.6-2.1-.5V24h1.9c1.1 0 2.2-.6 2.4-1.3l.5-1.2.1 1.6c.1.9.8 1.6 1.6 1.6H79v-3.6l-1.6.6-1.7.6.5-1.4c.3-.8 1.1-1.3 1.7-1.2 1.6.4 1.3-3.3-.4-4.7L76 13.8v1.6zm25-.4c-2 1.2-.9 2.1 1.8 1.3 1.2-.3 1.9-.9 1.6-1.4-.7-1.1-1.5-1.1-3.4.1zm31.2.2c.5 1.5 3.8 1.9 3.8.4 0-.6-.9-1.2-2.1-1.3l-2-.2.3 1.1zm9.8-.2c0 .6.7 1 1.5 1s1.5-.2 1.5-.4-.7-.6-1.5-1c-.8-.3-1.5-.1-1.5.4zm-35 1.6v1.5l1-.6c.6-.3 1-1 1-1.6 0-.5-.4-.9-1-.9-.5 0-1 .7-1 1.6zm6-.3c0 .8.6 1.4 1.4 1.4h1.4l-.5-1.4c-.3-.7-.9-1.3-1.4-1.3-.5 0-.9.6-.9 1.3zm9 0c0 .7.9 1.3 2 1.3s2-.6 2-1.3c0-.7-.9-1.3-2-1.3s-2 .6-2 1.3z"/><path d="M137 16.5c0 .8.3 1.4.8 1.4 2.2-.4 3 .4 3.6 3.6.4 2 1.1 3.3 1.6 3 .5-.3 1.1-.1 1.5.5.8 1.3 2.5 1.3 2.5 0 0-.6-.5-1-1.1-1-.7 0-1.8-.8-2.5-1.8l-1.2-1.7 1.5-1.7 1.5-1.7-2.1.6-2.1.5V15h-4v1.5zm11-.5c0 .5.5 1 1 1 .6 0 1-.5 1-1 0-.6-.4-1-1-1-.5 0-1 .4-1 1zm-21 4.4v3.4l-1.2.5c-.7.2-1 .8-.6 1.2.4.4 1.4.2 2.3-.5l1.5-1.2v-3.4c0-1.9-.4-3.4-1-3.4-.5 0-1 1.5-1 3.4zm3.8-2.8c-.5.4-.8 2.2-.8 4v3.3l1.8 1 1.7 1-1.3.1c-.7 0-1.1.4-.8.9.4.5 0 1.1-.6 1.4-.7.2-1 .8-.5 1.2.9 1.1 3.6-2.4 3.7-4.8 0-1 .4-1.6.8-1.3.5.3.9-.1.9-.8 0-1.5-2.6-1.7-2.8-.2-.1.6-.5-.6-.8-2.7-.3-2.2-.9-3.5-1.3-3.1zM61.3 20l.5 2-1.5.9-1.6.8.7 1.2c.4.6 1.2 1.1 1.8 1.1h1l-.6-1.6-.6-1.6 1.5.6c.8.3 1.5.1 1.5-.5v-1l1.2.7 1.1.7-.7-1.2c-.4-.6-1.2-.9-1.7-.6-.5.4-.9-.3-.9-1.4 0-1.2-.5-2.1-1.1-2.1h-1.1l.5 2zm54.7.5c0 .8-.8 1.5-1.7 1.5h-1.7l2.3 2.1 2.3 2.1 1.6-1.6 1.6-1.6h-3.3l.4-2c.2-1.1 0-2-.6-2-.5 0-.9.7-.9 1.5zm-9 .2c0 .6.4 1.4 1 1.8.5.3.7 1.2.3 2-.6 1.7-.2 1.8 2.1.9 1.8-.7 2.2-2.4.5-2.4-.7 0-1.8-.8-2.5-1.8l-1.3-1.7-.1 1.2z"/><path d="M67 22.6c0 .7-.6 1.4-1.2 1.7l-1.3.4.8.9.8.8.8-1.3c.5-.7 1.3-1.1 1.9-.7l1.1.6-.2-1.8c-.1-2.1-2.7-2.6-2.7-.6zm25-.1L90.8 24h1.6c.9 0 1.6-.7 1.6-1.5s-.2-1.5-.4-1.5-.9.7-1.6 1.5zm45 .1V24h2c1.1 0 2-.4 2-.9s-.9-1.1-2-1.4l-2-.5v1.4zm18.2 1.5c.5 1.7 4.8 2.5 4.8 1 0-.6-.4-1.1-.9-1.1s-1.7-.3-2.7-.7l-1.7-.6.5 1.4zM37 25.4c0 .9.5 1.6 1 1.6.6 0 1-.4 1-.9 0-.6-.4-1.3-1-1.6l-1-.6v1.5zm47 0c0 .9.5 1.6 1 1.6.6 0 1-.4 1-.9 0-.6-.4-1.3-1-1.6l-1-.6v1.5zm-38 1.2v1.5l1-.6c.6-.4.8-1.1.5-1.6-.9-1.4-1.5-1.1-1.5.7zm42.5-.6c.4.6 1.1.8 1.6.5 1.4-.9 1.1-1.5-.7-1.5h-1.5l.6 1zm50.1.5c.4.8.7 1.5.9 1.5.2 0 .5-.7.9-1.5l.5-1.5h-2.8l.5 1.5zm-58.2 1.4c0 1.1.4 1.7.8 1.5.4-.3.8 0 .8.5 0 .6.5 1.1 1 1.1.6 0 1-.8 1-1.7 0-.9-.3-1.3-.7-1-.3.4-1.1 0-1.7-.9l-1.2-1.5v2zM15 27.8c-2.2 1-2.2 2.8.1 2.8H17l-.4-1.2-.5-1.2 2.1.6 2.1.5-.7-1.1c-.8-1.3-2.3-1.4-4.6-.4zm33.5.2c-.3.5-.2 1 .4 1 .5 0 1.3-.5 1.6-1 .3-.6.2-1-.4-1-.5 0-1.3.4-1.6 1zm19.7 1.2l.3 2.3H70c.8 0 2.1.4 2.9.9l1.4.9-.7-1.1-.7-1.2h3.2l-.6-1-.7-1.1-1.4 1.2-1.4 1.1V27h-4.1l.3 2.2zm18.6-1.6c-.5.4-.8 2.1-.8 3.8v3l1.1-1.1c.6-.6.9-2.3.7-3.8-.2-1.5-.6-2.3-1-1.9zm-46.1 1.5l1.3 1.3-1 1.1-1 1.2h2.7l-.1-2c-.1-1.1-.8-2.2-1.6-2.5l-1.5-.5 1.2 1.4zm95.3.5l-1.3 1.5 1.6 1.7 1.7 1.6v-3.2c0-3.6-.2-3.8-2-1.6zm-45.9.8l-1.2 1.4 1.2.8 1.2.7-.7-1.1-.6-1 1.7-.4 1.8-.3-1.1-.8-1.2-.7-1.1 1.4zm10.4-.3c-.4.5-.2.9.3.9.6 0 .8 1 .5 2.2l-.5 2.3 2.1-2.3c1.1-1.3 2.5-2.1 3.1-1.7.5.3 1 .1 1-.5s.5-.8 1-.5c.6.3 1 .2 1-.2 0-1.2-7.8-1.4-8.5-.2zm16.2-.5c-.6 1.1 1.9 3.5 2.7 2.6.4-.3 1.1 0 1.6.8l.9 1.4-1 1.2-1 1.2 1.1.7c.5.3 1.3-.1 1.6-.9.3-.9.9-1.4 1.3-1.2.4.3 1.3.1 2-.4l1.4-.8-.8-1.2-.7-1.2-.9 1.3-.9 1.4v-1.2c0-.6-.8-1.4-1.7-1.6l-1.8-.5 1.8-.1 1.8-.1-.6-1-.6-1-2 1.3-2 1.2-.8-1.4c-.5-.7-1.1-.9-1.4-.5zm30 0c-1.4 2.3 3.4 3.7 5.4 1.7 1.8-1.8.3-2.9-1.7-1.3l-1.6 1.4-.8-1.3c-.4-.7-1-.9-1.3-.5zm14.8.5c-.4.6-1.3.8-2.1.5l-1.4-.5v1.3c0 .7.7 1.3 1.5 1.3s1.5-.4 1.5-.9c0-.4.7-.8 1.5-.8s1.5-.5 1.5-1c0-1.3-1.7-1.3-2.5.1zm3.5-.1c0 .5.6.9 1.3.7.6-.1 1.1.4 1 1-.2.7.2 1.3.7 1.3 1.4 0 1.3-1.3-.2-2.8-1.5-1.5-2.8-1.6-2.8-.2zM26.2 31.3l-1.1 1.3 2 .1 1.9.2v-1.5c0-1.7-1.4-1.8-2.8-.1zm26.8-.4v1.2l-1.2-.7-1.1-.7.8 1.2.7 1.3 1.1-1.1c.6-.6.8-1.4.4-1.8-.4-.3-.7-.1-.7.6zm43 .1c0 .5.5 1 1 1 .6 0 1-.5 1-1 0-.6-.4-1-1-1-.5 0-1 .4-1 1zm31 0c0 .5.5 1 1 1 .6 0 1-.5 1-1 0-.6-.4-1-1-1-.5 0-1 .4-1 1zm12 1.2V34l2-1.2c1.1-.7 2-1.6 2-2 0-.4-.9-.6-2-.5l-2 .1v1.8zM14 33.3c.8.9 3 1.9 4.8 2.3l3.2.6v-2.4l-1.6.6-1.5.6.7-1.2.7-1.1-2.3.6-2.4.6-1.5-1.1-1.6-1.2 1.5 1.7zm44.7-.6c-.3.5-.2 1.5.2 2.2l.9 1.3.5-.9c.3-.5.2-1.5-.2-2.2l-.8-1.3-.6.9zm85 0c-.4.3-.7 1.1-.7 1.7v1l1.2-1.2c.6-.6.9-1.4.7-1.7-.3-.3-.9-.2-1.2.2zm18.3.9v1.5l1.7-.3c2.4-.4 2.7-2.3.3-2.5l-2-.2v1.5zm-113.3 0c-.4.4-.7 1.3-.7 2.1V37h4.1l-.7-1.2-.7-1.1 1.6.6 1.7.6V35c0-.6-.4-1-.9-1s-1.6-.2-2.3-.5c-.8-.3-1.7-.2-2.1.1zM97 36.5v3.2h3v-6.4h-3v3.2zm10.8.6l.4 3.9h-1.1c-.6 0-1.1.5-1.1 1.1v1.1l1.5-1.2 1.5-1.2v-3.4c0-1.8-.3-3.5-.8-3.8-.4-.2-.6 1.3-.4 3.5zM23 35.8c0 1.1 3.9 1.2 4.5.1l.6-.9h-2.5c-1.4 0-2.6.4-2.6.8zm143 .2c0 .5.5 1 1 1 .6 0 1-.5 1-1 0-.6-.4-1-1-1-.5 0-1 .4-1 1zm-23 .9c0 .5.5 1.3 1 1.6.6.3 1 .2 1-.4 0-.5-.4-1.3-1-1.6-.5-.3-1-.2-1 .4zm-89.7.8c1.1 1-1.4 3.3-3.5 3.3h-2l.6-1.5.5-1.5h-2.4v2.4c0 1.3.3 2.2.8 1.9.4-.2.7 0 .7.5v1l2.5-1.1c1.4-.7 2.5-1.5 2.5-2 0-.4.6-.7 1.3-.7.8 0 1.4-.7 1.4-1.5S55 37 54.2 37c-.9 0-1.2.3-.9.7zm6.7.8l-1.3 1.6 1.4-.3c.8-.2 1.3.2 1.2.8l-.2 1.2 1.9-.5c2.5-.7 3.4-1.9 2.4-3.4l-.7-1.2-1 1.9-1 1.8-.7-1.8-.6-1.8-1.4 1.7zm78.9.7v2.3l-.8-1.9-.7-1.8-1.6 1.6-1.7 1.6-.9-1.6-.9-1.7-.6 1c-1.1 1.7 1 3.5 4.3 3.7l3.2.2.5-1.3.5-1.3 3 1.6c1.6.9 3.3 1.3 3.6.9.8-.8-1.9-2.5-3-1.9-.4.3-.8.1-.8-.5s-.9-1.5-2-2.1l-2-1.1-.1 2.3zm19.1.5c0 .7-.4 1.3-1 1.3-.5 0-1 .5-1 1v1.1l2.5-1.8c2.8-2.1 3.1-3 1-3-.8 0-1.5.6-1.5 1.4zm4-.5c0 1.1 4.1 1 6-.2l1.5-.9-3.7.1c-2.1.1-3.8.5-3.8 1zm-88.5.6c-.4.4-1.5.7-2.6.7-1 0-2 .4-2.1.9-.4 1.4 5.2 1.4 6.3 0l1-1.2-.9-.6c-.5-.3-1.2-.2-1.7.2zm47.1.1c-.3.5-1.5.7-2.6.4l-2-.5V42l2.8-.2c1.5-.1 3.3.1 4 .6l1.2.7v-.9c0-.5-.6-1.5-1.4-2.1l-1.4-1.2-.6 1zm30 0c-.4.6.3 1.5 1.4 2.1l2 1.1v-.9c0-.5-.6-1.5-1.4-2.1l-1.4-1.2-.6 1zm-116.3.8l6.8.4-.4 1.2c-.2.7-1.1 1.1-2.1.9-.9-.2-1.6.2-1.6.8 0 .5.6 1.1 1.3 1.1.6.1 2.3.3 3.7.5 1.4.1 3.1.1 3.8-.2l1.3-.4-.8-1.2c-.4-.7-.8-1.8-.8-2.3v-1l-9-.1-9-.1 6.8.4zm49.4-.1c-1.1 1.1.3 2.4 1.8 1.8.8-.4 1.2-1 .9-1.5-.6-1.1-1.8-1.2-2.7-.3zm6.3.4c0 .5.5 1 1 1 .6 0 1-.5 1-1 0-.6-.4-1-1-1-.5 0-1 .4-1 1zm76.5.1c-1.1 1.6-.1 1.9 1.3.3l1.3-1.4h-1c-.5 0-1.3.5-1.6 1.1zm-67 .9c.4.6 1.1.8 1.6.5 1.4-.9 1.1-1.5-.7-1.5h-1.5l.6 1zm48 1.1c-1 1.5.3 2.5 1.6 1.2l1.1-1.1-1-.6c-.6-.3-1.4-.1-1.7.5zm-57 2.9c-.3.5-.1 1 .4 1 .6 0 1.1 1 1.1 2.2 0 1.2.3 1.8.7 1.4 1.2-1.2 1.1-3.5-.2-4.6l-1.3-1.1-.7 1.1zm7.5 0c0 .5.5 1 1 1 .6 0 1-.5 1-1 0-.6-.4-1-1-1-.5 0-1 .4-1 1zm-12.5 1.3c-.4 1-.5 2.1-.1 2.4 1 1 1.8-.4 1.3-2.4l-.4-1.8-.8 1.8zM98 49.6v1.5l1-.6c.6-.4.8-1.1.5-1.6-.9-1.4-1.5-1.1-1.5.7zm10.3-.2c.2.6 1.3 1.2 2.5 1.4 1.2.2 2.2.7 2.2 1.1 0 .4.7.8 1.5.8 3.9 0 .3-4.1-3.8-4.4l-2.8-.1.4 1.2zm10.3.2c-.9.8-1.6 2.3-1.6 3.3v1.8h3.1l-.4-1.9-.5-1.8.9.6c.5.3.9.3.9 0 0-.2.3-1.1.6-2l.6-1.6h-1c-.6 0-1.8.7-2.6 1.6zm10.3.1l-.1 1.8-.5-1.3c-.7-1.8-2.3-1.5-2.3.6v1.8l2 .1c1.1.1 2-.2 2-.7 0-.5.3-1.5.6-2.4l.6-1.6h-1.1c-.6 0-1.1.8-1.2 1.7zm14.1-.1v1.5l1-.6c.6-.4.8-1.1.5-1.6-.9-1.4-1.5-1.1-1.5.7zm-40 .9c0 .8.5 1.5 1 1.5.6 0 1-.7 1-1.5s-.4-1.5-1-1.5c-.5 0-1 .7-1 1.5zm32-.1c0 .7.7 1.3 1.5 1.3s1.5-.4 1.5-.8-.7-.9-1.5-1.3l-1.5-.5v1.3zm-39.4.5c-.6.9 3 5.1 4.4 5.1 1.6 0 1.2-.9-1.4-3.5-1.4-1.4-2.7-2.1-3-1.6zm-10.9 1.8c-1.1 1-.8 4.3.3 4.3.6 0 1-1.1 1-2.5 0-2.6-.2-2.9-1.3-1.8zm2.3.8c0 .8.7 1.5 1.5 1.5s1.5-.7 1.5-1.5-.7-1.5-1.5-1.5-1.5.7-1.5 1.5zm47 1.1v1.6l1.5-1.2c.8-.7 1.5-1.4 1.5-1.6 0-.2-.7-.4-1.5-.4s-1.5.7-1.5 1.6zm-43.5.5c-.4.6-.5 1.3-.2 1.6.7.7 2.7-.6 2.7-1.8 0-1.2-1.7-1.2-2.5.2zm17.9.1l-.8 1.2 1.2.4c.7.2 1.2 1 1.2 1.8s.5 1.4 1 1.4c.6 0 1-1.4 1-3v-3h-1.4c-.8 0-1.8.5-2.2 1.2zm33.6-.3c0 .6-.8 1.1-1.7 1.1h-1.7l1.2 1.2 1.2 1.2 1.6-1.6 1.6-1.6-1.1-.6c-.6-.4-1.1-.2-1.1.3zM103.5 57c.4.6 1.1.8 1.6.5 1.4-.9 1.1-1.5-.7-1.5h-1.5l.6 1zm25.3.2l1.2 1.2 1.2-1.2 1.2-1.2h-4.8l1.2 1.2z"/></g><g fill="#5f5776"><path d="M105 10.5c0 .8.7 1.5 1.5 1.5s1.5-.7 1.5-1.5-.7-1.5-1.5-1.5-1.5.7-1.5 1.5zm50.6 1.1c-.9 2.2-.8 2.4.9 2.4h1.5v-2c0-2.4-1.5-2.7-2.4-.4zm-90.3.5c-.6.6-2.2 1.7-3.5 2.3l-2.3 1.1-.3 3.8-.3 3.8 1.2 1.5c2.6 3.2 7.9 1 7.9-3.3 0-3-1.6-3-2.4 0-.3 1.3-1.2 2.4-2 2.4s-1.3-.4-1-.9c.3-.4.2-.8-.3-.8-.4 0-.8-1.2-.8-2.6v-2.6l3.3.5 3.2.6v-3.5c0-3.5-.8-4.2-2.7-2.3zm5.1 2.1c-2.1 3.3-.5 11.8 2.2 11.8 2.3 0 4.4-1.2 4.4-2.5v-1.4l-2.4.5-2.4.4-.6-1.6-.6-1.5 1 .6c.6.3 1 .1 1-.5s.6-1 1.3-.8c.7.2 1.2-.2 1.2-.7 0-.6-.8-.9-1.7-.8-1 .2-1.8-.2-1.8-.7 0-.6.9-1 2.1-1h2.1l-.4-1.3c-.6-1.7-4.4-2.1-5.4-.5zm8.9.3c-.7 1.9.5 3.4 1.5 2 1.4-1.9 3.2-1.4 3.8 1l.6 2.6-1.6 1.8-1.7 1.9-2-.5-1.9-.5V27h1.4c.8 0 2.2-.7 3-1.6.9-.8 1.6-1.2 1.6-.8 0 .3.7.1 1.5-.6l1.5-1.2v-3.7c0-4.3-1.4-6.1-4.7-6.1h-2.4l-.6 1.5zm10 0c-1.9 2-1.6 2.4 1.2 1.9L93 16v2.9l-1.4-.5c-.8-.3-1.8 0-2.2.8-1.1 1.8-1.2 4.8-.2 4.8.5 0 .6.4.3 1l-.6 1h5.9l.6-2.8c1.6-7.7-2.2-13.1-6.1-8.7zm3.4 8.1c-.9.9-2.8-.6-2.1-1.8l.6-1 1.1 1.1c.6.6.8 1.3.4 1.7zm5.9-8L97 16.1v9.1l1.3-.4c.6-.3 1.3-2.1 1.5-4.2l.3-3.7 1.5-.6c1.8-.7 1.8-3.3 0-3.3-.8 0-2.2.7-3 1.6zm5.7-.1c0 .8.6 1.5 1.4 1.5.7 0 1.3-.7 1.3-1.5s-.6-1.5-1.3-1.5c-.8 0-1.4.7-1.4 1.5zm7 0c-1.6 1.8-1.7 8.7-.1 10.3.7.7 2.2 1.2 3.5 1.2h2.3v-3.2l-1.8.4-1.8.5v-3.6c.1-3.6 1.3-5.4 2.9-4.4l.9.5-1.2.8c-.7.4-.9 1.3-.6 1.9 1.1 1.7 2.4 1.3 3.1-.9l.7-2.1-1.2-1.4c-1.6-1.9-5.1-1.9-6.7 0zm9.7.5c-1.3 2.5-1.3 3 .5 3 .8 0 1.5-.5 1.5-1 0-.6.5-1 1-1h1v9h3.2l-.3-4.8-.3-4.7 2.2.3 2.2.3v-3l-5 .1h-5l-1 1.8zm16-.9c0 .5-.5.7-1.1.4l-1-.7.2 5.6c.1 3 .6 5.3 1.1 5 .4-.3.8 0 .8.5 0 .6.9 1.1 2 1.1s2-.5 2-1.1c0-.5.5-.7 1-.4.6.3 1-.1 1-.9v-1.5l-2.5.5c-1.4.2-2.5.1-2.5-.3 0-1.5 1.7-3.4 2.6-3.1.5.2.9-.2.9-.7 0-.6-.8-1-1.7-.9-1 0-1.8-.3-1.8-.8 0-.4.9-.8 2-.8h1.9l-.5-1.5c-.7-1.7-4.4-2.1-4.4-.4zm8.5.2c-.5.7-1 3.3-1 5.9V25h2.5V14.7l2 1.8c2.4 2.2 3.6 1.4 2-1.4-1.2-2.3-3.9-2.7-5.5-.8zm10.1 5.4c.1 2.6.6 4.9 1.1 5l1 .4.2-5.1.1-5h-2.6l.2 4.7zm-49.6 4c0 .7.6 1.3 1.3 1.3.8 0 1.4-.6 1.4-1.3 0-.8-.6-1.4-1.4-1.4-.7 0-1.3.6-1.3 1.4zm25-.2c0 .8.7 1.5 1.5 1.5s1.5-.7 1.5-1.5-.7-1.5-1.5-1.5-1.5.7-1.5 1.5zm-47.4 4.2c-.2 1-.4 4.2-.3 7.2l.2 5.4 1.3.4 1.2.5.1-5.9c0-3.2.2-6.6.4-7.6l.3-1.7h-1.3c-.8 0-1.6.8-1.9 1.7zm48.3.3c-.1.5-.1 1.9-.1 3s0 3.8.1 6l.1 4h3.1l-.7-3.5-.6-3.5 1.1-1.4 1.2-1.4-1.3-2.1c-1.4-2.2-2.7-2.7-2.9-1.1zM18 29.5c0 .8.5 1.5 1 1.5.6 0 1-.7 1-1.5s-.4-1.5-1-1.5c-.5 0-1 .7-1 1.5zm27.9.2l-1.4 1.7 1.4-.9 1.4-.8-.7 1.1c-.4.6-1.3.9-2.1.5l-1.5-.5v3.4l2-.5c1.1-.3 2-.1 2 .4s.7.9 1.5.9 1.5-.7 1.5-1.5.5-1.5 1.1-1.5c.6 0 .9-.6.6-1.3-.2-.6-1-1.1-1.6-1-.6.2-1.1-.2-1.1-.7 0-1.5-1.6-1.2-3.1.7zm27.4 2.4l-.2 2 1.2-.4c.7-.2 1.3-1.1 1.5-2l.3-1.7h-1.3c-.8 0-1.4.9-1.5 2.1zm3.7-.6c0 .9.3 1.4.8 1.2.4-.3.5 1.5.3 3.9l-.3 4.4h3.3l-.3-5.2-.3-5.3-1.7-.3-1.8-.3v1.6zm13.3.5l-.2 2H93v-2c0-1.1-.6-2-1.3-2-.7 0-1.3.9-1.4 2zm3.7-1.1c0 .6.4 1.1.9 1.1h.8l-.8 4.2-.7 4.3.9.9.9 1 1.1-1.1 1-1-.3-4.9-.3-4.9-1.7-.3c-1-.2-1.8.1-1.8.7zm5.7-.2c-.4.3-.7 3-.7 6V42h3v-3.8c0-2 .3-4.7.6-6l.6-2.2h-1.4c-.8 0-1.8.3-2.1.7zm5.8 1c-.9 2.5-.6 9.3.5 9.3.6 0 1-1.5 1-3.4s.5-3.8 1-4.1c1.5-.9 1.2-3.2-.5-3.2-.8 0-1.7.7-2 1.4zm4.5-.1V33l2.5-.2c1.4-.1 2.5-.8 2.5-1.4 0-.6-1.1-1.2-2.5-1.2H110v1.4zm6 .3V34h3.1l-.3-1.7c-.2-.9-.9-1.8-1.5-2.1l-1.3-.4v2.1zm5.3-.4c0 .8.6 1.5 1.4 1.5.7 0 1.3-.7 1.3-1.5s-.6-1.5-1.3-1.5c-.8 0-1.4.7-1.4 1.5z"/><path d="M125 31.5v1.6l1.3-.7c.6-.4.2.3-1 1.5-1.2 1.1-2.6 2.1-3.2 2.1-1.1 0-1.9 2.1-1.4 3.7.3.7 1.1 1.3 1.9 1.3h1.4v-2c0-1.1.4-2 1-2 .5 0 .9 1 .7 2.2l-.2 2.3h3l.3-2.4.4-2.4-1.4-.8-1.3-.9h2.6l-.3-2.2-.3-2.3-1.7-.3-1.8-.3v1.6zm16.9-1.3c-.3 1.4-.2 9.3.2 9.3.2 0 1.5 1 2.9 2.2 3.2 3.1 4 2.9 4-.8v-3l-2.7.4-2.8.4v-3.2c0-1.8.3-3.1.8-2.8.4.2.7-.3.7-1.1 0-1.3-2.8-2.4-3.1-1.4z"/><path d="M146 31.9V34h3.1l-.3-1.7c-.2-.9-.9-1.8-1.5-2.1l-1.3-.4v2.1zm9.8 3.5c-.3 2.8-.1 5.5.4 6.1l.9 1 .9-1.5c.5-.8 1-3.6 1-6.1v-4.6h-2.8l-.4 5.1zm4.5-3.9c-.3.9-.3 1.8 0 2.2 1 1 3.7-.6 3.7-2.2 0-2-2.9-2-3.7 0zm4.7.7V34h2.9l-.2-1.8c0-1-.7-1.9-1.4-1.9s-1.3.9-1.3 1.9zm-143.8-.5l-2.3.5.4 1.1c.2.7 1.4 1.1 2.6 1 1.1-.2 2.1.2 2.1.7 0 .6.7 1 1.5 1s1.5-.5 1.5-1.1c0-1-2.5-4-3.2-3.8-.2.1-1.3.4-2.6.6zm8.8 1.8V35h10v-3H30v1.5zm19.7 4.2c-1.2 1.1-.8 2.3.8 2.3.8 0 1.5-.7 1.5-1.5 0-1.6-1.2-2-2.3-.8zm11.5 1.5c.6 1.8 2.8 2.1 2.8.4 0-.9-.7-1.6-1.6-1.6-.9 0-1.4.5-1.2 1.2zm28.8.3c0 .8.7 1.5 1.5 1.5s1.5-.7 1.5-1.5-.7-1.5-1.5-1.5-1.5.7-1.5 1.5zm61.2.2c.2.9.9 1.8 1.6 2.1l1.2.4V38h-3.1l.3 1.7zm8.8-1c0 .5.5 1.5 1 2.3l.9 1.5 1.2-1.2c.6-.6.8-1.6.5-2.2-.8-1.2-3.6-1.5-3.6-.4zm-48.5 1.4c-.4.6-.5 1.3-.2 1.6.7.7 2.7-.6 2.7-1.8 0-1.2-1.7-1.2-2.5.2zm25.5.4c0 .8.7 1.5 1.5 1.5s1.5-.7 1.5-1.5-.7-1.5-1.5-1.5-1.5.7-1.5 1.5zm28.2-.6c.2.7.7 1.2 1.1 1.2 1.2-.1.9-1.5-.3-2l-1.2-.4.4 1.2z"/></g><g fill="#cfc7d0"><path d="M105 9.8c0 .5.7.9 1.5.9s1.5-.4 1.5-.9c0-.4-.7-.8-1.5-.8s-1.5.4-1.5.8zm-33.9 3.3c-1.3 1.1-2 2.3-1.6 2.7.4.4 1 .1 1.2-.6.3-.6 1.1-1.2 1.9-1.2.8 0 1.4-.7 1.4-1.5 0-1.9 0-1.9-2.9.6zm8.4.9c-.3.5-.2 1 .4 1 .5 0 1.3-.5 1.6-1 .3-.6.2-1-.4-1-.5 0-1.3.4-1.6 1zm4 0c.3.5 1.1 1 1.6 1 .6 0 .7-.5.4-1-.3-.6-1.1-1-1.6-1-.6 0-.7.4-.4 1zm18.5.5c0 .6.6 1.2 1.3 1.2.8 0 1.4-.6 1.4-1.2s-.6-1.2-1.4-1.2c-.7 0-1.3.6-1.3 1.2zm6-.9c0 .9 3 3.6 3 2.7 0-.4.5 0 1.1.9 1.1 2.1 3.4 2.3 4.5.6l.7-1.1-1.7.6-1.8.7.6-1.5c.3-.8.1-1.5-.5-1.5s-.7-.5-.4-1c.9-1.4-.8-1.3-2.3.2l-1.2 1.2v-1.2c0-.7-.4-1.2-1-1.2-.5 0-1 .3-1 .6zm22.4.3c.4.5.1 1.1-.5 1.3l-1.1.4 1.4 1.1 1.4 1.2 1.4-.9 1.4-.8-1.3-1.6c-1.4-1.7-3.6-2.2-2.7-.7zm27.6.7v1.5l1-.6c.6-.4.8-1.1.5-1.6-.9-1.4-1.5-1.1-1.5.7zM75 15c0 .5.5 1 1 1 .6 0 1-.5 1-1 0-.6-.4-1-1-1-.5 0-1 .4-1 1z"/><path d="M117 14.8c0 .5.9 2.1 2 3.5l2.1 2.6-2.1 1.3c-2.6 1.7-2.6 2.8.2 2l2.1-.5-.7 1.1c-.4.7-.3 1.2.2 1.2.6 0 1.3-.7 1.6-1.6.8-2.1.8-8.9-.1-8.1-.3.4-1.7 0-3-.8-1.3-.9-2.3-1.1-2.3-.7zm22.6 2.2c-1.4 1.7-2.6 3.7-2.6 4.3 0 .7.7.3 1.6-.8.8-1.1 2.1-2.8 3-3.8.8-1.1 1.3-2.1 1.1-2.3-.2-.3-1.6.9-3.1 2.6zM63 16c0 .5.7 1 1.6 1h1.5l-.6-1c-.3-.6-1-1-1.6-1-.5 0-.9.4-.9 1zm33.8-.3l-1.8.4v3c0 1.6.8 3.8 1.8 4.9l1.7 1.8V15.1c0 .1-.8.3-1.7.6zM89.5 19c-.3.5-.2 1 .4 1 .5 0 1.3-.5 1.6-1 .3-.6.2-1-.4-1-.5 0-1.3.4-1.6 1zm18.4 3.2l1.3 1.8h-3.6l1.2 1.2 1.1 1.1 1.5-1.2 1.4-1.2.7 1.1c.3.5 1.1 1 1.7 1 .6 0 .3-.8-.8-1.9-1-1-2.1-1.7-2.3-1.5-.2.2-1.1-.2-2-.9l-1.6-1.2 1.4 1.7zm4.1-.3c0 .5.7 1.2 1.6 1.5l1.7.6-1.3-1.5c-1.4-1.7-2-1.9-2-.6zM65.5 24c-1 1.1-1.3 2-.8 2 1.3 0 3.8-2.9 3.1-3.5-.3-.3-1.3.4-2.3 1.5zm14.5-.9v1l1.2-.7 1.1-.7-.6 1.6-.6 1.7h.9c.6 0 1-.9 1-2v-2h-1.5c-.8 0-1.5.5-1.5 1.1zm-1.9 3.1l-.1 2.6-2.7 1-2.8 1 1.9.1c1 .1 2.5.9 3.2 1.8l1.4 1.8-.6-1.8-.6-1.7 1.6.6 1.6.6v-1.3c-.1-.8-.7-2.8-1.5-4.4l-1.3-3-.1 2.7zm6.1-1.6c.4.3.1 1.8-.6 3.3l-1.3 2.6.6 5 .6 5h3l.3-4.3.3-4.2H85v4.2c0 5.9-.9 4.2-1.1-2.2l-.2-5.3 1.6-1.2c2.1-1.5 2.1-2.1 0-2.9-1-.4-1.4-.4-1.1 0zm9.3.4c-.3.5-.2 1 .4 1 .5 0 1.3-.5 1.6-1 .3-.6.2-1-.4-1-.5 0-1.3.4-1.6 1zm32 0c.4.6 1.1.8 1.6.5 1.4-.9 1.1-1.5-.7-1.5h-1.5l.6 1zm5.5 0c0 .5.5 1 1 1 .6 0 1-.5 1-1 0-.6-.4-1-1-1-.5 0-1 .4-1 1zm13.5 0c.4.6 1.1.8 1.6.5 1.4-.9 1.1-1.5-.7-1.5h-1.5l.6 1zm5.5 0c0 .5.5 1 1 1 .6 0 1-.5 1-1 0-.6-.4-1-1-1-.5 0-1 .4-1 1zm6.8.2l1.2 1.2 1.2-1.2 1.2-1.2h-4.8l1.2 1.2zM36.5 27.1c-.9 2.8-.4 3.1 2.7 1.5 1.5-.8 2.9-1.2 3.2-.8.3.3.6-.2.6-1.1 0-2.1-1.6-2.2-2.4-.2-.3.8-1.3 1.5-2.3 1.5h-1.8l1.4-.9 1.3-.9-1-.6-1.1-.6-.6 2.1zm-17.3.4c-2.9 1.5-3.7 2.4-2 2.1 1.9-.3 5.4-2.4 4.8-2.9-.3-.2-1.5.2-2.8.8zm8 .4l-1.4.8 1.6.6 1.6.6v-1.4c0-1.7-.1-1.7-1.8-.6zm105.8.5c0 .9.5 1.6 1 1.6.6 0 1-.4 1-.9 0-.6-.4-1.3-1-1.6l-1-.6v1.5zm5.5-.1c-.4 1-.5 2.1-.1 2.4 1 1 1.8-.4 1.3-2.4l-.4-1.8-.8 1.8zm-90.5.5c0 .5.7.9 1.5.9s1.2-.4.9-.9c-.3-.4-.9-.8-1.5-.8-.5 0-.9.4-.9.8zM91.5 30l-2 .9h3.3l3.3.1-.6-1c-.7-1.2-1.3-1.2-4 0zm10 0l-.6 1h4.2l-.6-1c-.3-.6-1-1-1.5-1s-1.2.4-1.5 1zm6.5 0c0 .5.9 1 2.1 1h2l-.6-1c-.3-.6-1.3-1-2.1-1s-1.4.4-1.4 1zm5.9-.8c0 .2-.2 1.3-.3 2.5l-.3 2.3 1.7-1.8c1.7-1.7 1.7-3.2-.1-3.2-.5 0-.9.1-1 .2zm8.6.8l-2 .9h2.2c2.6.1 3.4 2.1 1.6 3.9-.7.7-1.3 2-1.3 2.9v1.5l1.5-1.2c.8-.7 1.3-1.6 1-2-.3-.5-.1-1.1.3-1.4 1.1-.7.8-4.9-.4-5.2-.5-.1-1.8.1-2.9.6zm21.4-.8c0 .2-.2 1.3-.3 2.5l-.3 2.3 1.7-1.8c1.7-1.7 1.7-3.2-.1-3.2-.5 0-.9.1-1 .2zm19 0c0 .2-.3 1.4-.5 2.8l-.5 2.4 2.1-2.1c1.1-1.2 2-2.5 2-2.8 0-.5-2.9-.8-3.1-.3zM130 31c0 .6.7 1.3 1.5 1.6.8.4 1.5 1.7 1.5 2.9 0 2.9 1 5.5 2 5.5 1.4 0-.3-8.5-1.9-9.7-2-1.5-3.1-1.6-3.1-.3zm20.7-.4c-1 1-.9 8.2.1 8.8.4.2 1.4.1 2.1-.3l1.2-.8-.3-3.8c-.3-3.7-1.6-5.3-3.1-3.9zM16.5 33c.3.5 1 1 1.6 1 .5 0 .9-.5.9-1 0-.6-.7-1-1.6-1h-1.5l.6 1zm37.1 1.2L52 36.4l.9.9 1 1 1.8-.8 1.8-.7-1.2-.5c-1.8-.7-1.6-2.3.2-2.3.8 0 1.5.6 1.5 1.4 0 .7.9 1.6 2 1.9 2.5.7 2.5.3-.2-2.8-2.7-3.1-4.2-3.2-6.2-.3zm19.1-1.5c-1.1 1-.8 7.1.3 7.8l1 .6v-4.5c0-4.7-.2-5.1-1.3-3.9zm19 0c-.4.3-.7 1.1-.7 1.7v1l1.2-1.2c.6-.6.9-1.4.7-1.7-.3-.3-.9-.2-1.2.2z"/><path d="M121 33c0 .5.4 1 .9 1 .6 0 1.3-.5 1.6-1l.6-1h-1.5c-.9 0-1.6.4-1.6 1zm25-.1c0 .5.5 1.3 1 1.6.6.3 1 .2 1-.4 0-.5-.4-1.3-1-1.6-.5-.3-1-.2-1 .4zm21 .5c0 .8-.6 1.6-1.2 1.9l-1.3.4.8.9.9.9 1.4-1.9c1.6-2.3 1.8-3.6.4-3.6-.5 0-1 .6-1 1.4zM47.6 34.5c-.8.8-2 1.5-2.7 1.5h-1.1l1.2 1.5c1.4 1.7 3.9 2 4.1.5.3-2 .4-2.5 1.2-3.8l.8-1.2h-1c-.5 0-1.6.7-2.5 1.5zm68.4 2.4c0 2.2.5 4.3 1 4.6l1 .6V33h-1c-.5 0-1 1.8-1 3.9zM23 35c0 .5.5 1 1 1 .6 0 1-.5 1-1 0-.6-.4-1-1-1-.5 0-1 .4-1 1zm9.5 1c.3.5 1.7 1 3.1 1 1.3 0 2.4-.5 2.4-1 0-.6-1.4-1-3.1-1h-3l.6 1zM91 37.2c0 .9.5 2 1.1 2.3 1.7 1.1 2 0 .4-2.1l-1.4-1.9-.1 1.7zM63 38c0 .5.5 1 1 1 .6 0 1-.5 1-1 0-.6-.4-1-1-1-.5 0-1 .4-1 1zm80.7 1.4c.3 1.4 1 2.6 1.5 2.6s.7-.4.4-.9c-.3-.5.1-1.1.9-1.5.8-.3 1.5-1.1 1.5-1.7v-1.1l-1.3 1.1-1.3 1.1-1.1-1.1-1.1-1.1.5 2.6zM127 40.5l-1.2 1.5h1c1.2 0 2.6-1.9 1.9-2.6-.2-.2-1 .2-1.7 1.1zm29.6.1l-.6 1.6 1.2-.4c1.5-.5 2.3-2.8 1-2.8-.5 0-1.3.7-1.6 1.6zm6.4-.5c0 .5-.4.7-1 .4-.5-.3-1-.1-1 .5v1.2l1.6-.6c.9-.3 2-.6 2.5-.6s.9-.5.9-1c0-.6-.7-1-1.5-1s-1.5.5-1.5 1.1zM48.6 41.6c-.8 2.2-.4 2.5 1.1.9l1.3-1.4-.9-.5c-.5-.3-1.2.1-1.5 1zm7.9-.6l-.6 1h1.5c.9 0 1.6-.5 1.6-1 0-.6-.4-1-.9-1-.6 0-1.3.4-1.6 1zM79 41c0 .5.5 1 1 1 .6 0 1-.5 1-1 0-.6-.4-1-1-1-.5 0-1 .4-1 1zm20 .2c0 .4.7.8 1.5.8s1.5-.4 1.5-.8c0-.5-.7-.9-1.5-.9s-1.5.4-1.5.9zM37.5 44c.3.5 1.1 1 1.6 1 .6 0 .7-.5.4-1-.3-.6-1.1-1-1.6-1-.6 0-.7.4-.4 1zm50.4 1.2c0 .2-.2 2.2-.4 4.6l-.3 4.2 1-.6 1.1-.7-.6.9c-.8 1.4.9 3.8 2.1 3 .6-.4.9-1.3.5-2.1l-.5-1.5h1.1c.6 0 1.1-.9 1.1-2s-.6-2-1.2-2h-1.3l1.5-1c.8-.5 1.2-1.1 1-1.3-.7-.6-5-1.9-5.1-1.5zm7.1 1.2c0 .8.5 1.8 1 2.1l1 .6v-2c0-1.2-.4-2.1-1-2.1-.5 0-1 .6-1 1.4zm3 .6v2.4l1.2-1.2 1.2-1.2-1.2-1.2-1.2-1.2V47zm-12.4 1.9c-.4.7-.5 1.5-.2 1.8.9.9 1.9-.4 1.4-1.8l-.4-1.3-.8 1.3zm18.3-.4c-.1.3-.2.8-.3 1.2-.1.5-.5 1.4-1 2.1-1 1.6.1 2.9 1.3 1.6.5-.5 1.2-1.9 1.6-3.2l.6-2.2h-1c-.6 0-1.2.2-1.2.5zm29.6 4c0 2.5.3 4.5.8 4.5.4 0 .7-.7.7-1.6v-1.6l1.5.6 1.5.5v-2c0-1.1-.4-1.8-.9-1.5-.5.3-1.1-.3-1.4-1.4-.9-3.6-2.2-2.1-2.2 2.5zm5-3.5l-.6 1h1.5c.9 0 1.6-.5 1.6-1 0-.6-.4-1-.9-1-.6 0-1.3.4-1.6 1zm3.5 0c0 .5.5 1 1 1 .6 0 1-.5 1-1 0-.6-.4-1-1-1-.5 0-1 .4-1 1zm-33 1.5c0 .8.7 1.5 1.5 1.5s1.5.4 1.5 1c0 .5.5 1 1 1 2 0 .9-2.7-1.5-3.8L109 49v1.5zm20 0c0 .8.5 1.5 1 1.5.6 0 1-.7 1-1.5s-.4-1.5-1-1.5c-.5 0-1 .7-1 1.5zm-12.7.2c-1.4.5-1.8 3.3-.5 3.3 1 0 3.2-2.2 3.2-3.2 0-.9-.8-.9-2.7-.1zm5.7.3c0 .5-.6.9-1.2.7l-1.3-.2-.3 2.7-.3 2.8h1.5c.9 0 1.6-.4 1.6-.8 0-1 4.2-.8 5.9.2.7.4 1.5.5 1.8.2.8-.8-1.7-3.6-3.3-3.6-.8 0-1.4-.7-1.4-1.5s-.7-1.5-1.5-1.5-1.5.4-1.5 1zm-25 1.4c0 .8-.5 1.6-1.2 1.8l-1.2.4.8 1.3.8 1.2 1.4-2.6c1.7-3.2 1.7-3.5.4-3.5-.5 0-1 .6-1 1.4zm-12.6 1.7c-.3.6-.1 1.6.5 2.2l1.1 1.1v-2.2c0-2.4-.5-2.8-1.6-1.1zm23.6 1.5v1.6l1.6-1.3 1.7-1.4-.7 2.3-.7 2.2h1.1c.6 0 1.3-.7 1.7-1.6l.6-1.6-1.4-.9c-2.2-1.4-3.9-1.1-3.9.7zm33 .4c0 .5.5 1 1 1 .6 0 1-.5 1-1 0-.6-.4-1-1-1-.5 0-1 .4-1 1zm-26.5 2.1c-.4.6-.5 1.3-.2 1.6.7.7 2.7-.6 2.7-1.8 0-1.2-1.7-1.2-2.5.2z"/></g><g fill="#6d6682"><path d="M65.4 10.6l.1 1.7-2.9 1.6c-1.6.9-3.2 2.3-3.4 3.1l-.5 1.5 2.3-2c1.3-1.1 2-1.4 1.5-.6l-.8 1.4 1.7-.6 1.7-.7.8 2.3.9 2.2-1 1.2c-.6.7-.7 1.3-.3 1.3.4 0 .2.7-.5 1.5-1.6 2-.6 1.9 1.4-.1l1.6-1.5v-7l-.9.5c-.5.3-1.4 0-2-.8L64 14.3l1.3-1.2c.8-.6 1.7-.7 2.2-.3.4.4.6-.2.4-1.2-.2-1.1-.9-2.1-1.5-2.3l-1.2-.4.2 1.7zm90.6-.1c.7.9 1.5 1.3 1.7 1.1.7-.7-.7-2.6-1.9-2.6h-1l1.2 1.5zm-50 2.9c0 1.8 1.7 2.9 3 2.1l1.1-.7-1.2-1.4c-1.5-1.8-2.9-1.8-2.9 0zm48.7-.6c-.6 1.2-.2 3.2.6 3.2h2.2c2.2 0 1.8-2.7-.5-3.3-1.1-.3-2.1-.2-2.3.1zm-75.1 1.8L78 16.1v9l.9-.6c.5-.3 1.2-.1 1.6.5.3.5.2 1-.3 1s-1.2.9-1.5 2l-.5 2h-4.1l.6 1.7.6 1.6-1.1-.7-1.2-.7V41h1c.6 0 1-1.7 1-3.8 0-5.3 1.6-6.9 4.8-4.9l1.3.9-.6-3-.5-2.9 2-1.8c1.1-1 2-1.5 2-1 0 .4.7.2 1.5-.5 2-1.7 1.9-2.9-.2-2.5-1 .2-2.1.4-2.5.4-.5.1-.8.9-.9 1.8v1.8l-1-2.5c-1.1-2.7-.9-6.9.4-8.8 1.3-1.7.1-1.5-1.7.4zm4.1-.4c.7.8 1.1 1.7.8 2-.3.2.2.5 1 .5 2.2 0 1.8-1.5-.7-2.8l-2.3-1.2 1.2 1.5zm28.4-.3l-1.3.8 1 1.9c1 1.9.9 3.6-.3 6.5l-.6 1.6 1.8.7 1.8.7-1.2-1.2-1.2-1.2 1.5-2.8 1.5-2.9H113l.4-2.5c.3-1.4.4-2.5.3-2.5-.1 0-.8.4-1.6.9zm4.4 1.1c1 1.1 2 2 2.2 2 .2 0-.1-.9-.7-2s-1.6-2-2.2-2h-1.1l1.8 2zm9.1-.8c.3.4 0 .8-.6.8s-.8.4-.5 1c1 1.6 2.2 1.2 2.7-.8l.5-1.9h-1.3c-.7 0-1.1.4-.8.9zm5 1.6c.7 3.4 1.3 4 2.4 2.3 1-1.7.3-3.8-1.5-4.5l-1.3-.5.4 2.7zm-60.3-.4c.2.5 1.5 1 3 1.2l2.7.3v-2.4h-3c-1.6 0-2.9.4-2.7.9zm22-.6c-3 .4-3 2 0 1.7l2.3-.3-.1 3.8c0 2.1.3 3.6.7 3.4 1-.6 1-6.6 0-7.9-.4-.6-1.7-.9-2.9-.7zm6.4 1.9c.3.7.9 1 1.4.7 1.4-.8 1.1-2.1-.5-2.1h-1.4l.5 1.4zm36.3.3c0 .9.7 1.7 1.5 1.7s1.5-.7 1.5-1.4v-1.4l2 .6 2 .6v-2.2l-3.5.3-3.5.2V17zm14.9-1.5c-.8.7.3 9.5 1.2 9.5 1.2 0 1.2-8.7 0-9.4-.4-.3-1-.4-1.2-.1zM120 20.1c0 2.1.4 4 .9 4.3l.9.6.3-4.3.4-4.4H120v3.8z"/><path d="M59 21.5c0 2.2 1.7 4.5 3.3 4.5h.9l-1.1-1.3c-.6-.8-.7-1.8-.3-2.2l.7-.8-1.2.7-1.3.7v-1c0-.6.5-1.1 1-1.1.6 0 1-.4 1-.8 0-.5-.7-.9-1.5-.9H59v2.2zm72.2 1c.3 2.7 2 3.5 2.7 1.4l.4-1.2-1.1.7-1 .6.5-2 .5-2h-2.3l.3 2.5zm3.8-1c0 .6.7 1.2 1.5 1.2s1.5-.6 1.5-1.2-.7-1.2-1.5-1.2-1.5.6-1.5 1.2zM89.5 23c.3.5 1.1 1 1.6 1 .6 0 .7-.5.4-1-.3-.6-1.1-1-1.6-1-.6 0-.7.4-.4 1zm15.7.2c.3.7 1.5 1.4 2.9 1.5l2.4.2-1.7-.5c-1-.3-1.8-1-1.8-1.5s-.5-.9-1.1-.9c-.6 0-.9.6-.7 1.2zm10.7-1.2c0 .3-.2 1.3-.4 2.2-.4 2 1 2.4 2.1.7.3-.6.1-1.6-.5-2.2-.6-.6-1.1-.9-1.2-.7zm9.1 2.2c0 .4.7.8 1.5.8s1.5-.4 1.5-.8c0-.5-.7-.9-1.5-.9s-1.5.4-1.5.9zm20-.2l-1.5 1h1.8c.9 0 1.7-.5 1.7-1 0-1.2-.1-1.2-2 0zm11.5 0l-.6 1h1.5c.9 0 1.6-.5 1.6-1 0-.6-.4-1-.9-1-.6 0-1.3.4-1.6 1zm-71.1 2.2c-.8 1.2-1 2.8-.5 6.7l.1 1.3 1.5-1.2c.9-.7 1.3-2 1-2.7-.2-.8 0-2.3.5-3.4l1.1-1.9h-1.4c-.8 0-1.9.6-2.3 1.2zm51.6 2.3c0 1.6 1.6 2 2.4.6.3-.5-.1-1.1-.9-1.5l-1.5-.5v1.4zm-119.4 1l-.5 1.5h1.3c.7 0 1.3-.7 1.3-1.5s-.4-1.5-.8-1.5-.9.7-1.3 1.5zm29.7 0c0 .8.6 1.5 1.4 1.5.7 0 1.3.5 1.3 1.1 0 .5.5.7 1 .4.6-.3 1-1.1 1-1.6 0-.6-.5-.7-1-.4-.6.3-1.3-.1-1.6-.9-.8-2-2.1-2.1-2.1-.1zm84.4-.2l-1.5 1.2 1.8 1.8 1.8 1.8.7-1c.3-.6.1-1.1-.6-1.1h-1.1l1.1-1.4 1.2-1.4-.9-.6c-.5-.3-1.6 0-2.5.7zm-40 2.3l.6 1.7-1.2-.7-1.2-.8.3 4.9.3 4.8h2.6l2.6.1v-2.8l-2.2.5-2.2.4.3-1.6c.1-.9.5-2.8.8-4.3l.6-2.6 1.2.2c.7.1 1.9.5 2.7 1l1.4.9-.5-1.4c-.2-.8-1.9-1.5-3.6-1.7l-3.2-.3.7 1.7zm8-.9c-1.3 1.2-.7 2.1 1.1 1.8.9-.2 2-.4 2.5-.4.4-.1.7-.6.7-1.1 0-1.1-3.3-1.4-4.3-.3zm8.3.5c0 .5-.4.6-1 .3l-1-.6.7 1.7.6 1.7 1.1-1.5 1.1-1.5 1.4 1.5 1.5 1.5.6-1.7c1.4-4 3.8-.8 3.9 5.1.1 1.8.6 3.3 1.1 3.3h1v-9.1l-1.2.7-1.1.7.6-1.6.6-1.6-5 .1H108v1zm14.3.2c0 .9.4 1.6.9 1.6.4 0 .8-.4.8-.9 0-1.1 1.9-.9 3.9.3l1.4.9-.5-1.4c-.2-.8-1.8-1.5-3.5-1.7l-3-.3v1.5zm19.2-.4l-.7 1.1 2.6-.5 2.6-.5.6 2.3c.3 1.2.6 4.1.7 6.4.2 6.5 1.7 4.9 1.7-1.9v-6l-1.2.7-1.1.7.6-1.6.6-1.7H145c-1.6 0-3.2.5-3.5 1zm9.5 4.1v5l1.2-.7 1.1-.7-.6 1.5-.6 1.6 2.4-.2c2.7-.1 2.8-1.8.3-2.8l-1.8-.7V30h-2v5.1zm9.7-4.4c-1.9 1.8.3 2.7 2.9 1l1.2-.7.4 1.8.5 1.8h-2.1l-2.1-.1v6.9h5.8l.3-1.7c.3-1.9-.7-2.2-2.2-.7l-1.1 1.1-1.2-1.4-1.1-1.4 3-.6 3-.7v-4.1l-1 .6-1 .6V30h-2.3c-1.3 0-2.7.3-3 .7zM23.4 33.1c0 1.2.6 2.4 1.2 2.6l1.1.4-.1-2.2c0-1.2-.6-2.4-1.2-2.6l-1.1-.4.1 2.2zm19.3-1.4c-1.1 1.1-.8 2.3.6 2.3.8 0 1.4-.7 1.4-1.5 0-1.6-.9-1.9-2-.8zM69 36v5h2V31h-2v5zm56.1-1.7c-.7.7-1.7 1.2-2.3 1.2-.6 0-1.3.6-1.6 1.4l-.5 1.4 1-.6c.5-.3 1 0 1 .8s-.5 1.1-1 .8l-1-.6.5 1.4c.3.8 1.6 1.4 3 1.4l2.5.1v-1.3c0-.7-.6-1.3-1.4-1.3-2 0-1.5-1.8.7-2.5 2.1-.7 2.6-2 1.2-2.9-.5-.3-1.4 0-2.1.7zm7.5 4.3c-.8 2 .1 3.4 2 3.4 1.7 0 1.7-1 0-3.3l-1.4-1.8-.6 1.7zm-83.6.9c0 .6.8 1.1 1.8 1.1s1.9-.6 1.9-1.2c0-.7-.9-1.2-1.9-1.1-1 .1-1.8.6-1.8 1.2zm13.3 0c0 1.8 1.9 1.5 2.5-.3.2-.7-.3-1.2-1-1.2-.8 0-1.5.7-1.5 1.5zm78.7-.6c0 .5.5 1.3 1 1.6.6.3 1 .2 1-.4 0-.5-.4-1.3-1-1.6-.5-.3-1-.2-1 .4zm-62.8 1.3c.2.5.8.9 1.3.9s1.1-.4 1.3-.9c.1-.5-.4-.9-1.3-.9s-1.4.4-1.3.9zm6.4-.3c-.4.7-.5 1.5-.2 1.8.9.9 1.9-.4 1.4-1.8l-.4-1.3-.8 1.3zm20.4-.1c0 1.2 1.9 2.6 2.6 1.9.2-.2-.2-1-1.1-1.7l-1.5-1.2v1z"/><path d="M144 39.9c0 .6.5 1.3 1.2 1.7l1.1.7-.7-1.1c-.3-.5 0-1.3.6-1.5l1.3-.5-1.7-.1c-1-.1-1.8.3-1.8.8z"/></g><path d="M73 11.3c0 .7-1 1.8-2.1 2.6l-2.2 1.3 1.3.8c.7.5 2 .6 2.8.2l1.5-.5-.6 1.6L73 19l2-1c2.4-1.3 2.5-2.3.6-4-.8-.6-1.2-1.8-.9-2.6.3-.8 0-1.4-.6-1.4s-1.1.6-1.1 1.3zm2 3.5c0 .4-.9.8-2 .8s-2-.4-2-.8.9-.8 2-.8 2 .4 2 .8zm29.7-2.7l-.6 2.1 2-.5c1-.3 2.2-.1 2.5.4.3.5.2.9-.3.8-.4-.1-1.5-.1-2.3 0l-1.6.1.4 4 .4 4.1 1.2-.4c.6-.2 1.3-1.7 1.4-3.3.2-1.6.7-3.4 1.1-3.9.9-1.2-1-4.9-2.6-5.2-.6-.1-1.3.7-1.6 1.8zm52 1.8c-.2 1-.1 2.5.4 3.2.5.8.9.9 1 .4 0-.6.2-1.8.4-2.7.4-2.4-1.2-3.2-1.8-.9zm-55.2.1c.3.5.1 1-.4 1-.6 0-1.1.4-1.1 1 0 .5.7.7 1.5.4 1.7-.7 2.1-3.4.4-3.4-.5 0-.7.4-.4 1zm11.5-.6c0 .2 1.1.6 2.5.8l2.4.5-.5-.8c-.5-.9-4.4-1.3-4.4-.5zm9.8.3c.6.2 1.8.2 2.5 0 .6-.3.1-.5-1.3-.5-1.4 0-1.9.2-1.2.5zm15 0c.6.2 1.8.2 2.5 0 .6-.3.1-.5-1.3-.5-1.4 0-1.9.2-1.2.5zm-77.9 2l-1.4 1.8 2-1.5c1.1-.8 2.2-1.6 2.4-1.7.2-.2 0-.3-.6-.3s-1.7.8-2.4 1.7zm30.6.3l-.6 1 1.4-.6 1.4-.5.7 1.8.7 1.8-1 .3c-.5.2-.7 1-.4 1.8.3.8.1 1.4-.5 1.4-1.5 0-3.3-2.6-2.4-3.5l.7-.8-1.2.7c-.7.4-1.3.9-1.3 1.1 0 .9 3.3 3.5 4.4 3.5h1.4l.6-3.1.6-3.2-1.1-1.3c-1.4-1.6-2.5-1.8-3.4-.4zm31.5 0c0 .5.7.7 1.5.4l1.5-.6V17c0 .6.5.8 1 .5l1-.6.1 4.3.2 4.3.4-2.9c.3-1.5.2-3.8-.1-5l-.5-2.2-2.6-.2c-1.4-.1-2.5.3-2.5.8zm15.4.1c-.3.5.2.6 1 .3.9-.3 1.6-.2 1.6.4 0 1.2-2.5 3.3-3.2 2.7-.3-.3-.3.6-.1 2l.5 2.5h1.9c1.1 0 1.9-.4 1.9-1 0-.5-.7-.7-1.5-.4l-1.5.6v-1.5c0-.9.8-2.2 1.8-2.9 1-.7 2.1-1.8 2.5-2.4l.7-1.2h-2.5c-1.4 0-2.8.4-3.1.9zm-21.8 3.1c.3.4.9.8 1.5.8.5 0 .9-.4.9-.8 0-.5-.7-.9-1.5-.9s-1.2.4-.9.9zM83 22c-.8.5-1.2 1.2-.9 1.5.4.3 1.2-.1 1.9-1 1.4-1.7 1.1-1.9-1-.5zm-13.6 1.1l-.5.9h3c1.7 0 3.4 0 3.8.1.4 0 .9-.5 1.1-1.3l.4-1.3-1.1 1.5c-.6.8-1.1 1-1.1.5 0-1.3-4.8-1.6-5.6-.4zM39.5 28l-.6 1h3.2l-.6-1c-.3-.6-.8-1-1-1-.2 0-.7.4-1 1zm6.8.5v1.3l1.4-.5c.7-.3 1.3-.6 1.3-.8 0-.2-.6-.5-1.3-.8l-1.4-.5v1.3zm87.4.9c1 1.3 1.9 2.3 2.1 2.1.5-.5-2.2-4.5-3.1-4.5-.4 0 0 1.1 1 2.4zm3.3 5.8v7l1.3-.5 1.2-.4.1-6.5.2-6.5H137v6.9zm-58.2-4.9c.6.7 1.3 3.5 1.5 6.2l.4 5V29h-2.9l1 1.3zm23.2 1.2c-.7.8-1.7 1.2-2.2.9l-.9-.6.3 4.9c.4 5.8 2.2 6.4 2.6.8.2-2.2 1.1-4.8 1.9-5.8.9-.9 1.1-1.7.6-1.7-.6 0-1.6.7-2.3 1.5zm-1.3 7.7l-.4 2.3v-4c-.1-2.2.1-3.2.4-2.3.2 1 .2 2.8 0 4zm57.5-4.7l-.2 5-1-1.5-1-1.5v2.7l-1.5-.6c-.8-.3-1.5-.1-1.5.4 0 .6.9 1 2.1 1h2l-.7 1.2c-.4.7.1.6 1-.3l1.7-1.6-.4-4.9-.3-4.9-.2 5zm-131-2.3c-1.6 1.6-1.5 3.8.1 3.8 1.7 0 3.7-2 3.7-3.7 0-1.6-2.2-1.7-3.8-.1zm70 2.8c-.1 2.6-.7 5.1-1.4 5.8L94.6 42h1.2c1.8 0 2.4-2.2 1.9-7.1l-.4-4.4-.1 4.5zm31-2.8c-.1 1-1.4 2.5-2.8 3.4l-2.5 1.7.5 1.9.5 2-1.7-.7-1.7-.6 1.2 1.2c.6.6 1.6.8 2.3.4l1.1-.7-.6-1.9-.6-1.9h1c.6 0 1.1.6 1.1 1.2v1.3l1-1.5 1-1.5V38c0 .9-.6 2.3-1.2 3l-1.3 1.5 1.8-1.6 1.8-1.6-.4-4.4c-.2-2.4-.4-3.6-.5-2.7zm-89 1.5l.4 1.8h2.6c1.5-.1 2.4.3 2.2.7-.3.4 0 .8.5.8.6 0 2.1 1 3.3 2.2l2.1 2.1-.5-2.1-.6-2.1 1.8 1.2c1 .6 1.7 1.4 1.4 1.8-.2.4.6.4 1.8.1l2.3-.6-1.7-.4c-1-.2-1.8-1-1.8-1.8V36h-5l.3-1.3.2-1.2-3.2.3c-1.7.2-3.4-.2-3.8-.7-1-1.7-2.7-1.3-2.3.6zM160 36v3.6h3.9l-1.2-1.4-1.1-1.4 2.4-1.9 2.5-1.9-1.7.6c-1 .3-1.8.2-1.8-.3s-.7-1-1.5-1H160V36zM54 34.4c0 .8 1 1.8 2.1 2.1l2.1.7.9-1.3c1.5-2.3 1-2.9-2.1-2.9h-3v1.4zm8.1 4l-1.2 1.4 1.1.7c.7.4 1.7.2 2.3-.4l1.1-1.1-1-1-1.1-1.1-1.2 1.5zm28.3 1.8c.3 1.7 2.8 1.7 3.4 0 .2-.6-.1-1.2-.8-1.2-.6 0-.8.4-.5 1 .3.5.2 1-.4 1-.5 0-1.2-.5-1.4-1-.3-.6-.4-.5-.3.2zm21.1-.1c-1 1.5.3 2.5 1.6 1.2l1.1-1.1-1-.6c-.6-.3-1.4-.1-1.7.5zm22.8.4c0 .8.4 1.5.9 1.5.4 0 .8-.4.8-.9 0-.6-.4-1.2-.8-1.5-.5-.3-.9.1-.9.9zm11.2-.6l2 1h-1.4l-1.3.1 1.2 1.5c.7.8 1.8 1.5 2.4 1.5h1.1l-1.3-.9c-.7-.4-1.2-1.4-1-2.1l.3-1.4-2-.3-2-.3 2 .9zm5.5 0c0 1 1.9 2.5 2.5 2 .1-.2-.3-1-1.1-1.7l-1.4-1.3v1zM39.3 43.7V45h7.4v-2.5h-7.4v1.2z" fill="#9d98aa"/><g fill="#adaab8"><path d="M73.9 9.5c-.5 2-.4 3.2.4 4.2.5.7.6 1.7.3 2.2-.4.5-.2 1.2.4 1.6.6.4.7 1.1.4 1.7l-.7 1.1 1.1-.6 1-.7-.5-2.3c-.3-1.2-1-2.7-1.5-3.4l-.9-1.1 1.1-.7c1.3-.8 1.3-2.5 0-2.5-.5 0-1.1.2-1.1.5zm31.7.4c-.4.5-.2 1.2.3 1.5.5.4 1.2.2 1.5-.3.4-.5.2-1.2-.3-1.5-.5-.4-1.2-.2-1.5.3zm50.4-.2c1.2.6 1.3 3.4.1 3-.5-.1-.8.2-.7.8 0 .5.4.9.9.7.4-.1.7.2.7.8 0 .5.4 1 .9 1h.8l-.6-3.2c-.4-1.7-1.2-3.3-1.9-3.4-.7-.1-.8 0-.2.3zm-85.1 3.5c-.1.2-.2 1.5-.3 3l-.2 2.8h2.7L72 17c-.6-1.1-.8-2.5-.5-3 .3-.6.4-1 .1-1-.3 0-.7.1-.7.2zM93.5 15c.2 2.7 1 3.3 1.2 1 .1-1.1-.2-2.2-.6-2.4-.4-.3-.7.4-.6 1.4zm6.1-1.1l-.6.9 2-.5c2.3-.6 2.6-1.3.6-1.3-.8 0-1.7.4-2 .9zm21.8.2c-.3.6-.1 1.6.4 2.1l1.1 1.1-.2-2.2c-.1-2.4-.3-2.5-1.3-1zM107 15.2c0 .4.4.8.9.8.6 0 1.2-.4 1.5-.8.3-.5-.1-.9-.9-.9s-1.5.4-1.5.9zM86.3 19c0 2.5.2 3.5.4 2.2.2-1.2.2-3.2 0-4.5-.2-1.2-.4-.2-.4 2.3zm54.2-3.1c-.3.5-.1 1.2.5 1.6.6.4.7 1.1.4 1.7l-.7 1.1 1.1-.6c.5-.4.8-1.6.5-2.7-.6-2.2-.9-2.4-1.8-1.1zM59.3 20c0 2.5.2 3.5.4 2.2.2-1.2.2-3.2 0-4.5-.2-1.2-.4-.2-.4 2.3zm66.1-2.6c-.3.8-.4 2.9-.2 4.8l.4 3.3.4-4.8c.5-4.8.3-5.8-.6-3.3zm11.6.1c0 .8.4 1.5 1 1.5.5 0 .7-.7.4-1.5-.4-.8-.8-1.5-1-1.5-.2 0-.4.7-.4 1.5zm9.3 3.5c0 2.5.2 3.5.4 2.2.2-1.2.2-3.2 0-4.5-.2-1.2-.4-.2-.4 2.3zm10.9-1.5v3l.5-1.8c.2-.9.2-2.3 0-3-.3-.6-.5.1-.5 1.8zM88.4 22v2l1-1 1-1-1-1-1-1v2zm4.3 0c.3 1.1.9 2 1.5 2h.9L94 22c-.6-1.1-1.2-2-1.4-2-.2 0-.2.9.1 2zm-22.1-.1c-.4.7-.5 1.5-.2 1.8.9.9 1.9-.4 1.4-1.8l-.4-1.3-.8 1.3zm34.9.1c-.8 1.3.3 3 1.8 2.9l1.2-.1-1.2-.4c-.7-.3-.9-1.2-.6-2 .6-1.6-.3-1.9-1.2-.4zm4.1 1.8c-.3.5.1.9.9.9s1.5-.4 1.5-.9c0-.4-.4-.8-.9-.8-.6 0-1.2.4-1.5.8zm-47.8 1.9c.6.2 1.8.2 2.5 0 .6-.3.1-.5-1.3-.5-1.4 0-1.9.2-1.2.5zm10 0c.6.2 1.8.2 2.5 0 .6-.3.1-.5-1.3-.5-1.4 0-1.9.2-1.2.5zM85 26c-.8.5-1.2 1.2-.9 1.5.4.3 1.2-.1 1.9-1 1.4-1.7 1.1-1.9-1-.5zm5.8-.3c.6.2 1.8.2 2.5 0 .6-.3.1-.5-1.3-.5-1.4 0-1.9.2-1.2.5zm23 0c.6.2 1.8.2 2.5 0 .6-.3.1-.5-1.3-.5-1.4 0-1.9.2-1.2.5zm24 0c.6.2 1.8.2 2.5 0 .6-.3.1-.5-1.3-.5-1.4 0-1.9.2-1.2.5zM24 28.8v1.7l-.9-1.4-.8-1.3-.8 1.2-.8 1.2 1.4.9c2 1.2 2.3 1.1 3.6-1l1.2-1.9-1.4-.6-1.5-.5v1.7zm17.3-1.1l-1.2.4 2.6 2.5c3 2.7 3.4 2.9 3.1 1.1-.2-.6-1.1-1.5-2.1-1.9-1-.4-1.5-1.2-1.2-1.8.7-1.1.6-1.1-1.2-.3zm44.8 1.1l-1 1.8 1 1.5c1 1.6 1.1 1.4 1.3-2.4.2-3.2 0-3.3-1.3-.9zm51-.3c0 1.1.3 2.6.8 3.4l.9 1.3.7-1.2.8-1.2-1-.7c-.6-.3-1.3-1.3-1.6-2.1l-.5-1.5-.1 2zm-5.5.8l-1.7 1.3 2 .1c2.2.2 3.7-1.2 2.3-2.1-.5-.3-1.7 0-2.6.7zm-32.2 1.8c-.3.6-.1 1.6.6 2.2l1.3 1.2-.8-1.4-.8-1.3 1.4-.9 1.4-.9h-1.2c-.6 0-1.5.5-1.9 1.1zm56.9 2.9c0 2.5.2 3.5.4 2.2.2-1.2.2-3.2 0-4.5-.2-1.2-.4-.2-.4 2.3zm4.1-2.9c-.3.6-.1 1.6.6 2.2l1.3 1.2-.8-1.4-.8-1.3 1.4-.9 1.4-.9h-1.2c-.6 0-1.5.5-1.9 1.1zM29.3 32.5c0 1.8 1.9 1.5 2.5-.3.2-.7-.3-1.2-1-1.2-.8 0-1.5.7-1.5 1.5zM34 32c0 .5.9 1 1.9 1 1.1 0 2.8.3 3.8.6l1.8.6-1.9-1.6c-2.2-1.8-5.6-2.1-5.6-.6z"/><path d="M18.5 33.5c2.2 1.7 3.7 1.5 4.4-.6l.4-1.4-1.6 1.4-1.7 1.3v-1.1c0-.6-.8-1.1-1.7-1.1l-1.8.1 2 1.4zm30.5-.4c0 .5-.5.7-1 .4l-1-.6.2 1.2c.2.7-.3 1.4-.9 1.5-2.7.3-2.7.5 0 2l2.7 1.5 1.3-.8c1.2-.7 1.7-.9 5-1.1.9-.1 1.7-.7 1.7-1.3v-1.1l-3.2.7c-1.8.4-3.5 1.1-3.8 1.6l-.6.8-1.3-.9-1.4-.8 2.2-1.3c2.2-1.5 2.8-2.9 1.1-2.9-.5 0-1 .5-1 1.1zm63 2.8c0 2.2.5 4.3 1 4.6l1 .6v-4c0-2.2-.4-4.3-1-4.6l-1-.6v4zM58.3 35c-.1 1.1.2 2 .5 2 .4 0 .8-.9.9-2 .1-1.1-.2-2-.5-2-.4 0-.8.9-.9 2zm19.9 1.7c-.2 4.2 1 6.3 2.4 4.2l.7-1.2-1.1.7-1.1.6-.4-4.2-.4-4.3-.1 4.2zm16.6-.2c-.2 1.9 0 3.5.4 3.5s.8-1.6.8-3.5-.2-3.5-.4-3.5-.6 1.6-.8 3.5zm48.4-1v3l.5-1.8c.2-.9.2-2.3 0-3-.3-.6-.5.1-.5 1.8zM25.5 35c-.3.5-.2 1 .4 1 .5 0 1.3-.5 1.6-1 .3-.6.2-1-.4-1-.5 0-1.3.4-1.6 1zm100.2 3.7l-.7 1.1 1.5.6c.8.3 1.7 0 2.1-.6l.7-1.1-1.1.7c-.5.3-1.2.1-1.4-.6l-.4-1.2-.7 1.1zm34.9.2c-.3.5.2 1.5 1.2 2.2l1.7 1.4-1.2-1.6c-.7-.9-1-1.9-.6-2.2.3-.4.4-.7 0-.7-.3 0-.8.4-1.1.9zm4.9.1c-.4.6-1.1.7-1.7.4l-1.1-.7.7 1.2.8 1.2 1.4-1.2c1.4-1.1 1.8-1.9 1-1.9-.3 0-.8.5-1.1 1zM56 40c1.9 1.3 3 1.3 3 0 0-.6-1-1-2.2-1h-2.3l1.5 1zm-8.6 1.4l-1.9 1.5 1.9-.3c1.1-.2 2.2-.8 2.4-1.4.5-1.6 0-1.5-2.4.2zM69 41c0 .5.5 1 1 1 .6 0 1-.5 1-1 0-.6-.4-1-1-1-.5 0-1 .4-1 1zm4 0c0 .5.5 1 1 1 .6 0 1-.5 1-1 0-.6-.4-1-1-1-.5 0-1 .4-1 1zm44 0c0 .5.5 1 1 1 .6 0 1-.5 1-1 0-.6-.4-1-1-1-.5 0-1 .4-1 1zm15.8.2c.5.5 1.6.8 2.3.6l1.3-.4-2.3-.7-2.4-.6 1.1 1.1zm-95.8 2c0 .9-.2.9 6 1.3l4.5.3-1.8-1c-1-.5-3-.7-4.4-.4l-2.5.7.6-.9c.3-.5-.1-.9-.9-.9s-1.5.4-1.5.9z"/></g><g fill="#c0bbc5"><path d="M67 16.7l-.5 7.2.8-.8c.4-.4.7-3.7.5-7.2l-.3-6.4-.5 7.2zm31-1.6v1l1.2-.7 1.1-.7-.7 1.9-.7 1.9 1.2-1.2c.6-.6.8-1.6.5-2.2-.9-1.4-2.6-1.4-2.6 0zm51.5 0c-1.1 1.7.1 2.1 1.5.4l1.2-1.5h-1c-.6 0-1.4.5-1.7 1.1zm-71.1 1.3c-.3.8-.4 3.1-.2 5.2l.3 3.9.5-5.3c.5-5.3.4-6.3-.6-3.8zm32.3-.7c-1 .9-.9 8.3.1 8.3.4 0 .7-2 .7-4.5s0-4.5-.1-4.5c0 0-.4.3-.7.7zm6.9 1.8c-.9 2.6-.7 3.2.5 1.2.6-1 .9-2.1.6-2.3-.2-.3-.7.2-1.1 1.1zm14.6 3l.6 4.5-1.1-.7-1-.6.7 1.2c1.4 2.1 2.6 0 2.6-4.5V16h-2.3l.5 4.5zm-57.9 3.4c0 1.1.5 1.8.9 1.5.4-.3.5-1.1.1-1.9-.7-2.1-1.2-1.9-1 .4zm19.4.5l-.6 1.5 1.4-.6c.8-.3 1.2-.9.9-1.4-.7-1.2-1.1-1.1-1.7.5zM25 26c0 .5.7 1 1.5 1s1.5-.5 1.5-1c0-.6-.7-1-1.5-1s-1.5.4-1.5 1zm.5 3.1c-.4.6-1.3.8-2 .5-.8-.3-1.9.3-2.7 1.1l-1.3 1.7 1.9-.7 1.9-.7 1.5 1.2 1.6 1.3-.8-1.3-.8-1.3 1.2-1.4c.7-.8 1-1.5.7-1.5-.3 0-.9.5-1.2 1.1zM16 30.9c0 1.2.5 2.1 1 2.1.6 0 1-.6 1-1.4 0-.8-.4-1.8-1-2.1l-1-.6v2zm27.3-1c-.4.3-.9 1.2-1.1 1.9l-.2 1.3 2.5-1.7c1.4-.9 2.5-1.7 2.5-1.8 0-.5-3-.2-3.7.3zm39.2.1c-.3.6-.1 1 .5 1s.8.4.5 1l-.6 1 1.7-.7 1.7-.6-.8 1.3-.8 1.3 1.1-.7c1.7-1 1.5-1.9-.8-3.3L83.1 29l-.6 1zm55.2.5c.3.8.9 1.2 1.4.9 1.2-.7 1.1-1.1-.5-1.7l-1.5-.6.6 1.4zm-35.7 1c-.7.8-.9 1.5-.6 1.5.4 0 1.4-.7 2.2-1.5.9-.8 1.1-1.5.6-1.5-.5 0-1.5.7-2.2 1.5zm3.6 0c-.3.9-.5 3.5-.5 5.8l.2 4.2.7-5.5c.7-5.9.6-7.1-.4-4.5zm-75.3.8v1.4l2.4-.5c3.5-.7 3.9-2.2.5-2.2h-2.9v1.3zm26.5 1.4c.6.2 1.8.2 2.5 0 .6-.3.1-.5-1.3-.5-1.4 0-1.9.2-1.2.5zM24 35.4l1 1 1-1 1-1h-4l1 1zm20.9.3l-1.4 1.8 1.6-1.2c.9-.7 2-.9 2.4-.5l.8.7-.7-1.3c-.9-1.6-1.1-1.5-2.7.5z"/><path d="M50.4 37.1c-.3.5-1.5.7-2.7.4l-2.2-.6 1.8 1.1 1.8 1.2 1.4-1.2 1.3-1.1.4 1.3.4 1.2.7-1.1.7-1.1-1.5-.6c-.8-.3-1.7-.1-2.1.5zm9.4-.4c.6.2 1.2 1.1 1.2 1.9v1.5l1-.6 1.1-.7-1.2-1.4c-.6-.8-1.7-1.4-2.3-1.3l-1.1.1 1.3.5zm63.9 2.9c.2.7 1.1 1 1.9.7 1.9-.7 1.8-1-.5-1.6l-2-.5.6 1.4zm30.1-.4c.5.5 1.6.8 2.3.6l1.3-.4-2.3-.7-2.4-.6 1.1 1.1zM93 40c0 .5.7.7 1.5.4l1.5-.6v2.3l1.1-.7 1.1-.7-1.3-.8C95 38.7 93 38.8 93 40zm21.7 9.4c-.3.8 0 1.9.7 2.5l1.3 1.1 1.3-1.4c.6-.9.9-2 .5-2.6-.9-1.5-3.2-1.2-3.8.4zM104 50.5c0 .8.5 1.5 1 1.5.6 0 1-.7 1-1.5s-.4-1.5-1-1.5c-.5 0-1 .7-1 1.5zm25.5.2c.2 1 .4 2.6.4 3.5.1 2 3.1 2.5 3.1.5 0-2.8-1.3-5.7-2.5-5.7h-1.3l.3 1.7zM142 50c0 .5.5 1 1 1 .6 0 1-.5 1-1 0-.6-.4-1-1-1-.5 0-1 .4-1 1zm-45.7 2c-.7 1-1 2.6-.7 3.4l.6 1.6 2.1-.4c2.3-.3 2.2-2.2 0-2-1.5.2-1.7-1.2-.3-2.1 1.2-.7 1.3-2.5.2-2.5-.4 0-1.3.9-1.9 2zm12.7.4c0 2.6 1.6 3.7 4.2 2.7l1.6-.6-1.7-2c-.9-1.1-2.2-2.1-2.9-2.3L109 50v2.4zm17.3 1c.5 1.6 2.7 1.9 2.7.3 0-.7-.7-1.4-1.5-1.4-.9 0-1.4.5-1.2 1.1zM91 54.6v1.5l1-.6c.6-.3 1-1 1-1.6 0-.5-.4-.9-1-.9-.5 0-1 .7-1 1.6zm13-.1c0 .8.7 1.5 1.5 1.5s1.5-.7 1.5-1.5-.7-1.5-1.5-1.5-1.5.7-1.5 1.5zm37 .5c0 .5.5 1 1 1 .6 0 1-.5 1-1 0-.6-.4-1-1-1-.5 0-1 .4-1 1zm-25 1.6v1.5l1-.6c.6-.3 1-1 1-1.6 0-.5-.4-.9-1-.9-.5 0-1 .7-1 1.6zm8-.6c0 .5.5 1 1 1 .6 0 1-.5 1-1 0-.6-.4-1-1-1-.5 0-1 .4-1 1zm13.5 0c.3.5 1 1 1.6 1 .5 0 .9-.5.9-1 0-.6-.7-1-1.6-1h-1.5l.6 1zm-26.9 1.8c-.3.6-.1 1.4.5 1.7 1.5 1 2.5-.3 1.2-1.6l-1.1-1.1-.6 1z"/></g><path d="M106 12c-.7 3.1-.7 4.1 0 4.5 1.4.9 2.2-1.4 1.1-3.2-.6-1-1.1-1.6-1.1-1.3zm49.5 2.5v2.2l1.3-.4c.6-.3 1.2-1.1 1.2-1.8s-.6-1.5-1.2-1.8l-1.3-.4v2.2zM75 16.1v2l1-.6c.5-.3.7-1.2.3-2-.7-2.1-1.3-1.9-1.3.6zm45.7-.7l-.6 1.5 1.4-.6c.8-.3 1.2-.9.9-1.4-.7-1.2-1.1-1.1-1.7.5zm14.5 4.1l-.1 4 1-2.3c.5-1.3 1.3-2.1 1.8-1.7.5.3 1.3 0 1.7-.6l.7-1.2-2.1.5-2.1.6-.4-1.7c-.3-.9-.5.2-.5 2.4zM69 19.1c0 2.6 1.1 4.9 2.3 4.9h1.1l-1.1-1.1c-1.3-1.3-.6-4.2.7-3.4.5.3 1.1.1 1.4-.4.3-.5-.5-1.1-1.9-1.3l-2.5-.5v1.8zm30.3 1.4v4l.4-2.3c.2-1.2.2-3 0-4-.3-.9-.5.1-.4 2.3zm15-2.5c-3.1 1.2-2.9 2.2.1 1 1.3-.5 2.7-.6 3.2-.2.4.4.4.1 0-.6-.4-.6-.8-1.2-.9-1.1-.1 0-1.2.4-2.4.9zm17.6-.5c-.4.5-.7 2.6-.7 4.5l-.1 3.5 1-1.8c1.1-1.8.8-7.9-.2-6.2zM120.2 20c0 1.4.2 1.9.5 1.2.2-.6.2-1.8 0-2.5-.3-.6-.5-.1-.5 1.3zM16 31c0 1.2 3.5 3.1 4.3 2.3.4-.3 1.2-.1 1.9.4l1.3 1.1 2-.9c1.9-.7 1.7-1-1.5-1.3-.8 0-1.4-.7-1.2-1.4l.2-1.3-1.9 1.1-2 1-.6-1c-.8-1.3-2.5-1.3-2.5 0zm67.5 0c.3.5 1.3 1 2.1 1s1.2-.5.9-1c-.3-.6-1.3-1-2.1-1s-1.2.4-.9 1zm18-.2c.3.3-.1 1.2-.7 2.1l-1.3 1.6 2.3-1.9c2.6-2.3 2.6-2.3.7-2.3-.8 0-1.3.3-1 .5zm9.1.1c-.3.4.6.7 1.9.7 1.4 0 2.2-.2 1.9-.5-.8-.8-3.4-1-3.8-.2zm51.8-.1c.3.6.2 1.3-.4 1.7-1.4.8-1.3 3.5.1 3.5.6 0 .9-.6.6-1.4-.3-.7-.1-1.8.5-2.4l1-1-1.3-.7-1.2-.8.7 1.1zM41.7 32.7c-.3.5.5 1.3 1.9 2l2.3 1.1 1.2-1.4c.6-.8 1.5-1.2 1.9-.9.5.3 1.1.1 1.5-.5.7-1.2-1.1-1.2-4-.1l-2 .9-1.2-1c-.6-.5-1.3-.5-1.6-.1zm91.2 2.5l.5 3.3.4-2.4c.2-1.3 0-2.7-.5-3.2l-1-1 .6 3.3zM85.3 37c0 2.5.2 3.5.4 2.2.2-1.2.2-3.2 0-4.5-.2-1.2-.4-.2-.4 2.3zm-53.8-2c.3.5 1.9 1 3.5 1s3.2-.5 3.5-1l.6-1h-8.2l.6 1zm42.3 2.5c-.2 1.9 0 3.5.4 3.5s.8-1.6.8-3.5-.2-3.5-.4-3.5-.6 1.6-.8 3.5zM91.2 36c0 1.4.2 1.9.5 1.2.2-.6.2-1.8 0-2.5-.3-.6-.5-.1-.5 1.3zm34.8 0c0 .5.5 1 1 1 .6 0 1-.5 1-1 0-.6-.4-1-1-1-.5 0-1 .4-1 1zm-64.4 2.9l-.6.9 2-.5c2.3-.6 2.6-1.3.6-1.3-.8 0-1.7.4-2 .9z" fill="#7c758e"/><path d="M45.7.7c25.5.2 67.1.2 92.5 0C163.7.6 142.9.5 92 .5 41.1.5 20.3.6 45.7.7z"/><path d="M96 49.5c0 2.5-.1 4.8-.1 5.2-.2 1.1 2.9 2.8 3.7 2 .4-.4.3-1.2-.4-1.9l-1.1-1.1.6-4.4.6-4.3H96v4.5zm-10.4-.4c-.3 1.7-.6 4.2-.6 5.5V57h2.4c1.4 0 3.1-.6 3.9-1.4l1.4-1.5-.1-3.7-.1-3.7-1.2-.4-1.1-.4-.5 2.3-.4 2.3-.2-2.3L89 46h-2.7l-.7 3.1zM90 53c0 .5-.4 1-1 1-.5 0-1-.5-1-1 0-.6.5-1 1-1 .6 0 1 .4 1 1zm16-3.9c0 .6-1 1.9-2.2 2.8l-2.1 1.8.6 1.6.6 1.7h5.4l1.3-1.8 1.3-1.7.2 1.5c.1.8.2 2.2.3 3 0 .8.9 1.6 1.8 1.8l1.7.3 1.5-2.3c.8-1.3 1.6-3.8 1.8-5.7l.3-3.4-2.7-.4-2.7-.3-1.4 2-1.4 2.1-.6-2.1c-.5-2.1-3.7-2.9-3.7-.9zm10 2.8c0 1.2-2 2.5-2.7 1.8-.7-.7.6-2.7 1.8-2.7.5 0 .9.4.9.9zm4.6-2.7c-.3.7-.7 2.5-1 4l-.6 2.7 1 .6 1 .6 1.5-3.3 1.4-3.3-.2 2.7c-.1 1.5.2 2.8.8 3 1.3.4 3-4.6 2.2-6.6l-.6-1.6h-2.6c-1.4 0-2.7.6-2.9 1.2zm11.4.3c0 .8-.7 1.5-1.5 1.5s-1.9.9-2.4 1.9l-1.1 1.9 1.5 1.2c.7.6 2.4 1 3.6.8l2.3-.3.7-2.9.8-3-1.1-1.3c-1.4-1.7-2.8-1.6-2.8.2zm6.8-.4l-1.8 1v5.8l2.1.6 2.1.7 1.1-1.1 1-1-1.6-.7c-2.4-.9-2.1-3.1.4-3.7l2.1-.6-.7-1c-.8-1.4-2.5-1.4-4.7 0z" fill="#a04865"/><g fill="#c89aad"><path d="M95.7 45.7c-.2.5-.1 1.9.4 3.3l.7 2.5.1-2.7c.1-1.4.7-2.9 1.4-3.1l1.2-.5-1.7-.1c-.9-.1-1.9.2-2.1.6zM86 47.1c0 .8-.3 2.5-.5 3.9l-.5 2.5 1.4-3.5 1.4-3.5.1 2 .1 2 .9-1.4.9-1.3.5 1.3.5 1.4.1-1.8c.1-.9-.3-1.7-.8-1.7s-1.6-.3-2.5-.6l-1.6-.6v1.3zm18.5 1.9c-.3.5-.3 1 .1 1s-.1.9-1.1 2l-1.7 1.9.5 1.6.6 1.5h6.6l-1.3-.8-1.3-.9.3-3.1c.3-4.2 1.6-4.1 2 0l.3 3.3 1.7-3c1-1.7 1.7-2.5 1.8-1.8v1.2l1.5-.5c1.9-.8 2-3.4.1-3.4-.8 0-2.1.9-2.9 2l-1.4 2.1-.6-2.1-.5-2h-2c-1.2 0-2.4.4-2.7 1zm-.2 4.7l-.6 1.6 1.4-.8 1.4-.8-1.2 1.3c-.7.8-1.6 1.1-1.9.7-.7-.6.2-3.7 1-3.7.3 0 .2.7-.1 1.7zm16.1-4.2c-.4.9-.4 1.9 0 2.2.3.4.6-.1.6-1 0-1 .4-1.7.9-1.7s.7 1 .5 2.2c-.2 1.3-.2 1.7.2 1 .3-.6 1.1-.9 1.7-.5l1 .6-.6-1.6-.6-1.7h.9c.6 0 1 1.1 1 2.3 0 1.3.9 3.2 1.9 4.1l1.9 1.8 2.3-.4c1.2-.2 2.4-1 2.6-1.8l.5-1.5-.9 1c-2.1 2.7-7 1.2-5.2-1.5l.9-1.5 1.5 1.9 1.5 2 .1-2.5c.1-1.3.1-2.9 0-3.4-.1-.6.6-.1 1.5 1l1.6 2-.4-1.4c-.6-2.2-3.3-3.5-5.4-2.7l-1.8.7 1 .7 1 .7-1.7 1.7-1.8 1.7-.3-2.7-.3-2.7-2.8-.3-2.7-.3-.6 1.6zm18-.1c-1 .8-1.6 1.8-1.1 2.2.4.4.7.2.7-.4 0-.7.4-1.2.9-1.2.4 0 .6 1.1.3 2.5l-.4 2.5 1.8.1h1.9l-2 .9-2 .9h1.7c2.3.1 3.3-1.8 1.4-2.5-2.3-.9-2-3.1.5-3.7l2.1-.6-.7-1c-.9-1.5-2.7-1.4-5.1.3z"/><path d="M87.7 51.7C86.4 53 87 55 88.8 55h1.7l-1.4-.9c-.7-.5-1-1.4-.7-2 .8-1.2.3-1.5-.7-.4zm10.2 2.5c1.5 2.1.2 2.4-1.9.5l-1.4-1.2 1.3 1.7c1.4 1.9 4.1 2.4 4.1.9 0-.5-.8-1.5-1.7-2.2l-1.8-1.4 1.4 1.7zm16.4.4c-.3.8-1.1 1.3-1.8 1l-1.2-.4.1 2.1.1 2.2h3.8l.1-3.3c.1-3.5-.2-4-1.1-1.6zm5.1.4c.2 1.6 2 1.4 2.4-.2l.4-1.3-1 1.4-1 1.3-.5-1.1-.5-1.2.2 1.1zm-33.1 1.7c.9.2 2.3.2 3 0 .6-.3-.1-.5-1.8-.5h-3l1.8.5z"/></g><path d="M106 17c0 3.5.2 6.1.5 5.9.7-.8.9-10.8.2-11.6-.4-.3-.7 2.2-.7 5.7zm49.6-3.1c-.4.5-.2 1.2.3 1.5.5.4 1.2.2 1.5-.3.4-.5.2-1.2-.3-1.5-.5-.4-1.2-.2-1.5.3zM132 19.3l.5 4.2.3-3.4c.2-1.8 0-3.7-.5-4.2l-.8-.8.5 4.2zm0 11.6c0 2.5.6 2.7 1.3.6.4-.8.2-1.7-.3-2l-1-.6v2zM17 31c0 1.1 4.2 3 6.3 3 1.6-.1-3.4-3.9-5-4-.7 0-1.3.5-1.3 1zm29.2.5c-.7.8-2.6 1.5-4.2 1.5s-3.2.4-3.5 1l-.6 1h3.2c4.2 0 10-2.1 9.6-3.5-.6-1.6-3.1-1.6-4.5 0zM84 31c0 .5.5 1 1 1 .6 0 1-.5 1-1 0-.6-.4-1-1-1-.5 0-1 .4-1 1zm28.3 4.5c0 2.7.2 3.8.4 2.2.2-1.5.2-3.7 0-5-.2-1.2-.4 0-.4 2.8zm26 0c0 2.7.2 3.8.4 2.2.2-1.5.2-3.7 0-5-.2-1.2-.4 0-.4 2.8zM25.5 34c.3.5 2 1 3.6 1h3l-.6-1c-.3-.6-2-1-3.6-1h-3l.6 1zM161 35.7c0 1.8.2 3.3.4 3.3.9 0 1.3-3.9.5-5.1l-.9-1.4v3.2zm-34.5-.8c-.3.5-.1 1.2.5 1.6l1 .6v-1.5c0-1.8-.6-2.1-1.5-.7z" fill="#4f466a"/><path d="M21 22.9c0 5.1.8 7.1 2.9 7.1h1.6l.3-3.3c.1-1.7 0-4.2-.3-5.5L25 19h-4v3.9zm6-.3c0 1.9.5 4.4 1 5.5l1.1 1.9h6.8l1.1-1.9c.5-1.1 1-3.6 1-5.5V19h-3.8l-1 2.7-1 2.8-.7-2.8-.7-2.7H27v3.6zm15.5-.6c-.3.5-.5 2.5-.3 4.5l.2 3.6 1.4-.3c.8-.2 1.9-1 2.5-1.9l1-1.6-.7-2.6c-.6-2.7-2.9-3.6-4.1-1.7z" fill="#8ca542"/><path d="M87.6 47.1c.3.6 1.5.9 2.5.6l1.9-.5v1.5c0 .8-.4 1.1-1 .8l-1-.6.6 1.6.6 1.5-1.8-.6-1.9-.6 1.4 1c.7.5 1 1.5.7 2.1-.4.6-.5 1.1-.2 1.1 1.1 0 3.7-6.2 3.2-7.6l-.5-1.4h-5.2l.7 1.1zm17.6 2.6l1.8.4-1.3 1.4c-.6.7-1.6 1.1-2 .8-.5-.3-.4.4.2 1.6.7 1.1 1.7 2.1 2.4 2.1h1.2l-1.4-.9-1.4-.9 1.6-1.7c2-1.9 1.4-3.6-1.1-3.4l-1.7.1 1.7.5zm17.2.4l-.7 1.2 1.1-.7 1-.6.5 1.7.5 1.8.1-1.7c.1-2.1-1.5-3.2-2.5-1.7zm9.1-.1l2 .9h-1.8l-1.8.1.6 1c.9 1.5 1.9 1.2 3.1-.8l1.2-1.8-2.7-.1-2.6-.2 2 .9zM96 51.2c0 .9.5 2 1 2.3 1.3.8 1.3-.5 0-2.5l-1-1.5v1.7zm41.2 1.8c0 1.4.2 1.9.5 1.2.2-.6.2-1.8 0-2.5-.3-.6-.5-.1-.5 1.3z" fill="#b06a84"/><path d="M21 17v4.1l1.1-.6c.6-.4 1.7.1 2.5 1.1l1.4 1.9-.2-5-.3-5-2.2-.3-2.3-.3V17zm6 0v3.9l1.4-.5 1.3-.5.8 2.3.8 2.3.4-4.4c.5-5.4-.1-7.1-2.7-7.1h-2v4zm6.7-3.3c-.4.3-.7 2.7-.7 5.2l.1 4.6 1.4-1.9c.7-1 1.8-1.5 2.4-1.1l1.1.6V13h-1.8c-1 0-2.2.3-2.5.7zm5.3 1.2c0 1 .7 2.1 1.5 2.5l1.5.5v6.5l1.2-1.2 1.1-1.1 1.3 1.7 1.3 1.7.1-3.7v-3.7l1.7-.9 1.6-1-.6-1.6-.6-1.6H39v1.9z" fill="#bcc952"/><path d="M25.3 12.8l-4.1.3-.6 1.5c-.3.7-.1 1.4.3 1.4.5 0 1.1-.5 1.3-1.2l.4-1.2 1.2.8 1.2.7v11.6h2.7l-.1-6.1-.1-6.1 2.3.2c2.3.3 3.1-1.2 1-1.8-.7-.2-3.2-.3-5.5-.1zm7.6 5.9v5.8l-.9-2-.9-2v2.8l-.1 2.9 1.3-.4 1.2-.5.5-5.3.5-5.3 1.3-.5 1.2-.4v6.7l.9-1.4.9-1.3 2.1.7 2.1.6V18c0-.6-.7-1.3-1.5-1.6-2.8-1.1-1.5-2.4 2.4-2.4 4.1 0 6.2 1.4 3.6 2.4l-1.5.5.2 5.3.2 5.3.3-4.8.4-4.7H50v-5H33l-.1 5.7zM28 30.2V32h9v-3.5h-9v1.7zm-6-.2c0 .5.6 1 1.4 1 .8 0 1.8-.5 2.1-1l.6-1h-2c-1.2 0-2.1.4-2.1 1zm20 0c0 .5.7 1 1.5 1s1.5-.5 1.5-1c0-.6-.7-1-1.5-1s-1.5.4-1.5 1z" fill="#d8e0a3"/><path d="M24.4 14.1l-.7 1.2 1.1-.7 1.2-.7v11l1.1.6 1 .7-.3-6.3-.3-6.2-1.2-.4c-.6-.2-1.5.1-1.9.8zm6.4-.4c-.2.5-.1 2.6.3 4.8l.6 4 .2-4.8c.1-4.4-.3-5.7-1.1-4zm6.9 1.7l.5 2.4 1.9.5 1.8.5-.6 3.5-.5 3.4 1.1.8 1.2.7-.3-5.4-.3-5.3-1.6.1-1.6.1.1-1.5c0-.8-.4-1.7-1-1.9l-1.1-.4.4 2.5zm-17.7 5c0 3 .5 5.8 1 6.1l1 .6V15h-2v5.4zM47 17c0 .5.7 1 1.6 1h1.5l-.6-1c-.3-.6-1-1-1.6-1-.5 0-.9.4-.9 1zm-15.5 8c-.3.5-.2 1 .4 1 .5 0 1.3-.5 1.6-1 .3-.6.2-1-.4-1-.5 0-1.3.4-1.6 1zm-3.4 4.3c-1.6 2-.3 2.7 5.1 2.7 5 0 5.9-.8 3.3-3L35 27.7l.6 1.7.6 1.6h-7.4l.6-1.5c.7-1.9.2-1.9-1.3-.2z" fill="#ecefcf"/><path d="M27.3 20.5c0 3.8.2 5.3.4 3.2.2-2 .2-5.2 0-7-.2-1.7-.4-.1-.4 3.8zM39 15c0 .6.7 1.3 1.5 1.6l1.5.6.2 5.2.2 5.1.3-4.9.4-4.8-2-2c-1.2-1-2.1-1.4-2.1-.8zm-17.7 6c0 3.6.2 5 .4 3.2.2-1.7.2-4.7 0-6.5-.2-1.7-.4-.3-.4 3.3zm16 2c0 2.5.2 3.5.4 2.2.2-1.2.2-3.2 0-4.5-.2-1.2-.4-.2-.4 2.3zm-7.6 6.2c.2.5 1.5.8 2.8.8 1.3 0 2.6-.3 2.8-.8.3-.4-1-.7-2.8-.7-1.8 0-3.1.3-2.8.7z" fill="#beca7a"/><path d="M17.6 30.9c-.7 1.1 5.9 3.5 7.7 2.8l1.2-.5-2-.1c-1.1-.1-3-.8-4.2-1.6L18.1 30l-.5.9zm29.4.7c-.7.8-2.2 1.4-3.4 1.4h-2.1l1.4.9 1.4.9 2.6-1.1c3.7-1.6 4.4-2.4 2.7-3-.8-.3-2 .1-2.6.9zm-14.7 3.1c1.5.2 3.9.2 5.5 0 1.5-.2.2-.4-2.8-.4s-4.3.2-2.7.4z" fill="#413760"/></svg>