<svg version="1.0" xmlns="http://www.w3.org/2000/svg" width="245.333" height="85.333" viewBox="0 0 184 64"><path d="M45.7.7c25.5.2 67.1.2 92.5 0C163.7.6 142.9.5 92 .5 41.1.5 20.3.6 45.7.7zm20 10.9c-.4 1.2-1.9 2.6-3.3 3.3-2.2 1-2.5 1.6-2.2 5.4.3 3.8.6 4.2 3.1 4.5 3.4.4 3.9-.8 3.5-8.9-.2-4.4-.5-5.7-1.1-4.3zm-.1 5.9c.9 2.3-.5 6.5-2.1 6.5s-3-4.2-2.1-6.5c.7-1.9 3.5-1.9 4.2 0zm40.1-5.3c-.8 3.9.6 12.1 2.3 12.6 1.2.4 1.3.2.3-.9-1.5-1.5-1.7-7-.5-8.5.5-.5.3-1.9-.3-3.2l-1.3-2.3-.5 2.3zm49.9-.6c-.9 3.3.8 12.7 2.4 13.2 1.2.4 1.3.2.3-.9-1.5-1.5-1.7-7-.5-8.5.5-.5.3-2-.4-3.3-1.1-2.1-1.2-2.2-1.8-.5zm-86 4.7c-1 4.1.7 8.2 3.7 8.5 1.5.2 2.7-.1 2.7-.7s-1-1-2.2-.8c-3.3.3-3.6-3.1-.4-3.9 1.9-.4 2.6-1.3 2.6-3 0-2-.5-2.4-2.9-2.4-2.2 0-3 .6-3.5 2.3zm5-.2c.8 1.4-1.8 3.1-3 1.9-.9-.9 0-3 1.4-3 .5 0 1.2.5 1.6 1.1zm5.1-1.5c-.4.4-.7 3.9-.6 7.8 0 5.6.2 6.7 1.1 5 .5-1.2 2.1-2.7 3.5-3.3 2.1-1 2.4-1.7 2.1-5.4-.3-3.7-.6-4.2-2.8-4.5-1.4-.2-2.9 0-3.3.4zm4.8 2.4c.8 2.5-.2 5.7-2 6.4-1.7.6-2.9-2.7-2.1-6 .8-2.9 3.2-3.2 4.1-.4zm5-2c-.4.6.3.9 1.6.7 3.2-.3 3.5 2.1.4 3.3-2 .7-2.6 1.6-2.3 3.3.3 2.6 4.6 3.7 5.9 1.5 1-1.5 1.2-6 .3-8.2-.7-1.8-4.9-2.2-5.9-.6zm4.5 6.4c0 .8-.5 1.8-1.1 2.2-1.4.8-3.3-1.1-2.5-2.5 1-1.6 3.6-1.3 3.6.3zm4.7-6.7c-1.1 1.1-.8 10.5.3 9.8.6-.3 1-2.3 1-4.4 0-2 .5-4.2 1.2-4.9.9-.9.9-1.2-.3-1.2-.9 0-1.9.3-2.2.7zm12.7.6c-.3.8-.4 3.2-.2 5.3.2 3.2.7 4 2.7 4.2 1.3.2 2.8-.2 3.5-.8.8-.9.4-1-1.6-.5-2.6.7-2.6.6-2.6-3.9.1-2.8.6-4.6 1.3-4.6 1.9 0 2.6 1.2 1.4 2.7-.9 1-.8 1.3.5 1.3 1.2 0 1.6-.7 1.4-2.3-.4-2.6-5.4-3.8-6.4-1.4zm9.2.2c-.9 2.5-.7 8.3.3 9 .6.3 1.1-1.6 1.3-4.2.2-3.5.7-4.8 1.8-4.8s1.6 1.4 1.9 5l.5 5 .5-5c.4-3.5 1-5 2.1-5 1 0 1.6 1.3 1.8 4 .5 6.4 2.4 6.9 2 .5l-.3-5.5-5.6-.3c-4.5-.2-5.8 0-6.3 1.3zm15.6-.3c-1.5 1.5-1.6 7 0 8.6 1.5 1.5 4.5 1.6 5.3.2.4-.6-.4-.9-1.7-.7-3.3.3-3.3-3.7 0-4.1 1.7-.3 2.2-.9 2-2.5-.3-2.5-3.7-3.4-5.6-1.5zm4.6 1.6c.2.7-.6 1.2-1.7 1.2-2.1 0-2.7-1.1-1.4-2.4.9-.9 2.6-.2 3.1 1.2zm4.9-2.1c-.4.3-.6 2.9-.5 5.7l.1 5.1.6-5c.4-3.5 1-5 2.1-5s1.6 1.3 1.8 4.7c.2 2.7.7 4.8 1.3 4.8 1 0 1.2-6.9.3-9.4-.6-1.6-4.5-2.2-5.7-.9zM84.2 27.9c-.9 2.6-.2 13.1.9 13.1.8 0 1.5-6.9 1-11.4-.1-1.1.4-2.3 1.1-2.8.9-.5.8-.8-.5-.8-1 0-2.1.9-2.5 1.9zm47.6 1.2c-.7 2 .7 11.2 1.7 11.6.8.2 1.1-5.2.6-12-.1-1.1-1.9-.8-2.3.4zm-114.7.8c-4.1 2.6 5.3 5.3 18.5 5.3 9.5.1 14.5-.9 15.8-3.1.4-.5-.2-1.5-1.3-2-2.6-1.4-4.2-1.4-3.8.1.3 1.6-3.8 2.6-11.8 2.7C27.1 33 20 31.6 20 30c0-1.2-1.1-1.2-2.9-.1zm57.1 1.3c-1.4 1.4-1.6 9.8-.2 9.8.6 0 1-2 1-4.4 0-7.5 3.6-7.1 4.3.4.3 3.9.4 3.7.3-1-.1-4.7-.4-5.5-2.1-5.8-1.1-.1-2.6.3-3.3 1zm16.9.2c-.7.8-1.1 3.2-.9 5.3.3 3.5.6 3.8 3.6 4.1l3.3.3-.3-5.3c-.3-4.5-.6-5.3-2.4-5.6-1.1-.2-2.6.4-3.3 1.2zm4.7 4.5c-.2 2.5-.8 3.7-2 3.9-1.5.3-1.8-.4-1.8-3.6 0-4.4.6-5.3 2.7-4.5.9.4 1.3 1.7 1.1 4.2zm4.9-5.2c-.4.3-.6 2.9-.5 5.7.1 4.7.2 4.8.5 1.1.3-2.2 1.2-4.8 2-5.8 1.4-1.5 1.4-1.7.1-1.7-.8 0-1.8.3-2.1.7zm6.6 0c-.9.3-1.3 2.3-1.2 5.6l.2 5.2.6-4.3c1.3-7.8 4.6-7.6 5.4.3l.4 4 .1-4.6c.1-3 .7-4.9 1.6-5.2 2.1-.8 2.6.2 2.6 5 0 2.4.5 4.3 1 4.3 1.4 0 1.2-8.6-.2-9.8-1.3-1-8.3-1.4-10.5-.5zm14.7.8c-1.3 1.6 0 2.1 1.6.5.6-.6 1.5-.6 2.4.1 1.3.9 1.3 1.2-.3 2.2-4.5 2.9-5 3.5-4.4 5.1.4 1 1.8 1.6 3.7 1.6h3.1l-.3-5.3c-.3-4.4-.6-5.2-2.4-5.5-1.1-.2-2.7.4-3.4 1.3zm4.5 6.6c0 .7-.8 1.5-1.7 1.7-1.8.3-2.5-1.8-1.1-3.2 1-1 2.8-.1 2.8 1.5zm11.8-2.6c0 3.3.2 4.5.4 2.7.2-1.8.2-4.5 0-6s-.4 0-.4 3.3zm4.4-4.8c-.4.3-.7 2.5-.7 4.8 0 4.2 0 4.3 6.3 7.3 1.2.6.8-10.3-.5-11.6-1.3-1.3-4.1-1.6-5.1-.5zm4.3 5.5c0 3.2-.3 3.9-1.6 3.4-.9-.3-1.8-.6-2-.6-1 0-.3-6.9.9-7.3 2.1-.7 2.7.3 2.7 4.5zm15.3-5.5c-.8.3-1.3 2.4-1.3 5.4 0 4.8.1 4.9 3 4.9 1.7 0 3-.4 3-.8 0-.5-1-.8-2.2-.8-3.1.1-3-2.8 0-3.2 2.8-.4 3.9-2.7 2.2-4.7-1.3-1.5-2.5-1.7-4.7-.8zm3.7 2.9c0 1.4-2.1 1.9-3.3.7-.9-.9 1.3-3.4 2.4-2.7.5.3.9 1.2.9 2zM69 36c0 2.7.5 5 1 5 .6 0 1-2.3 1-5 0-2.8-.4-5-1-5-.5 0-1 2.2-1 5zm82.2-.3c.3 4.6.4 4.8 3.6 5.1l3.2.3-.2-5.3-.1-5.3-.6 4.5c-.4 3.2-1.1 4.6-2.3 4.8-1.5.3-1.8-.4-1.8-4.2 0-2.6-.5-4.6-1.1-4.6-.6 0-.9 1.9-.7 4.7zM49.6 37.8c-.3.6-.1 1.4.5 1.7 1.4.9 2 .2 1-1.4-.6-.8-1.1-.9-1.5-.3zM61.5 39c-.3.5.1 1 .9 1s1.8-.5 2.1-1c.3-.6-.1-1-.9-1s-1.8.4-2.1 1zm25.8 8.2c-.6.7-1.3 3-1.7 5.1l-.7 3.8 3.3-.3c2.8-.3 3.3-.7 3.3-3 .1-1.5.4-3 .8-3.4.9-.9-1.2-3.4-2.8-3.4-.7 0-1.7.6-2.2 1.2zm3.7 1.9c0 .5-.7.9-1.5.9-1.5 0-2-1.2-.9-2.3.8-.8 2.4.1 2.4 1.4zm-1 4.4c0 .8-.7 1.5-1.5 1.5s-1.5-.7-1.5-1.5.7-1.5 1.5-1.5 1.5.7 1.5 1.5zm6.3-2.5c-.3 4.6-.1 5 2 5 1.6 0 1.9-.2.8-.9-1-.7-1.2-2-.7-5 .4-3 .3-4.1-.6-4.1-.9 0-1.4 1.8-1.5 5zm10.2-1c1.8.7 1.8.8-.7 1.5-4 1-3.9 4.5.1 4.5 2.3 0 3-.5 3.4-2.7.7-3.5.1-4.3-2.6-4.2-2.1 0-2.1.1-.2.9zm.5 4c0 .5-.7 1-1.5 1s-1.5-.5-1.5-1c0-.6.7-1 1.5-1s1.5.4 1.5 1zm5.2-3.8c-1.9 1.9-1.4 4.8 1.1 5.7l2.2.9-2.5 1-2.5 1.1h2.7c2.3.1 2.9-.5 3.7-3.7.6-2 1.1-4.3 1.1-5 0-1.5-4.2-1.6-5.8 0zm3.6 2c-.4 2.7-2.8 3.6-2.8 1 0-2 .8-3.2 2.2-3.2.5 0 .8 1 .6 2.2zm4.7-.1c-.7 3.2.1 5.3 1 2.5 1.5-4.8 1.9-5.1 2.3-1.9.4 4.1 1.8 4.3 2.4.3.5-3.5.2-4-2.8-4-1.7 0-2.4.8-2.9 3.1zm11-2.1c1.9.7 1.8.9-.7 1.9-4.1 1.5-3.7 4.3.5 3.9 2.8-.3 3.2-.7 3.5-3.6.3-2.9.1-3.2-2.5-3.1-2.4 0-2.5.1-.8.9zm1 4c-.3.5-1 1-1.6 1-.5 0-.9-.5-.9-1 0-.6.7-1 1.6-1 .8 0 1.2.4.9 1zm5.5-2.9c-1.5 2.8-.6 4.9 2.2 4.9 2-.1 2.1-.2.6-1.1-2.5-1.4-2.2-3.8.5-4.9l2.2-.9h-2.2c-1.3-.1-2.7.8-3.3 2z"/></svg>