<?xml version="1.0" encoding="UTF-8" standalone="no"?><svg xmlns="http://www.w3.org/2000/svg" xmlns:xlink="http://www.w3.org/1999/xlink" contentStyleType="text/css" height="198px" preserveAspectRatio="none" style="width:288px;height:198px;background:#FFFFFF;" version="1.1" viewBox="0 0 288 198" width="288px" zoomAndPan="magnify"><defs/><g><rect fill="none" height="26.2969" id="_title" style="stroke:none;stroke-width:1.0;" width="90" x="58.5" y="5"/><text fill="#000000" font-family="sans-serif" font-size="14" font-weight="bold" lengthAdjust="spacing" textLength="80" x="63.5" y="22.9951">SAE S1.05</text><text fill="#000000" font-family="Serif" font-size="10" lengthAdjust="spacing" textLength="12" x="5" y="62.5791">38</text><text fill="#000000" font-family="Serif" font-size="10" lengthAdjust="spacing" textLength="12" x="33" y="62.5791">39</text><text fill="#000000" font-family="Serif" font-size="10" lengthAdjust="spacing" textLength="12" x="61" y="62.5791">40</text><text fill="#000000" font-family="Serif" font-size="10" lengthAdjust="spacing" textLength="12" x="89" y="62.5791">41</text><text fill="#000000" font-family="Serif" font-size="10" lengthAdjust="spacing" textLength="12" x="117" y="62.5791">42</text><text fill="#000000" font-family="Serif" font-size="10" lengthAdjust="spacing" textLength="12" x="145" y="62.5791">43</text><text fill="#000000" font-family="Serif" font-size="10" lengthAdjust="spacing" textLength="12" x="173" y="62.5791">44</text><text fill="#000000" font-family="Serif" font-size="10" lengthAdjust="spacing" textLength="12" x="201" y="62.5791">45</text><line style="stroke:#C0C0C0;stroke-width:1.0;" x1="0" x2="0" y1="53.2969" y2="180.3203"/><line style="stroke:#C0C0C0;stroke-width:1.0;" x1="28" x2="28" y1="53.2969" y2="180.3203"/><line style="stroke:#C0C0C0;stroke-width:1.0;" x1="56" x2="56" y1="53.2969" y2="180.3203"/><line style="stroke:#C0C0C0;stroke-width:1.0;" x1="84" x2="84" y1="53.2969" y2="180.3203"/><line style="stroke:#C0C0C0;stroke-width:1.0;" x1="112" x2="112" y1="53.2969" y2="180.3203"/><line style="stroke:#C0C0C0;stroke-width:1.0;" x1="140" x2="140" y1="53.2969" y2="180.3203"/><line style="stroke:#C0C0C0;stroke-width:1.0;" x1="168" x2="168" y1="53.2969" y2="180.3203"/><line style="stroke:#C0C0C0;stroke-width:1.0;" x1="196" x2="196" y1="53.2969" y2="180.3203"/><line style="stroke:#C0C0C0;stroke-width:1.0;" x1="208" x2="208" y1="53.2969" y2="180.3203"/><line style="stroke:#C0C0C0;stroke-width:1.0;" x1="0" x2="0" y1="37.2969" y2="53.2969"/><line style="stroke:#C0C0C0;stroke-width:1.0;" x1="44" x2="44" y1="37.2969" y2="53.2969"/><text fill="#000000" font-family="Serif" font-size="12" font-weight="bold" lengthAdjust="spacing" textLength="25" x="9.5" y="48.5645">Sep</text><line style="stroke:#C0C0C0;stroke-width:1.0;" x1="168" x2="168" y1="37.2969" y2="53.2969"/><text fill="#000000" font-family="Serif" font-size="12" font-weight="bold" lengthAdjust="spacing" textLength="59" x="76.5" y="48.5645">Oct 2021</text><line style="stroke:#C0C0C0;stroke-width:1.0;" x1="208" x2="208" y1="37.2969" y2="53.2969"/><text fill="#000000" font-family="Serif" font-size="12" font-weight="bold" lengthAdjust="spacing" textLength="26" x="175" y="48.5645">Nov</text><line style="stroke:#C0C0C0;stroke-width:1.0;" x1="0" x2="208" y1="37.2969" y2="37.2969"/><line style="stroke:#C0C0C0;stroke-width:1.0;" x1="0" x2="208" y1="53.2969" y2="53.2969"/><line style="stroke:#C0C0C0;stroke-width:1.0;" x1="0" x2="208" y1="66.2969" y2="66.2969"/><line style="stroke:#181818;stroke-width:1.5;" x1="47" x2="47" y1="113.9063" y2="124.3086"/><line style="stroke:#181818;stroke-width:1.5;" x1="47" x2="55" y1="124.3086" y2="124.3086"/><polygon fill="#181818" points="51,120.3086,51,124.3086,51,128.3086,55,124.3086" style="stroke:#181818;stroke-width:1.5;"/><line style="stroke:#181818;stroke-width:1.5;" x1="75" x2="75" y1="130.7109" y2="141.1133"/><line style="stroke:#181818;stroke-width:1.5;" x1="75" x2="83" y1="141.1133" y2="141.1133"/><polygon fill="#181818" points="79,137.1133,79,141.1133,79,145.1133,83,141.1133" style="stroke:#181818;stroke-width:1.5;"/><line style="stroke:#181818;stroke-width:1.5;" x1="131" x2="131" y1="147.5156" y2="157.918"/><line style="stroke:#181818;stroke-width:1.5;" x1="131" x2="139" y1="157.918" y2="157.918"/><polygon fill="#181818" points="135,153.918,135,157.918,135,161.918,139,157.918" style="stroke:#181818;stroke-width:1.5;"/><line style="stroke:#181818;stroke-width:1.0;" x1="0" x2="5" y1="82.6992" y2="82.6992"/><line style="stroke:#181818;stroke-width:1.0;" x1="74" x2="207" y1="82.6992" y2="82.6992"/><rect fill="#E2E2F0" height="12.8047" style="stroke:none;stroke-width:1.0;" width="52" x="2" y="101.1016"/><line style="stroke:#181818;stroke-width:1.0;" x1="2" x2="54" y1="101.1016" y2="101.1016"/><line style="stroke:#181818;stroke-width:1.0;" x1="2" x2="54" y1="113.9063" y2="113.9063"/><line style="stroke:#181818;stroke-width:1.0;" x1="2" x2="2" y1="101.1016" y2="113.9063"/><line style="stroke:#181818;stroke-width:1.0;" x1="54" x2="54" y1="101.1016" y2="113.9063"/><rect fill="#E2E2F0" height="12.8047" style="stroke:none;stroke-width:1.0;" width="24" x="58" y="117.9063"/><line style="stroke:#181818;stroke-width:1.0;" x1="58" x2="82" y1="117.9063" y2="117.9063"/><line style="stroke:#181818;stroke-width:1.0;" x1="58" x2="82" y1="130.7109" y2="130.7109"/><line style="stroke:#181818;stroke-width:1.0;" x1="58" x2="58" y1="117.9063" y2="130.7109"/><line style="stroke:#181818;stroke-width:1.0;" x1="82" x2="82" y1="117.9063" y2="130.7109"/><rect fill="#E2E2F0" height="12.8047" style="stroke:none;stroke-width:1.0;" width="52" x="86" y="134.7109"/><line style="stroke:#181818;stroke-width:1.0;" x1="86" x2="138" y1="134.7109" y2="134.7109"/><line style="stroke:#181818;stroke-width:1.0;" x1="86" x2="138" y1="147.5156" y2="147.5156"/><line style="stroke:#181818;stroke-width:1.0;" x1="86" x2="86" y1="134.7109" y2="147.5156"/><line style="stroke:#181818;stroke-width:1.0;" x1="138" x2="138" y1="134.7109" y2="147.5156"/><rect fill="#E2E2F0" height="12.8047" style="stroke:none;stroke-width:1.0;" width="52" x="142" y="151.5156"/><line style="stroke:#181818;stroke-width:1.0;" x1="142" x2="194" y1="151.5156" y2="151.5156"/><line style="stroke:#181818;stroke-width:1.0;" x1="142" x2="194" y1="164.3203" y2="164.3203"/><line style="stroke:#181818;stroke-width:1.0;" x1="142" x2="142" y1="151.5156" y2="164.3203"/><line style="stroke:#181818;stroke-width:1.0;" x1="194" x2="194" y1="151.5156" y2="164.3203"/><polygon fill="#000000" points="206,168.3203,211,173.3203,206,178.3203,201,173.3203" style="stroke:#000000;stroke-width:1.0;"/><text fill="#000000" font-family="sans-serif" font-size="11" lengthAdjust="spacing" textLength="59" x="10" y="86.5073">SAE S1.05</text><text fill="#000000" font-family="sans-serif" font-size="11" lengthAdjust="spacing" textLength="73" x="58" y="111.312">Organisation</text><text fill="#000000" font-family="sans-serif" font-size="11" lengthAdjust="spacing" textLength="40" x="86" y="128.1167">Recueil</text><text fill="#000000" font-family="sans-serif" font-size="11" lengthAdjust="spacing" textLength="53" x="142" y="144.9214">Synthèse</text><text fill="#000000" font-family="sans-serif" font-size="11" lengthAdjust="spacing" textLength="55" x="198" y="161.7261">Rédaction</text><text fill="#000000" font-family="sans-serif" font-size="11" lengthAdjust="spacing" textLength="72" x="214" y="177.1284">Présentation</text><line style="stroke:#C0C0C0;stroke-width:1.0;" x1="0" x2="208" y1="180.3203" y2="180.3203"/><line style="stroke:#C0C0C0;stroke-width:1.0;" x1="0" x2="0" y1="180.3203" y2="196.3203"/><line style="stroke:#C0C0C0;stroke-width:1.0;" x1="44" x2="44" y1="180.3203" y2="196.3203"/><text fill="#000000" font-family="Serif" font-size="12" font-weight="bold" lengthAdjust="spacing" textLength="25" x="9.5" y="191.5879">Sep</text><line style="stroke:#C0C0C0;stroke-width:1.0;" x1="168" x2="168" y1="180.3203" y2="196.3203"/><text fill="#000000" font-family="Serif" font-size="12" font-weight="bold" lengthAdjust="spacing" textLength="59" x="76.5" y="191.5879">Oct 2021</text><line style="stroke:#C0C0C0;stroke-width:1.0;" x1="208" x2="208" y1="180.3203" y2="196.3203"/><text fill="#000000" font-family="Serif" font-size="12" font-weight="bold" lengthAdjust="spacing" textLength="26" x="175" y="191.5879">Nov</text><line style="stroke:#C0C0C0;stroke-width:1.0;" x1="0" x2="208" y1="196.3203" y2="196.3203"/><!--MD5=[a4d61ec72fa086c939f9deb59dc85083]
@startgantt

title SAE S1.05

printscale weekly

Project starts the 20th of September 2021


- - SAE S1.05 - -

[Organisation] lasts 2 weeks
then [Recueil] lasts 1 week
then [Synthèse] lasts 2 weeks
then [Rédaction] lasts 2 weeks

'[Présentation] happens at [Rédaction]'s end
[Présentation] happens the 10 November 2021


@endgantt

@startgantt

title SAE S1.05

printscale weekly

Project starts the 20th of September 2021


- - SAE S1.05 - -

[Organisation] lasts 2 weeks
then [Recueil] lasts 1 week
then [Synthèse] lasts 2 weeks
then [Rédaction] lasts 2 weeks

[Présentation] happens the 10 November 2021


@endgantt

PlantUML version 1.2022.12(Sun Oct 23 18:12:26 GMT 2022)
(GPL source distribution)
Java Runtime: OpenJDK Runtime Environment
JVM: OpenJDK 64-Bit Server VM
Default Encoding: UTF-8
Language: en
Country: US
--></g></svg>