<?xml version="1.0" encoding="UTF-8" standalone="no"?><svg xmlns="http://www.w3.org/2000/svg" xmlns:xlink="http://www.w3.org/1999/xlink" contentStyleType="text/css" height="549px" preserveAspectRatio="none" style="width:1662px;height:549px;background:#FFFFFF;" version="1.1" viewBox="0 0 1662 549" width="1662px" zoomAndPan="magnify"><defs/><g><rect fill="none" height="26.2969" id="_title" rx="5" ry="5" style="stroke:none;stroke-width:1.0;" width="120" x="764.085" y="5"/><text fill="#000000" font-family="sans-serif" font-size="14" font-weight="bold" lengthAdjust="spacing" textLength="110" x="769.085" y="22.9951">Info - S1 v.0.1</text><!--MD5=[c62305f8767b7297d71498ed93a07a0b]
entity r11--><g id="elem_r11"><rect fill="#FFFFE0" height="52.5938" rx="35" ry="35" style="stroke:#181818;stroke-width:0.5;" width="131" x="340.17" y="179.2969"/><text fill="#000000" font-family="sans-serif" font-size="14" lengthAdjust="spacing" textLength="41" x="385.17" y="202.292">R1.01</text><text fill="#000000" font-family="sans-serif" font-size="14" lengthAdjust="spacing" textLength="111" x="350.17" y="218.5889">Initiation au dev.</text></g><!--MD5=[97e12c4c35df3db615dd206260a1eae4]
entity r12--><g id="elem_r12"><rect fill="#FFFFE0" height="52.5938" rx="35" ry="35" style="stroke:#181818;stroke-width:0.5;" width="156" x="891.67" y="44.2969"/><text fill="#000000" font-family="sans-serif" font-size="14" lengthAdjust="spacing" textLength="41" x="949.17" y="67.292">R1.02</text><text fill="#000000" font-family="sans-serif" font-size="14" lengthAdjust="spacing" textLength="136" x="901.67" y="83.5889">Dev. interfaces web</text></g><!--MD5=[93d57ee199d382e6cba9586b5c9487cd]
entity r13--><g id="elem_r13"><rect fill="#FFFFE0" height="52.5938" rx="35" ry="35" style="stroke:#181818;stroke-width:0.5;" width="96" x="404.67" y="44.2969"/><text fill="#000000" font-family="sans-serif" font-size="14" lengthAdjust="spacing" textLength="41" x="432.17" y="67.292">R1.03</text><text fill="#000000" font-family="sans-serif" font-size="14" lengthAdjust="spacing" textLength="76" x="414.67" y="83.5889">Intro. archi.</text></g><!--MD5=[b9a4872f8bb942099c0de7666a35944b]
entity r14--><g id="elem_r14"><rect fill="#FFFFE0" height="52.5938" rx="35" ry="35" style="stroke:#181818;stroke-width:0.5;" width="130" x="535.67" y="44.2969"/><text fill="#000000" font-family="sans-serif" font-size="14" lengthAdjust="spacing" textLength="41" x="580.17" y="67.292">R1.04</text><text fill="#000000" font-family="sans-serif" font-size="14" lengthAdjust="spacing" textLength="106" x="545.67" y="83.5889">Intro. systèmes</text></g><!--MD5=[cc021f1cef0b492c3bce4583f556f0a2]
entity r15--><g id="elem_r15"><rect fill="#FFFFE0" height="52.5938" rx="35" ry="35" style="stroke:#181818;stroke-width:0.5;" width="132" x="1393.67" y="44.2969"/><text fill="#000000" font-family="sans-serif" font-size="14" lengthAdjust="spacing" textLength="41" x="1439.17" y="67.292">R1.05</text><text fill="#000000" font-family="sans-serif" font-size="14" lengthAdjust="spacing" textLength="108" x="1403.67" y="83.5889">Introduction BD</text></g><!--MD5=[62ab235c837744bff8eff6124a0b191a]
entity r16--><g id="elem_r16"><rect fill="#FFFFE0" height="52.5938" rx="35" ry="35" style="stroke:#181818;stroke-width:0.5;" width="134" x="87.67" y="327.2969"/><text fill="#000000" font-family="sans-serif" font-size="14" lengthAdjust="spacing" textLength="41" x="134.17" y="350.292">R1.06</text><text fill="#000000" font-family="sans-serif" font-size="14" lengthAdjust="spacing" textLength="110" x="97.67" y="366.5889">Maths discrètes</text></g><!--MD5=[8917ed62d460b8ee39da132cbaef447f]
entity r17--><g id="elem_r17"><rect fill="#FFFFE0" height="52.5938" rx="35" ry="35" style="stroke:#181818;stroke-width:0.5;" width="166" x="256.67" y="327.2969"/><text fill="#000000" font-family="sans-serif" font-size="14" lengthAdjust="spacing" textLength="41" x="319.17" y="350.292">R1.07</text><text fill="#000000" font-family="sans-serif" font-size="14" lengthAdjust="spacing" textLength="142" x="266.67" y="366.5889">Outils fondamentaux</text></g><!--MD5=[8f8e0e7a3acfde448c3dfdd334465ec7]
entity r18--><g id="elem_r18"><rect fill="#FFFFE0" height="52.5938" rx="35" ry="35" style="stroke:#181818;stroke-width:0.5;" width="151" x="1083.17" y="44.2969"/><text fill="#000000" font-family="sans-serif" font-size="14" lengthAdjust="spacing" textLength="41" x="1138.17" y="67.292">R1.08</text><text fill="#000000" font-family="sans-serif" font-size="14" lengthAdjust="spacing" textLength="127" x="1093.17" y="83.5889">Gestion proj. orga.</text></g><!--MD5=[c188652b1ea8f8c223432d772372dc7b]
entity r19--><g id="elem_r19"><rect fill="#FFFFE0" height="52.5938" rx="35" ry="35" style="stroke:#181818;stroke-width:0.5;" width="89" x="1269.17" y="44.2969"/><text fill="#000000" font-family="sans-serif" font-size="14" lengthAdjust="spacing" textLength="41" x="1293.17" y="67.292">R1.09</text><text fill="#000000" font-family="sans-serif" font-size="14" lengthAdjust="spacing" textLength="69" x="1279.17" y="83.5889">Économie</text></g><!--MD5=[074acbed5e8b110780196068e5a2c82a]
entity r110--><g id="elem_r110"><rect fill="#FFFFE0" height="52.5938" rx="35" ry="35" style="stroke:#181818;stroke-width:0.5;" width="143" x="51.17" y="44.2969"/><text fill="#000000" font-family="sans-serif" font-size="14" lengthAdjust="spacing" textLength="41" x="102.17" y="67.292">R1.10</text><text fill="#000000" font-family="sans-serif" font-size="14" lengthAdjust="spacing" textLength="123" x="61.17" y="83.5889">Anglais technique</text></g><!--MD5=[71adfa3e2dfa04ee95d657fbffd12665]
entity r111--><g id="elem_r111"><rect fill="#FFFFE0" height="52.5938" rx="35" ry="35" style="stroke:#181818;stroke-width:0.5;" width="151" x="705.17" y="44.2969"/><text fill="#000000" font-family="sans-serif" font-size="14" lengthAdjust="spacing" textLength="41" x="760.17" y="67.292">R1.11</text><text fill="#000000" font-family="sans-serif" font-size="14" lengthAdjust="spacing" textLength="127" x="715.17" y="83.5889">Bases de la comm</text></g><!--MD5=[5505fae473b37b001fdb3d002aa5bc30]
entity sae11--><g id="elem_sae11"><polygon fill="#87CEEB" points="550.17,324.2969,560.17,314.2969,697.17,314.2969,697.17,383.1875,687.17,393.1875,550.17,393.1875,550.17,324.2969" style="stroke:#181818;stroke-width:0.5;"/><line style="stroke:#181818;stroke-width:0.5;" x1="687.17" x2="697.17" y1="324.2969" y2="314.2969"/><line style="stroke:#181818;stroke-width:0.5;" x1="550.17" x2="687.17" y1="324.2969" y2="324.2969"/><line style="stroke:#181818;stroke-width:0.5;" x1="687.17" x2="687.17" y1="324.2969" y2="393.1875"/><text fill="#000000" font-family="sans-serif" font-size="14" lengthAdjust="spacing" textLength="53" x="592.17" y="347.292">SAE 1.1</text><text fill="#000000" font-family="sans-serif" font-size="14" lengthAdjust="spacing" textLength="107" x="565.17" y="363.5889">Implémentation</text><text fill="#000000" font-family="sans-serif" font-size="14" lengthAdjust="spacing" textLength="88" x="574.67" y="379.8857">besoin client</text></g><!--MD5=[f8350f3e21562befa4ae41ef93cbabd6]
entity sae12--><g id="elem_sae12"><polygon fill="#87CEEB" points="251.67,480.2969,261.67,470.2969,427.67,470.2969,427.67,522.8906,417.67,532.8906,251.67,532.8906,251.67,480.2969" style="stroke:#181818;stroke-width:0.5;"/><line style="stroke:#181818;stroke-width:0.5;" x1="417.67" x2="427.67" y1="480.2969" y2="470.2969"/><line style="stroke:#181818;stroke-width:0.5;" x1="251.67" x2="417.67" y1="480.2969" y2="480.2969"/><line style="stroke:#181818;stroke-width:0.5;" x1="417.67" x2="417.67" y1="480.2969" y2="532.8906"/><text fill="#000000" font-family="sans-serif" font-size="14" lengthAdjust="spacing" textLength="53" x="308.17" y="503.292">SAE 1.2</text><text fill="#000000" font-family="sans-serif" font-size="14" lengthAdjust="spacing" textLength="136" x="266.67" y="519.5889">Comparaison d'algo</text></g><!--MD5=[9837f4b409915ab6344efab6d40991c3]
entity sae13--><g id="elem_sae13"><polygon fill="#87CEEB" points="506.17,184.2969,516.17,174.2969,663.17,174.2969,663.17,226.8906,653.17,236.8906,506.17,236.8906,506.17,184.2969" style="stroke:#181818;stroke-width:0.5;"/><line style="stroke:#181818;stroke-width:0.5;" x1="653.17" x2="663.17" y1="184.2969" y2="174.2969"/><line style="stroke:#181818;stroke-width:0.5;" x1="506.17" x2="653.17" y1="184.2969" y2="184.2969"/><line style="stroke:#181818;stroke-width:0.5;" x1="653.17" x2="653.17" y1="184.2969" y2="236.8906"/><text fill="#000000" font-family="sans-serif" font-size="14" lengthAdjust="spacing" textLength="53" x="553.17" y="207.292">SAE 1.3</text><text fill="#000000" font-family="sans-serif" font-size="14" lengthAdjust="spacing" textLength="117" x="521.17" y="223.5889">Installation poste</text></g><!--MD5=[d7cdbd9003927e1cb2a773f82629afd6]
entity sae14--><g id="elem_sae14"><polygon fill="#87CEEB" points="1376.17,184.2969,1386.17,174.2969,1499.17,174.2969,1499.17,226.8906,1489.17,236.8906,1376.17,236.8906,1376.17,184.2969" style="stroke:#181818;stroke-width:0.5;"/><line style="stroke:#181818;stroke-width:0.5;" x1="1489.17" x2="1499.17" y1="184.2969" y2="174.2969"/><line style="stroke:#181818;stroke-width:0.5;" x1="1376.17" x2="1489.17" y1="184.2969" y2="184.2969"/><line style="stroke:#181818;stroke-width:0.5;" x1="1489.17" x2="1489.17" y1="184.2969" y2="236.8906"/><text fill="#000000" font-family="sans-serif" font-size="14" lengthAdjust="spacing" textLength="53" x="1406.17" y="207.292">SAE 1.4</text><text fill="#000000" font-family="sans-serif" font-size="14" lengthAdjust="spacing" textLength="83" x="1391.17" y="223.5889">Création BD</text></g><!--MD5=[cbc102692a25a9d75da07bd812b0c4e3]
entity sae15--><g id="elem_sae15"><polygon fill="#87CEEB" points="698.67,184.2969,708.67,174.2969,1108.67,174.2969,1108.67,226.8906,1098.67,236.8906,698.67,236.8906,698.67,184.2969" style="stroke:#181818;stroke-width:0.5;"/><line style="stroke:#181818;stroke-width:0.5;" x1="1098.67" x2="1108.67" y1="184.2969" y2="174.2969"/><line style="stroke:#181818;stroke-width:0.5;" x1="698.67" x2="1098.67" y1="184.2969" y2="184.2969"/><line style="stroke:#181818;stroke-width:0.5;" x1="1098.67" x2="1098.67" y1="184.2969" y2="236.8906"/><text fill="#000000" font-family="sans-serif" font-size="14" lengthAdjust="spacing" textLength="53" x="872.17" y="207.292">SAE 1.5</text><a href="https://iut-blagnac.github.io/but/but1/1.1/master.html" target="_top" title="https://iut-blagnac.github.io/but/but1/1.1/master.html" xlink:actuate="onRequest" xlink:href="https://iut-blagnac.github.io/but/but1/1.1/master.html" xlink:show="new" xlink:title="https://iut-blagnac.github.io/but/but1/1.1/master.html" xlink:type="simple"><text fill="#0000FF" font-family="sans-serif" font-size="14" lengthAdjust="spacing" text-decoration="underline" textLength="370" x="713.67" y="223.5889">https://iut-blagnac.github.io/but/but1/1.1/master.html</text></a></g><!--MD5=[94ac2d62d2a83b25c4bf0a4c59f99025]
entity sae16--><g id="elem_sae16"><polygon fill="#87CEEB" points="1144.17,184.2969,1154.17,174.2969,1319.17,174.2969,1319.17,226.8906,1309.17,236.8906,1144.17,236.8906,1144.17,184.2969" style="stroke:#181818;stroke-width:0.5;"/><line style="stroke:#181818;stroke-width:0.5;" x1="1309.17" x2="1319.17" y1="184.2969" y2="174.2969"/><line style="stroke:#181818;stroke-width:0.5;" x1="1144.17" x2="1309.17" y1="184.2969" y2="184.2969"/><line style="stroke:#181818;stroke-width:0.5;" x1="1309.17" x2="1309.17" y1="184.2969" y2="236.8906"/><text fill="#000000" font-family="sans-serif" font-size="14" lengthAdjust="spacing" textLength="53" x="1200.17" y="207.292">SAE 1.6</text><text fill="#000000" font-family="sans-serif" font-size="14" lengthAdjust="spacing" textLength="135" x="1159.17" y="223.5889">Environnement éco</text></g><!--MD5=[cbf2a705c8c36a956106bd646f097c75]
entity r--><g id="elem_r"><rect fill="#FFFFE0" height="36.2969" rx="35" ry="35" style="stroke:#181818;stroke-width:0.5;" width="95" x="1561.17" y="52.7969"/><text fill="#000000" font-family="sans-serif" font-size="14" lengthAdjust="spacing" textLength="75" x="1571.17" y="75.792">Ressource</text></g><!--MD5=[d8322213e5f4465576b8bf70cd9bce59]
entity s--><g id="elem_s"><polygon fill="#87CEEB" points="1575.17,192.7969,1585.17,182.7969,1642.17,182.7969,1642.17,219.0938,1632.17,229.0938,1575.17,229.0938,1575.17,192.7969" style="stroke:#181818;stroke-width:0.5;"/><line style="stroke:#181818;stroke-width:0.5;" x1="1632.17" x2="1642.17" y1="192.7969" y2="182.7969"/><line style="stroke:#181818;stroke-width:0.5;" x1="1575.17" x2="1632.17" y1="192.7969" y2="192.7969"/><line style="stroke:#181818;stroke-width:0.5;" x1="1632.17" x2="1632.17" y1="192.7969" y2="229.0938"/><text fill="#000000" font-family="sans-serif" font-size="14" lengthAdjust="spacing" textLength="27" x="1590.17" y="215.792">SAÉ</text></g><!--MD5=[bc3f007aea2e9a35d24dd78be8a76800]
reverse link sae15 to sae11--><g id="link_sae15_sae11"><path d="M840.38,239.7969 C797.89,261.9569 741.75,291.2269 697.26,314.4269 " fill="none" id="sae15-backto-sae11" style="stroke:#000000;stroke-width:1.0;stroke-dasharray:7.0,7.0;"/><polygon fill="#000000" points="844.97,237.4069,835.1393,238.0052,840.5327,239.7114,838.8265,245.1048,844.97,237.4069" style="stroke:#000000;stroke-width:1.0;"/></g><!--MD5=[882665abb3dd31801972e8044fc9f1e8]
reverse link sae11 to sae12--><g id="link_sae11_sae12"><path d="M579.27,396.8769 C561.46,412.1069 540.09,428.4569 518.67,440.2969 C490.53,455.8369 457.7,468.3469 427.9,477.8669 " fill="none" id="sae11-backto-sae12" style="stroke:#000000;stroke-width:1.0;stroke-dasharray:7.0,7.0;"/><polygon fill="#000000" points="583.25,393.4369,573.825,396.2949,579.4668,396.7061,579.0557,402.348,583.25,393.4369" style="stroke:#000000;stroke-width:1.0;"/></g><!--MD5=[e22b674726aba1f5cf4c0ffba046556c]
link r11 to sae11--><g id="link_r11_sae11"><path d="M458.35,232.3269 C477.78,242.4369 499.68,254.6569 518.67,267.2969 C538.31,280.3769 558.7,296.3569 576.22,310.9369 " fill="none" id="r11-to-sae11" style="stroke:#000000;stroke-width:1.0;"/><polygon fill="#000000" points="580.15,314.2169,575.8129,305.3744,576.3147,311.0089,570.6802,311.5108,580.15,314.2169" style="stroke:#000000;stroke-width:1.0;"/><text fill="#000000" font-family="sans-serif" font-size="13" lengthAdjust="spacing" textLength="20" x="541.67" y="280.3638">2/2</text></g><!--MD5=[771e650061340fe56649b555a9a15e65]
link r11 to sae12--><g id="link_r11_sae12"><path d="M418.89,232.3869 C436.01,269.1369 461.22,338.4669 439.67,393.2969 C428.34,422.1069 405.25,447.7769 384.12,466.7969 " fill="none" id="r11-to-sae12" style="stroke:#000000;stroke-width:1.0;"/><polygon fill="#000000" points="380.2,470.2669,389.5898,467.2951,383.9433,466.9522,384.2862,461.3057,380.2,470.2669" style="stroke:#000000;stroke-width:1.0;"/><text fill="#000000" font-family="sans-serif" font-size="13" lengthAdjust="spacing" textLength="20" x="449.67" y="358.3638">2/2</text></g><!--MD5=[d83a422d616334b251cb6f8ae412ed6b]
link r12 to sae15--><g id="link_r12_sae15"><path d="M951.49,97.3869 C945.4,106.5769 938.84,117.1769 933.67,127.2969 C926.88,140.5669 920.69,155.7569 915.71,169.1369 " fill="none" id="r12-to-sae15" style="stroke:#000000;stroke-width:1.0;"/><polygon fill="#000000" points="913.94,173.9869,920.8077,166.9275,915.6705,169.2959,913.3021,164.1587,913.94,173.9869" style="stroke:#000000;stroke-width:1.0;"/><text fill="#000000" font-family="sans-serif" font-size="13" lengthAdjust="spacing" textLength="20" x="934.67" y="140.3638">0/2</text></g><!--MD5=[47243e58f1a54596dcc96bd84e6fcd53]
link r12 to sae16--><g id="link_r12_sae16"><path d="M1020.18,97.4369 C1061.87,118.6069 1121.32,148.7869 1166.58,171.7569 " fill="none" id="r12-to-sae16" style="stroke:#000000;stroke-width:1.0;"/><polygon fill="#000000" points="1171.19,174.0969,1164.968,166.4623,1166.7294,171.838,1161.3537,173.5993,1171.19,174.0969" style="stroke:#000000;stroke-width:1.0;"/><text fill="#000000" font-family="sans-serif" font-size="13" lengthAdjust="spacing" textLength="20" x="1109.67" y="140.3638">0/2</text></g><!--MD5=[e02f712c29f069960f6e1829a298cbc4]
link r13 to sae13--><g id="link_r13_sae13"><path d="M478.12,97.4369 C498.74,118.2169 527.99,147.6869 550.62,170.4969 " fill="none" id="r13-to-sae13" style="stroke:#000000;stroke-width:1.0;"/><polygon fill="#000000" points="554.2,174.0969,550.7202,164.8832,550.686,170.54,545.0292,170.5057,554.2,174.0969" style="stroke:#000000;stroke-width:1.0;"/><text fill="#000000" font-family="sans-serif" font-size="13" lengthAdjust="spacing" textLength="20" x="523.67" y="140.3638">3/0</text></g><!--MD5=[e6e85c36fc7e19466c0dc99f80c65c76]
link r14 to sae13--><g id="link_r14_sae13"><path d="M597.58,97.4369 C595.13,117.7969 591.68,146.4769 588.96,169.0769 " fill="none" id="r14-to-sae13" style="stroke:#000000;stroke-width:1.0;"/><polygon fill="#000000" points="588.36,174.0969,593.3884,165.6284,588.9467,169.1314,585.4437,164.6897,588.36,174.0969" style="stroke:#000000;stroke-width:1.0;"/><text fill="#000000" font-family="sans-serif" font-size="13" lengthAdjust="spacing" textLength="20" x="594.67" y="140.3638">2/0</text></g><!--MD5=[f70158d1e6576c4c52697264a68a4b20]
link r15 to sae14--><g id="link_r15_sae14"><path d="M1455.42,97.4369 C1452.06,117.7969 1447.31,146.4769 1443.57,169.0769 " fill="none" id="r15-to-sae14" style="stroke:#000000;stroke-width:1.0;"/><polygon fill="#000000" points="1442.74,174.0969,1448.1497,165.8668,1443.5527,169.1634,1440.2561,164.5664,1442.74,174.0969" style="stroke:#000000;stroke-width:1.0;"/><text fill="#000000" font-family="sans-serif" font-size="13" lengthAdjust="spacing" textLength="20" x="1451.67" y="140.3638">2/2</text></g><!--MD5=[82db2c419d53366c6d726b11d8a72f30]
link r16 to sae12--><g id="link_r16_sae12"><path d="M187.31,380.5669 C217.82,404.6369 263.53,440.7169 296.93,467.0669 " fill="none" id="r16-to-sae12" style="stroke:#000000;stroke-width:1.0;"/><polygon fill="#000000" points="300.94,470.2369,296.368,461.5135,297.0204,467.1326,291.4012,467.7849,300.94,470.2369" style="stroke:#000000;stroke-width:1.0;"/><text fill="#000000" font-family="sans-serif" font-size="13" lengthAdjust="spacing" textLength="7" x="259.67" y="436.3638">x</text></g><!--MD5=[d9de3a0b9aeaae962593cac5878678f9]
link r17 to sae12--><g id="link_r17_sae12"><path d="M339.67,380.5669 C339.67,404.0469 339.67,438.9569 339.67,465.1269 " fill="none" id="r17-to-sae12" style="stroke:#000000;stroke-width:1.0;"/><polygon fill="#000000" points="339.67,470.2369,343.67,461.2369,339.67,465.2369,335.67,461.2369,339.67,470.2369" style="stroke:#000000;stroke-width:1.0;"/><text fill="#000000" font-family="sans-serif" font-size="13" lengthAdjust="spacing" textLength="7" x="340.67" y="436.3638">x</text></g><!--MD5=[0280c8038c67eb650e301907d50360f7]
link r18 to sae15--><g id="link_r18_sae15"><path d="M1092.76,97.3269 C1071.64,106.1469 1048.37,116.5269 1027.67,127.2969 C1002.43,140.4269 975.54,156.8969 953.27,171.2869 " fill="none" id="r18-to-sae15" style="stroke:#000000;stroke-width:1.0;"/><polygon fill="#000000" points="948.88,174.1369,958.6039,172.5729,953.0686,171.4064,954.2351,165.8711,948.88,174.1369" style="stroke:#000000;stroke-width:1.0;"/><text fill="#000000" font-family="sans-serif" font-size="13" lengthAdjust="spacing" textLength="20" x="1028.67" y="140.3638">4/0</text></g><!--MD5=[5c815fe65c1987dc8e52df82cef34889]
link r18 to sae16--><g id="link_r18_sae16"><path d="M1172.74,97.4369 C1184.01,117.9669 1199.92,146.9569 1212.37,169.6469 " fill="none" id="r18-to-sae16" style="stroke:#000000;stroke-width:1.0;"/><polygon fill="#000000" points="1214.82,174.0969,1213.9704,164.2847,1212.4027,169.72,1206.9674,168.1524,1214.82,174.0969" style="stroke:#000000;stroke-width:1.0;"/><text fill="#000000" font-family="sans-serif" font-size="13" lengthAdjust="spacing" textLength="7" x="1198.67" y="140.3638">x</text></g><!--MD5=[2f5e44754ea22a4434289056cd6fcccf]
link r19 to sae14--><g id="link_r19_sae14"><path d="M1337.57,97.4369 C1356.87,118.1369 1384.2,147.4469 1405.42,170.2169 " fill="none" id="r19-to-sae14" style="stroke:#000000;stroke-width:1.0;"/><polygon fill="#000000" points="1409.04,174.0969,1405.8221,164.7886,1405.6279,170.4421,1399.9744,170.2479,1409.04,174.0969" style="stroke:#000000;stroke-width:1.0;"/><text fill="#000000" font-family="sans-serif" font-size="13" lengthAdjust="spacing" textLength="20" x="1380.67" y="140.3638">2/0</text></g><!--MD5=[a01a34fbf7a4599f338c4cefb204b803]
link r19 to sae16--><g id="link_r19_sae16"><path d="M1297.86,97.4369 C1285.2,117.9669 1267.32,146.9569 1253.34,169.6469 " fill="none" id="r19-to-sae16" style="stroke:#000000;stroke-width:1.0;"/><polygon fill="#000000" points="1250.59,174.0969,1258.7218,168.5405,1253.2169,169.8425,1251.9148,164.3375,1250.59,174.0969" style="stroke:#000000;stroke-width:1.0;"/><text fill="#000000" font-family="sans-serif" font-size="13" lengthAdjust="spacing" textLength="7" x="1278.67" y="140.3638">x</text></g><!--MD5=[127651c5b30928ef2d37f7fc9fa3ed32]
link r110 to sae12--><g id="link_r110_sae12"><path d="M107.3,97.3369 C74.57,155.3869 6,299.4269 69.67,393.2969 C108.99,451.2769 185.08,477.9869 246.49,490.2869 " fill="none" id="r110-to-sae12" style="stroke:#000000;stroke-width:1.0;"/><polygon fill="#000000" points="251.63,491.2969,243.5607,485.6501,246.7222,490.341,242.0313,493.5025,251.63,491.2969" style="stroke:#000000;stroke-width:1.0;"/><text fill="#000000" font-family="sans-serif" font-size="13" lengthAdjust="spacing" textLength="7" x="47.67" y="280.3638">x</text></g><!--MD5=[12af6f8472c7a84b986bee58814de1a1]
link r110 to sae13--><g id="link_r110_sae13"><path d="M194.41,91.0969 C268.36,111.1869 386.87,143.8869 488.67,174.2969 C492.76,175.5169 496.95,176.7869 501.17,178.0769 " fill="none" id="r110-to-sae13" style="stroke:#000000;stroke-width:1.0;"/><polygon fill="#000000" points="506.15,179.6069,498.7053,173.1588,501.3668,178.1505,496.3751,180.812,506.15,179.6069" style="stroke:#000000;stroke-width:1.0;"/><text fill="#000000" font-family="sans-serif" font-size="13" lengthAdjust="spacing" textLength="20" x="379.67" y="140.3638">0/2</text></g><!--MD5=[0df309e124857728dbc27e3cd88c7d0b]
link r111 to sae13--><g id="link_r111_sae13"><path d="M742.88,97.4369 C712,118.3869 668.11,148.1769 634.39,171.0569 " fill="none" id="r111-to-sae13" style="stroke:#000000;stroke-width:1.0;"/><polygon fill="#000000" points="629.91,174.0969,639.6024,172.3484,634.046,171.2873,635.107,165.7308,629.91,174.0969" style="stroke:#000000;stroke-width:1.0;"/><text fill="#000000" font-family="sans-serif" font-size="13" lengthAdjust="spacing" textLength="20" x="695.67" y="140.3638">0/2</text></g><!--MD5=[5e68ba0ac68b96dff35ac5ddc6e8b70f]
link r111 to sae15--><g id="link_r111_sae15"><path d="M779.12,97.3569 C779.46,112.2769 782.14,130.7569 791.67,144.2969 C799.13,154.9069 809.06,163.8369 819.94,171.2869 " fill="none" id="r111-to-sae15" style="stroke:#000000;stroke-width:1.0;"/><polygon fill="#000000" points="824.31,174.1869,819.0074,165.8873,820.1388,171.4299,814.5962,172.5612,824.31,174.1869" style="stroke:#000000;stroke-width:1.0;"/><text fill="#000000" font-family="sans-serif" font-size="13" lengthAdjust="spacing" textLength="7" x="792.67" y="140.3638">x</text></g><!--MD5=[7099522ca0b4d66d5e87bf2dcad56c9e]
link r111 to sae16--><g id="link_r111_sae16"><path d="M813.2,97.4669 C835.43,113.6069 866.26,133.3869 896.67,144.2969 C993.28,178.9569 1025.17,153.3769 1125.67,174.2969 C1130.07,175.2169 1134.56,176.2169 1139.08,177.2869 " fill="none" id="r111-to-sae16" style="stroke:#000000;stroke-width:1.0;"/><polygon fill="#000000" points="1144,178.4769,1136.1887,172.4783,1139.1394,177.3046,1134.313,180.2553,1144,178.4769" style="stroke:#000000;stroke-width:1.0;"/><text fill="#000000" font-family="sans-serif" font-size="13" lengthAdjust="spacing" textLength="20" x="897.67" y="140.3638">0/4</text></g><!--MD5=[83f07c80460ebf22ea7152e1bc3b1282]
link r to s--><g id="link_r_s"><path d="M1608.67,88.9169 C1608.67,111.2769 1608.67,150.7069 1608.67,177.2869 " fill="none" id="r-to-s" style="stroke:#000000;stroke-width:1.0;"/><polygon fill="#000000" points="1608.67,182.4269,1612.67,173.4269,1608.67,177.4269,1604.67,173.4269,1608.67,182.4269" style="stroke:#000000;stroke-width:1.0;"/><text fill="#000000" font-family="sans-serif" font-size="13" lengthAdjust="spacing" textLength="36" x="1609.67" y="140.3638">TD/TP</text></g><!--MD5=[0644505e5300e5f03791617bc8eee304]
@startuml
!define BLUE Skyblue
!define YELLOW Lightyellow
!define GREEN Lightgreen

skinparam defaultTextAlignment center

skinparam storage {
  BackgroundColor YELLOW
}

skinparam node {
  BackgroundColor BLUE
}

skinparam rectangle {
  BackgroundColor GREEN
  BorderColor Black
}

skinparam arrow {
    Color<<ac>> Black
}

skinparam package {
	BackgroundColor empty
	BorderColor DarkSlateGray
	ArrowColor Black
	FontColor Black
	FontSize 12
	FontName TrebuchetMS
}
skinparam roundcorner 10

skinparam class {
	BackgroundColor AliceBlue
	BorderColor DarkSlateGray
	ArrowColor Black
	FontColor Black
	FontSize 12
	FontName TrebuchetMS
}
skinparam arrow {
    MessageAlign center
}

'- - - - - - - - - - - Ressources
storage "R1.01\nInitiation au dev." as r11
storage "R1.02\nDev. interfaces web" as r12
storage "R1.03\nIntro. archi." as r13
storage "R1.04\nIntro. systèmes " as r14
storage "R1.05\nIntroduction BD " as r15
storage "R1.06\nMaths discrètes " as r16
storage "R1.07\nOutils fondamentaux " as r17
storage "R1.08\nGestion proj. orga. " as r18
storage "R1.09\nÉconomie" as r19
storage "R1.10\nAnglais technique" as r110
storage "R1.11\nBases de la comm " as r111

'- - - - - - - - - - - SAÉs
node "SAE 1.1\nImplémentation\nbesoin client" as sae11
node "SAE 1.2\nComparaison d'algo" as sae12
node "SAE 1.3\nInstallation poste" as sae13
node "SAE 1.4\nCréation BD" as sae14
node "SAE 1.5\n[[https://iut-blagnac.github.io/but/but1/1.1/master.html]]" as sae15
node "SAE 1.6\nEnvironnement éco" as sae16


'- - - - - - - - - - - Chronologie des SAÉ

sae15 <.. sae11
sae11 <.. sae12

'- - - - - - - - - - - Graphe
title Info - S1 v.0.1



r11 - -> sae11 : 2/2
r11 - -> sae12 : 2/2
r12 - -> sae15 : 0/2
r12 - -> sae16 : 0/2
r13 - -> sae13 : 3/0
r14 - -> sae13 : 2/0
r15 - -> sae14 : 2/2
r16 - -> sae12 : x
r17 - -> sae12 : x
r18 - -> sae15 : 4/0
r18 - -> sae16 : x
r19 - -> sae14 : 2/0
r19 - -> sae16 : x
r110 - -> sae12 : x
r110 - -> sae13 : 0/2
r111 - -> sae13 : 0/2
r111 - -> sae15 : x
r111 - -> sae16 : 0/4

'- - - Legend- - -
storage Ressource as r
node SAÉ as s
r - -> s : TD/TP

' Astuce cachée pour mettre la 14 à gauche de la 15
'sae14 -[hidden]> sae15
@enduml

@startuml

skinparam defaultTextAlignment center

skinparam storage {
  BackgroundColor Lightyellow
}

skinparam node {
  BackgroundColor Skyblue
}

skinparam rectangle {
  BackgroundColor Lightgreen
  BorderColor Black
}

skinparam arrow {
    Color<<ac>> Black
}

skinparam package {
	BackgroundColor empty
	BorderColor DarkSlateGray
	ArrowColor Black
	FontColor Black
	FontSize 12
	FontName TrebuchetMS
}
skinparam roundcorner 10

skinparam class {
	BackgroundColor AliceBlue
	BorderColor DarkSlateGray
	ArrowColor Black
	FontColor Black
	FontSize 12
	FontName TrebuchetMS
}
skinparam arrow {
    MessageAlign center
}

storage "R1.01\nInitiation au dev." as r11
storage "R1.02\nDev. interfaces web" as r12
storage "R1.03\nIntro. archi." as r13
storage "R1.04\nIntro. systèmes " as r14
storage "R1.05\nIntroduction BD " as r15
storage "R1.06\nMaths discrètes " as r16
storage "R1.07\nOutils fondamentaux " as r17
storage "R1.08\nGestion proj. orga. " as r18
storage "R1.09\nÉconomie" as r19
storage "R1.10\nAnglais technique" as r110
storage "R1.11\nBases de la comm " as r111

node "SAE 1.1\nImplémentation\nbesoin client" as sae11
node "SAE 1.2\nComparaison d'algo" as sae12
node "SAE 1.3\nInstallation poste" as sae13
node "SAE 1.4\nCréation BD" as sae14
node "SAE 1.5\n[[https://iut-blagnac.github.io/but/but1/1.1/master.html]]" as sae15
node "SAE 1.6\nEnvironnement éco" as sae16



sae15 <.. sae11
sae11 <.. sae12

title Info - S1 v.0.1



r11 - -> sae11 : 2/2
r11 - -> sae12 : 2/2
r12 - -> sae15 : 0/2
r12 - -> sae16 : 0/2
r13 - -> sae13 : 3/0
r14 - -> sae13 : 2/0
r15 - -> sae14 : 2/2
r16 - -> sae12 : x
r17 - -> sae12 : x
r18 - -> sae15 : 4/0
r18 - -> sae16 : x
r19 - -> sae14 : 2/0
r19 - -> sae16 : x
r110 - -> sae12 : x
r110 - -> sae13 : 0/2
r111 - -> sae13 : 0/2
r111 - -> sae15 : x
r111 - -> sae16 : 0/4

storage Ressource as r
node SAÉ as s
r - -> s : TD/TP

@enduml

PlantUML version 1.2022.12(Sun Oct 23 18:12:26 GMT 2022)
(GPL source distribution)
Java Runtime: OpenJDK Runtime Environment
JVM: OpenJDK 64-Bit Server VM
Default Encoding: UTF-8
Language: en
Country: US
--></g></svg>