<?xml version="1.0" encoding="UTF-8" standalone="no"?><svg xmlns="http://www.w3.org/2000/svg" xmlns:xlink="http://www.w3.org/1999/xlink" contentStyleType="text/css" height="549px" preserveAspectRatio="none" style="width:1584px;height:549px;background:#FFFFFF;" version="1.1" viewBox="0 0 1584 549" width="1584px" zoomAndPan="magnify"><defs/><g><rect fill="none" height="26.2969" id="_title" rx="5" ry="5" style="stroke:none;stroke-width:1.0;" width="120" x="725.435" y="5"/><text fill="#000000" font-family="sans-serif" font-size="14" font-weight="bold" lengthAdjust="spacing" textLength="110" x="730.435" y="22.9951">Info - S1 v.0.1</text><!--MD5=[c62305f8767b7297d71498ed93a07a0b]
entity r11--><g id="elem_r11"><rect fill="#FFFFE0" height="52.5938" rx="35" ry="35" style="stroke:#181818;stroke-width:0.5;" width="131" x="370.87" y="179.2969"/><text fill="#000000" font-family="sans-serif" font-size="14" lengthAdjust="spacing" textLength="41" x="415.87" y="202.292">R1.01</text><text fill="#000000" font-family="sans-serif" font-size="14" lengthAdjust="spacing" textLength="111" x="380.87" y="218.5889">Initiation au dev.</text></g><!--MD5=[97e12c4c35df3db615dd206260a1eae4]
entity r12--><g id="elem_r12"><rect fill="#FFFFE0" height="52.5938" rx="35" ry="35" style="stroke:#181818;stroke-width:0.5;" width="156" x="814.37" y="44.2969"/><text fill="#000000" font-family="sans-serif" font-size="14" lengthAdjust="spacing" textLength="41" x="871.87" y="67.292">R1.02</text><text fill="#000000" font-family="sans-serif" font-size="14" lengthAdjust="spacing" textLength="136" x="824.37" y="83.5889">Dev. interfaces web</text></g><!--MD5=[93d57ee199d382e6cba9586b5c9487cd]
entity r13--><g id="elem_r13"><rect fill="#FFFFE0" height="52.5938" rx="35" ry="35" style="stroke:#181818;stroke-width:0.5;" width="96" x="331.37" y="44.2969"/><text fill="#000000" font-family="sans-serif" font-size="14" lengthAdjust="spacing" textLength="41" x="358.87" y="67.292">R1.03</text><text fill="#000000" font-family="sans-serif" font-size="14" lengthAdjust="spacing" textLength="76" x="341.37" y="83.5889">Intro. archi.</text></g><!--MD5=[b9a4872f8bb942099c0de7666a35944b]
entity r14--><g id="elem_r14"><rect fill="#FFFFE0" height="52.5938" rx="35" ry="35" style="stroke:#181818;stroke-width:0.5;" width="130" x="462.37" y="44.2969"/><text fill="#000000" font-family="sans-serif" font-size="14" lengthAdjust="spacing" textLength="41" x="506.87" y="67.292">R1.04</text><text fill="#000000" font-family="sans-serif" font-size="14" lengthAdjust="spacing" textLength="106" x="472.37" y="83.5889">Intro. systèmes</text></g><!--MD5=[cc021f1cef0b492c3bce4583f556f0a2]
entity r15--><g id="elem_r15"><rect fill="#FFFFE0" height="52.5938" rx="35" ry="35" style="stroke:#181818;stroke-width:0.5;" width="132" x="1316.37" y="44.2969"/><text fill="#000000" font-family="sans-serif" font-size="14" lengthAdjust="spacing" textLength="41" x="1361.87" y="67.292">R1.05</text><text fill="#000000" font-family="sans-serif" font-size="14" lengthAdjust="spacing" textLength="108" x="1326.37" y="83.5889">Introduction BD</text></g><!--MD5=[62ab235c837744bff8eff6124a0b191a]
entity r16--><g id="elem_r16"><rect fill="#FFFFE0" height="52.5938" rx="35" ry="35" style="stroke:#181818;stroke-width:0.5;" width="134" x="87.37" y="327.2969"/><text fill="#000000" font-family="sans-serif" font-size="14" lengthAdjust="spacing" textLength="41" x="133.87" y="350.292">R1.06</text><text fill="#000000" font-family="sans-serif" font-size="14" lengthAdjust="spacing" textLength="110" x="97.37" y="366.5889">Maths discrètes</text></g><!--MD5=[8917ed62d460b8ee39da132cbaef447f]
entity r17--><g id="elem_r17"><rect fill="#FFFFE0" height="52.5938" rx="35" ry="35" style="stroke:#181818;stroke-width:0.5;" width="166" x="256.37" y="327.2969"/><text fill="#000000" font-family="sans-serif" font-size="14" lengthAdjust="spacing" textLength="41" x="318.87" y="350.292">R1.07</text><text fill="#000000" font-family="sans-serif" font-size="14" lengthAdjust="spacing" textLength="142" x="266.37" y="366.5889">Outils fondamentaux</text></g><!--MD5=[8f8e0e7a3acfde448c3dfdd334465ec7]
entity r18--><g id="elem_r18"><rect fill="#FFFFE0" height="52.5938" rx="35" ry="35" style="stroke:#181818;stroke-width:0.5;" width="151" x="1005.87" y="44.2969"/><text fill="#000000" font-family="sans-serif" font-size="14" lengthAdjust="spacing" textLength="41" x="1060.87" y="67.292">R1.08</text><text fill="#000000" font-family="sans-serif" font-size="14" lengthAdjust="spacing" textLength="127" x="1015.87" y="83.5889">Gestion proj. orga.</text></g><!--MD5=[c188652b1ea8f8c223432d772372dc7b]
entity r19--><g id="elem_r19"><rect fill="#FFFFE0" height="52.5938" rx="35" ry="35" style="stroke:#181818;stroke-width:0.5;" width="89" x="1191.87" y="44.2969"/><text fill="#000000" font-family="sans-serif" font-size="14" lengthAdjust="spacing" textLength="41" x="1215.87" y="67.292">R1.09</text><text fill="#000000" font-family="sans-serif" font-size="14" lengthAdjust="spacing" textLength="69" x="1201.87" y="83.5889">Économie</text></g><!--MD5=[074acbed5e8b110780196068e5a2c82a]
entity r110--><g id="elem_r110"><rect fill="#FFFFE0" height="52.5938" rx="35" ry="35" style="stroke:#181818;stroke-width:0.5;" width="143" x="40.87" y="44.2969"/><text fill="#000000" font-family="sans-serif" font-size="14" lengthAdjust="spacing" textLength="41" x="91.87" y="67.292">R1.10</text><text fill="#000000" font-family="sans-serif" font-size="14" lengthAdjust="spacing" textLength="123" x="50.87" y="83.5889">Anglais technique</text></g><!--MD5=[71adfa3e2dfa04ee95d657fbffd12665]
entity r111--><g id="elem_r111"><rect fill="#FFFFE0" height="52.5938" rx="35" ry="35" style="stroke:#181818;stroke-width:0.5;" width="151" x="627.87" y="44.2969"/><text fill="#000000" font-family="sans-serif" font-size="14" lengthAdjust="spacing" textLength="41" x="682.87" y="67.292">R1.11</text><text fill="#000000" font-family="sans-serif" font-size="14" lengthAdjust="spacing" textLength="127" x="637.87" y="83.5889">Bases de la comm</text></g><!--MD5=[5505fae473b37b001fdb3d002aa5bc30]
entity sae11--><g id="elem_sae11"><polygon fill="#87CEEB" points="549.87,324.2969,559.87,314.2969,696.87,314.2969,696.87,383.1875,686.87,393.1875,549.87,393.1875,549.87,324.2969" style="stroke:#181818;stroke-width:0.5;"/><line style="stroke:#181818;stroke-width:0.5;" x1="686.87" x2="696.87" y1="324.2969" y2="314.2969"/><line style="stroke:#181818;stroke-width:0.5;" x1="549.87" x2="686.87" y1="324.2969" y2="324.2969"/><line style="stroke:#181818;stroke-width:0.5;" x1="686.87" x2="686.87" y1="324.2969" y2="393.1875"/><text fill="#000000" font-family="sans-serif" font-size="14" lengthAdjust="spacing" textLength="53" x="591.87" y="347.292">SAE 1.1</text><text fill="#000000" font-family="sans-serif" font-size="14" lengthAdjust="spacing" textLength="107" x="564.87" y="363.5889">Implémentation</text><text fill="#000000" font-family="sans-serif" font-size="14" lengthAdjust="spacing" textLength="88" x="574.37" y="379.8857">besoin client</text></g><!--MD5=[f8350f3e21562befa4ae41ef93cbabd6]
entity sae12--><g id="elem_sae12"><polygon fill="#87CEEB" points="251.37,480.2969,261.37,470.2969,427.37,470.2969,427.37,522.8906,417.37,532.8906,251.37,532.8906,251.37,480.2969" style="stroke:#181818;stroke-width:0.5;"/><line style="stroke:#181818;stroke-width:0.5;" x1="417.37" x2="427.37" y1="480.2969" y2="470.2969"/><line style="stroke:#181818;stroke-width:0.5;" x1="251.37" x2="417.37" y1="480.2969" y2="480.2969"/><line style="stroke:#181818;stroke-width:0.5;" x1="417.37" x2="417.37" y1="480.2969" y2="532.8906"/><text fill="#000000" font-family="sans-serif" font-size="14" lengthAdjust="spacing" textLength="53" x="307.87" y="503.292">SAE 1.2</text><text fill="#000000" font-family="sans-serif" font-size="14" lengthAdjust="spacing" textLength="136" x="266.37" y="519.5889">Comparaison d'algo</text></g><!--MD5=[9837f4b409915ab6344efab6d40991c3]
entity sae13--><g id="elem_sae13"><polygon fill="#87CEEB" points="536.87,184.2969,546.87,174.2969,693.87,174.2969,693.87,226.8906,683.87,236.8906,536.87,236.8906,536.87,184.2969" style="stroke:#181818;stroke-width:0.5;"/><line style="stroke:#181818;stroke-width:0.5;" x1="683.87" x2="693.87" y1="184.2969" y2="174.2969"/><line style="stroke:#181818;stroke-width:0.5;" x1="536.87" x2="683.87" y1="184.2969" y2="184.2969"/><line style="stroke:#181818;stroke-width:0.5;" x1="683.87" x2="683.87" y1="184.2969" y2="236.8906"/><text fill="#000000" font-family="sans-serif" font-size="14" lengthAdjust="spacing" textLength="53" x="583.87" y="207.292">SAE 1.3</text><text fill="#000000" font-family="sans-serif" font-size="14" lengthAdjust="spacing" textLength="117" x="551.87" y="223.5889">Installation poste</text></g><!--MD5=[d7cdbd9003927e1cb2a773f82629afd6]
entity sae14--><g id="elem_sae14"><polygon fill="#87CEEB" points="1257.87,184.2969,1267.87,174.2969,1380.87,174.2969,1380.87,226.8906,1370.87,236.8906,1257.87,236.8906,1257.87,184.2969" style="stroke:#181818;stroke-width:0.5;"/><line style="stroke:#181818;stroke-width:0.5;" x1="1370.87" x2="1380.87" y1="184.2969" y2="174.2969"/><line style="stroke:#181818;stroke-width:0.5;" x1="1257.87" x2="1370.87" y1="184.2969" y2="184.2969"/><line style="stroke:#181818;stroke-width:0.5;" x1="1370.87" x2="1370.87" y1="184.2969" y2="236.8906"/><text fill="#000000" font-family="sans-serif" font-size="14" lengthAdjust="spacing" textLength="53" x="1287.87" y="207.292">SAE 1.4</text><text fill="#000000" font-family="sans-serif" font-size="14" lengthAdjust="spacing" textLength="83" x="1272.87" y="223.5889">Création BD</text></g><!--MD5=[cbc102692a25a9d75da07bd812b0c4e3]
entity sae15--><g id="elem_sae15"><polygon fill="#87CEEB" points="734.87,184.2969,744.87,174.2969,925.87,174.2969,925.87,226.8906,915.87,236.8906,734.87,236.8906,734.87,184.2969" style="stroke:#181818;stroke-width:0.5;"/><line style="stroke:#181818;stroke-width:0.5;" x1="915.87" x2="925.87" y1="184.2969" y2="174.2969"/><line style="stroke:#181818;stroke-width:0.5;" x1="734.87" x2="915.87" y1="184.2969" y2="184.2969"/><line style="stroke:#181818;stroke-width:0.5;" x1="915.87" x2="915.87" y1="184.2969" y2="236.8906"/><text fill="#000000" font-family="sans-serif" font-size="14" lengthAdjust="spacing" textLength="53" x="798.87" y="207.292">SAE 1.5</text><a href="" target="_top" title="monsite" xlink:actuate="onRequest" xlink:href="" xlink:show="new" xlink:title="monsite" xlink:type="simple"><text fill="#0000FF" font-family="sans-serif" font-size="14" lengthAdjust="spacing" text-decoration="underline" textLength="151" x="749.87" y="223.5889">/but1/1.1/master.html</text></a></g><!--MD5=[94ac2d62d2a83b25c4bf0a4c59f99025]
entity sae16--><g id="elem_sae16"><polygon fill="#87CEEB" points="963.87,184.2969,973.87,174.2969,1138.87,174.2969,1138.87,226.8906,1128.87,236.8906,963.87,236.8906,963.87,184.2969" style="stroke:#181818;stroke-width:0.5;"/><line style="stroke:#181818;stroke-width:0.5;" x1="1128.87" x2="1138.87" y1="184.2969" y2="174.2969"/><line style="stroke:#181818;stroke-width:0.5;" x1="963.87" x2="1128.87" y1="184.2969" y2="184.2969"/><line style="stroke:#181818;stroke-width:0.5;" x1="1128.87" x2="1128.87" y1="184.2969" y2="236.8906"/><text fill="#000000" font-family="sans-serif" font-size="14" lengthAdjust="spacing" textLength="53" x="1019.87" y="207.292">SAE 1.6</text><text fill="#000000" font-family="sans-serif" font-size="14" lengthAdjust="spacing" textLength="135" x="978.87" y="223.5889">Environnement éco</text></g><!--MD5=[cbf2a705c8c36a956106bd646f097c75]
entity r--><g id="elem_r"><rect fill="#FFFFE0" height="36.2969" rx="35" ry="35" style="stroke:#181818;stroke-width:0.5;" width="95" x="1483.87" y="52.7969"/><text fill="#000000" font-family="sans-serif" font-size="14" lengthAdjust="spacing" textLength="75" x="1493.87" y="75.792">Ressource</text></g><!--MD5=[d8322213e5f4465576b8bf70cd9bce59]
entity s--><g id="elem_s"><polygon fill="#87CEEB" points="1497.87,192.7969,1507.87,182.7969,1564.87,182.7969,1564.87,219.0938,1554.87,229.0938,1497.87,229.0938,1497.87,192.7969" style="stroke:#181818;stroke-width:0.5;"/><line style="stroke:#181818;stroke-width:0.5;" x1="1554.87" x2="1564.87" y1="192.7969" y2="182.7969"/><line style="stroke:#181818;stroke-width:0.5;" x1="1497.87" x2="1554.87" y1="192.7969" y2="192.7969"/><line style="stroke:#181818;stroke-width:0.5;" x1="1554.87" x2="1554.87" y1="192.7969" y2="229.0938"/><text fill="#000000" font-family="sans-serif" font-size="14" lengthAdjust="spacing" textLength="27" x="1512.87" y="215.792">SAÉ</text></g><!--MD5=[bc3f007aea2e9a35d24dd78be8a76800]
reverse link sae15 to sae11--><g id="link_sae15_sae11"><path d="M782.83,240.3269 C751.63,262.3269 710.73,291.1769 678.16,314.1569 " fill="none" id="sae15-backto-sae11" style="stroke:#000000;stroke-width:1.0;stroke-dasharray:7.0,7.0;"/><polygon fill="#000000" points="786.98,237.4069,777.3211,239.3318,782.896,240.2914,781.9363,245.8663,786.98,237.4069" style="stroke:#000000;stroke-width:1.0;"/></g><!--MD5=[882665abb3dd31801972e8044fc9f1e8]
reverse link sae11 to sae12--><g id="link_sae11_sae12"><path d="M578.98,396.8769 C561.16,412.1069 539.8,428.4569 518.37,440.2969 C490.23,455.8369 457.4,468.3469 427.6,477.8669 " fill="none" id="sae11-backto-sae12" style="stroke:#000000;stroke-width:1.0;stroke-dasharray:7.0,7.0;"/><polygon fill="#000000" points="582.95,393.4369,573.5188,396.2745,579.1598,396.6979,578.7364,402.3389,582.95,393.4369" style="stroke:#000000;stroke-width:1.0;"/></g><!--MD5=[e22b674726aba1f5cf4c0ffba046556c]
link r11 to sae11--><g id="link_r11_sae11"><path d="M471.76,232.3369 C486.32,242.9969 503.27,255.5869 518.37,267.2969 C536.27,281.1769 555.56,296.7169 572.67,310.6969 " fill="none" id="r11-to-sae11" style="stroke:#000000;stroke-width:1.0;"/><polygon fill="#000000" points="576.97,314.2169,572.5232,305.4291,573.0951,311.0569,567.4673,311.6289,576.97,314.2169" style="stroke:#000000;stroke-width:1.0;"/><text fill="#000000" font-family="sans-serif" font-size="13" lengthAdjust="spacing" textLength="20" x="540.37" y="280.3638">2/2</text></g><!--MD5=[771e650061340fe56649b555a9a15e65]
link r11 to sae12--><g id="link_r11_sae12"><path d="M442.71,232.3169 C450.61,269.2769 460.64,339.1969 439.37,393.2969 C428.04,422.1069 404.96,447.7769 383.82,466.7969 " fill="none" id="r11-to-sae12" style="stroke:#000000;stroke-width:1.0;"/><polygon fill="#000000" points="379.9,470.2669,389.2898,467.2951,383.6433,466.9522,383.9862,461.3057,379.9,470.2669" style="stroke:#000000;stroke-width:1.0;"/><text fill="#000000" font-family="sans-serif" font-size="13" lengthAdjust="spacing" textLength="20" x="453.37" y="358.3638">2/2</text></g><!--MD5=[d83a422d616334b251cb6f8ae412ed6b]
link r12 to sae15--><g id="link_r12_sae15"><path d="M880.42,97.4369 C870.89,117.8769 857.44,146.7169 846.89,169.3669 " fill="none" id="r12-to-sae15" style="stroke:#000000;stroke-width:1.0;"/><polygon fill="#000000" points="844.68,174.0969,852.1118,167.6341,846.7952,169.5663,844.8629,164.2497,844.68,174.0969" style="stroke:#000000;stroke-width:1.0;"/><text fill="#000000" font-family="sans-serif" font-size="13" lengthAdjust="spacing" textLength="20" x="866.37" y="140.3638">0/2</text></g><!--MD5=[47243e58f1a54596dcc96bd84e6fcd53]
link r12 to sae16--><g id="link_r12_sae16"><path d="M929.93,97.3669 C942.72,106.4569 956.92,117.0069 969.37,127.2969 C985.52,140.6469 1002.48,156.3669 1016.77,170.1469 " fill="none" id="r12-to-sae16" style="stroke:#000000;stroke-width:1.0;"/><polygon fill="#000000" points="1020.72,173.9769,1017.0548,164.8354,1017.1348,170.4917,1011.4785,170.5717,1020.72,173.9769" style="stroke:#000000;stroke-width:1.0;"/><text fill="#000000" font-family="sans-serif" font-size="13" lengthAdjust="spacing" textLength="20" x="989.37" y="140.3638">0/2</text></g><!--MD5=[e02f712c29f069960f6e1829a298cbc4]
link r13 to sae13--><g id="link_r13_sae13"><path d="M424.87,97.4369 C462.35,118.5569 515.76,148.6569 556.49,171.6169 " fill="none" id="r13-to-sae13" style="stroke:#000000;stroke-width:1.0;"/><polygon fill="#000000" points="560.89,174.0969,555.0155,166.1918,556.5348,171.6408,551.0858,173.1601,560.89,174.0969" style="stroke:#000000;stroke-width:1.0;"/><text fill="#000000" font-family="sans-serif" font-size="13" lengthAdjust="spacing" textLength="20" x="506.37" y="140.3638">3/0</text></g><!--MD5=[e6e85c36fc7e19466c0dc99f80c65c76]
link r14 to sae13--><g id="link_r14_sae13"><path d="M536.7,97.2969 C542.51,111.6769 550.71,129.6269 560.37,144.2969 C566.21,153.1569 573.33,162.0069 580.48,170.0869 " fill="none" id="r14-to-sae13" style="stroke:#000000;stroke-width:1.0;"/><polygon fill="#000000" points="583.99,173.9969,580.9425,164.6314,580.6452,170.2804,574.9961,169.9831,583.99,173.9969" style="stroke:#000000;stroke-width:1.0;"/><text fill="#000000" font-family="sans-serif" font-size="13" lengthAdjust="spacing" textLength="20" x="561.37" y="140.3638">2/0</text></g><!--MD5=[f70158d1e6576c4c52697264a68a4b20]
link r15 to sae14--><g id="link_r15_sae14"><path d="M1370.22,97.4369 C1360.54,117.8769 1346.88,146.7169 1336.15,169.3669 " fill="none" id="r15-to-sae14" style="stroke:#000000;stroke-width:1.0;"/><polygon fill="#000000" points="1333.91,174.0969,1341.383,167.6817,1336.0541,169.5799,1334.1559,164.2511,1333.91,174.0969" style="stroke:#000000;stroke-width:1.0;"/><text fill="#000000" font-family="sans-serif" font-size="13" lengthAdjust="spacing" textLength="20" x="1356.37" y="140.3638">2/2</text></g><!--MD5=[82db2c419d53366c6d726b11d8a72f30]
link r16 to sae12--><g id="link_r16_sae12"><path d="M187.02,380.5669 C217.52,404.6369 263.24,440.7169 296.63,467.0669 " fill="none" id="r16-to-sae12" style="stroke:#000000;stroke-width:1.0;"/><polygon fill="#000000" points="300.64,470.2369,296.068,461.5135,296.7204,467.1326,291.1012,467.7849,300.64,470.2369" style="stroke:#000000;stroke-width:1.0;"/><text fill="#000000" font-family="sans-serif" font-size="13" lengthAdjust="spacing" textLength="7" x="259.37" y="436.3638">x</text></g><!--MD5=[d9de3a0b9aeaae962593cac5878678f9]
link r17 to sae12--><g id="link_r17_sae12"><path d="M339.37,380.5669 C339.37,404.0469 339.37,438.9569 339.37,465.1269 " fill="none" id="r17-to-sae12" style="stroke:#000000;stroke-width:1.0;"/><polygon fill="#000000" points="339.37,470.2369,343.37,461.2369,339.37,465.2369,335.37,461.2369,339.37,470.2369" style="stroke:#000000;stroke-width:1.0;"/><text fill="#000000" font-family="sans-serif" font-size="13" lengthAdjust="spacing" textLength="7" x="340.37" y="436.3638">x</text></g><!--MD5=[0280c8038c67eb650e301907d50360f7]
link r18 to sae15--><g id="link_r18_sae15"><path d="M1005.75,97.3969 C983.84,105.8669 960.21,116.0369 939.37,127.2969 C916.29,139.7669 892.36,156.3169 872.82,170.9269 " fill="none" id="r18-to-sae15" style="stroke:#000000;stroke-width:1.0;"/><polygon fill="#000000" points="868.46,174.2069,878.06,172.0069,872.46,171.2069,873.26,165.6069,868.46,174.2069" style="stroke:#000000;stroke-width:1.0;"/><text fill="#000000" font-family="sans-serif" font-size="13" lengthAdjust="spacing" textLength="20" x="940.37" y="140.3638">4/0</text></g><!--MD5=[5c815fe65c1987dc8e52df82cef34889]
link r18 to sae16--><g id="link_r18_sae16"><path d="M1075.59,97.4369 C1071,117.7969 1064.52,146.4769 1059.43,169.0769 " fill="none" id="r18-to-sae16" style="stroke:#000000;stroke-width:1.0;"/><polygon fill="#000000" points="1058.29,174.0969,1064.1741,166.1989,1059.3913,169.2197,1056.3706,164.4369,1058.29,174.0969" style="stroke:#000000;stroke-width:1.0;"/><text fill="#000000" font-family="sans-serif" font-size="13" lengthAdjust="spacing" textLength="7" x="1069.37" y="140.3638">x</text></g><!--MD5=[2f5e44754ea22a4434289056cd6fcccf]
link r19 to sae14--><g id="link_r19_sae14"><path d="M1252.37,97.4369 C1265.18,117.9669 1283.28,146.9569 1297.43,169.6469 " fill="none" id="r19-to-sae14" style="stroke:#000000;stroke-width:1.0;"/><polygon fill="#000000" points="1300.21,174.0969,1298.8468,164.3428,1297.5664,169.8529,1292.0564,168.5725,1300.21,174.0969" style="stroke:#000000;stroke-width:1.0;"/><text fill="#000000" font-family="sans-serif" font-size="13" lengthAdjust="spacing" textLength="20" x="1281.37" y="140.3638">2/0</text></g><!--MD5=[a01a34fbf7a4599f338c4cefb204b803]
link r19 to sae16--><g id="link_r19_sae16"><path d="M1200.7,97.4369 C1171.56,118.3869 1130.13,148.1769 1098.3,171.0569 " fill="none" id="r19-to-sae16" style="stroke:#000000;stroke-width:1.0;"/><polygon fill="#000000" points="1094.07,174.0969,1103.7086,172.0727,1098.1241,171.1705,1099.0263,165.586,1094.07,174.0969" style="stroke:#000000;stroke-width:1.0;"/><text fill="#000000" font-family="sans-serif" font-size="13" lengthAdjust="spacing" textLength="7" x="1156.37" y="140.3638">x</text></g><!--MD5=[127651c5b30928ef2d37f7fc9fa3ed32]
link r110 to sae12--><g id="link_r110_sae12"><path d="M98.25,97.3969 C68.27,155.5669 6,299.8569 69.37,393.2969 C108.69,451.2769 184.78,477.9869 246.19,490.2869 " fill="none" id="r110-to-sae12" style="stroke:#000000;stroke-width:1.0;"/><polygon fill="#000000" points="251.34,491.2969,243.2707,485.6501,246.4322,490.341,241.7413,493.5025,251.34,491.2969" style="stroke:#000000;stroke-width:1.0;"/><text fill="#000000" font-family="sans-serif" font-size="13" lengthAdjust="spacing" textLength="7" x="44.37" y="280.3638">x</text></g><!--MD5=[12af6f8472c7a84b986bee58814de1a1]
link r110 to sae13--><g id="link_r110_sae13"><path d="M184.04,88.4469 C265.61,107.7269 402.68,141.0969 519.37,174.2969 C523.42,175.4469 527.56,176.6569 531.73,177.8969 " fill="none" id="r110-to-sae13" style="stroke:#000000;stroke-width:1.0;"/><polygon fill="#000000" points="536.64,179.3569,529.1549,172.9558,531.8477,177.9306,526.8729,180.6234,536.64,179.3569" style="stroke:#000000;stroke-width:1.0;"/><text fill="#000000" font-family="sans-serif" font-size="13" lengthAdjust="spacing" textLength="20" x="409.37" y="140.3638">0/2</text></g><!--MD5=[0df309e124857728dbc27e3cd88c7d0b]
link r111 to sae13--><g id="link_r111_sae13"><path d="M681.7,97.4269 C674.3,106.6169 666.18,117.2069 659.37,127.2969 C650.35,140.6669 641.39,155.9969 633.92,169.4669 " fill="none" id="r111-to-sae13" style="stroke:#000000;stroke-width:1.0;"/><polygon fill="#000000" points="631.45,173.9669,639.3026,168.0224,633.8673,169.59,632.2996,164.1547,631.45,173.9669" style="stroke:#000000;stroke-width:1.0;"/><text fill="#000000" font-family="sans-serif" font-size="13" lengthAdjust="spacing" textLength="20" x="660.37" y="140.3638">0/2</text></g><!--MD5=[5e68ba0ac68b96dff35ac5ddc6e8b70f]
link r111 to sae15--><g id="link_r111_sae15"><path d="M717.9,97.4069 C726.83,111.9769 739.08,130.1069 752.37,144.2969 C761.16,153.6869 771.5,162.7669 781.72,170.9169 " fill="none" id="r111-to-sae15" style="stroke:#000000;stroke-width:1.0;"/><polygon fill="#000000" points="785.79,174.1069,781.1872,165.3997,781.8594,171.0165,776.2426,171.6887,785.79,174.1069" style="stroke:#000000;stroke-width:1.0;"/><text fill="#000000" font-family="sans-serif" font-size="13" lengthAdjust="spacing" textLength="7" x="753.37" y="140.3638">x</text></g><!--MD5=[7099522ca0b4d66d5e87bf2dcad56c9e]
link r111 to sae16--><g id="link_r111_sae16"><path d="M742.07,97.3969 C766.57,112.7069 799.36,131.5869 830.37,144.2969 C878.45,164.0069 893.25,160.5669 943.37,174.2969 C948.3,175.6469 953.36,177.0469 958.46,178.4569 " fill="none" id="r111-to-sae16" style="stroke:#000000;stroke-width:1.0;"/><polygon fill="#000000" points="963.58,179.8769,955.9856,173.6059,958.7638,178.5335,953.8362,181.3117,963.58,179.8769" style="stroke:#000000;stroke-width:1.0;"/><text fill="#000000" font-family="sans-serif" font-size="13" lengthAdjust="spacing" textLength="20" x="831.37" y="140.3638">0/4</text></g><!--MD5=[83f07c80460ebf22ea7152e1bc3b1282]
link r to s--><g id="link_r_s"><path d="M1531.37,88.9169 C1531.37,111.2769 1531.37,150.7069 1531.37,177.2869 " fill="none" id="r-to-s" style="stroke:#000000;stroke-width:1.0;"/><polygon fill="#000000" points="1531.37,182.4269,1535.37,173.4269,1531.37,177.4269,1527.37,173.4269,1531.37,182.4269" style="stroke:#000000;stroke-width:1.0;"/><text fill="#000000" font-family="sans-serif" font-size="13" lengthAdjust="spacing" textLength="36" x="1532.37" y="140.3638">TD/TP</text></g><!--MD5=[2ae7b8e40c25d26afa11fe18c7d2db71]
@startuml
!define BLUE Skyblue
!define YELLOW Lightyellow
!define GREEN Lightgreen

skinparam defaultTextAlignment center

skinparam storage {
  BackgroundColor YELLOW
}

skinparam node {
  BackgroundColor BLUE
}

skinparam rectangle {
  BackgroundColor GREEN
  BorderColor Black
}

skinparam arrow {
    Color<<ac>> Black
}

skinparam package {
	BackgroundColor empty
	BorderColor DarkSlateGray
	ArrowColor Black
	FontColor Black
	FontSize 12
	FontName TrebuchetMS
}
skinparam roundcorner 10

skinparam class {
	BackgroundColor AliceBlue
	BorderColor DarkSlateGray
	ArrowColor Black
	FontColor Black
	FontSize 12
	FontName TrebuchetMS
}
skinparam arrow {
    MessageAlign center
}

'- - - - - - - - - - - Ressources
storage "R1.01\nInitiation au dev." as r11
storage "R1.02\nDev. interfaces web" as r12
storage "R1.03\nIntro. archi." as r13
storage "R1.04\nIntro. systèmes " as r14
storage "R1.05\nIntroduction BD " as r15
storage "R1.06\nMaths discrètes " as r16
storage "R1.07\nOutils fondamentaux " as r17
storage "R1.08\nGestion proj. orga. " as r18
storage "R1.09\nÉconomie" as r19
storage "R1.10\nAnglais technique" as r110
storage "R1.11\nBases de la comm " as r111

'- - - - - - - - - - - SAÉs
node "SAE 1.1\nImplémentation\nbesoin client" as sae11
node "SAE 1.2\nComparaison d'algo" as sae12
node "SAE 1.3\nInstallation poste" as sae13
node "SAE 1.4\nCréation BD" as sae14
node "SAE 1.5\n[[{monsite}/but1/1.1/master.html]]" as sae15
node "SAE 1.6\nEnvironnement éco" as sae16


'- - - - - - - - - - - Chronologie des SAÉ

sae15 <.. sae11
sae11 <.. sae12

'- - - - - - - - - - - Graphe
title Info - S1 v.0.1



r11 - -> sae11 : 2/2
r11 - -> sae12 : 2/2
r12 - -> sae15 : 0/2
r12 - -> sae16 : 0/2
r13 - -> sae13 : 3/0
r14 - -> sae13 : 2/0
r15 - -> sae14 : 2/2
r16 - -> sae12 : x
r17 - -> sae12 : x
r18 - -> sae15 : 4/0
r18 - -> sae16 : x
r19 - -> sae14 : 2/0
r19 - -> sae16 : x
r110 - -> sae12 : x
r110 - -> sae13 : 0/2
r111 - -> sae13 : 0/2
r111 - -> sae15 : x
r111 - -> sae16 : 0/4

'- - - Legend- - -
storage Ressource as r
node SAÉ as s
r - -> s : TD/TP

' Astuce cachée pour mettre la 14 à gauche de la 15
'sae14 -[hidden]> sae15
@enduml

@startuml

skinparam defaultTextAlignment center

skinparam storage {
  BackgroundColor Lightyellow
}

skinparam node {
  BackgroundColor Skyblue
}

skinparam rectangle {
  BackgroundColor Lightgreen
  BorderColor Black
}

skinparam arrow {
    Color<<ac>> Black
}

skinparam package {
	BackgroundColor empty
	BorderColor DarkSlateGray
	ArrowColor Black
	FontColor Black
	FontSize 12
	FontName TrebuchetMS
}
skinparam roundcorner 10

skinparam class {
	BackgroundColor AliceBlue
	BorderColor DarkSlateGray
	ArrowColor Black
	FontColor Black
	FontSize 12
	FontName TrebuchetMS
}
skinparam arrow {
    MessageAlign center
}

storage "R1.01\nInitiation au dev." as r11
storage "R1.02\nDev. interfaces web" as r12
storage "R1.03\nIntro. archi." as r13
storage "R1.04\nIntro. systèmes " as r14
storage "R1.05\nIntroduction BD " as r15
storage "R1.06\nMaths discrètes " as r16
storage "R1.07\nOutils fondamentaux " as r17
storage "R1.08\nGestion proj. orga. " as r18
storage "R1.09\nÉconomie" as r19
storage "R1.10\nAnglais technique" as r110
storage "R1.11\nBases de la comm " as r111

node "SAE 1.1\nImplémentation\nbesoin client" as sae11
node "SAE 1.2\nComparaison d'algo" as sae12
node "SAE 1.3\nInstallation poste" as sae13
node "SAE 1.4\nCréation BD" as sae14
node "SAE 1.5\n[[{monsite}/but1/1.1/master.html]]" as sae15
node "SAE 1.6\nEnvironnement éco" as sae16



sae15 <.. sae11
sae11 <.. sae12

title Info - S1 v.0.1



r11 - -> sae11 : 2/2
r11 - -> sae12 : 2/2
r12 - -> sae15 : 0/2
r12 - -> sae16 : 0/2
r13 - -> sae13 : 3/0
r14 - -> sae13 : 2/0
r15 - -> sae14 : 2/2
r16 - -> sae12 : x
r17 - -> sae12 : x
r18 - -> sae15 : 4/0
r18 - -> sae16 : x
r19 - -> sae14 : 2/0
r19 - -> sae16 : x
r110 - -> sae12 : x
r110 - -> sae13 : 0/2
r111 - -> sae13 : 0/2
r111 - -> sae15 : x
r111 - -> sae16 : 0/4

storage Ressource as r
node SAÉ as s
r - -> s : TD/TP

@enduml

PlantUML version 1.2022.12(Sun Oct 23 18:12:26 GMT 2022)
(GPL source distribution)
Java Runtime: OpenJDK Runtime Environment
JVM: OpenJDK 64-Bit Server VM
Default Encoding: UTF-8
Language: en
Country: US
--></g></svg>